<svg width="97" height="96" viewBox="0 0 97 96" fill="none" xmlns="http://www.w3.org/2000/svg">
<path fill-rule="evenodd" clip-rule="evenodd" d="M53.3151 48.2982C53.1503 47.7712 53.4441 47.2102 53.9713 47.0456L82.9169 38L54.2695 29.0476L46.5677 31.4544C46.0407 31.6192 45.4797 31.3254 45.3151 30.7982C45.1503 30.2712 45.4441 29.7102 45.9713 29.5456L53.9713 27.0456C54.1655 26.9848 54.3735 26.9848 54.5677 27.0456L86.5677 37.0456C86.9853 37.176 87.2695 37.5626 87.2695 38C87.2695 38.4374 86.9853 38.824 86.5677 38.9544L54.5677 48.9544C54.0407 49.1192 53.4797 48.8254 53.3151 48.2982Z" fill="url(#paint0_linear)"/>
<path fill-rule="evenodd" clip-rule="evenodd" d="M86.2695 37C85.7173 37 85.2695 37.4478 85.2695 38V73.2648L53.9713 83.0456C53.4441 83.2102 53.1503 83.7712 53.3151 84.2982C53.4797 84.8254 54.0407 85.1192 54.5677 84.9544L86.5677 74.9544C86.9853 74.824 87.2695 74.4374 87.2695 74V38C87.2695 37.4478 86.8217 37 86.2695 37Z" fill="url(#paint1_linear)"/>
<path fill-rule="evenodd" clip-rule="evenodd" d="M41.3151 43.9518C41.4797 43.4246 42.0407 43.1308 42.5677 43.2956L54.5677 47.0456C54.9853 47.176 55.2695 47.5626 55.2695 48V84C55.2695 84.3182 55.1181 84.6172 54.8619 84.8056C54.6055 84.9942 54.2749 85.0494 53.9713 84.9544L21.9713 74.9544C21.5537 74.824 21.2695 74.4374 21.2695 74V54C21.2695 53.4478 21.7173 53 22.2695 53C22.8217 53 23.2695 53.4478 23.2695 54V73.2648L53.2695 82.6398V48.7352L41.9713 45.2044C41.4441 45.0398 41.1503 44.4788 41.3151 43.9518Z" fill="url(#paint2_linear)"/>
<path fill-rule="evenodd" clip-rule="evenodd" d="M47.3148 34.2018C47.4796 33.6746 48.0406 33.3808 48.5676 33.5456L72.5676 41.0456C72.9852 41.176 73.2694 41.5626 73.2694 42V51C73.2694 51.5522 72.8216 52 72.2694 52C71.717 52 71.2694 51.5522 71.2694 51V42.7352L47.9712 35.4544C47.444 35.2898 47.1502 34.7288 47.3148 34.2018Z" fill="url(#paint3_linear)"/>
<path fill-rule="evenodd" clip-rule="evenodd" d="M25.7149 11.168L25.7107 11.1707L25.6935 11.182L25.6219 11.2289C25.5577 11.2706 25.4611 11.3327 25.3351 11.4123C25.0829 11.5716 24.7127 11.8007 24.2457 12.0763C23.3107 12.6281 21.9927 13.3637 20.4617 14.0985C17.3647 15.5851 13.5344 17 10.2695 17C9.71725 17 9.26953 17.4477 9.26953 18C9.26953 27.0994 10.7842 33.794 13.6541 38.751C16.5383 43.7328 20.7351 46.8632 25.8981 48.9284C26.1365 49.0238 26.4025 49.0238 26.6409 48.9284C37.1489 44.7252 43.2695 34.2504 43.2695 18C43.2695 17.4477 42.8217 17 42.2695 17C39.0047 17 35.1743 15.5851 32.0773 14.0985C30.5463 13.3637 29.2283 12.6281 28.2933 12.0763C27.8263 11.8007 27.4561 11.5716 27.2039 11.4123C27.0779 11.3327 26.9813 11.2706 26.9171 11.2289L26.8455 11.182L26.8283 11.1707L26.8247 11.1683C26.8247 11.1683 26.8247 11.1683 26.8247 11.1683C26.4887 10.9445 26.0507 10.9441 25.7149 11.168ZM26.2695 13.1873C26.0127 13.348 25.6725 13.5565 25.2621 13.7987C24.2907 14.372 22.9213 15.1364 21.3273 15.9015C18.4548 17.2803 14.7383 18.7186 11.2755 18.9636C11.3794 27.3582 12.8508 33.3718 15.385 37.749C17.9332 42.1504 21.6083 44.9874 26.2683 46.9198C35.3495 43.106 41.0293 33.9364 41.2621 18.9635C37.7997 18.7182 34.0839 17.2801 31.2117 15.9015C29.6177 15.1364 28.2483 14.372 27.2769 13.7987C26.8665 13.5565 26.5263 13.348 26.2695 13.1873Z" fill="url(#paint4_linear)"/>
<path fill-rule="evenodd" clip-rule="evenodd" d="M32.8835 25.2106C33.3193 25.5498 33.3979 26.178 33.0589 26.614L26.0589 35.614C25.8827 35.8404 25.6179 35.9802 25.3317 35.998C25.0453 36.0158 24.7653 35.91 24.5623 35.7072L19.5624 30.7072C19.1719 30.3166 19.1719 29.6834 19.5624 29.2928C19.953 28.9024 20.5861 28.9024 20.9767 29.2928L25.1757 33.4918L31.4801 25.386C31.8193 24.9502 32.4475 24.8716 32.8835 25.2106Z" fill="url(#paint5_linear)"/>
<defs>
<linearGradient id="paint0_linear" x1="66.2694" y1="27" x2="66.2694" y2="49.0002" gradientUnits="userSpaceOnUse">
<stop stop-color="#7AB9C3"/>
<stop offset="1" stop-color="#D7AC6C"/>
</linearGradient>
<linearGradient id="paint1_linear" x1="70.2694" y1="37" x2="70.2694" y2="85.0002" gradientUnits="userSpaceOnUse">
<stop stop-color="#7AB9C3"/>
<stop offset="1" stop-color="#D7AC6C"/>
</linearGradient>
<linearGradient id="paint2_linear" x1="38.2695" y1="43.2498" x2="38.2695" y2="85" gradientUnits="userSpaceOnUse">
<stop stop-color="#7AB9C3"/>
<stop offset="1" stop-color="#D7AC6C"/>
</linearGradient>
<linearGradient id="paint3_linear" x1="60.2692" y1="33.4998" x2="60.2692" y2="52" gradientUnits="userSpaceOnUse">
<stop stop-color="#7AB9C3"/>
<stop offset="1" stop-color="#D7AC6C"/>
</linearGradient>
<linearGradient id="paint4_linear" x1="26.2695" y1="11.0002" x2="26.2695" y2="49" gradientUnits="userSpaceOnUse">
<stop stop-color="#7DBFC6"/>
<stop offset="1" stop-color="#D7AC6C"/>
</linearGradient>
<linearGradient id="paint5_linear" x1="26.2695" y1="25" x2="26.2695" y2="36" gradientUnits="userSpaceOnUse">
<stop stop-color="#7DBFC6"/>
<stop offset="1" stop-color="#D7AC6C"/>
</linearGradient>
</defs>
</svg>
