<svg width="78" height="79" viewBox="0 0 78 79" fill="none" xmlns="http://www.w3.org/2000/svg">
<path fill-rule="evenodd" clip-rule="evenodd" d="M11.1944 3.28125C11.1944 1.48632 12.6309 0.03125 14.4028 0.03125H61.4583C63.2302 0.03125 64.6667 1.48632 64.6667 3.28125V50.9479C64.6667 52.7428 63.2302 54.1979 61.4583 54.1979H14.4028C12.6309 54.1979 11.1944 52.7428 11.1944 50.9479V3.28125ZM14.4028 2.19792C13.8122 2.19792 13.3333 2.68295 13.3333 3.28125V50.9479C13.3333 51.5461 13.8122 52.0312 14.4028 52.0312H61.4583C62.0489 52.0312 62.5278 51.5461 62.5278 50.9479V3.28125C62.5278 2.68295 62.0489 2.19792 61.4583 2.19792H14.4028Z" fill="url(#paint0_linear)"/>
<path fill-rule="evenodd" clip-rule="evenodd" d="M28.3056 1.11458C28.3056 0.51628 28.7845 0.03125 29.375 0.03125H46.4861C47.0767 0.03125 47.5556 0.51628 47.5556 1.11458V16.2812C47.5556 16.6567 47.3637 17.0054 47.0484 17.2027C46.7332 17.4001 46.3394 17.4181 46.0079 17.2502L42.2083 15.3258L38.4088 17.2502C38.1077 17.4027 37.7535 17.4027 37.4523 17.2502L33.6528 15.3258L29.8533 17.2502C29.5217 17.4181 29.128 17.4001 28.8127 17.2027C28.4974 17.0054 28.3056 16.6567 28.3056 16.2812V1.11458ZM30.4444 2.19792V14.5284L33.1745 13.1457C33.4757 12.9931 33.8299 12.9931 34.131 13.1457L37.9306 15.0701L41.7301 13.1457C42.0312 12.9931 42.3854 12.9931 42.6866 13.1457L45.4167 14.5284V2.19792H30.4444Z" fill="url(#paint1_linear)"/>
<path fill-rule="evenodd" clip-rule="evenodd" d="M13.3333 70.4479C13.3333 69.8497 13.8122 69.3646 14.4028 69.3646H29.375C29.9655 69.3646 30.4444 69.8497 30.4444 70.4479C30.4444 71.0461 29.9655 71.5312 29.375 71.5312H14.4028C13.8122 71.5312 13.3333 71.0461 13.3333 70.4479Z" fill="url(#paint2_linear)"/>
<path fill-rule="evenodd" clip-rule="evenodd" d="M45.4167 70.4479C45.4167 69.8497 45.8956 69.3646 46.4861 69.3646H59.3194C59.91 69.3646 60.3889 69.8497 60.3889 70.4479C60.3889 71.0461 59.91 71.5312 59.3194 71.5312H46.4861C45.8956 71.5312 45.4167 71.0461 45.4167 70.4479Z" fill="url(#paint3_linear)"/>
<path fill-rule="evenodd" clip-rule="evenodd" d="M5.84722 67.1979C4.0753 67.1979 2.63889 68.6531 2.63889 70.4479C2.63889 72.2428 4.0753 73.6979 5.84722 73.6979C7.61914 73.6979 9.05556 72.2428 9.05556 70.4479C9.05556 68.6531 7.61914 67.1979 5.84722 67.1979ZM0.5 70.4479C0.5 67.4564 2.89404 65.0312 5.84722 65.0312C8.80039 65.0312 11.1944 67.4564 11.1944 70.4479C11.1944 73.4394 8.80039 75.8646 5.84722 75.8646C2.89404 75.8646 0.5 73.4394 0.5 70.4479Z" fill="url(#paint4_linear)"/>
<path fill-rule="evenodd" clip-rule="evenodd" d="M37.9306 67.1979C36.1587 67.1979 34.7222 68.6531 34.7222 70.4479C34.7222 72.2428 36.1587 73.6979 37.9306 73.6979C39.7024 73.6979 41.1389 72.2428 41.1389 70.4479C41.1389 68.6531 39.7024 67.1979 37.9306 67.1979ZM32.5833 70.4479C32.5833 67.4564 34.9774 65.0312 37.9306 65.0312C40.8837 65.0312 43.2778 67.4564 43.2778 70.4479C43.2778 73.4394 40.8837 75.8646 37.9306 75.8646C34.9774 75.8646 32.5833 73.4394 32.5833 70.4479Z" fill="url(#paint5_linear)"/>
<path fill-rule="evenodd" clip-rule="evenodd" d="M68.8833 63.9568C69.08 64.5208 68.7883 65.1398 68.2313 65.3391C66.1532 66.0834 64.6667 68.0912 64.6667 70.4479C64.6667 73.4394 67.0607 75.8646 70.0139 75.8646C72.3404 75.8646 74.3225 74.3588 75.0572 72.2536C75.2539 71.6894 75.865 71.3937 76.4218 71.5932C76.9788 71.7925 77.2705 72.4116 77.0737 72.9755C76.0466 75.9194 73.275 78.0312 70.0139 78.0312C65.8794 78.0312 62.5278 74.6361 62.5278 70.4479C62.5278 67.1444 64.6126 64.3368 67.5187 63.2964C68.0754 63.0971 68.6865 63.3926 68.8833 63.9568Z" fill="url(#paint6_linear)"/>
<path fill-rule="evenodd" clip-rule="evenodd" d="M77.1869 65.3484C77.6044 65.7716 77.6044 66.4576 77.1869 66.8807L71.8396 72.2974C71.4219 72.7203 70.7447 72.7203 70.327 72.2974L68.1881 70.1307C67.7706 69.7076 67.7706 69.0216 68.1881 68.5984C68.6059 68.1755 69.283 68.1755 69.7008 68.5984L71.0833 69.9992L75.6742 65.3484C76.092 64.9255 76.7691 64.9255 77.1869 65.3484Z" fill="url(#paint7_linear)"/>
<defs>
<linearGradient id="paint0_linear" x1="39" y1="0.03125" x2="39" y2="78.0312" gradientUnits="userSpaceOnUse">
<stop stop-color="#7AB9C3"/>
<stop offset="1" stop-color="#D7AC6C"/>
</linearGradient>
<linearGradient id="paint1_linear" x1="39" y1="0.03125" x2="39" y2="78.0312" gradientUnits="userSpaceOnUse">
<stop stop-color="#7AB9C3"/>
<stop offset="1" stop-color="#D7AC6C"/>
</linearGradient>
<linearGradient id="paint2_linear" x1="39" y1="0.03125" x2="39" y2="78.0312" gradientUnits="userSpaceOnUse">
<stop stop-color="#7AB9C3"/>
<stop offset="1" stop-color="#D7AC6C"/>
</linearGradient>
<linearGradient id="paint3_linear" x1="39" y1="0.03125" x2="39" y2="78.0312" gradientUnits="userSpaceOnUse">
<stop stop-color="#7AB9C3"/>
<stop offset="1" stop-color="#D7AC6C"/>
</linearGradient>
<linearGradient id="paint4_linear" x1="39" y1="0.03125" x2="39" y2="78.0312" gradientUnits="userSpaceOnUse">
<stop stop-color="#7AB9C3"/>
<stop offset="1" stop-color="#D7AC6C"/>
</linearGradient>
<linearGradient id="paint5_linear" x1="39" y1="0.03125" x2="39" y2="78.0312" gradientUnits="userSpaceOnUse">
<stop stop-color="#7AB9C3"/>
<stop offset="1" stop-color="#D7AC6C"/>
</linearGradient>
<linearGradient id="paint6_linear" x1="39" y1="0.03125" x2="39" y2="78.0312" gradientUnits="userSpaceOnUse">
<stop stop-color="#7AB9C3"/>
<stop offset="1" stop-color="#D7AC6C"/>
</linearGradient>
<linearGradient id="paint7_linear" x1="39" y1="0.03125" x2="39" y2="78.0312" gradientUnits="userSpaceOnUse">
<stop stop-color="#7AB9C3"/>
<stop offset="1" stop-color="#D7AC6C"/>
</linearGradient>
</defs>
</svg>
