<svg width="30" height="30" viewBox="0 0 30 30" fill="none" xmlns="http://www.w3.org/2000/svg">
<path d="M26.7813 19.6944V7.75C26.7813 7.02894 26.4948 6.33742 25.985 5.82755C25.4751 5.31769 24.7836 5.03125 24.0625 5.03125H5.93753C5.21647 5.03125 4.52495 5.31769 4.01508 5.82755C3.50522 6.33742 3.21878 7.02894 3.21878 7.75V19.6944C2.61941 19.9119 2.11555 20.3331 1.79527 20.8844C1.47499 21.4357 1.35867 22.0821 1.46664 22.7105C1.57461 23.3389 1.90001 23.9093 2.38594 24.3221C2.87188 24.7349 3.48745 24.9638 4.12503 24.9688H25.875C26.5126 24.9638 27.1282 24.7349 27.6141 24.3221C28.1001 23.9093 28.4255 23.3389 28.5334 22.7105C28.6414 22.0821 28.5251 21.4357 28.2048 20.8844C27.8845 20.3331 27.3806 19.9119 26.7813 19.6944ZM5.93753 6.84375H24.0625C24.3029 6.84375 24.5334 6.93923 24.7034 7.10918C24.8733 7.27914 24.9688 7.50965 24.9688 7.75V19.5312H5.03128V7.75C5.03128 7.50965 5.12676 7.27914 5.29672 7.10918C5.46667 6.93923 5.69718 6.84375 5.93753 6.84375ZM25.875 23.1562H4.12503C3.88468 23.1562 3.65417 23.0608 3.48422 22.8908C3.31426 22.7209 3.21878 22.4904 3.21878 22.25C3.21878 22.0096 3.31426 21.7791 3.48422 21.6092C3.65417 21.4392 3.88468 21.3438 4.12503 21.3438H25.875C26.1154 21.3438 26.3459 21.4392 26.5159 21.6092C26.6858 21.7791 26.7813 22.0096 26.7813 22.25C26.7813 22.4904 26.6858 22.7209 26.5159 22.8908C26.3459 23.0608 26.1154 23.1562 25.875 23.1562Z" fill="#D7AC6C"/>
</svg>
