<svg width="23" height="25" viewBox="0 0 23 25" fill="none" xmlns="http://www.w3.org/2000/svg">
<g clip-path="url(#clip0)">
<path d="M21.8501 19.4024H19.3336C19.3351 19.3776 19.3474 19.3568 19.3474 19.332V16.7908C19.3474 16.128 18.8326 15.5908 18.1974 15.5908H15.6809C15.6824 15.566 15.6946 15.5452 15.6946 15.5201V12.9789C15.6946 12.3161 15.1798 11.7789 14.5447 11.7789H8.45624C7.82105 11.7789 7.30626 12.3161 7.30626 12.9789V15.5201C7.30626 15.5453 7.31852 15.566 7.32005 15.5908H4.80352C4.16834 15.5908 3.65354 16.128 3.65354 16.7908V19.332C3.65354 19.3572 3.66581 19.3779 3.66734 19.4024H1.15041C0.515223 19.4024 0.000427246 19.9395 0.000427246 20.6023V23.1435C0.000427246 23.8063 0.515223 24.3435 1.15041 24.3435H21.85C22.4852 24.3435 23 23.8063 23 23.1435V20.6023C23.0001 19.9396 22.4852 19.4024 21.8501 19.4024ZM18.1973 16.7908V19.332H12.109V16.7908H18.1973ZM8.45624 12.9789H14.5442V15.5201H8.45624V12.9789ZM4.80352 16.7908H10.8915V19.332H4.80352V16.7908ZM7.23843 23.1435H1.15041V20.6024H7.23838V23.1435H7.23843ZM14.5443 23.1435H8.45624V20.6024H14.5442V23.1435H14.5443ZM21.8501 23.1435H15.7621V20.6024H21.85V23.1435H21.8501Z" fill="#D7AC6C"/>
<path d="M16.1944 0.695645C15.8659 0.353229 15.3725 0.250059 14.9432 0.434462L8.03105 3.40441C7.88847 3.46563 7.76157 3.5552 7.65578 3.66559C7.49748 3.83078 7.3863 4.04316 7.34107 4.2788C7.26555 4.6724 7.38361 5.0788 7.65538 5.36277L9.28184 7.05994L8.67194 7.69635L6.11054 7.31475C5.93153 7.28794 5.75023 7.35075 5.62257 7.48434L4.80954 8.33271C4.36028 7.86393 3.63234 7.86393 3.18308 8.33271L0.336881 11.3027C-0.112375 11.7715 -0.112375 12.531 0.336881 12.9998L1.15031 13.8474C1.59957 14.3162 2.32751 14.3162 2.77677 13.8474L5.62297 10.8775C6.07223 10.4087 6.07223 9.64908 5.62297 9.18029L6.23286 8.54388L8.79426 8.92548C8.97327 8.9523 9.15458 8.88949 9.28224 8.75589L10.0953 7.90752L11.7217 9.60469C11.9935 9.88828 12.3834 10.0115 12.7605 9.93267C12.9863 9.88547 13.1898 9.76945 13.3482 9.60469C13.454 9.4943 13.5399 9.36188 13.5985 9.21311L16.4447 2.00081C16.6214 1.55283 16.5229 1.03806 16.1944 0.695645ZM1.96338 12.999L1.15036 12.1507L3.99656 9.18072L4.80958 10.0291L1.96338 12.999ZM12.5343 8.75632L10.9079 7.05914L12.1276 5.78637C12.3522 5.55195 12.3522 5.17236 12.1276 4.93799C11.903 4.70362 11.5392 4.70362 11.3146 4.93799L10.0949 6.21077L8.46881 4.51402L15.3806 1.54407L12.5343 8.75632Z" fill="#D7AC6C"/>
</g>
<defs>
<clipPath id="clip0">
<rect width="23" height="24" fill="white" transform="translate(0 0.34375)"/>
</clipPath>
</defs>
</svg>
