<svg width="28" height="27" viewBox="0 0 28 27" fill="none" xmlns="http://www.w3.org/2000/svg">
<path d="M26.3925 2.37303C26.3925 1.73917 26.1457 1.14327 25.6974 0.695086C25.2492 0.246848 24.6533 0 24.0195 0C23.3857 0 22.7897 0.246848 22.3415 0.695086L17.9551 5.0815V3.95505C17.9551 3.5182 17.6009 3.16404 17.1641 3.16404H12.1543V0.791009C12.1543 0.354161 11.8002 0 11.3633 0H8.19929C7.76244 0 7.40828 0.354161 7.40828 0.791009V3.16404H2.39855C1.96171 3.16404 1.60754 3.5182 1.60754 3.95505V19.8807C1.60754 20.3176 1.96171 20.6717 2.39855 20.6717H5.51977L4.45629 23.8622C4.45597 23.8631 4.4556 23.8641 4.45534 23.8651L3.75745 25.9587C3.61929 26.3731 3.84331 26.8211 4.25774 26.9592C4.34075 26.9869 4.42507 27 4.50802 27C4.83919 27 5.14784 26.7903 5.25837 26.4589L5.78117 24.8904H13.7814L14.3042 26.4589C14.4148 26.7904 14.7233 27 15.0546 27C15.1375 27 15.2219 26.9869 15.3048 26.9592C15.7193 26.8211 15.9432 26.3731 15.8051 25.9587L15.1072 23.8651C15.1069 23.8641 15.1065 23.8631 15.1063 23.8622L14.0428 20.6717H17.164C17.6009 20.6717 17.955 20.3176 17.955 19.8807V11.7934L25.6974 4.05097C26.1457 3.60278 26.3925 3.00689 26.3925 2.37303ZM14.9947 12.5165C14.8655 12.2883 14.7039 12.0746 14.5109 11.8816C14.3179 11.6886 14.1042 11.527 13.876 11.3978L18.0534 7.22049L19.172 8.33914L14.9947 12.5165ZM12.1055 12.657C12.223 12.6252 12.3415 12.6097 12.4586 12.6097C12.8047 12.6097 13.1377 12.7457 13.3923 13.0003C13.7329 13.341 13.8613 13.822 13.7355 14.2871C13.6097 14.7521 13.2565 15.103 12.7906 15.2256L10.587 15.8055L11.1669 13.6019C11.2895 13.136 11.6403 12.7827 12.1055 12.657ZM8.9903 1.58202H10.5723V3.16404H8.9903V1.58202ZM13.2541 23.3084H6.30851L7.18743 20.6717H12.3752L13.2541 23.3084ZM16.3731 19.0897H12.9315C12.9306 19.0897 12.9297 19.0897 12.9289 19.0897H6.63335C6.63288 19.0897 6.63241 19.0897 6.63193 19.0897H3.18956V4.74606H16.3731V6.66352L11.9673 11.0692C11.8756 11.085 11.7839 11.1051 11.6926 11.1298C10.674 11.4051 9.9055 12.1788 9.63698 13.1992L8.71197 16.7142C8.64041 16.9862 8.71867 17.2759 8.91763 17.4748C9.06792 17.6251 9.26989 17.7065 9.47698 17.7065C9.54401 17.7065 9.61166 17.698 9.67821 17.6805L13.1931 16.7555C14.2137 16.487 14.9872 15.7185 15.2626 14.6999C15.2873 14.6086 15.3074 14.5169 15.3232 14.4252L16.3729 13.3754V19.0897H16.3731ZM24.5788 2.93232L20.2906 7.22054L19.172 6.1019L23.4602 1.81373C23.6096 1.66434 23.8082 1.58202 24.0195 1.58202C24.2307 1.58202 24.4294 1.66434 24.5788 1.81373C24.7282 1.96313 24.8105 2.16178 24.8105 2.37303C24.8105 2.58428 24.7282 2.78293 24.5788 2.93232Z" fill="#D7AC6C"/>
</svg>
