<svg width="28" height="27" viewBox="0 0 28 27" fill="none" xmlns="http://www.w3.org/2000/svg">
<g clip-path="url(#clip0)">
<path d="M23.4744 10.0195H21.365C20.9281 10.0195 20.574 10.3737 20.574 10.8105C20.574 11.2474 20.9281 11.6016 21.365 11.6016H21.6287V14.502C21.6287 15.2289 21.0372 15.8203 20.3103 15.8203H16.3552V14.2383H17.5363C18.198 14.2383 18.8345 13.959 19.2826 13.4721C19.7306 12.9851 19.9561 12.3276 19.9011 11.6682L19.1101 2.17598C19.0084 0.955811 17.9696 0 16.7452 0H11.2191C9.99472 0 8.95591 0.955811 8.85423 2.17598L8.06322 11.6682C8.00827 12.3276 8.23371 12.9851 8.68179 13.4721C9.12988 13.959 9.76633 14.2383 10.4281 14.2383H11.6091V15.8203H7.65405C6.92711 15.8203 6.33569 15.2289 6.33569 14.502V11.6016H6.59937C7.03622 11.6016 7.39038 11.2474 7.39038 10.8105C7.39038 10.3737 7.03622 10.0195 6.59937 10.0195H4.48999C4.05314 10.0195 3.69897 10.3737 3.69897 10.8105C3.69897 11.2474 4.05314 11.6016 4.48999 11.6016H4.75366V14.502C4.75366 16.1012 6.05478 17.4023 7.65405 17.4023H8.44507V18.1934C8.44507 19.5019 9.50962 20.5664 10.8181 20.5664H13.1912V22.4748L8.98597 23.8765C8.66291 23.9842 8.44507 24.2864 8.44507 24.627V26.209C8.44507 26.6458 8.79923 27 9.23608 27C9.67294 27 10.0271 26.6458 10.0271 26.209V25.1971L13.1912 24.1424V25.6816C13.1912 26.1185 13.5453 26.4727 13.9822 26.4727C14.419 26.4727 14.7732 26.1185 14.7732 25.6816V24.1424L17.9373 25.1971V26.209C17.9373 26.6458 18.2914 27 18.7283 27C19.1651 27 19.5193 26.6458 19.5193 26.209V24.627C19.5193 24.2864 19.3014 23.9842 18.9784 23.8765L14.7732 22.4748V20.5664H17.1462C18.4547 20.5664 19.5193 19.5019 19.5193 18.1934V17.4023H20.3103C21.9096 17.4023 23.2107 16.1012 23.2107 14.502V11.6016H23.4744C23.9112 11.6016 24.2654 11.2474 24.2654 10.8105C24.2654 10.3737 23.9112 10.0195 23.4744 10.0195ZM10.4281 12.6562C10.2043 12.6562 9.99752 12.5655 9.84596 12.4009C9.6944 12.2361 9.6212 12.0226 9.63977 11.7996L10.4308 2.30739C10.4647 1.90065 10.811 1.58203 11.2191 1.58203H16.7452C17.1534 1.58203 17.4997 1.90065 17.5335 2.30734L18.3245 11.7995C18.3432 12.0225 18.2699 12.2361 18.1183 12.4008C17.9668 12.5655 17.7601 12.6562 17.5362 12.6562H10.4281V12.6562ZM14.7732 14.2383V15.8203H13.1912V14.2383H14.7732ZM17.9373 18.1934C17.9373 18.6295 17.5824 18.9844 17.1462 18.9844H10.8181C10.3819 18.9844 10.0271 18.6295 10.0271 18.1934V17.4023H17.9373V18.1934Z" fill="#D7AC6C"/>
</g>
<defs>
<clipPath id="clip0">
<rect width="27" height="27" fill="white" transform="translate(0.482178)"/>
</clipPath>
</defs>
</svg>
