<svg width="30" height="30" viewBox="0 0 30 30" fill="none" xmlns="http://www.w3.org/2000/svg">
<g clip-path="url(#clip0)">
<g clip-path="url(#clip1)">
<path d="M11.4087 8.64723L10.678 7.05798L9.08799 7.78896L9.8186 9.37821L11.4087 8.64723Z" fill="#D7AC6C"/>
<path d="M13.9778 5.54163L12.2672 6.32913L12.9987 7.91813L14.0294 7.44475L15.8888 8.17975L4.97582 13.2714L3.29669 12.3719L5.04669 11.5695L4.31694 9.97788L0.455566 11.7506V16.9131L5.70557 19.63V15.6488L9.20557 17.523V21.8569L14.0119 24.1468L28.4556 16.9254V11.2641L13.9778 5.54163ZM3.95557 16.7565L2.20557 15.8553V13.7736L3.95557 14.7108V16.7565ZM8.96232 15.4064L6.90257 14.303L18.1306 9.06438L20.5263 10.0111L8.96232 15.4064ZM13.1273 21.7878L10.9556 20.7553V18.461L13.1273 19.6248V21.7878ZM14.0023 18.1075L10.8873 16.4389L22.7681 10.8966L25.5016 11.9773L14.0023 18.1075ZM26.7056 15.8439L14.8773 21.758V19.6256L26.7056 13.3177V15.8439Z" fill="#D7AC6C"/>
<path d="M8.22719 10.1077L7.49658 8.51843L5.90653 9.24941L6.63714 10.8387L8.22719 10.1077Z" fill="#D7AC6C"/>
</g>
</g>
<defs>
<clipPath id="clip0">
<rect width="29" height="29" fill="white" transform="translate(0.455566 0.844238)"/>
</clipPath>
<clipPath id="clip1">
<rect width="28" height="28" fill="white" transform="translate(0.455566 0.844238)"/>
</clipPath>
</defs>
</svg>
