<svg width="27" height="27" viewBox="0 0 27 27" fill="none" xmlns="http://www.w3.org/2000/svg">
<g clip-path="url(#clip0)">
<path d="M23.3133 9.37606L20.7647 8.41276C21.6862 7.62206 22.0796 6.36788 21.7975 5.17608C21.2431 2.83452 18.4939 1.94562 16.757 3.54015L14.9973 5.15551L14.6492 2.7329C14.305 0.347773 11.6459 -0.799727 9.77532 0.621464C8.83998 1.33206 8.34242 2.55703 8.56307 3.80082L6.1602 2.89263C4.97801 2.4457 3.66587 3.08105 3.2355 4.30886L2.195 7.27765C2.05134 7.68755 2.25487 8.14086 2.64964 8.28999C2.80975 8.35048 14.367 12.7188 14.5367 12.7829C14.0557 12.7829 3.52211 12.7829 3.05868 12.7829C2.63862 12.7829 2.29808 13.1365 2.29808 13.5728V24.6305C2.29808 25.9371 3.32168 27 4.57984 27H10.6645H13.7069H19.7916C21.0498 27 22.0734 25.9371 22.0734 24.6305V15.6316L22.6618 15.854C23.0547 16.0026 23.4923 15.7935 23.6366 15.3819L24.6772 12.4131C25.1074 11.1853 24.4956 9.82293 23.3133 9.37606ZM9.90389 25.4204H4.57978C4.16038 25.4204 3.81918 25.0661 3.81918 24.6305V14.3626H9.90389V25.4204ZM12.9462 25.4204H11.4251V14.3626H12.9462V25.4204ZM17.7644 4.72372C18.6467 3.91367 20.0397 4.36808 20.3203 5.55329C20.6196 6.81696 19.4434 7.91268 18.2661 7.46844C17.2648 7.08997 16.7956 6.91262 15.7929 6.53362L17.7644 4.72372ZM10.6734 1.89648C11.6241 1.17433 12.9706 1.76032 13.1449 2.96714L13.5349 5.68006C13.2541 5.57396 11.338 4.84965 11.0619 4.74535C9.88455 4.30011 9.66218 2.66461 10.6734 1.89648ZM11.0317 9.7771L3.88459 7.07568L4.665 4.84913C4.80845 4.43986 5.24583 4.22818 5.63989 4.37705C6.4397 4.67932 11.8256 6.71503 12.0723 6.80826L11.0317 9.7771ZM13.8906 10.8577L12.4612 10.3174L13.5017 7.34863L14.9312 7.88895L13.8906 10.8577ZM20.5521 24.6305C20.5521 25.0661 20.2109 25.4204 19.7915 25.4204H14.4675V14.3626H18.7161L20.5522 15.0566V24.6305H20.5521ZM23.2476 11.8728L22.4672 14.0994L15.3201 11.3979L16.3606 8.42916L22.793 10.8604C23.1872 11.0093 23.391 11.4635 23.2476 11.8728Z" fill="#D7AC6C"/>
</g>
<defs>
<clipPath id="clip0">
<rect width="26" height="27" fill="white" transform="translate(0.481934)"/>
</clipPath>
</defs>
</svg>
