<svg width="34" height="35" viewBox="0 0 34 35" fill="none" xmlns="http://www.w3.org/2000/svg">
<path d="M9.91663 14.6751H7.08329C6.70757 14.6751 6.34723 14.5259 6.08156 14.2602C5.81588 13.9945 5.66663 13.6342 5.66663 13.2585C5.66663 12.8827 5.81588 12.5224 6.08156 12.2567C6.34723 11.9911 6.70757 11.8418 7.08329 11.8418H9.91663C10.2923 11.8418 10.6527 11.9911 10.9184 12.2567C11.184 12.5224 11.3333 12.8827 11.3333 13.2585C11.3333 13.6342 11.184 13.9945 10.9184 14.2602C10.6527 14.5259 10.2923 14.6751 9.91663 14.6751Z" fill="#0E2A4E"/>
<path d="M31.2658 8.82223C30.8678 8.60959 30.4196 8.50877 29.9688 8.53047C29.5181 8.55217 29.0816 8.69559 28.7059 8.94548L24.0833 12.0267V10.4514C24.0822 9.50529 23.7058 8.59826 23.0368 7.92927C22.3678 7.26027 21.4608 6.88394 20.5147 6.88281H4.98521C4.03911 6.88394 3.13208 7.26027 2.46308 7.92927C1.79409 8.59826 1.41775 9.50529 1.41663 10.4514V24.5642C1.41775 25.5103 1.79409 26.4174 2.46308 27.0864C3.13208 27.7554 4.03911 28.1317 4.98521 28.1328H20.5147C21.4608 28.1317 22.3678 27.7554 23.0368 27.0864C23.7058 26.4174 24.0822 25.5103 24.0833 24.5642V22.9889L28.7059 26.0701C29.0816 26.3203 29.518 26.4638 29.9689 26.4855C30.4197 26.5071 30.8679 26.4061 31.2658 26.1931C31.6638 25.9801 31.9964 25.6632 32.2284 25.276C32.4605 24.8889 32.5831 24.4461 32.5833 23.9947V11.0209C32.583 10.5695 32.4603 10.1267 32.2283 9.73954C31.9963 9.35237 31.6637 9.03536 31.2658 8.82223ZM21.25 24.5642C21.25 24.7592 21.1725 24.9462 21.0346 25.0841C20.8967 25.222 20.7097 25.2995 20.5147 25.2995H4.98521C4.79021 25.2995 4.6032 25.222 4.46531 25.0841C4.32742 24.9462 4.24996 24.7592 4.24996 24.5642V10.4514C4.24996 10.2564 4.32742 10.0694 4.46531 9.9315C4.6032 9.79361 4.79021 9.71615 4.98521 9.71615H20.5147C20.7097 9.71615 20.8967 9.79361 21.0346 9.9315C21.1725 10.0694 21.25 10.2564 21.25 10.4514V24.5642ZM29.75 23.3615L24.0833 19.5832V15.4324L29.75 11.6541V23.3615Z" fill="#0E2A4E"/>
</svg>
