<svg width="63" height="63" viewBox="0 0 63 63" fill="none" xmlns="http://www.w3.org/2000/svg">
<path fill-rule="evenodd" clip-rule="evenodd" d="M62.4891 31.091C62.4891 48.5146 48.6906 61.9935 32.2115 62.4748C14.527 62.9927 0.0168926 48.8931 1.54719e-05 31.281C-0.0168617 13.9812 13.776 0.215199 30.6363 0.00269886C48.398 -0.221059 62.3554 13.4957 62.4891 31.091ZM14.2387 31.6384H14.226C14.226 32.3035 14.2203 32.969 14.2145 33.6345V33.6346C14.2007 35.2207 14.187 36.807 14.2514 38.3892C14.3048 39.7106 14.4398 41.0729 14.828 42.3268C15.9841 46.0645 19.4917 48.4611 23.801 48.5047C28.6504 48.5554 33.5026 48.5709 38.3519 48.4949C41.335 48.4484 43.9495 47.4211 45.8384 44.9682C47.2335 43.1556 47.8495 41.0616 47.865 38.8043C47.8974 34.0913 47.8889 29.3797 47.8749 24.6667C47.872 23.9209 47.8158 23.1624 47.6766 22.4292C46.8074 17.8597 43.2702 14.8411 38.6093 14.7538C35.9522 14.7036 33.2943 14.7145 30.6368 14.7253C29.9437 14.7282 29.2506 14.731 28.5576 14.7327C28.0039 14.7339 27.4485 14.7232 26.893 14.7125H26.893C25.4503 14.6848 24.0066 14.657 22.5901 14.8369C17.4805 15.4856 14.3189 19.16 14.2443 24.3248C14.2202 25.9971 14.2265 27.6708 14.2329 29.3449V29.345C14.2358 30.1094 14.2387 30.8739 14.2387 31.6384ZM31.2268 45.0229C30.4764 45.0229 29.7261 45.0273 28.9758 45.0316H28.9755C27.3113 45.0413 25.6475 45.0509 23.9851 45.0131C20.1498 44.9244 17.5971 42.5095 17.5099 38.6761C17.3988 33.7295 17.4438 28.7787 17.5071 23.8321C17.5197 22.8526 17.787 21.8239 18.1625 20.9105C19.0345 18.7954 20.8094 17.7399 22.9964 17.5922C25.0361 17.4532 27.0868 17.459 29.1359 17.4647H29.136H29.1362C29.619 17.4661 30.1016 17.4675 30.584 17.4669C31.2222 17.4663 31.8606 17.4622 32.499 17.458H32.4992C34.7214 17.4436 36.9442 17.4292 39.1576 17.5626C42.5893 17.7695 44.9465 20.2801 44.9943 23.7068C45.0632 28.7252 45.0646 33.745 44.9971 38.7633C44.9479 42.3885 42.4374 44.8921 38.8187 45.0004C37.0735 45.0529 35.3264 45.0396 33.5791 45.0264H33.579L33.5776 45.0264C32.7935 45.0204 32.0094 45.0145 31.2254 45.0145C31.2268 45.0159 31.2268 45.0187 31.2268 45.0229ZM31.1944 39.8146C36.1057 39.7822 39.972 35.9586 39.9424 31.1654C39.9143 26.4004 35.9496 22.543 31.1072 22.5697C26.3774 22.5951 22.5294 26.5115 22.5519 31.2752C22.5758 35.9741 26.4942 39.847 31.1944 39.8146ZM40.2082 24.1853C41.3446 24.1811 42.2138 23.3184 42.2222 22.1884C42.2307 21.0358 41.3081 20.114 40.1731 20.1408C39.0606 20.1675 38.1788 21.078 38.19 22.1898C38.2013 23.3254 39.0746 24.1881 40.2082 24.1853ZM31.3115 36.8452C34.3578 36.8115 36.8387 34.2966 36.8275 31.2541C36.8162 28.1468 34.3381 25.6489 31.2622 25.6433C28.199 25.6376 25.6534 28.1778 25.6618 31.233C25.6703 34.3529 28.2145 36.8804 31.3115 36.8452Z" fill="#0E2A4E"/>
</svg>
