<svg width="63" height="63" viewBox="0 0 63 63" fill="none" xmlns="http://www.w3.org/2000/svg">
<path d="M31.4834 0C14.2273 0 0.238892 13.9884 0.238892 31.2445C0.238892 48.5006 14.2273 62.489 31.4834 62.489C48.7395 62.489 62.7279 48.5006 62.7279 31.2445C62.7279 13.9884 48.7395 0 31.4834 0ZM23.835 44.1947H17.508V23.8337H23.835V44.1947ZM20.6324 21.3341C18.6341 21.3341 17.342 19.9184 17.342 18.1674C17.342 16.3806 18.6731 15.0071 20.7138 15.0071C22.7545 15.0071 24.0042 16.3806 24.0433 18.1674C24.0433 19.9184 22.7545 21.3341 20.6324 21.3341ZM46.9429 44.1947H40.6159V32.9109C40.6159 30.2844 39.6981 28.5009 37.4101 28.5009C35.6624 28.5009 34.6241 29.7083 34.1652 30.8702C33.996 31.2836 33.9537 31.8694 33.9537 32.452V44.1915H27.6234V30.3267C27.6234 27.7848 27.542 25.6596 27.4574 23.8304H32.9545L33.2442 26.6587H33.3711C34.2043 25.3308 36.2449 23.3715 39.659 23.3715C43.8217 23.3715 46.9429 26.1608 46.9429 32.1558V44.1947Z" fill="#0E2A4E"/>
</svg>
