<svg width="16" height="25" viewBox="0 0 16 25" fill="none" xmlns="http://www.w3.org/2000/svg">
<path d="M8.13767 11.6215C10.3057 11.6215 12.0695 9.85682 12.0695 7.68773C12.0695 5.51864 10.3057 3.75398 8.13767 3.75398C5.96968 3.75398 4.20586 5.51864 4.20586 7.68773C4.20586 9.85682 5.96968 11.6215 8.13767 11.6215ZM8.13767 5.16004C9.53074 5.16004 10.6641 6.29399 10.6641 7.68773C10.6641 9.08151 9.53079 10.2155 8.13767 10.2155C6.74454 10.2155 5.61122 9.08151 5.61122 7.68773C5.61122 6.29399 6.74459 5.16004 8.13767 5.16004Z" fill="#949494"/>
<path d="M3.85659 14.7564C4.92161 16.1991 4.49373 15.638 7.56138 20.0206C7.8402 20.4205 8.43312 20.4224 8.71353 20.0212C11.795 15.6178 11.3711 16.1755 12.4187 14.7563C13.48 13.3186 14.5775 11.8319 15.1789 10.0897C16.0493 7.56782 15.6731 5.07253 14.1195 3.06346C14.1195 3.06346 14.1195 3.06342 14.1195 3.06342C12.6964 1.22362 10.4602 0.125244 8.13767 0.125244C5.81513 0.125244 3.57894 1.22362 2.15583 3.06351C0.602306 5.07257 0.226047 7.56792 1.09652 10.0898C1.69783 11.8319 2.79531 13.3186 3.85659 14.7564ZM3.26728 3.92395C4.42613 2.42578 6.24686 1.53131 8.13767 1.53131C10.0285 1.53131 11.8492 2.42578 13.0081 3.92395L13.008 3.9239C14.2619 5.5454 14.561 7.57218 13.8505 9.63084C13.3193 11.1697 12.2868 12.5684 11.2883 13.921C10.5108 14.9742 10.7435 14.652 8.13767 18.3898C5.53453 14.6558 5.76426 14.9738 4.98705 13.921C3.98855 12.5684 2.95604 11.1696 2.42486 9.63084C1.71431 7.57214 2.01347 5.5454 3.26728 3.92395Z" fill="#949494"/>
<path d="M4.43372 17.8049C4.22648 17.4767 3.7925 17.3786 3.4644 17.586L1.46646 18.8487C1.03061 19.1242 1.03019 19.7617 1.46646 20.0375L7.76244 24.0166C7.99165 24.1615 8.28377 24.1614 8.51294 24.0166L14.8089 20.0375C15.2448 19.762 15.2452 19.1244 14.8089 18.8487L12.811 17.586C12.4828 17.3787 12.0489 17.4767 11.8417 17.8049C11.6344 18.1332 11.7324 18.5674 12.0605 18.7748L13.118 19.4431L8.13767 22.5907L3.15742 19.4431L4.21491 18.7748C4.54301 18.5675 4.64096 18.1333 4.43372 17.8049Z" fill="#949494"/>
</svg>
