<svg width="35" height="36" viewBox="0 0 35 36" fill="none" xmlns="http://www.w3.org/2000/svg">
<g clip-path="url(#clip0)">
<path d="M29.8602 6.09879C26.5458 2.78432 22.1562 0.958984 17.5 0.958984C12.8438 0.958984 8.45421 2.78432 5.1398 6.09879C1.82533 9.41319 0 13.8028 0 18.459C0 23.1151 1.82533 27.5048 5.1398 30.8192C8.45421 34.1337 12.8438 35.959 17.5 35.959C22.1562 35.959 26.5458 34.1337 29.8602 30.8192C33.1747 27.5048 35 23.1151 35 18.459C35 13.8028 33.1747 9.41319 29.8602 6.09879ZM17.5 33.9082C8.98126 33.9082 2.05078 26.9777 2.05078 18.459C2.05078 9.94024 8.98126 3.00977 17.5 3.00977C26.0187 3.00977 32.9492 9.94024 32.9492 18.459C32.9492 26.9777 26.0187 33.9082 17.5 33.9082Z" fill="#213957"/>
<path d="M17.5 5.12891C10.1498 5.12891 4.16992 11.1088 4.16992 18.459C4.16992 25.8092 10.1498 31.7891 17.5 31.7891C24.8502 31.7891 30.8301 25.8092 30.8301 18.459C30.8301 11.1088 24.8502 5.12891 17.5 5.12891ZM17.5 29.7383C11.2806 29.7383 6.2207 24.6784 6.2207 18.459C6.2207 12.2396 11.2806 7.17969 17.5 7.17969C23.7194 7.17969 28.7793 12.2396 28.7793 18.459C28.7793 24.6784 23.7194 29.7383 17.5 29.7383Z" fill="#213957"/>
<path d="M20.5762 15.3731C20.5762 15.9394 21.0353 16.3985 21.6016 16.3985C22.1679 16.3985 22.627 15.9394 22.627 15.3731C22.627 14.2375 22.0396 13.1457 21.0154 12.3776C20.3159 11.8529 19.4552 11.5025 18.5254 11.3534V10.2461C18.5254 9.6798 18.0663 9.2207 17.5 9.2207C16.9337 9.2207 16.4746 9.6798 16.4746 10.2461V11.3534C15.5447 11.5025 14.684 11.8529 13.9846 12.3776C12.9604 13.1457 12.373 14.2375 12.373 15.3731C12.373 16.5087 12.9604 17.6005 13.9846 18.3686C14.6841 18.8933 15.5448 19.2438 16.4746 19.3929V23.454C15.2934 23.1653 14.4238 22.3988 14.4238 21.5255C14.4238 20.9592 13.9647 20.5001 13.3984 20.5001C12.8321 20.5001 12.373 20.9592 12.373 21.5255C12.373 22.661 12.9604 23.7528 13.9846 24.521C14.6841 25.0456 15.5448 25.3961 16.4746 25.5452V26.6628C16.4746 27.2291 16.9337 27.6882 17.5 27.6882C18.0663 27.6882 18.5254 27.2291 18.5254 26.6628V25.5452C19.4553 25.3961 20.316 25.0456 21.0154 24.521C22.0396 23.7529 22.627 22.661 22.627 21.5255C22.627 20.3899 22.0396 19.298 21.0154 18.53C20.3159 18.0053 19.4552 17.6548 18.5254 17.5057V13.4446C19.7066 13.7333 20.5762 14.4998 20.5762 15.3731ZM14.4238 15.3731C14.4238 14.4998 15.2934 13.7332 16.4746 13.4446V17.3016C15.2934 17.013 14.4238 16.2464 14.4238 15.3731ZM20.5762 21.5255C20.5762 22.3988 19.7066 23.1653 18.5254 23.454V19.597C19.7066 19.8857 20.5762 20.6522 20.5762 21.5255Z" fill="#213957"/>
</g>
<defs>
<clipPath id="clip0">
<rect width="35" height="35" fill="white" transform="translate(0 0.958984)"/>
</clipPath>
</defs>
</svg>
