<svg width="59" height="59" viewBox="0 0 59 59" fill="none" xmlns="http://www.w3.org/2000/svg">
<g clip-path="url(#clip0)">
<path d="M29.5417 58.2832C29.3508 58.2832 29.1574 58.2373 28.9834 58.1455L1.21112 43.6455C0.812368 43.4376 0.561035 43.0244 0.561035 42.5749V15.3874C0.561035 14.9693 0.778535 14.5802 1.13379 14.3603C1.48903 14.1404 1.93612 14.121 2.30828 14.3071L30.0806 28.203C30.489 28.4084 30.7476 28.8265 30.7476 29.2832V57.0749C30.7476 57.4978 30.5277 57.8893 30.1652 58.1092C29.9767 58.2252 29.7592 58.2832 29.5417 58.2832ZM2.9777 41.8426L28.3334 55.0811V30.03L2.9777 17.3425V41.8426Z" fill="#D7AC6C"/>
<path d="M29.5804 58.2832C29.3629 58.2832 29.1454 58.2252 28.9545 58.1092C28.5944 57.8893 28.3721 57.4978 28.3721 57.0748V29.2832C28.3721 28.8264 28.6307 28.4083 29.0391 28.2029L56.8114 14.3071C57.1812 14.1186 57.6307 14.1379 57.9859 14.3603C58.3436 14.5802 58.5611 14.9693 58.5611 15.3873V42.5748C58.5611 43.0243 58.3098 43.4376 57.911 43.6454L30.1387 58.1454C29.9647 58.2373 29.7713 58.2832 29.5804 58.2832ZM30.7887 30.0299V55.0811L56.1444 41.8426V17.3424L30.7887 30.0299ZM57.3527 42.5748H57.3769H57.3527Z" fill="#D7AC6C"/>
<path d="M1.76871 16.596C1.32404 16.596 0.898706 16.3519 0.68604 15.929C0.386373 15.3321 0.630456 14.6071 1.22737 14.3074L29.0384 0.411604C29.3791 0.242437 29.7803 0.242437 30.1186 0.411604L57.891 14.3074C58.4879 14.6071 58.7295 15.3321 58.4323 15.929C58.1326 16.5259 57.41 16.7652 56.8107 16.4704L29.5797 2.84277L2.31004 16.4679C2.13604 16.5549 1.95237 16.596 1.76871 16.596Z" fill="#D7AC6C"/>
<path d="M44.0611 36.5332C43.3941 36.5332 42.8528 35.9919 42.8528 35.3249V22.78L15.7474 9.21762C15.1505 8.92037 14.9088 8.19296 15.2085 7.59604C15.5082 6.99912 16.2332 6.75987 16.8301 7.05471L44.6024 20.9505C45.0108 21.1584 45.2694 21.5765 45.2694 22.0332V35.3249C45.2694 35.9919 44.7281 36.5332 44.0611 36.5332Z" fill="#D7AC6C"/>
</g>
<defs>
<clipPath id="clip0">
<rect width="58" height="58" fill="white" transform="translate(0.561035 0.283203)"/>
</clipPath>
</defs>
</svg>
