<svg width="103" height="62" viewBox="0 0 103 62" fill="none" xmlns="http://www.w3.org/2000/svg">
<path fill-rule="evenodd" clip-rule="evenodd" d="M19.4487 2.11111C19.4487 1.49756 20.0228 1 20.7308 1H66.8846C70.4249 1 73.2949 3.48733 73.2949 6.55556V43.2222C73.2949 43.8358 72.7208 44.3333 72.0128 44.3333C71.3049 44.3333 70.7308 43.8358 70.7308 43.2222V6.55556C70.7308 4.71467 69.0087 3.22222 66.8846 3.22222H20.7308C20.0228 3.22222 19.4487 2.72467 19.4487 2.11111ZM9.19231 51C9.19231 50.3864 9.76631 49.8889 10.4744 49.8889H20.7308C21.4387 49.8889 22.0128 50.3864 22.0128 51C22.0128 51.6136 21.4387 52.1111 20.7308 52.1111H10.4744C9.76631 52.1111 9.19231 51.6136 9.19231 51ZM45.0897 51C45.0897 50.3864 45.6638 49.8889 46.3718 49.8889H66.8846C67.5926 49.8889 68.1667 50.3864 68.1667 51C68.1667 51.6136 67.5926 52.1111 66.8846 52.1111H46.3718C45.6638 52.1111 45.0897 51.6136 45.0897 51Z" fill="#D7AC6C"/>
<path fill-rule="evenodd" clip-rule="evenodd" d="M1.5 35.4444C1.5 34.8309 2.074 34.3333 2.78205 34.3333H43.8077C44.5156 34.3333 45.0897 34.8309 45.0897 35.4444C45.0897 36.058 44.5156 36.5556 43.8077 36.5556H2.78205C2.074 36.5556 1.5 36.058 1.5 35.4444Z" fill="#D7AC6C"/>
<path fill-rule="evenodd" clip-rule="evenodd" d="M11.7564 28.7778C11.7564 28.1642 12.3304 27.6667 13.0385 27.6667H48.9359C49.6438 27.6667 50.218 28.1642 50.218 28.7778C50.218 29.3913 49.6438 29.8889 48.9359 29.8889H13.0385C12.3304 29.8889 11.7564 29.3913 11.7564 28.7778Z" fill="#D7AC6C"/>
<path fill-rule="evenodd" clip-rule="evenodd" d="M6.62821 22.1111C6.62821 21.4976 7.20221 21 7.91026 21H43.8077C44.5156 21 45.0897 21.4976 45.0897 22.1111C45.0897 22.7247 44.5156 23.2222 43.8077 23.2222H7.91026C7.20221 23.2222 6.62821 22.7247 6.62821 22.1111Z" fill="#D7AC6C"/>
<path fill-rule="evenodd" clip-rule="evenodd" d="M19.4487 15.4444C19.4487 14.8309 20.0228 14.3333 20.7308 14.3333H46.3718C47.0797 14.3333 47.6538 14.8309 47.6538 15.4444C47.6538 16.058 47.0797 16.5556 46.3718 16.5556H20.7308C20.0228 16.5556 19.4487 16.058 19.4487 15.4444Z" fill="#D7AC6C"/>
<path fill-rule="evenodd" clip-rule="evenodd" d="M70.7308 15.4444C70.7308 14.8309 71.3049 14.3333 72.0128 14.3333H84.5551C86.7654 14.3333 88.8197 15.32 89.991 16.9444L100.526 31.5524C101.162 32.4353 101.5 33.4556 101.5 34.4969V46.5556C101.5 49.6238 98.63 52.1111 95.0897 52.1111H92.5256C91.8177 52.1111 91.2436 51.6136 91.2436 51C91.2436 50.3864 91.8177 49.8889 92.5256 49.8889H95.0897C97.2138 49.8889 98.9359 48.3964 98.9359 46.5556V34.4969C98.9359 33.8722 98.7333 33.26 98.3513 32.7302L87.8167 18.1222C87.1139 17.1476 85.8813 16.5556 84.5551 16.5556H72.0128C71.3049 16.5556 70.7308 16.058 70.7308 15.4444Z" fill="#D7AC6C"/>
<path fill-rule="evenodd" clip-rule="evenodd" d="M33.5513 47.6667C30.011 47.6667 27.141 50.154 27.141 53.2222C27.141 56.2904 30.011 58.7778 33.5513 58.7778C37.0915 58.7778 39.9615 56.2904 39.9615 53.2222C39.9615 50.154 37.0915 47.6667 33.5513 47.6667ZM24.5769 53.2222C24.5769 48.9267 28.5949 45.4444 33.5513 45.4444C38.5077 45.4444 42.5256 48.9267 42.5256 53.2222C42.5256 57.5178 38.5077 61 33.5513 61C28.5949 61 24.5769 57.5178 24.5769 53.2222Z" fill="#D7AC6C"/>
<path fill-rule="evenodd" clip-rule="evenodd" d="M79.7051 47.6667C76.1649 47.6667 73.2949 50.154 73.2949 53.2222C73.2949 56.2904 76.1649 58.7778 79.7051 58.7778C83.2454 58.7778 86.1154 56.2904 86.1154 53.2222C86.1154 50.154 83.2454 47.6667 79.7051 47.6667ZM70.7308 53.2222C70.7308 48.9267 74.7487 45.4444 79.7051 45.4444C84.6615 45.4444 88.6795 48.9267 88.6795 53.2222C88.6795 57.5178 84.6615 61 79.7051 61C74.7487 61 70.7308 57.5178 70.7308 53.2222Z" fill="#D7AC6C"/>
<path fill-rule="evenodd" clip-rule="evenodd" d="M83.0305 18.8124C83.7385 18.8124 84.3126 19.31 84.3126 19.9236V24.368C84.3126 24.9818 84.8864 25.4791 85.5946 25.4791H90.7228C91.4308 25.4791 92.0049 25.9767 92.0049 26.5902C92.0049 27.204 91.4308 27.7013 90.7228 27.7013H85.5946C83.4703 27.7013 81.7485 26.2091 81.7485 24.368V19.9236C81.7485 19.31 82.3223 18.8124 83.0305 18.8124Z" fill="#D7AC6C"/>
<path fill-rule="evenodd" clip-rule="evenodd" d="M1.5 59.8889C1.5 59.2753 2.074 58.7778 2.78205 58.7778H100.218C100.926 58.7778 101.5 59.2753 101.5 59.8889C101.5 60.5024 100.926 61 100.218 61H2.78205C2.074 61 1.5 60.5024 1.5 59.8889Z" fill="#D7AC6C"/>
<path fill-rule="evenodd" clip-rule="evenodd" d="M19.4487 2.11111C19.4487 1.49756 20.0228 1 20.7308 1H66.8846C70.4249 1 73.2949 3.48733 73.2949 6.55556V43.2222C73.2949 43.8358 72.7208 44.3333 72.0128 44.3333C71.3049 44.3333 70.7308 43.8358 70.7308 43.2222V6.55556C70.7308 4.71467 69.0087 3.22222 66.8846 3.22222H20.7308C20.0228 3.22222 19.4487 2.72467 19.4487 2.11111ZM9.19231 51C9.19231 50.3864 9.76631 49.8889 10.4744 49.8889H20.7308C21.4387 49.8889 22.0128 50.3864 22.0128 51C22.0128 51.6136 21.4387 52.1111 20.7308 52.1111H10.4744C9.76631 52.1111 9.19231 51.6136 9.19231 51ZM45.0897 51C45.0897 50.3864 45.6638 49.8889 46.3718 49.8889H66.8846C67.5926 49.8889 68.1667 50.3864 68.1667 51C68.1667 51.6136 67.5926 52.1111 66.8846 52.1111H46.3718C45.6638 52.1111 45.0897 51.6136 45.0897 51Z" stroke="#D7AC6C" stroke-width="2"/>
<path fill-rule="evenodd" clip-rule="evenodd" d="M1.5 35.4444C1.5 34.8309 2.074 34.3333 2.78205 34.3333H43.8077C44.5156 34.3333 45.0897 34.8309 45.0897 35.4444C45.0897 36.058 44.5156 36.5556 43.8077 36.5556H2.78205C2.074 36.5556 1.5 36.058 1.5 35.4444Z" stroke="#D7AC6C" stroke-width="2"/>
<path fill-rule="evenodd" clip-rule="evenodd" d="M11.7564 28.7778C11.7564 28.1642 12.3304 27.6667 13.0385 27.6667H48.9359C49.6438 27.6667 50.218 28.1642 50.218 28.7778C50.218 29.3913 49.6438 29.8889 48.9359 29.8889H13.0385C12.3304 29.8889 11.7564 29.3913 11.7564 28.7778Z" stroke="#D7AC6C" stroke-width="2"/>
<path fill-rule="evenodd" clip-rule="evenodd" d="M6.62821 22.1111C6.62821 21.4976 7.20221 21 7.91026 21H43.8077C44.5156 21 45.0897 21.4976 45.0897 22.1111C45.0897 22.7247 44.5156 23.2222 43.8077 23.2222H7.91026C7.20221 23.2222 6.62821 22.7247 6.62821 22.1111Z" stroke="#D7AC6C" stroke-width="2"/>
<path fill-rule="evenodd" clip-rule="evenodd" d="M19.4487 15.4444C19.4487 14.8309 20.0228 14.3333 20.7308 14.3333H46.3718C47.0797 14.3333 47.6538 14.8309 47.6538 15.4444C47.6538 16.058 47.0797 16.5556 46.3718 16.5556H20.7308C20.0228 16.5556 19.4487 16.058 19.4487 15.4444Z" stroke="#D7AC6C" stroke-width="2"/>
<path fill-rule="evenodd" clip-rule="evenodd" d="M70.7308 15.4444C70.7308 14.8309 71.3049 14.3333 72.0128 14.3333H84.5551C86.7654 14.3333 88.8197 15.32 89.991 16.9444L100.526 31.5524C101.162 32.4353 101.5 33.4556 101.5 34.4969V46.5556C101.5 49.6238 98.63 52.1111 95.0897 52.1111H92.5256C91.8177 52.1111 91.2436 51.6136 91.2436 51C91.2436 50.3864 91.8177 49.8889 92.5256 49.8889H95.0897C97.2138 49.8889 98.9359 48.3964 98.9359 46.5556V34.4969C98.9359 33.8722 98.7333 33.26 98.3513 32.7302L87.8167 18.1222C87.1139 17.1476 85.8813 16.5556 84.5551 16.5556H72.0128C71.3049 16.5556 70.7308 16.058 70.7308 15.4444Z" stroke="#D7AC6C" stroke-width="2"/>
<path fill-rule="evenodd" clip-rule="evenodd" d="M33.5513 47.6667C30.011 47.6667 27.141 50.154 27.141 53.2222C27.141 56.2904 30.011 58.7778 33.5513 58.7778C37.0915 58.7778 39.9615 56.2904 39.9615 53.2222C39.9615 50.154 37.0915 47.6667 33.5513 47.6667ZM24.5769 53.2222C24.5769 48.9267 28.5949 45.4444 33.5513 45.4444C38.5077 45.4444 42.5256 48.9267 42.5256 53.2222C42.5256 57.5178 38.5077 61 33.5513 61C28.5949 61 24.5769 57.5178 24.5769 53.2222Z" stroke="#D7AC6C" stroke-width="2"/>
<path fill-rule="evenodd" clip-rule="evenodd" d="M79.7051 47.6667C76.1649 47.6667 73.2949 50.154 73.2949 53.2222C73.2949 56.2904 76.1649 58.7778 79.7051 58.7778C83.2454 58.7778 86.1154 56.2904 86.1154 53.2222C86.1154 50.154 83.2454 47.6667 79.7051 47.6667ZM70.7308 53.2222C70.7308 48.9267 74.7487 45.4444 79.7051 45.4444C84.6615 45.4444 88.6795 48.9267 88.6795 53.2222C88.6795 57.5178 84.6615 61 79.7051 61C74.7487 61 70.7308 57.5178 70.7308 53.2222Z" stroke="#D7AC6C" stroke-width="2"/>
<path fill-rule="evenodd" clip-rule="evenodd" d="M83.0305 18.8124C83.7385 18.8124 84.3126 19.31 84.3126 19.9236V24.368C84.3126 24.9818 84.8864 25.4791 85.5946 25.4791H90.7228C91.4308 25.4791 92.0049 25.9767 92.0049 26.5902C92.0049 27.204 91.4308 27.7013 90.7228 27.7013H85.5946C83.4703 27.7013 81.7485 26.2091 81.7485 24.368V19.9236C81.7485 19.31 82.3223 18.8124 83.0305 18.8124Z" stroke="#D7AC6C" stroke-width="2"/>
<path fill-rule="evenodd" clip-rule="evenodd" d="M1.5 59.8889C1.5 59.2753 2.074 58.7778 2.78205 58.7778H100.218C100.926 58.7778 101.5 59.2753 101.5 59.8889C101.5 60.5024 100.926 61 100.218 61H2.78205C2.074 61 1.5 60.5024 1.5 59.8889Z" stroke="#D7AC6C" stroke-width="2"/>
</svg>
