<svg width="101" height="62" viewBox="0 0 101 62" fill="none" xmlns="http://www.w3.org/2000/svg">
<path fill-rule="evenodd" clip-rule="evenodd" d="M18.4487 2.11111C18.4487 1.49756 19.0228 1 19.7308 1H65.8846C69.4249 1 72.2949 3.48733 72.2949 6.55556V43.2222C72.2949 43.8358 71.7208 44.3333 71.0128 44.3333C70.3049 44.3333 69.7308 43.8358 69.7308 43.2222V6.55556C69.7308 4.71467 68.0087 3.22222 65.8846 3.22222H19.7308C19.0228 3.22222 18.4487 2.72467 18.4487 2.11111ZM8.19231 51C8.19231 50.3864 8.76631 49.8889 9.47436 49.8889H19.7308C20.4387 49.8889 21.0128 50.3864 21.0128 51C21.0128 51.6136 20.4387 52.1111 19.7308 52.1111H9.47436C8.76631 52.1111 8.19231 51.6136 8.19231 51ZM44.0897 51C44.0897 50.3864 44.6638 49.8889 45.3718 49.8889H65.8846C66.5926 49.8889 67.1667 50.3864 67.1667 51C67.1667 51.6136 66.5926 52.1111 65.8846 52.1111H45.3718C44.6638 52.1111 44.0897 51.6136 44.0897 51Z" fill="#D7AC6C"/>
<path fill-rule="evenodd" clip-rule="evenodd" d="M0.5 35.4444C0.5 34.8309 1.074 34.3333 1.78205 34.3333H42.8077C43.5156 34.3333 44.0897 34.8309 44.0897 35.4444C44.0897 36.058 43.5156 36.5556 42.8077 36.5556H1.78205C1.074 36.5556 0.5 36.058 0.5 35.4444Z" fill="#D7AC6C"/>
<path fill-rule="evenodd" clip-rule="evenodd" d="M10.7564 28.7778C10.7564 28.1642 11.3304 27.6667 12.0385 27.6667H47.9359C48.6438 27.6667 49.218 28.1642 49.218 28.7778C49.218 29.3913 48.6438 29.8889 47.9359 29.8889H12.0385C11.3304 29.8889 10.7564 29.3913 10.7564 28.7778Z" fill="#D7AC6C"/>
<path fill-rule="evenodd" clip-rule="evenodd" d="M5.62821 22.1111C5.62821 21.4976 6.20221 21 6.91026 21H42.8077C43.5156 21 44.0897 21.4976 44.0897 22.1111C44.0897 22.7247 43.5156 23.2222 42.8077 23.2222H6.91026C6.20221 23.2222 5.62821 22.7247 5.62821 22.1111Z" fill="#D7AC6C"/>
<path fill-rule="evenodd" clip-rule="evenodd" d="M18.4487 15.4444C18.4487 14.8309 19.0228 14.3333 19.7308 14.3333H45.3718C46.0797 14.3333 46.6538 14.8309 46.6538 15.4444C46.6538 16.058 46.0797 16.5556 45.3718 16.5556H19.7308C19.0228 16.5556 18.4487 16.058 18.4487 15.4444Z" fill="#D7AC6C"/>
<path fill-rule="evenodd" clip-rule="evenodd" d="M69.7308 15.4444C69.7308 14.8309 70.3049 14.3333 71.0128 14.3333H83.5551C85.7654 14.3333 87.8197 15.32 88.991 16.9444L99.5256 31.5524C100.162 32.4353 100.5 33.4556 100.5 34.4969V46.5556C100.5 49.6238 97.63 52.1111 94.0897 52.1111H91.5256C90.8177 52.1111 90.2436 51.6136 90.2436 51C90.2436 50.3864 90.8177 49.8889 91.5256 49.8889H94.0897C96.2138 49.8889 97.9359 48.3964 97.9359 46.5556V34.4969C97.9359 33.8722 97.7333 33.26 97.3513 32.7302L86.8167 18.1222C86.1139 17.1476 84.8813 16.5556 83.5551 16.5556H71.0128C70.3049 16.5556 69.7308 16.058 69.7308 15.4444Z" fill="#D7AC6C"/>
<path fill-rule="evenodd" clip-rule="evenodd" d="M32.5513 47.6667C29.011 47.6667 26.141 50.154 26.141 53.2222C26.141 56.2904 29.011 58.7778 32.5513 58.7778C36.0915 58.7778 38.9615 56.2904 38.9615 53.2222C38.9615 50.154 36.0915 47.6667 32.5513 47.6667ZM23.5769 53.2222C23.5769 48.9267 27.5949 45.4444 32.5513 45.4444C37.5077 45.4444 41.5256 48.9267 41.5256 53.2222C41.5256 57.5178 37.5077 61 32.5513 61C27.5949 61 23.5769 57.5178 23.5769 53.2222Z" fill="#D7AC6C"/>
<path fill-rule="evenodd" clip-rule="evenodd" d="M78.7051 47.6667C75.1649 47.6667 72.2949 50.154 72.2949 53.2222C72.2949 56.2904 75.1649 58.7778 78.7051 58.7778C82.2454 58.7778 85.1154 56.2904 85.1154 53.2222C85.1154 50.154 82.2454 47.6667 78.7051 47.6667ZM69.7308 53.2222C69.7308 48.9267 73.7487 45.4444 78.7051 45.4444C83.6615 45.4444 87.6795 48.9267 87.6795 53.2222C87.6795 57.5178 83.6615 61 78.7051 61C73.7487 61 69.7308 57.5178 69.7308 53.2222Z" fill="#D7AC6C"/>
<path fill-rule="evenodd" clip-rule="evenodd" d="M82.0305 18.8124C82.7385 18.8124 83.3126 19.31 83.3126 19.9236V24.368C83.3126 24.9818 83.8864 25.4791 84.5946 25.4791H89.7228C90.4308 25.4791 91.0049 25.9767 91.0049 26.5902C91.0049 27.204 90.4308 27.7013 89.7228 27.7013H84.5946C82.4703 27.7013 80.7485 26.2091 80.7485 24.368V19.9236C80.7485 19.31 81.3223 18.8124 82.0305 18.8124Z" fill="#D7AC6C"/>
<path fill-rule="evenodd" clip-rule="evenodd" d="M0.5 59.8889C0.5 59.2753 1.074 58.7778 1.78205 58.7778H99.218C99.9259 58.7778 100.5 59.2753 100.5 59.8889C100.5 60.5024 99.9259 61 99.218 61H1.78205C1.074 61 0.5 60.5024 0.5 59.8889Z" fill="#D7AC6C"/>
<path fill-rule="evenodd" clip-rule="evenodd" d="M18.4487 2.11111C18.4487 1.49756 19.0228 1 19.7308 1H65.8846C69.4249 1 72.2949 3.48733 72.2949 6.55556V43.2222C72.2949 43.8358 71.7208 44.3333 71.0128 44.3333C70.3049 44.3333 69.7308 43.8358 69.7308 43.2222V6.55556C69.7308 4.71467 68.0087 3.22222 65.8846 3.22222H19.7308C19.0228 3.22222 18.4487 2.72467 18.4487 2.11111ZM8.19231 51C8.19231 50.3864 8.76631 49.8889 9.47436 49.8889H19.7308C20.4387 49.8889 21.0128 50.3864 21.0128 51C21.0128 51.6136 20.4387 52.1111 19.7308 52.1111H9.47436C8.76631 52.1111 8.19231 51.6136 8.19231 51ZM44.0897 51C44.0897 50.3864 44.6638 49.8889 45.3718 49.8889H65.8846C66.5926 49.8889 67.1667 50.3864 67.1667 51C67.1667 51.6136 66.5926 52.1111 65.8846 52.1111H45.3718C44.6638 52.1111 44.0897 51.6136 44.0897 51Z" stroke="#D7AC6C" stroke-width="0.2"/>
<path fill-rule="evenodd" clip-rule="evenodd" d="M0.5 35.4444C0.5 34.8309 1.074 34.3333 1.78205 34.3333H42.8077C43.5156 34.3333 44.0897 34.8309 44.0897 35.4444C44.0897 36.058 43.5156 36.5556 42.8077 36.5556H1.78205C1.074 36.5556 0.5 36.058 0.5 35.4444Z" stroke="#D7AC6C" stroke-width="0.2"/>
<path fill-rule="evenodd" clip-rule="evenodd" d="M10.7564 28.7778C10.7564 28.1642 11.3304 27.6667 12.0385 27.6667H47.9359C48.6438 27.6667 49.218 28.1642 49.218 28.7778C49.218 29.3913 48.6438 29.8889 47.9359 29.8889H12.0385C11.3304 29.8889 10.7564 29.3913 10.7564 28.7778Z" stroke="#D7AC6C" stroke-width="0.2"/>
<path fill-rule="evenodd" clip-rule="evenodd" d="M5.62821 22.1111C5.62821 21.4976 6.20221 21 6.91026 21H42.8077C43.5156 21 44.0897 21.4976 44.0897 22.1111C44.0897 22.7247 43.5156 23.2222 42.8077 23.2222H6.91026C6.20221 23.2222 5.62821 22.7247 5.62821 22.1111Z" stroke="#D7AC6C" stroke-width="0.2"/>
<path fill-rule="evenodd" clip-rule="evenodd" d="M18.4487 15.4444C18.4487 14.8309 19.0228 14.3333 19.7308 14.3333H45.3718C46.0797 14.3333 46.6538 14.8309 46.6538 15.4444C46.6538 16.058 46.0797 16.5556 45.3718 16.5556H19.7308C19.0228 16.5556 18.4487 16.058 18.4487 15.4444Z" stroke="#D7AC6C" stroke-width="0.2"/>
<path fill-rule="evenodd" clip-rule="evenodd" d="M69.7308 15.4444C69.7308 14.8309 70.3049 14.3333 71.0128 14.3333H83.5551C85.7654 14.3333 87.8197 15.32 88.991 16.9444L99.5256 31.5524C100.162 32.4353 100.5 33.4556 100.5 34.4969V46.5556C100.5 49.6238 97.63 52.1111 94.0897 52.1111H91.5256C90.8177 52.1111 90.2436 51.6136 90.2436 51C90.2436 50.3864 90.8177 49.8889 91.5256 49.8889H94.0897C96.2138 49.8889 97.9359 48.3964 97.9359 46.5556V34.4969C97.9359 33.8722 97.7333 33.26 97.3513 32.7302L86.8167 18.1222C86.1139 17.1476 84.8813 16.5556 83.5551 16.5556H71.0128C70.3049 16.5556 69.7308 16.058 69.7308 15.4444Z" stroke="#D7AC6C" stroke-width="0.2"/>
<path fill-rule="evenodd" clip-rule="evenodd" d="M32.5513 47.6667C29.011 47.6667 26.141 50.154 26.141 53.2222C26.141 56.2904 29.011 58.7778 32.5513 58.7778C36.0915 58.7778 38.9615 56.2904 38.9615 53.2222C38.9615 50.154 36.0915 47.6667 32.5513 47.6667ZM23.5769 53.2222C23.5769 48.9267 27.5949 45.4444 32.5513 45.4444C37.5077 45.4444 41.5256 48.9267 41.5256 53.2222C41.5256 57.5178 37.5077 61 32.5513 61C27.5949 61 23.5769 57.5178 23.5769 53.2222Z" stroke="#D7AC6C" stroke-width="0.2"/>
<path fill-rule="evenodd" clip-rule="evenodd" d="M78.7051 47.6667C75.1649 47.6667 72.2949 50.154 72.2949 53.2222C72.2949 56.2904 75.1649 58.7778 78.7051 58.7778C82.2454 58.7778 85.1154 56.2904 85.1154 53.2222C85.1154 50.154 82.2454 47.6667 78.7051 47.6667ZM69.7308 53.2222C69.7308 48.9267 73.7487 45.4444 78.7051 45.4444C83.6615 45.4444 87.6795 48.9267 87.6795 53.2222C87.6795 57.5178 83.6615 61 78.7051 61C73.7487 61 69.7308 57.5178 69.7308 53.2222Z" stroke="#D7AC6C" stroke-width="0.2"/>
<path fill-rule="evenodd" clip-rule="evenodd" d="M82.0305 18.8124C82.7385 18.8124 83.3126 19.31 83.3126 19.9236V24.368C83.3126 24.9818 83.8864 25.4791 84.5946 25.4791H89.7228C90.4308 25.4791 91.0049 25.9767 91.0049 26.5902C91.0049 27.204 90.4308 27.7013 89.7228 27.7013H84.5946C82.4703 27.7013 80.7485 26.2091 80.7485 24.368V19.9236C80.7485 19.31 81.3223 18.8124 82.0305 18.8124Z" stroke="#D7AC6C" stroke-width="0.2"/>
<path fill-rule="evenodd" clip-rule="evenodd" d="M0.5 59.8889C0.5 59.2753 1.074 58.7778 1.78205 58.7778H99.218C99.9259 58.7778 100.5 59.2753 100.5 59.8889C100.5 60.5024 99.9259 61 99.218 61H1.78205C1.074 61 0.5 60.5024 0.5 59.8889Z" stroke="#D7AC6C" stroke-width="0.2"/>
</svg>
