<svg width="100" height="54" viewBox="0 0 100 54" fill="none" xmlns="http://www.w3.org/2000/svg">
<path fill-rule="evenodd" clip-rule="evenodd" d="M1.95947 31.2045C1.95947 30.5953 2.53578 30.1014 3.24668 30.1014H44.4373C45.1481 30.1014 45.7245 30.5953 45.7245 31.2045C45.7245 31.8136 45.1481 32.3076 44.4373 32.3076H3.24668C2.53578 32.3076 1.95947 31.8136 1.95947 31.2045Z" fill="#D7AC6C"/>
<path fill-rule="evenodd" clip-rule="evenodd" d="M12.2571 24.5857C12.2571 23.9766 12.8334 23.4826 13.5443 23.4826H49.5861C50.2969 23.4826 50.8733 23.9766 50.8733 24.5857C50.8733 25.1949 50.2969 25.6889 49.5861 25.6889H13.5443C12.8334 25.6889 12.2571 25.1949 12.2571 24.5857Z" fill="#D7AC6C"/>
<path fill-rule="evenodd" clip-rule="evenodd" d="M7.1083 17.967C7.1083 17.3578 7.68461 16.8639 8.39551 16.8639H44.4373C45.1481 16.8639 45.7245 17.3578 45.7245 17.967C45.7245 18.5761 45.1481 19.0701 44.4373 19.0701H8.39551C7.68461 19.0701 7.1083 18.5761 7.1083 17.967Z" fill="#D7AC6C"/>
<path fill-rule="evenodd" clip-rule="evenodd" d="M19.9804 11.3482C19.9804 10.7391 20.5568 10.2451 21.2676 10.2451H47.0117C47.7225 10.2451 48.2989 10.7391 48.2989 11.3482C48.2989 11.9574 47.7225 12.4514 47.0117 12.4514H21.2676C20.5568 12.4514 19.9804 11.9574 19.9804 11.3482Z" fill="#D7AC6C"/>
<path fill-rule="evenodd" clip-rule="evenodd" d="M1.95947 31.2045C1.95947 30.5953 2.53578 30.1014 3.24668 30.1014H44.4373C45.1481 30.1014 45.7245 30.5953 45.7245 31.2045C45.7245 31.8136 45.1481 32.3076 44.4373 32.3076H3.24668C2.53578 32.3076 1.95947 31.8136 1.95947 31.2045Z" stroke="#D7AC6C" stroke-width="2"/>
<path fill-rule="evenodd" clip-rule="evenodd" d="M12.2571 24.5857C12.2571 23.9766 12.8334 23.4826 13.5443 23.4826H49.5861C50.2969 23.4826 50.8733 23.9766 50.8733 24.5857C50.8733 25.1949 50.2969 25.6889 49.5861 25.6889H13.5443C12.8334 25.6889 12.2571 25.1949 12.2571 24.5857Z" stroke="#D7AC6C" stroke-width="2"/>
<path fill-rule="evenodd" clip-rule="evenodd" d="M7.1083 17.967C7.1083 17.3578 7.68461 16.8639 8.39551 16.8639H44.4373C45.1481 16.8639 45.7245 17.3578 45.7245 17.967C45.7245 18.5761 45.1481 19.0701 44.4373 19.0701H8.39551C7.68461 19.0701 7.1083 18.5761 7.1083 17.967Z" stroke="#D7AC6C" stroke-width="2"/>
<path fill-rule="evenodd" clip-rule="evenodd" d="M19.9804 11.3482C19.9804 10.7391 20.5568 10.2451 21.2676 10.2451H47.0117C47.7225 10.2451 48.2989 10.7391 48.2989 11.3482C48.2989 11.9574 47.7225 12.4514 47.0117 12.4514H21.2676C20.5568 12.4514 19.9804 11.9574 19.9804 11.3482Z" stroke="#D7AC6C" stroke-width="2"/>
<path fill-rule="evenodd" clip-rule="evenodd" d="M12.9716 43.6613C12.9716 43.0883 13.5065 42.6236 14.1664 42.6236H23.725C24.3847 42.6236 24.9198 43.0883 24.9198 43.6613C24.9198 44.2343 24.3847 44.6989 23.725 44.6989H14.1664C13.5065 44.6989 12.9716 44.2343 12.9716 43.6613ZM46.4266 43.6613C46.4266 43.0883 46.9617 42.6236 47.6214 42.6236H66.7386C67.3984 42.6236 67.9334 43.0883 67.9334 43.6613C67.9334 44.2343 67.3984 44.6989 66.7386 44.6989H47.6214C46.9617 44.6989 46.4266 44.2343 46.4266 43.6613Z" fill="#D7AC6C"/>
<path fill-rule="evenodd" clip-rule="evenodd" d="M17.7508 2.15532C17.7508 1.58233 18.2858 1.11768 18.9457 1.11768H72.2482C76.6848 1.11768 80.9099 2.76546 83.8576 5.64515L93.8683 15.4258C97.1731 18.6548 98.9988 22.8249 98.9988 27.1452V39.5107C98.9988 42.376 96.3241 44.6989 93.0247 44.6989H90.6351C89.9753 44.6989 89.4403 44.2343 89.4403 43.6613C89.4403 43.0883 89.9753 42.6236 90.6351 42.6236H93.0247C95.0043 42.6236 96.6092 41.2299 96.6092 39.5107V27.1452C96.6092 23.3331 94.9983 19.6536 92.0822 16.8046L82.0715 7.02397C79.5772 4.58716 76.0023 3.19297 72.2482 3.19297H18.9457C18.2858 3.19297 17.7508 2.72831 17.7508 2.15532Z" fill="#D7AC6C"/>
<path fill-rule="evenodd" clip-rule="evenodd" d="M71.5179 5.26827C72.1777 5.26827 72.7127 5.73293 72.7127 6.30592V14.6071C72.7127 16.3263 74.3176 17.7201 76.2972 17.7201H88.2454C88.9052 17.7201 89.4403 18.1847 89.4403 18.7577C89.4403 19.3307 88.9052 19.7954 88.2454 19.7954H76.2972C72.9978 19.7954 70.3231 17.4725 70.3231 14.6071V6.30592C70.3231 5.73293 70.8581 5.26827 71.5179 5.26827Z" fill="#D7AC6C"/>
<path fill-rule="evenodd" clip-rule="evenodd" d="M35.6732 40.5483C32.3738 40.5483 29.6991 42.8712 29.6991 45.7366C29.6991 48.6019 32.3738 50.9248 35.6732 50.9248C38.9726 50.9248 41.6473 48.6019 41.6473 45.7366C41.6473 42.8712 38.9726 40.5483 35.6732 40.5483ZM27.3094 45.7366C27.3094 41.725 31.054 38.473 35.6732 38.473C40.2924 38.473 44.037 41.725 44.037 45.7366C44.037 49.7481 40.2924 53.0001 35.6732 53.0001C31.054 53.0001 27.3094 49.7481 27.3094 45.7366Z" fill="#D7AC6C"/>
<path fill-rule="evenodd" clip-rule="evenodd" d="M78.6868 40.5483C75.3875 40.5483 72.7127 42.8712 72.7127 45.7366C72.7127 48.6019 75.3875 50.9248 78.6868 50.9248C81.9862 50.9248 84.661 48.6019 84.661 45.7366C84.661 42.8712 81.9862 40.5483 78.6868 40.5483ZM70.3231 45.7366C70.3231 41.725 74.0677 38.473 78.6868 38.473C83.306 38.473 87.0506 41.725 87.0506 45.7366C87.0506 49.7481 83.306 53.0001 78.6868 53.0001C74.0677 53.0001 70.3231 49.7481 70.3231 45.7366Z" fill="#D7AC6C"/>
<path fill-rule="evenodd" clip-rule="evenodd" d="M5.80261 51.9625C5.80261 51.3895 6.33756 50.9248 6.99744 50.9248H97.804C98.4638 50.9248 98.9988 51.3895 98.9988 51.9625C98.9988 52.5355 98.4638 53.0001 97.804 53.0001H6.99744C6.33756 53.0001 5.80261 52.5355 5.80261 51.9625Z" fill="#D7AC6C"/>
<path fill-rule="evenodd" clip-rule="evenodd" d="M12.9716 43.6613C12.9716 43.0883 13.5065 42.6236 14.1664 42.6236H23.725C24.3847 42.6236 24.9198 43.0883 24.9198 43.6613C24.9198 44.2343 24.3847 44.6989 23.725 44.6989H14.1664C13.5065 44.6989 12.9716 44.2343 12.9716 43.6613ZM46.4266 43.6613C46.4266 43.0883 46.9617 42.6236 47.6214 42.6236H66.7386C67.3984 42.6236 67.9334 43.0883 67.9334 43.6613C67.9334 44.2343 67.3984 44.6989 66.7386 44.6989H47.6214C46.9617 44.6989 46.4266 44.2343 46.4266 43.6613Z" stroke="#D7AC6C" stroke-width="2"/>
<path fill-rule="evenodd" clip-rule="evenodd" d="M17.7508 2.15532C17.7508 1.58233 18.2858 1.11768 18.9457 1.11768H72.2482C76.6848 1.11768 80.9099 2.76546 83.8576 5.64515L93.8683 15.4258C97.1731 18.6548 98.9988 22.8249 98.9988 27.1452V39.5107C98.9988 42.376 96.3241 44.6989 93.0247 44.6989H90.6351C89.9753 44.6989 89.4403 44.2343 89.4403 43.6613C89.4403 43.0883 89.9753 42.6236 90.6351 42.6236H93.0247C95.0043 42.6236 96.6092 41.2299 96.6092 39.5107V27.1452C96.6092 23.3331 94.9983 19.6536 92.0822 16.8046L82.0715 7.02397C79.5772 4.58716 76.0023 3.19297 72.2482 3.19297H18.9457C18.2858 3.19297 17.7508 2.72831 17.7508 2.15532Z" stroke="#D7AC6C" stroke-width="2"/>
<path fill-rule="evenodd" clip-rule="evenodd" d="M71.5179 5.26827C72.1777 5.26827 72.7127 5.73293 72.7127 6.30592V14.6071C72.7127 16.3263 74.3176 17.7201 76.2972 17.7201H88.2454C88.9052 17.7201 89.4403 18.1847 89.4403 18.7577C89.4403 19.3307 88.9052 19.7954 88.2454 19.7954H76.2972C72.9978 19.7954 70.3231 17.4725 70.3231 14.6071V6.30592C70.3231 5.73293 70.8581 5.26827 71.5179 5.26827Z" stroke="#D7AC6C" stroke-width="2"/>
<path fill-rule="evenodd" clip-rule="evenodd" d="M35.6732 40.5483C32.3738 40.5483 29.6991 42.8712 29.6991 45.7366C29.6991 48.6019 32.3738 50.9248 35.6732 50.9248C38.9726 50.9248 41.6473 48.6019 41.6473 45.7366C41.6473 42.8712 38.9726 40.5483 35.6732 40.5483ZM27.3094 45.7366C27.3094 41.725 31.054 38.473 35.6732 38.473C40.2924 38.473 44.037 41.725 44.037 45.7366C44.037 49.7481 40.2924 53.0001 35.6732 53.0001C31.054 53.0001 27.3094 49.7481 27.3094 45.7366Z" stroke="#D7AC6C" stroke-width="2"/>
<path fill-rule="evenodd" clip-rule="evenodd" d="M78.6868 40.5483C75.3875 40.5483 72.7127 42.8712 72.7127 45.7366C72.7127 48.6019 75.3875 50.9248 78.6868 50.9248C81.9862 50.9248 84.661 48.6019 84.661 45.7366C84.661 42.8712 81.9862 40.5483 78.6868 40.5483ZM70.3231 45.7366C70.3231 41.725 74.0677 38.473 78.6868 38.473C83.306 38.473 87.0506 41.725 87.0506 45.7366C87.0506 49.7481 83.306 53.0001 78.6868 53.0001C74.0677 53.0001 70.3231 49.7481 70.3231 45.7366Z" stroke="#D7AC6C" stroke-width="2"/>
<path fill-rule="evenodd" clip-rule="evenodd" d="M5.80261 51.9625C5.80261 51.3895 6.33756 50.9248 6.99744 50.9248H97.804C98.4638 50.9248 98.9988 51.3895 98.9988 51.9625C98.9988 52.5355 98.4638 53.0001 97.804 53.0001H6.99744C6.33756 53.0001 5.80261 52.5355 5.80261 51.9625Z" stroke="#D7AC6C" stroke-width="2"/>
</svg>
