<svg width="25" height="25" viewBox="0 0 25 25" fill="none" xmlns="http://www.w3.org/2000/svg">
<path d="M12.5 25C10.0277 25 7.61099 24.2669 5.55538 22.8933C3.49976 21.5198 1.89761 19.5676 0.951511 17.2835C0.00541601 14.9995 -0.242126 12.4861 0.24019 10.0614C0.722505 7.6366 1.91301 5.40932 3.66117 3.66117C5.40933 1.91301 7.63661 0.722504 10.0614 0.240189C12.4861 -0.242125 14.9995 0.00541601 17.2835 0.95151C19.5676 1.8976 21.5199 3.49976 22.8934 5.55537C24.2669 7.61098 25 10.0277 25 12.5C24.9948 13.4244 24.8953 14.3458 24.7031 15.25C24.6806 15.3526 24.638 15.4497 24.5779 15.5359C24.5178 15.622 24.4413 15.6955 24.3528 15.7521C24.2643 15.8087 24.1655 15.8473 24.0621 15.8657C23.9586 15.8841 23.8526 15.8819 23.75 15.8594C23.6474 15.8368 23.5503 15.7942 23.4641 15.7341C23.378 15.674 23.3045 15.5975 23.2479 15.509C23.1913 15.4205 23.1527 15.3217 23.1343 15.2183C23.1159 15.1149 23.1181 15.0088 23.1406 14.9062C23.326 14.1172 23.4255 13.3104 23.4375 12.5C23.4358 10.1124 22.6529 7.79103 21.2084 5.89009C19.7638 3.98914 17.7369 2.61309 15.437 1.97198C13.1372 1.33086 10.6907 1.45989 8.47102 2.33937C6.25136 3.21886 4.38045 4.80049 3.14385 6.84284C1.90726 8.8852 1.37291 11.2761 1.62238 13.6506C1.87184 16.025 2.89141 18.2527 4.52546 19.9934C6.15951 21.7342 8.31828 22.8925 10.6723 23.2914C13.0262 23.6904 15.4461 23.3082 17.5625 22.2031C17.6536 22.1407 17.7569 22.0984 17.8655 22.0789C17.9742 22.0593 18.0858 22.063 18.1929 22.0898C18.3 22.1165 18.4002 22.1656 18.487 22.2339C18.5737 22.3021 18.645 22.388 18.6962 22.4859C18.7473 22.5837 18.7771 22.6913 18.7837 22.8015C18.7902 22.9117 18.7733 23.022 18.7341 23.1252C18.6949 23.2284 18.6343 23.3221 18.5562 23.4002C18.4782 23.4783 18.3845 23.5389 18.2813 23.5781C16.4988 24.5161 14.5142 25.0042 12.5 25Z" fill="#D7AC6C"/>
<path d="M21.0938 21.875C20.8866 21.875 20.6878 21.7927 20.5413 21.6462C20.3948 21.4996 20.3125 21.3009 20.3125 21.0937V14.8437C20.3125 14.6365 20.3948 14.4378 20.5413 14.2913C20.6878 14.1448 20.8866 14.0625 21.0938 14.0625C21.301 14.0625 21.4997 14.1448 21.6462 14.2913C21.7927 14.4378 21.875 14.6365 21.875 14.8437V21.0937C21.875 21.3009 21.7927 21.4996 21.6462 21.6462C21.4997 21.7927 21.301 21.875 21.0938 21.875Z" fill="#D7AC6C"/>
<path d="M21.0938 25C21.5252 25 21.875 24.6502 21.875 24.2187C21.875 23.7873 21.5252 23.4375 21.0938 23.4375C20.6623 23.4375 20.3125 23.7873 20.3125 24.2187C20.3125 24.6502 20.6623 25 21.0938 25Z" fill="#D7AC6C"/>
<path d="M7.9375 16.8437C7.8236 16.6691 7.78272 16.4567 7.82361 16.2522C7.86451 16.0477 7.98393 15.8674 8.15625 15.75L12.5 12.8594V5.46875C12.5 5.26155 12.5823 5.06283 12.7288 4.91632C12.8753 4.76981 13.0741 4.6875 13.2813 4.6875C13.4885 4.6875 13.6872 4.76981 13.8337 4.91632C13.9802 5.06283 14.0625 5.26155 14.0625 5.46875V13.2812C14.0626 13.4103 14.0314 13.5374 13.9715 13.6517C13.9116 13.766 13.8249 13.8641 13.7188 13.9375L9.03125 17.0625C8.85272 17.1621 8.64453 17.1948 8.44407 17.1547C8.2436 17.1146 8.064 17.0043 7.9375 16.8437Z" fill="#D7AC6C"/>
</svg>
