<svg width="28" height="24" viewBox="0 0 28 24" fill="none" xmlns="http://www.w3.org/2000/svg">
<path d="M0.820379 20.8H4.92193V23.2C4.92193 23.6418 5.28921 24 5.74224 24H27.1797C27.6327 24 28 23.6418 28 23.2V2.4C28 1.95819 27.6327 1.6 27.1797 1.6H23.0781V0.8C23.0781 0.358187 22.7109 0 22.2578 0C21.8048 0 21.4375 0.358187 21.4375 0.8V1.6H17.2813V0.8C17.2813 0.358187 16.914 0 16.461 0C16.0079 0 15.6407 0.358187 15.6407 0.8V1.6H11.5391V0.8C11.5391 0.358187 11.1718 0 10.7188 0C10.2658 0 9.89848 0.358187 9.89848 0.8V1.6H5.74224C5.28921 1.6 4.92193 1.95819 4.92193 2.4V7.2C4.92193 13.096 2.40932 17.6318 0.295216 19.3854C0.029873 19.6011 -0.0685095 19.9556 0.0490136 20.2724C0.166646 20.5891 0.474974 20.8 0.820379 20.8ZM26.3594 22.4H6.56255V20.8H22.2578C22.4497 20.8 22.6356 20.7344 22.783 20.6146C23.7691 19.8135 25.2966 17.9065 26.3594 15.4639V22.4ZM6.56255 3.2H9.89848V4C9.89848 4.44181 10.2658 4.8 10.7188 4.8C11.1718 4.8 11.5391 4.44181 11.5391 4V3.2H15.6407V4C15.6407 4.44181 16.0079 4.8 16.461 4.8C16.914 4.8 17.2813 4.44181 17.2813 4V3.2H21.4375V4C21.4375 4.44181 21.8048 4.8 22.2578 4.8C22.7109 4.8 23.0781 4.44181 23.0781 4V3.2H26.3594V6.4H6.56255V3.2ZM6.5485 7.99947H26.3448C26.16 13.0744 24.1628 17.0674 21.9362 19.2H2.68626C5.20915 16.065 6.41315 11.983 6.5485 7.99947Z" fill="#D7AC6C"/>
</svg>
