<svg width="74" height="97" viewBox="0 0 74 97" fill="none" xmlns="http://www.w3.org/2000/svg">
<path d="M36.7722 62.939H47.9764C49.5234 62.939 50.7775 61.6797 50.7775 60.1265C50.7775 58.5732 49.5234 57.314 47.9764 57.314H39.5733V48.8765C39.5733 47.3232 38.3191 46.064 36.7722 46.064C35.2253 46.064 33.9711 47.3232 33.9711 48.8765V60.1265C33.9711 61.6797 35.2253 62.939 36.7722 62.939Z" fill="#D7AC6C"/>
<path d="M36.7722 96.689C56.8508 96.689 73.186 80.287 73.186 60.1265C73.186 47.1157 64.6388 35.9063 57.098 26.0165C50.9667 17.9753 45.1754 10.3803 45.1754 3.50146C45.1754 1.94821 43.9212 0.688965 42.3743 0.688965C31.4308 0.688965 30.9464 26.3765 25.5679 26.3765C23.872 26.3765 22.7762 21.377 22.7669 17.939C22.7669 15.3554 19.5731 14.1413 17.8684 16.0748C9.01144 26.1215 0.358398 43.6844 0.358398 60.1265C0.358398 80.123 16.5511 96.689 36.7722 96.689ZM18.1541 25.0073C19.9229 31.0707 23.5262 32.0015 25.5679 32.0015C34.7084 32.0015 35.8684 15.4891 40.1736 8.27934C41.908 15.3483 47.1544 22.2286 52.6499 29.4359C59.9919 39.065 67.5839 49.0218 67.5839 60.1265C67.5839 77.1854 53.7618 91.064 36.7722 91.064C19.6577 91.064 5.96052 77.0382 5.96052 60.1265C5.96052 47.7078 11.2601 35.1258 18.1541 25.0073Z" fill="#D7AC6C"/>
<path d="M36.7722 85.439C50.6727 85.439 61.9817 74.0838 61.9817 60.1265C61.9817 46.1692 50.6727 34.814 36.7722 34.814C22.8716 34.814 11.5626 46.1692 11.5626 60.1265C11.5626 74.0838 22.8716 85.439 36.7722 85.439ZM36.7722 40.439C47.5837 40.439 56.3796 49.2708 56.3796 60.1265C56.3796 70.9822 47.5837 79.814 36.7722 79.814C25.9607 79.814 17.1648 70.9822 17.1648 60.1265C17.1648 49.2708 25.9607 40.439 36.7722 40.439Z" fill="#D7AC6C"/>
</svg>
