<svg width="97" height="96" viewBox="0 0 97 96" fill="none" xmlns="http://www.w3.org/2000/svg">
<path d="M3.53465 82.5847H17.5971V92.1018C17.5971 93.8538 18.8564 95.2742 20.4096 95.2742H93.9094C95.4627 95.2742 96.7219 93.8538 96.7219 92.1018V9.62015C96.7219 7.86815 95.4627 6.44777 93.9094 6.44777H79.847V3.2754C79.847 1.5234 78.5877 0.103027 77.0345 0.103027C75.4812 0.103027 74.222 1.5234 74.222 3.2754V6.44777H59.972V3.2754C59.972 1.5234 58.7128 0.103027 57.1595 0.103027C55.6063 0.103027 54.347 1.5234 54.347 3.2754V6.44777H40.2846V3.2754C40.2846 1.5234 39.0253 0.103027 37.4721 0.103027C35.9188 0.103027 34.6596 1.5234 34.6596 3.2754V6.44777H20.4096C18.8564 6.44777 17.5971 7.86815 17.5971 9.62015V28.6544C17.5971 52.0348 8.98245 70.0213 1.73409 76.9753C0.824346 77.8304 0.487034 79.2364 0.889971 80.4924C1.29328 81.7483 2.3504 82.5847 3.53465 82.5847ZM91.0969 88.9295H23.2221V82.5847H77.0345C77.6924 82.5847 78.3295 82.3246 78.835 81.8494C82.216 78.673 87.4531 71.1105 91.0969 61.4246V88.9295ZM23.2221 12.7925H34.6596V15.9649C34.6596 17.7169 35.9188 19.1373 37.4721 19.1373C39.0253 19.1373 40.2846 17.7169 40.2846 15.9649V12.7925H54.347V15.9649C54.347 17.7169 55.6063 19.1373 57.1595 19.1373C58.7128 19.1373 59.972 17.7169 59.972 15.9649V12.7925H74.222V15.9649C74.222 17.7169 75.4812 19.1373 77.0345 19.1373C78.5877 19.1373 79.847 17.7169 79.847 15.9649V12.7925H91.0969V25.482H23.2221V12.7925ZM23.1739 31.8246H91.0471C90.4133 51.9491 83.5656 67.7831 75.9316 76.24H9.93195C18.5819 63.8083 22.7099 47.6214 23.1739 31.8246Z" fill="#D7AC6C"/>
</svg>
