<svg width="55" height="55" viewBox="0 0 55 55" fill="none" xmlns="http://www.w3.org/2000/svg">
<path d="M27.7416 54.7352C22.3504 54.7352 17.0803 53.1366 12.5977 50.1414C8.11508 47.1462 4.62132 42.8891 2.5582 37.9083C0.495087 32.9275 -0.0447177 27.4468 1.00705 22.1592C2.05882 16.8716 4.65491 12.0147 8.46705 8.20252C12.2792 4.39038 17.1362 1.79429 22.4237 0.742522C27.7113 -0.309244 33.1921 0.23056 38.1729 2.29367C43.1536 4.35678 47.4108 7.85054 50.406 12.3331C53.4012 16.8157 54.9998 22.0858 54.9998 27.477C54.9885 29.4928 54.7716 31.5021 54.3525 33.4738C54.3032 33.6975 54.2104 33.9094 54.0793 34.0972C53.9482 34.2851 53.7814 34.4453 53.5884 34.5687C53.3954 34.6921 53.18 34.7763 52.9545 34.8164C52.729 34.8565 52.4977 34.8519 52.274 34.8027C52.0503 34.7534 51.8384 34.6606 51.6506 34.5295C51.4627 34.3985 51.3025 34.2317 51.1791 34.0386C51.0557 33.8456 50.9716 33.6302 50.9314 33.4047C50.8913 33.1792 50.8959 32.9479 50.9452 32.7242C51.3494 31.0036 51.5664 29.2443 51.5925 27.477C51.5889 22.2706 49.8817 17.2084 46.7315 13.063C43.5814 8.91773 39.1614 5.91703 34.1462 4.51896C29.131 3.1209 23.796 3.40227 18.9557 5.32014C14.1154 7.238 10.0356 10.687 7.33896 15.1407C4.64236 19.5944 3.47713 24.8081 4.02113 29.986C4.56512 35.1639 6.78846 40.0216 10.3518 43.8177C13.9151 47.6137 18.6226 50.1395 23.7559 51.0095C28.8891 51.8796 34.166 51.046 38.7812 48.6362C38.9798 48.5002 39.205 48.4079 39.442 48.3653C39.6789 48.3227 39.9222 48.3308 40.1558 48.389C40.3894 48.4473 40.6079 48.5544 40.7971 48.7033C40.9863 48.8522 41.1418 49.0395 41.2533 49.2528C41.3648 49.4662 41.4299 49.7007 41.4441 49.941C41.4584 50.1814 41.4216 50.422 41.3361 50.647C41.2506 50.8721 41.1184 51.0764 40.9482 51.2467C40.7779 51.4169 40.5736 51.5491 40.3485 51.6346C36.4616 53.68 32.1337 54.7444 27.7416 54.7352Z" fill="#D7AC6C"/>
<path d="M46.4816 47.9207C46.0298 47.9207 45.5965 47.7412 45.277 47.4217C44.9575 47.1022 44.778 46.6689 44.778 46.217V32.5879C44.778 32.1361 44.9575 31.7028 45.277 31.3833C45.5965 31.0638 46.0298 30.8843 46.4816 30.8843C46.9335 30.8843 47.3668 31.0638 47.6863 31.3833C48.0058 31.7028 48.1853 32.1361 48.1853 32.5879V46.217C48.1853 46.6689 48.0058 47.1022 47.6863 47.4217C47.3668 47.7412 46.9335 47.9207 46.4816 47.9207Z" fill="#D7AC6C"/>
<path d="M46.4816 54.7352C47.4225 54.7352 48.1853 53.9725 48.1853 53.0316C48.1853 52.0907 47.4225 51.328 46.4816 51.328C45.5407 51.328 44.778 52.0907 44.778 53.0316C44.778 53.9725 45.5407 54.7352 46.4816 54.7352Z" fill="#D7AC6C"/>
<path d="M17.7923 36.9492C17.5439 36.5683 17.4548 36.1052 17.5439 35.6593C17.6331 35.2134 17.8935 34.8202 18.2693 34.5641L27.7416 28.2607V12.1442C27.7416 11.6924 27.9211 11.2591 28.2405 10.9396C28.56 10.6201 28.9934 10.4406 29.4452 10.4406C29.897 10.4406 30.3304 10.6201 30.6499 10.9396C30.9694 11.2591 31.1488 11.6924 31.1488 12.1442V29.1806C31.1491 29.462 31.081 29.7393 30.9505 29.9886C30.8199 30.2379 30.6307 30.4517 30.3992 30.6117L20.1774 37.4263C19.7881 37.6434 19.3341 37.7147 18.8969 37.6273C18.4598 37.5399 18.0681 37.2994 17.7923 36.9492Z" fill="#D7AC6C"/>
</svg>
