<svg width="49" height="63" viewBox="0 0 49 63" fill="none" xmlns="http://www.w3.org/2000/svg">
<path d="M24.6043 40.6621H31.8769C32.881 40.6621 33.6951 39.8447 33.6951 38.8365C33.6951 37.8283 32.881 37.0109 31.8769 37.0109H26.4224V31.5342C26.4224 30.5259 25.6084 29.7086 24.6043 29.7086C23.6002 29.7086 22.7861 30.5259 22.7861 31.5342V38.8365C22.7861 39.8447 23.6002 40.6621 24.6043 40.6621Z" fill="#D7AC6C"/>
<path d="M24.6043 62.569C37.6372 62.569 48.2403 51.9226 48.2403 38.8365C48.2403 30.3912 42.6924 23.1153 37.7977 16.6958C33.8179 11.4764 30.0588 6.54645 30.0588 2.08144C30.0588 1.07323 29.2447 0.255859 28.2406 0.255859C21.1372 0.255859 20.8228 16.9295 17.3317 16.9295C16.2308 16.9295 15.5196 13.6843 15.5135 11.4528C15.5135 9.77578 13.4404 8.98774 12.3339 10.2428C6.58491 16.764 0.968262 28.164 0.968262 38.8365C0.968262 51.8161 11.4789 62.569 24.6043 62.569ZM12.5194 16.0408C13.6675 19.9765 16.0064 20.5807 17.3317 20.5807C23.2647 20.5807 24.0176 9.86255 26.8121 5.18274C27.9379 9.77115 31.3433 14.2371 34.9104 18.9154C39.6761 25.1656 44.604 31.6285 44.604 38.8365C44.604 49.9094 35.6321 58.9179 24.6043 58.9179C13.4954 58.9179 4.60457 49.8138 4.60457 38.8365C4.60457 30.7756 8.04453 22.6086 12.5194 16.0408Z" fill="#D7AC6C"/>
<path d="M24.6043 55.2667C33.6271 55.2667 40.9677 47.8961 40.9677 38.8365C40.9677 29.7768 33.6271 22.4062 24.6043 22.4062C15.5815 22.4062 8.24089 29.7768 8.24089 38.8365C8.24089 47.8961 15.5815 55.2667 24.6043 55.2667ZM24.6043 26.0574C31.622 26.0574 37.3314 31.7901 37.3314 38.8365C37.3314 45.8829 31.622 51.6155 24.6043 51.6155C17.5866 51.6155 11.8772 45.8829 11.8772 38.8365C11.8772 31.7901 17.5866 26.0574 24.6043 26.0574Z" fill="#D7AC6C"/>
</svg>
