<svg width="59" height="54" viewBox="0 0 59 54" fill="none" xmlns="http://www.w3.org/2000/svg">
<path d="M50.4637 3.12537H43.596V2.1565C43.596 1.64257 43.3905 1.1497 43.0246 0.786302C42.6587 0.422905 42.1624 0.21875 41.645 0.21875C41.1275 0.21875 40.6313 0.422905 40.2654 0.786302C39.8995 1.1497 39.6939 1.64257 39.6939 2.1565V3.12537H19.1298V2.1565C19.1298 1.64257 18.9243 1.1497 18.5584 0.786302C18.1925 0.422905 17.6962 0.21875 17.1788 0.21875C16.6613 0.21875 16.1651 0.422905 15.7992 0.786302C15.4333 1.1497 15.2277 1.64257 15.2277 2.1565V3.12537H8.36004C6.18316 3.13048 4.09691 3.99162 2.55761 5.52042C1.01832 7.04921 0.151271 9.12124 0.146118 11.2833V45.2713C0.151271 47.4334 1.01832 49.5054 2.55761 51.0342C4.09691 52.563 6.18316 53.4241 8.36004 53.4292H50.4637C52.6406 53.4241 54.7269 52.563 56.2662 51.0342C57.8054 49.5054 58.6725 47.4334 58.6776 45.2713V11.2833C58.6725 9.12124 57.8054 7.04921 56.2662 5.52042C54.7269 3.99162 52.6406 3.13048 50.4637 3.12537ZM8.36004 7.00086H15.2277V7.96973C15.2277 8.48365 15.4333 8.97653 15.7992 9.33992C16.1651 9.70332 16.6613 9.90748 17.1788 9.90748C17.6962 9.90748 18.1925 9.70332 18.5584 9.33992C18.9243 8.97653 19.1298 8.48365 19.1298 7.96973V7.00086H39.6939V7.96973C39.6939 8.48365 39.8995 8.97653 40.2654 9.33992C40.6313 9.70332 41.1275 9.90748 41.645 9.90748C42.1624 9.90748 42.6587 9.70332 43.0246 9.33992C43.3905 8.97653 43.596 8.48365 43.596 7.96973V7.00086H50.4637C51.6073 7.00086 52.704 7.45204 53.5126 8.25515C54.3213 9.05826 54.7755 10.1475 54.7755 11.2833V15.8757H4.04822V11.2833C4.04822 10.1475 4.5025 9.05826 5.31112 8.25515C6.11975 7.45204 7.21648 7.00086 8.36004 7.00086ZM50.4637 49.6312H8.36004C7.78718 49.6313 7.22004 49.5181 6.69175 49.298C6.16347 49.078 5.68462 48.7556 5.2832 48.3497C4.88177 47.9438 4.56581 47.4625 4.35376 46.9339C4.14172 46.4054 4.03785 45.8402 4.04822 45.2713V19.7512H54.7755V45.2713C54.7859 45.8402 54.682 46.4054 54.47 46.9339C54.258 47.4625 53.942 47.9438 53.5406 48.3497C53.1391 48.7556 52.6603 49.078 52.132 49.298C51.6037 49.5181 51.0366 49.6313 50.4637 49.6312Z" fill="#D7AC6C"/>
</svg>
