<svg width="54" height="55" viewBox="0 0 54 55" fill="none" xmlns="http://www.w3.org/2000/svg">
<path d="M27.0344 54.5795C21.7222 54.5795 16.5293 53.0043 12.1123 50.053C7.69534 47.1016 4.25274 42.9068 2.21983 37.999C0.186931 33.0911 -0.34497 27.6906 0.691396 22.4805C1.72776 17.2703 4.28584 12.4845 8.04216 8.72819C11.7985 4.97187 16.5843 2.41379 21.7945 1.37743C27.0046 0.341066 32.4051 0.872966 37.313 2.90587C42.2208 4.93877 46.4156 8.38136 49.367 12.7983C52.3183 17.2153 53.8935 22.4082 53.8935 27.7204C53.8824 29.7067 53.6686 31.6866 53.2556 33.6294C53.2071 33.8499 53.1157 34.0586 52.9865 34.2437C52.8574 34.4288 52.693 34.5867 52.5028 34.7083C52.3126 34.8299 52.1004 34.9128 51.8782 34.9524C51.6559 34.9919 51.4281 34.9873 51.2076 34.9388C50.9872 34.8903 50.7784 34.7989 50.5933 34.6697C50.4082 34.5405 50.2504 34.3762 50.1288 34.186C50.0072 33.9958 49.9243 33.7836 49.8847 33.5613C49.8451 33.3391 49.8498 33.1113 49.8983 32.8908C50.2965 31.1954 50.5104 29.4618 50.5362 27.7204C50.5325 22.5902 48.8503 17.6022 45.7463 13.5175C42.6423 9.43292 38.287 6.47616 33.3453 5.09857C28.4035 3.72098 23.1467 3.99823 18.3772 5.88801C13.6078 7.77779 9.5877 11.1763 6.93059 15.5648C4.27348 19.9532 3.12531 25.0906 3.66134 30.1927C4.19737 35.2948 6.38815 40.0814 9.89928 43.8218C13.4104 47.5622 18.049 50.051 23.1071 50.9083C28.1651 51.7656 33.3648 50.9443 37.9124 48.5698C38.1081 48.4358 38.33 48.3448 38.5635 48.3028C38.797 48.2609 39.0367 48.2688 39.2669 48.3262C39.497 48.3837 39.7124 48.4892 39.8988 48.6359C40.0852 48.7826 40.2384 48.9672 40.3483 49.1774C40.4582 49.3876 40.5223 49.6187 40.5363 49.8555C40.5504 50.0923 40.5141 50.3294 40.4299 50.5512C40.3456 50.7729 40.2154 50.9743 40.0476 51.142C39.8799 51.3098 39.6785 51.4401 39.4568 51.5243C35.6268 53.5397 31.3623 54.5885 27.0344 54.5795Z" fill="#D7AC6C"/>
<path d="M45.5001 47.8647C45.0549 47.8647 44.6279 47.6879 44.3131 47.3731C43.9982 47.0583 43.8214 46.6313 43.8214 46.1861V32.7565C43.8214 32.3113 43.9982 31.8843 44.3131 31.5695C44.6279 31.2547 45.0549 31.0778 45.5001 31.0778C45.9453 31.0778 46.3723 31.2547 46.6871 31.5695C47.0019 31.8843 47.1788 32.3113 47.1788 32.7565V46.1861C47.1788 46.6313 47.0019 47.0583 46.6871 47.3731C46.3723 47.6879 45.9453 47.8647 45.5001 47.8647Z" fill="#D7AC6C"/>
<path d="M45.5001 54.5795C46.4272 54.5795 47.1788 53.8279 47.1788 52.9008C47.1788 51.9737 46.4272 51.2221 45.5001 51.2221C44.573 51.2221 43.8214 51.9737 43.8214 52.9008C43.8214 53.8279 44.573 54.5795 45.5001 54.5795Z" fill="#D7AC6C"/>
<path d="M17.2308 37.054C16.9861 36.6786 16.8983 36.2223 16.9861 35.7829C17.074 35.3436 17.3306 34.9561 17.7009 34.7038L27.0344 28.4926V12.6122C27.0344 12.167 27.2113 11.74 27.5261 11.4252C27.8409 11.1104 28.2679 10.9335 28.7131 10.9335C29.1583 10.9335 29.5853 11.1104 29.9001 11.4252C30.215 11.74 30.3918 12.167 30.3918 12.6122V29.3991C30.3921 29.6764 30.325 29.9496 30.1963 30.1952C30.0677 30.4409 29.8813 30.6516 29.6532 30.8092L19.581 37.524C19.1974 37.738 18.7501 37.8082 18.3193 37.7221C17.8886 37.6359 17.5027 37.399 17.2308 37.054Z" fill="#D7AC6C"/>
</svg>
