<svg width="64" height="55" viewBox="0 0 64 55" fill="none" xmlns="http://www.w3.org/2000/svg">
<path d="M2.11601 47.3531H11.4056V52.8048C11.4056 53.8084 12.2375 54.622 13.2635 54.622H61.8172C62.8433 54.622 63.6752 53.8084 63.6752 52.8048V5.55712C63.6752 4.55353 62.8433 3.73991 61.8172 3.73991H52.5276V1.92269C52.5276 0.919098 51.6958 0.105469 50.6697 0.105469C49.6436 0.105469 48.8118 0.919098 48.8118 1.92269V3.73991H39.3983V1.92269C39.3983 0.919098 38.5665 0.105469 37.5404 0.105469C36.5143 0.105469 35.6825 0.919098 35.6825 1.92269V3.73991H26.3929V1.92269C26.3929 0.919098 25.561 0.105469 24.5349 0.105469C23.5089 0.105469 22.677 0.919098 22.677 1.92269V3.73991H13.2635C12.2375 3.73991 11.4056 4.55353 11.4056 5.55712V16.4604C11.4056 29.8533 5.71481 40.1565 0.92657 44.1399C0.325594 44.6297 0.102767 45.4351 0.368946 46.1546C0.635372 46.874 1.3337 47.3531 2.11601 47.3531ZM59.9593 50.9876H15.1215V47.3531H50.6697C51.1043 47.3531 51.5252 47.2041 51.8591 46.9319C54.0926 45.1124 57.5522 40.7804 59.9593 35.2321V50.9876ZM15.1215 7.37434H22.677V9.19156C22.677 10.1952 23.5089 11.0088 24.5349 11.0088C25.561 11.0088 26.3929 10.1952 26.3929 9.19156V7.37434H35.6825V9.19156C35.6825 10.1952 36.5143 11.0088 37.5404 11.0088C38.5665 11.0088 39.3983 10.1952 39.3983 9.19156V7.37434H48.8118V9.19156C48.8118 10.1952 49.6436 11.0088 50.6697 11.0088C51.6958 11.0088 52.5276 10.1952 52.5276 9.19156V7.37434H59.9593V14.6432H15.1215V7.37434ZM15.0896 18.2764H59.9264C59.5077 29.8043 54.9842 38.8744 49.9411 43.7187H6.34204C12.0561 36.5975 14.7831 27.3252 15.0896 18.2764Z" fill="#D7AC6C"/>
</svg>
