<svg width="62" height="53" viewBox="0 0 62 53" fill="none" xmlns="http://www.w3.org/2000/svg">
<path d="M2.65975 45.3225H11.4729V50.4794C11.4729 51.4288 12.2621 52.1984 13.2355 52.1984H59.2988C60.2722 52.1984 61.0614 51.4288 61.0614 50.4794V5.78586C61.0614 4.83652 60.2722 4.06687 59.2988 4.06687H50.4857V2.34789C50.4857 1.39855 49.6965 0.628906 48.723 0.628906C47.7496 0.628906 46.9604 1.39855 46.9604 2.34789V4.06687H38.0298V2.34789C38.0298 1.39855 37.2406 0.628906 36.2671 0.628906C35.2937 0.628906 34.5045 1.39855 34.5045 2.34789V4.06687H25.6914V2.34789C25.6914 1.39855 24.9022 0.628906 23.9288 0.628906C22.9553 0.628906 22.1661 1.39855 22.1661 2.34789V4.06687H13.2355C12.2621 4.06687 11.4729 4.83652 11.4729 5.78586V16.0998C11.4729 28.7687 6.07395 38.5149 1.53131 42.283C0.961162 42.7463 0.749764 43.5082 1.00229 44.1888C1.25505 44.8693 1.91756 45.3225 2.65975 45.3225ZM57.5362 48.7605H14.9981V45.3225H48.723C49.1354 45.3225 49.5347 45.1815 49.8515 44.924C51.9704 43.2029 55.2525 39.105 57.5362 33.8566V48.7605ZM14.9981 7.50484H22.1661V9.22383C22.1661 10.1732 22.9553 10.9428 23.9288 10.9428C24.9022 10.9428 25.6914 10.1732 25.6914 9.22383V7.50484H34.5045V9.22383C34.5045 10.1732 35.2937 10.9428 36.2671 10.9428C37.2406 10.9428 38.0298 10.1732 38.0298 9.22383V7.50484H46.9604V9.22383C46.9604 10.1732 47.7496 10.9428 48.723 10.9428C49.6965 10.9428 50.4857 10.1732 50.4857 9.22383V7.50484H57.5362V14.3808H14.9981V7.50484ZM14.9679 17.8176H57.5049C57.1077 28.7223 52.8162 37.3021 48.0318 41.8845H6.66901C12.09 35.1483 14.6771 26.3772 14.9679 17.8176Z" fill="#D7AC6C"/>
</svg>
