<svg width="79" height="80" viewBox="0 0 79 80" fill="none" xmlns="http://www.w3.org/2000/svg">
<path d="M58.6498 65.3108H58.6454L11.6451 65.2583C10.9258 65.2466 10.2193 65.0634 9.58288 64.7236C8.94649 64.3838 8.39812 63.8968 7.98222 63.3023C7.42651 62.5244 7.05696 61.6264 6.90275 60.679C6.74854 59.7317 6.81389 58.761 7.09365 57.8437L15.4203 29.7462C15.6772 28.7042 16.26 27.7743 17.0817 27.0955C17.9034 26.4166 18.9198 26.0251 19.9792 25.9795H19.9836L66.9839 26.0313C67.7035 26.0435 68.4101 26.2272 69.0465 26.5676C69.6829 26.908 70.2311 27.3955 70.6468 27.9905C71.2024 28.7683 71.5719 29.6662 71.7261 30.6134C71.8803 31.5606 71.815 32.5312 71.5354 33.4485L63.2087 61.5434C62.9519 62.5855 62.3692 63.5155 61.5475 64.1945C60.7258 64.8735 59.7093 65.2651 58.6498 65.3108ZM58.6498 62.7828C59.1709 62.7319 59.6624 62.5137 60.0525 62.16C60.4426 61.8063 60.7109 61.3356 60.8182 60.8166L69.1448 32.7191C69.31 32.1789 69.3508 31.6076 69.2643 31.0489C69.1778 30.4902 68.9661 29.959 68.6456 29.4959C68.4597 29.2196 68.2127 28.9911 67.9242 28.8285C67.6357 28.6659 67.3138 28.5737 66.9839 28.5593L19.9836 28.5075C19.4625 28.5582 18.9711 28.7763 18.581 29.1299C18.1909 29.4835 17.9226 29.9541 17.8152 30.473L9.48731 58.5705C9.32229 59.1107 9.28149 59.682 9.36801 60.2407C9.45454 60.7993 9.6661 61.3306 9.98651 61.7937C10.1725 62.0699 10.4196 62.2983 10.708 62.4608C10.9965 62.6233 11.3184 62.7153 11.6482 62.7297L58.6498 62.7828Z" fill="#0E2A4E"/>
<path d="M9.32559 59.8024H6.82959L6.87701 20.2222C6.88013 17.1418 9.04292 14.6372 11.698 14.6372H11.7024L23.4742 14.6524C24.1211 14.6596 24.7589 14.8079 25.3441 15.0872C25.9293 15.3665 26.4483 15.7702 26.8656 16.2709L28.4768 18.1252C28.662 18.3544 28.8935 18.5407 29.1559 18.6716C29.4182 18.8024 29.7052 18.8747 29.9975 18.8836L61.3553 18.9184C64.0136 18.9184 66.1726 21.4312 66.1695 24.5141L66.1639 27.2949L63.6679 27.2892L63.6735 24.5084C63.6735 22.821 62.6345 21.4464 61.3528 21.4451L29.9943 21.411C29.3474 21.4038 28.7097 21.2554 28.1244 20.9761C27.5392 20.6968 27.0202 20.2931 26.6029 19.7924L24.9917 17.9381C24.8066 17.7089 24.5751 17.5225 24.3127 17.3917C24.0504 17.2608 23.7633 17.1886 23.4711 17.1797L11.6999 17.1646C10.4195 17.1646 9.37676 18.5366 9.37489 20.2247L9.32559 59.8024Z" fill="#0E2A4E"/>
</svg>
