<svg width="108" height="98" viewBox="0 0 108 98" fill="none" xmlns="http://www.w3.org/2000/svg">
<g clip-path="url(#clip0)">
<path d="M74.5675 58.0433C74.5675 58.9088 73.79 59.6121 72.8334 59.6121C71.8767 59.6121 71.0992 58.9088 71.0992 58.0433C71.0992 57.1779 71.8767 56.4746 72.8334 56.4746C73.79 56.4746 74.5675 57.1779 74.5675 58.0433Z" fill="#0E2A4E"/>
<path d="M84.9722 58.0433C84.9722 58.9088 84.1947 59.6121 83.238 59.6121C82.2814 59.6121 81.5039 58.9088 81.5039 58.0433C81.5039 57.1779 82.2814 56.4746 83.238 56.4746C84.1947 56.4746 84.9722 57.1779 84.9722 58.0433Z" fill="#0E2A4E"/>
<path d="M74.3855 62.0488L71.2843 63.4528L71.4664 63.7849C72.7179 66.0491 75.2352 67.4557 78.0359 67.4557C80.8365 67.4557 83.3539 66.0491 84.6053 63.7823L84.7874 63.4528L81.6862 62.0488L81.5041 62.3809C80.8423 63.5757 79.5156 64.3182 78.0359 64.3182C76.5561 64.3182 75.2266 63.5757 74.5676 62.3809L74.3855 62.0488Z" fill="#0E2A4E"/>
<path d="M26.0116 56.473C26.0116 57.3384 25.2341 58.0417 24.2775 58.0417C23.3208 58.0417 22.5433 57.3384 22.5433 56.473C22.5433 55.6076 23.3208 54.9043 24.2775 54.9043C25.2341 54.9043 26.0116 55.6076 26.0116 56.473Z" fill="#0E2A4E"/>
<path d="M36.417 56.473C36.417 57.3384 35.6395 58.0417 34.6829 58.0417C33.7262 58.0417 32.9487 57.3384 32.9487 56.473C32.9487 55.6076 33.7262 54.9043 34.6829 54.9043C35.6395 54.9043 36.417 55.6076 36.417 56.473Z" fill="#0E2A4E"/>
<path d="M32.9482 60.8106C32.2863 62.0054 30.9597 62.7479 29.4799 62.7479C28.0001 62.7479 26.6735 62.0054 26.0117 60.8106L25.8296 60.4785L22.7284 61.8825L22.9105 62.2119C24.1619 64.4787 26.6793 65.8854 29.4799 65.8854C32.2806 65.8854 34.7979 64.4787 36.0494 62.2119L36.2315 61.8825L33.1303 60.4785L32.9482 60.8106Z" fill="#0E2A4E"/>
<path d="M99.3136 75.7901C97.1315 74.4724 94.7124 73.6096 92.1285 73.22L86.0533 72.3023L85.6371 71.667C87.9753 70.2734 89.8193 68.2628 90.8857 65.8862H91.9089C95.7326 65.8862 98.8454 63.0704 98.8454 59.6113C98.8454 58.1472 98.2674 56.8164 97.3338 55.7497C98.3252 51.9142 98.8454 47.9819 98.8454 44.0418V39.218C98.8454 36.6218 96.513 34.5118 93.643 34.5118H72.8595C68.9779 34.5118 65.4316 35.806 62.6975 37.929L61.7784 37.7905L61.3622 37.1525C64.2004 35.4635 66.3016 32.8594 67.1773 29.8057H67.6311C71.4548 29.8057 74.5676 26.9898 74.5676 23.5308C74.5676 22.0457 73.9722 20.6966 73.0126 19.6221L74.2612 15.4101C74.4635 14.678 74.5676 13.9302 74.5676 13.1772C74.5676 5.91146 68.0299 0 59.998 0H47.5209C39.4861 0 32.9485 5.91146 32.9485 13.1799C32.9485 13.9328 33.0496 14.6832 33.2606 15.4362L34.5034 19.6247C33.5438 20.6966 32.9485 22.0457 32.9485 23.5308C32.9485 26.9898 36.0612 29.8057 39.885 29.8057H40.3416C41.2145 32.8594 43.3186 35.4635 46.1568 37.1525L45.7406 37.7878L42.0237 38.35C38.5295 35.9551 34.1941 34.5118 29.4802 34.5118C18.006 34.5118 8.67065 42.9568 8.67065 53.3365V60.8114C8.67065 62.8063 9.07817 64.8038 9.86431 66.668C7.01745 68.1556 5.20239 70.927 5.20239 74.0174C5.20239 75.1861 5.47696 76.3261 5.98853 77.3849C2.20813 80.5145 0 84.9305 0 89.6471V97.2606H107.516V89.6445C107.516 84.0677 104.45 78.8857 99.3136 75.7901ZM45.0874 87.8483V94.1232H32.4687L43.6365 76.4411C45.4949 76.7967 47.2464 77.4425 48.836 78.3994C53.0008 80.9146 55.4893 85.1187 55.4893 89.6471V94.1232H48.5527V87.8483H45.0874ZM29.4802 69.0237C23.7431 69.0237 19.0754 64.8038 19.0754 59.6113V55.8516C19.0754 53.1456 20.983 50.7533 23.8183 49.8984L24.9021 49.5715C26.4195 51.1167 28.5611 52.1625 31.0062 52.3848L36.7607 52.9025C38.541 53.0619 39.885 54.4032 39.885 56.0216V59.6113C39.885 64.8038 35.2173 69.0237 29.4802 69.0237ZM24.7981 72.1899L25.009 71.4787C26.4166 71.9153 27.9137 72.1611 29.4802 72.1611C31.0438 72.1611 32.5438 71.9153 33.9485 71.4787L34.1595 72.1899C34.6913 73.9651 36.3271 75.3064 38.3272 75.6071L40.0064 75.8607L36.3994 81.5734H22.5581L18.9483 75.8607L20.6246 75.6071C22.6304 75.309 24.2691 73.9677 24.7981 72.1899ZM34.4196 84.7109L29.4802 92.5309L24.5408 84.7109H34.4196ZM50.9603 45.1791L48.7897 46.3583C47.9256 44.4052 46.7088 42.6169 45.2117 41.0508L46.2261 40.8991L50.9603 45.1791ZM64.2813 62.7488H64.1628C62.2495 62.7488 60.6945 61.3422 60.6945 59.6113C60.6945 57.8805 62.2495 56.4739 64.1628 56.4739V61.1801C64.1628 61.7134 64.2119 62.2337 64.2813 62.7488ZM57.5673 45.7308L56.5558 45.1817L58.2581 43.6392C57.9749 44.3137 57.735 45.0092 57.5673 45.7308ZM49.8389 49.4487L53.758 47.323L57.2667 49.229C57.3101 50.1912 57.4373 51.1507 57.6945 52.0841L58.7147 55.7784C57.7957 56.8426 57.2263 58.1629 57.2263 59.6166C57.2263 63.0756 60.339 65.8915 64.1628 65.8915H65.1859C66.2524 68.2654 68.0964 70.2786 70.4346 71.6722L70.0184 72.3075L63.9403 73.2252C61.3564 73.6148 58.9373 74.4776 56.7523 75.7953C55.6569 76.4568 54.6858 77.2516 53.7754 78.1013C53.5152 77.8582 53.2465 77.6202 52.9719 77.3902C53.4835 76.3313 53.758 75.1809 53.758 73.9887C53.758 70.927 51.943 68.1609 49.0961 66.6732C49.8822 64.809 50.2898 62.8089 50.2898 60.8166V53.3365C50.2898 52.0057 50.1308 50.7062 49.8389 49.4487ZM70.4115 82.3133L68.3363 75.7378L70.5068 75.411L75.241 79.6936L70.4115 82.3133ZM55.9575 80.5721C56.7754 79.7616 57.6627 79.0112 58.6743 78.3994C60.446 77.3326 62.4113 76.632 64.5067 76.313L64.8882 76.2555L68.316 87.1084L72.7757 84.6873L74.3624 86.5724L71.5849 94.1232H58.9604V89.6445C58.9604 86.3659 57.8766 83.2363 55.9575 80.5721ZM77.5503 87.8483H78.5185L80.8307 94.1232H75.2352L77.5503 87.8483ZM78.9087 84.7109H77.1601L75.7728 83.0637L78.0358 81.8349L80.2989 83.0637L78.9087 84.7109ZM80.8336 79.691L85.5677 75.4084L87.7354 75.7352L85.6602 82.3107L80.8336 79.691ZM82.796 73.4814L78.0358 77.7876L73.2757 73.4814L73.5589 73.0474C74.9635 73.4841 76.4665 73.7324 78.033 73.7324C79.6023 73.7324 81.1024 73.4841 82.507 73.05L82.796 73.4814ZM88.4406 61.1801C88.4406 66.3699 83.7729 70.5924 78.0358 70.5924C72.2959 70.5924 67.6311 66.3725 67.6311 61.1801V55.0464C67.6311 52.6567 69.0993 50.5023 71.4664 49.4356L72.5126 48.9624C76.978 52.7038 82.4492 55.2006 88.4406 56.2255V61.1801ZM91.9089 62.7488H91.7904C91.8626 62.2337 91.9089 61.7134 91.9089 61.1801V56.4739C93.8222 56.4739 95.3771 57.8805 95.3771 59.6113C95.3771 61.3422 93.8222 62.7488 91.9089 62.7488ZM72.8595 37.6493H93.643C94.5997 37.6493 95.3771 38.3552 95.3771 39.218V44.0418C95.3771 47.2995 94.9927 50.5494 94.2731 53.7365C93.5332 53.4907 92.7442 53.3365 91.9089 53.3365H90.3193L89.7326 53.2476C83.9897 52.3848 78.77 50.0029 74.5705 46.3792V40.7867H71.1022V46.0916L69.9143 46.6276C66.9432 47.9714 64.9374 50.4553 64.3564 53.3365H64.1628C63.3044 53.3365 62.4894 53.496 61.7292 53.7548L61.0558 51.318C60.8159 50.4474 60.6945 49.5506 60.6945 48.6512C60.6945 42.5855 66.1513 37.6493 72.8595 37.6493ZM67.6311 26.6682V20.3934C69.5444 20.3934 71.0993 21.8 71.0993 23.5308C71.0993 25.2616 69.5444 26.6682 67.6311 26.6682ZM47.518 3.13744H59.9951C66.1195 3.13744 71.0993 7.64228 71.0993 13.1799C71.0993 13.674 71.0328 14.1682 70.9086 14.6231L70.0068 17.6612C69.2611 17.4102 68.4692 17.2559 67.6311 17.2559H66.2524L55.4922 13.0857V9.41232H52.0239V13.0857L41.2636 17.2559H39.885C39.0468 17.2559 38.252 17.4102 37.5092 17.6586L36.6162 14.6466C36.4832 14.1682 36.4167 13.674 36.4167 13.1799C36.4167 7.64228 41.3966 3.13744 47.518 3.13744ZM36.4167 23.5308C36.4167 21.8 37.9717 20.3934 39.885 20.3934V26.6682C37.9717 26.6682 36.4167 25.2616 36.4167 23.5308ZM43.3532 26.6682V19.8574L53.758 15.8232L64.1628 19.8574V26.6682C64.1628 31.8607 59.4951 36.0806 53.758 36.0806C48.0181 36.0806 43.3532 31.8607 43.3532 26.6682ZM53.758 39.218C55.3274 39.218 56.8274 38.9696 58.2321 38.5356L58.5182 38.9696L53.758 43.2757L48.9978 38.9696L49.284 38.5356C50.6886 38.9696 52.1886 39.218 53.758 39.218ZM12.6852 68.9426L14.5811 68.3727L13.6881 66.7542C12.6765 64.9188 12.1389 62.8612 12.1389 60.8114V53.3365C12.1389 44.685 19.9165 37.6493 29.4802 37.6493C39.0439 37.6493 46.8215 44.685 46.8215 53.3365V60.8114C46.8215 62.8638 46.2839 64.9188 45.2695 66.7542L44.3764 68.3727L46.2724 68.9426C48.677 69.6695 50.2898 71.6931 50.2898 74.0174C50.2898 74.4959 50.2117 74.9665 50.0759 75.4214C48.073 74.3233 45.8966 73.5703 43.5758 73.22L38.8965 72.5141C38.2318 72.4147 37.6855 71.9676 37.5092 71.3741L37.1219 70.0747C40.8734 67.8236 43.3532 63.9776 43.3532 59.6113V56.0268C43.3532 52.79 40.6682 50.1049 37.1075 49.7833L31.3531 49.2656C28.3068 48.9885 26.0119 46.6929 26.0119 43.9241H22.5437C22.5437 44.936 22.7344 45.9086 23.0928 46.8106L22.72 46.923C18.4656 48.2068 15.6072 51.7939 15.6072 55.8543V59.6113C15.6072 63.9776 18.087 67.8236 21.8356 70.0747L21.4483 71.3741C21.272 71.9676 20.7257 72.4147 20.0581 72.5141L15.3846 73.22C13.0638 73.5703 10.8903 74.3207 8.88742 75.4188C8.74868 74.9586 8.67065 74.4802 8.67065 73.9834C8.67065 71.6931 10.2863 69.6668 12.6852 68.9426ZM3.46826 89.6471C3.46826 85.1187 5.95674 80.9146 10.1215 78.3994C11.714 77.4425 13.4655 76.7967 15.3239 76.4411L26.4917 94.1232H13.873V87.8483H10.4048V94.1232H3.46826V89.6471ZM104.048 94.1232H84.4868L81.7035 86.5724L83.2903 84.6873L87.7499 87.1084L91.1777 76.2555L91.5592 76.313C93.6546 76.6293 95.6199 77.33 97.3916 78.3968C101.559 80.9119 104.048 85.1161 104.048 89.6445V94.1232Z" fill="#0E2A4E"/>
<path d="M50.2899 23.5316C50.2899 24.397 49.5124 25.1003 48.5558 25.1003C47.5991 25.1003 46.8217 24.397 46.8217 23.5316C46.8217 22.6662 47.5991 21.9629 48.5558 21.9629C49.5124 21.9629 50.2899 22.6662 50.2899 23.5316Z" fill="#0E2A4E"/>
<path d="M60.6946 23.5316C60.6946 24.397 59.9171 25.1003 58.9605 25.1003C58.0038 25.1003 57.2263 24.397 57.2263 23.5316C57.2263 22.6662 58.0038 21.9629 58.9605 21.9629C59.9171 21.9629 60.6946 22.6662 60.6946 23.5316Z" fill="#0E2A4E"/>
<path d="M50.1079 27.5358L47.0067 28.9398L47.1888 29.2693C48.4403 31.5361 50.9576 32.9427 53.7583 32.9427C56.5589 32.9427 59.0763 31.5361 60.3277 29.2693L60.5098 28.9372L57.4086 27.5332L57.2265 27.8652C56.5676 29.0601 55.2381 29.8026 53.7583 29.8026C52.2785 29.8026 50.949 29.0601 50.29 27.8652L50.1079 27.5358Z" fill="#0E2A4E"/>
</g>
<defs>
<clipPath id="clip0">
<rect width="107.516" height="97.2606" fill="white"/>
</clipPath>
</defs>
</svg>
