<svg width="65" height="67" viewBox="0 0 65 67" fill="none" xmlns="http://www.w3.org/2000/svg">
<path d="M31.7662 32.1074L14.1238 50.2925C13.5495 50.8844 13.5495 51.8443 14.1238 52.4363C14.411 52.7322 14.7873 52.8803 15.1637 52.8803C15.54 52.8803 15.9163 52.7322 16.2035 52.4363L33.8459 34.2513C34.4201 33.6594 34.4201 32.6995 33.8459 32.1076C33.2716 31.5155 32.3404 31.5157 31.7662 32.1074Z" fill="#0E2A4E"/>
<path d="M59.2957 5.87675C55.6192 2.087 50.731 0 45.5316 0C40.3322 0 35.4441 2.087 31.7675 5.87675C26.0825 11.7367 24.4968 20.5196 27.6679 28.0462L0.461025 56.091C0.186025 56.3744 0.0311719 56.7587 0.0302895 57.1596L0.0136719 65.4626C0.0136719 65.477 0.0138189 65.4916 0.0142601 65.506C0.0142601 65.5063 0.0142601 65.5068 0.0142601 65.5071C0.0142601 65.5072 0.0142601 65.5075 0.0142601 65.5077C0.0242601 65.8815 0.167642 66.2522 0.444407 66.5375C0.724701 66.8264 1.09 66.9742 1.45735 66.9812C1.45735 66.9812 1.4575 66.9812 1.45764 66.9812C1.45823 66.9812 1.45867 66.9812 1.46014 66.9812C1.46544 66.9788 1.47529 66.9814 1.48264 66.9814L17.104 67C17.1046 67 17.1051 67 17.1057 67C17.4953 67 17.8693 66.8405 18.145 66.5566C18.4212 66.2722 18.5763 65.8865 18.5763 65.4842V59.1684H24.7034C25.5154 59.1684 26.174 58.4898 26.174 57.6526L26.1741 51.3369H32.3012C33.1132 51.3369 33.7718 50.6582 33.7718 49.821V42.6173L37.7881 38.4774C40.2812 39.5935 42.9153 40.138 45.5312 40.1379C50.5767 40.1376 55.5518 38.1109 59.2959 34.2517C66.8851 26.4288 66.8851 13.6997 59.2957 5.87675ZM57.2159 32.108C52.1744 37.3051 44.5062 38.5875 38.1345 35.2996C37.5681 35.0072 36.884 35.1216 36.4363 35.5832L31.2612 40.9176C30.9854 41.2018 30.8304 41.5874 30.8304 41.9894V48.3052H24.7034C23.8913 48.3052 23.2328 48.9838 23.2328 49.821L23.2326 56.1368H17.1056C16.2935 56.1368 15.635 56.8154 15.635 57.6526V63.9665L5.03044 63.9539L12.045 56.7235C12.6193 56.1316 12.6193 55.1718 12.045 54.5798C11.4706 53.9879 10.5397 53.9879 9.96514 54.5798L2.96205 61.7984L2.97014 57.7916L30.4759 29.4389C30.9237 28.9774 31.0345 28.2722 30.751 27.6886C27.5612 21.1211 28.8056 13.217 33.8473 8.02029C36.9684 4.80338 41.1179 3.03167 45.5316 3.03167C49.9453 3.03167 54.0948 4.80338 57.2159 8.02045C60.3369 11.2375 62.0557 15.5146 62.0557 20.0642C62.0557 24.6139 60.3369 28.8911 57.2159 32.108Z" fill="#0E2A4E"/>
<path d="M44.6147 10.9328C41.92 13.7107 41.92 18.2305 44.6147 21.0084C45.9622 22.3974 47.7322 23.0917 49.502 23.0917C51.272 23.0917 53.042 22.3973 54.3894 21.0083C57.0841 18.2305 57.0841 13.7106 54.3894 10.9328C51.6944 8.1552 47.3097 8.1552 44.6147 10.9328ZM52.3097 18.8647C50.7616 20.4603 48.2426 20.4603 46.6944 18.8647C45.1463 17.269 45.1463 14.6724 46.6944 13.0765C48.2425 11.4808 50.7617 11.481 52.3097 13.0765C53.8577 14.6724 53.8577 17.269 52.3097 18.8647Z" fill="#0E2A4E"/>
</svg>
