<svg width="108" height="97" viewBox="0 0 108 97" fill="none" xmlns="http://www.w3.org/2000/svg">
<path d="M50.3859 32.7613C50.3859 33.6219 49.6126 34.3214 48.661 34.3214C47.7095 34.3214 46.9362 33.6219 46.9362 32.7613C46.9362 31.9006 47.7095 31.2012 48.661 31.2012C49.6126 31.2012 50.3859 31.9006 50.3859 32.7613Z" fill="#0E2A4E"/>
<path d="M60.7352 32.7613C60.7352 33.6219 59.9619 34.3214 59.0104 34.3214C58.0588 34.3214 57.2855 33.6219 57.2855 32.7613C57.2855 31.9006 58.0588 31.2012 59.0104 31.2012C59.9619 31.2012 60.7352 31.9006 60.7352 32.7613Z" fill="#0E2A4E"/>
<path d="M60.735 40.5636V37.4434H46.9362V40.5636C46.9362 44.0036 50.0323 46.804 53.8356 46.804C57.6389 46.804 60.735 44.0036 60.735 40.5636ZM50.3859 40.5636H57.2853C57.2853 42.2849 55.7387 43.6838 53.8356 43.6838C51.9325 43.6838 50.3859 42.2849 50.3859 40.5636Z" fill="#0E2A4E"/>
<path d="M107.306 9.82604L105.026 9.07979L106.053 7.09326L99.4667 1.13367L97.2703 2.06193L96.4424 0H87.1253L86.3003 2.06193L84.104 1.13367L77.515 7.09326L78.5413 9.07979L76.2587 9.82604V18.2532L78.5384 18.9994L77.5121 20.986L81.9019 24.9616H76.2587V29.6419C76.2587 32.2239 78.5787 34.3222 81.4333 34.3222H84.1183C83.5261 35.2453 83.1582 36.301 83.1582 37.4424V47.5285C83.1582 52.2894 78.8748 56.1637 73.6111 56.1637C73.1597 56.1637 72.7084 56.1351 72.2599 56.0753L62.1868 54.7752L61.6118 52.175C65.1622 50.6903 67.6345 47.4453 67.6345 43.6829V42.1227C71.4378 42.1227 74.5339 39.3224 74.5339 35.8823C74.5339 33.7528 73.3466 31.8729 71.5413 30.747L73.1741 27.7932C74.0653 26.1837 74.5339 24.3792 74.5339 22.5799C74.5339 16.1497 68.7527 10.9207 61.6463 10.9207H54.6492C49.5982 10.9207 45.0245 13.2895 42.4659 17.1611H40.4421C36.4146 17.1611 33.1373 20.1253 33.1373 23.7682C33.1373 24.79 33.4047 25.8119 33.9078 26.7245L36.13 30.7444C34.3246 31.8729 33.1373 33.7528 33.1373 35.8823C33.1373 39.3224 36.2335 42.1227 40.0368 42.1227V43.6829C40.0368 47.4453 42.5091 50.6903 46.0594 52.175L45.4844 54.7752L35.4113 56.0753C34.9628 56.1325 34.5115 56.1637 34.0601 56.1637C28.7965 56.1637 24.5131 52.2894 24.5131 47.5285V37.4424C24.5131 36.301 24.148 35.2453 23.5529 34.3222H26.2379C29.0926 34.3222 31.4125 32.2239 31.4125 29.6419V24.9616H20.9282L31.7776 10.9441L23.711 0H8.06657L0 10.9441L10.8493 24.9616H0.365094V29.6419C0.365094 32.2239 2.68502 34.3222 5.53966 34.3222H7.26452C7.26452 36.6208 8.66165 38.6125 10.7142 39.6942V49.9233C10.7142 60.2459 19.9997 68.6445 31.4125 68.6445H33.1373V96.7263H74.5339V68.6445H76.2587C81.7869 68.6445 86.9845 66.697 90.8913 63.1607C94.8038 59.6271 96.957 54.9234 96.957 49.9233V39.6942C99.0096 38.6125 100.407 36.6208 100.407 34.3222H102.132C104.986 34.3222 107.306 32.2239 107.306 29.6419V24.9616H101.663L106.053 20.9886L105.026 19.002L107.306 18.2532V9.82604ZM57.1876 85.2492L53.8356 88.281L50.4836 85.2492L53.4763 64.934L53.8327 64.609L54.1921 64.934L57.1876 85.2492ZM51.3978 62.4041L46.5654 66.7724L45.5851 57.9136L46.3239 57.82L51.3978 62.4041ZM56.2734 62.4041L61.3416 57.82L62.0804 57.9136L61.1001 66.7724L56.2734 62.4041ZM67.6345 39.0025V32.7621C69.5376 32.7621 71.0842 34.161 71.0842 35.8823C71.0842 37.6037 69.5376 39.0025 67.6345 39.0025ZM36.5871 35.8823C36.5871 34.161 38.1337 32.7621 40.0368 32.7621V39.0025C38.1337 39.0025 36.5871 37.6037 36.5871 35.8823ZM41.5518 26.0641C40.5772 26.9456 40.0368 28.1234 40.0368 29.3741V29.6419C39.824 29.6419 39.6199 29.6835 39.4101 29.6991L36.9953 25.3309C36.7279 24.8472 36.5899 24.309 36.5899 23.7708C36.5871 21.8466 38.3177 20.2813 40.4421 20.2813H44.5501L45.0274 19.4181C46.8615 16.1029 50.5469 14.0409 54.6463 14.0409H61.6435C66.8497 14.0409 71.0842 17.871 71.0842 22.5773C71.0842 23.8956 70.7392 25.2138 70.0866 26.3943L68.2612 29.6991C68.0513 29.6809 67.8472 29.6419 67.6345 29.6419H67.3182C66.6024 27.8322 64.708 26.5217 62.4599 26.5217C60.7207 26.5217 59.0217 25.8847 57.7913 24.7718L53.3297 20.7364L50.8919 22.9413L54.767 26.4463C53.3153 26.2851 51.9325 25.7105 50.8919 24.7692L46.9362 21.1966L41.5518 26.0641ZM43.4865 43.6829V29.3741C43.4865 28.9633 43.6705 28.5603 43.9924 28.2716L46.9362 25.6065L48.4512 26.9768C50.3255 28.6721 52.9157 29.6419 55.5605 29.6419H62.4599C63.4114 29.6419 64.1847 30.3414 64.1847 31.202V43.6829C64.1847 47.1229 61.0886 49.9233 57.2853 49.9233H50.3859C46.5826 49.9233 43.4865 47.1229 43.4865 43.6829ZM50.3859 53.0435H57.2853C57.6188 53.0435 57.9494 53.0253 58.2771 52.9967L58.8636 55.6488L53.8356 60.1991L48.8077 55.6514L49.3941 52.9993C49.7218 53.0253 50.0524 53.0435 50.3859 53.0435ZM17.6136 12.4808H26.373L17.6136 23.802V12.4808ZM19.1114 9.36061L22.7882 4.37349L26.465 9.36061H19.1114ZM15.8888 8.10733L12.212 3.1202H19.5656L15.8888 8.10733ZM12.6662 9.36061H5.31255L8.98937 4.37349L12.6662 9.36061ZM14.1639 12.4808V23.802L5.40455 12.4808H14.1639ZM5.53966 31.202C4.58812 31.202 3.81481 30.5026 3.81481 29.6419V28.0818H27.9628V29.6419C27.9628 30.5026 27.1895 31.202 26.2379 31.202H5.53966ZM17.6136 34.3222C19.5167 34.3222 21.0634 35.7211 21.0634 37.4424H14.1639C12.2608 37.4424 10.7142 36.0436 10.7142 34.3222H17.6136ZM93.5073 49.9233C93.5073 54.0913 91.7134 58.0098 88.4535 60.9558C85.1964 63.9018 80.867 65.5243 76.2587 65.5243H74.5339V62.4041H71.0842V93.6061H36.5871V62.4041H33.1373V65.5243H31.4125C21.8999 65.5243 14.1639 58.5272 14.1639 49.9233V40.5626H21.0634V47.5285C21.0634 54.0107 26.8934 59.2839 34.0601 59.2839C34.6782 59.2839 35.2963 59.2449 35.8971 59.1669L42.1641 58.3556L43.8545 73.6368L49.4574 68.5665L46.8327 86.3646L53.8356 92.6909L60.8328 86.362L58.2081 68.5665L63.8139 73.6368L65.5014 58.3556L71.7684 59.1669C72.3721 59.2449 72.9901 59.2839 73.6082 59.2839C80.775 59.2839 86.6079 54.0107 86.6079 47.5285V40.5626H93.5073V49.9233ZM93.5073 37.4424H86.6079C86.6079 35.7211 88.1545 34.3222 90.0576 34.3222H96.957C96.957 36.0436 95.4104 37.4424 93.5073 37.4424ZM103.856 29.6419C103.856 30.5026 103.083 31.202 102.132 31.202H81.4333C80.4818 31.202 79.7084 30.5026 79.7084 29.6419V28.0818H103.856V29.6419ZM103.856 16.0665L102.436 16.5345L101.674 16.8491L100.939 18.4586L101.907 20.3281L98.7365 23.1961L96.6695 22.3199L94.8067 23.0167L94.0219 24.9616H89.5401L89.0227 23.6771L88.6748 22.9881L86.8953 22.3225L84.8284 23.1987L81.6575 20.3307L82.6235 18.4612L81.853 16.7763L79.7084 16.0665V12.0154L81.1286 11.5474L81.8904 11.2327L82.6263 9.62323L81.6604 7.75371L84.8313 4.88572L86.8982 5.75938L88.7611 5.06253L89.543 3.1176H94.0247L94.5422 4.40209L94.89 5.09113L96.6695 5.75678L98.7365 4.88052L101.907 7.74851L100.936 9.62063L101.706 11.3055L103.856 12.0154V16.0665Z" fill="#0E2A4E"/>
<path d="M91.7828 6.24023C87.0279 6.24023 83.1585 9.74006 83.1585 14.0407C83.1585 18.3414 87.0279 21.8413 91.7828 21.8413C96.5376 21.8413 100.407 18.3414 100.407 14.0407C100.407 9.74006 96.5376 6.24023 91.7828 6.24023ZM91.7828 18.721C88.9282 18.721 86.6082 16.6227 86.6082 14.0407C86.6082 11.4588 88.9282 9.36044 91.7828 9.36044C94.6374 9.36044 96.9574 11.4588 96.9574 14.0407C96.9574 16.6227 94.6374 18.721 91.7828 18.721Z" fill="#0E2A4E"/>
</svg>
