<svg width="59" height="72" viewBox="0 0 59 72" fill="none" xmlns="http://www.w3.org/2000/svg">
<path d="M54.6244 0H4.3756C1.95914 0.0037502 0.00376396 1.95198 0 4.3596V67.6404C0.00376396 70.048 1.95914 71.9981 4.3756 72H54.6244C57.0409 71.9981 58.9962 70.048 59 67.6404V4.3596C58.9962 1.95198 57.0409 0.0037502 54.6244 0ZM57.0239 67.6404C57.022 68.9605 55.9493 70.0312 54.6244 70.0312H4.3756C3.05069 70.0312 1.97796 68.9605 1.97608 67.6404V4.3596C1.97796 3.03953 3.05069 1.97073 4.3756 1.96885H54.6244C55.9493 1.97073 57.022 3.03953 57.0239 4.3596V67.6404Z" fill="#0E2A4E"/>
<path d="M53.4951 4.5H5.50467C4.9589 4.5 4.51663 4.94065 4.51663 5.48443V66.5151C4.51663 67.0589 4.9589 67.4995 5.50467 67.4995H53.4951C54.0409 67.4995 54.4831 67.0589 54.4831 66.5151V5.48443C54.4831 4.94065 54.0409 4.5 53.4951 4.5ZM40.3683 50.1493L36.8565 49.9242L35.2155 48.8292C33.516 47.7004 32.4979 45.8009 32.4998 43.7664V29.3544C32.4998 24.9348 29.9591 21.254 26.6205 20.4833C28.4215 19.6508 30.3844 19.2214 32.3699 19.2214C36.785 19.227 40.3645 22.7916 40.3683 27.1906V50.1493ZM18.6315 45.334V32.9077C18.6315 32.8233 18.6371 32.739 18.6371 32.6546C19.5725 35.636 21.7311 37.843 24.3301 38.2949V43.097L18.6315 45.334ZM18.0631 47.7491C18.0763 47.7435 18.0895 47.7416 18.1026 47.7341C18.1158 47.7266 18.1177 47.721 18.1271 47.7172C18.4583 47.5447 18.8008 47.3872 19.149 47.2485L25.6814 44.6833C26.0596 44.5352 26.3081 44.1714 26.3081 43.7664V37.3948C26.3081 36.8511 25.8658 36.4104 25.32 36.4104C22.45 36.4104 20.1145 33.2434 20.1145 29.3525C20.0862 27.5975 20.6038 25.8761 21.5956 24.4267C21.7875 24.1867 21.9833 23.9504 22.1903 23.7235C22.992 22.8403 24.1231 22.3247 25.3163 22.2947C28.1863 22.2947 30.5199 25.4617 30.5199 29.3525V43.7664C30.518 46.4572 31.8674 48.9717 34.1126 50.4643L34.5699 50.7699L31.7564 52.195C29.4641 53.3575 26.8162 53.6219 24.3376 52.9356L19.2469 51.5293L14.8581 50.318C15.7502 49.2661 16.8379 48.3923 18.0631 47.7491ZM12.2798 57.3159C12.2798 55.4652 12.7578 53.6463 13.6687 52.0337L17.9972 53.2282V61.1748C17.9972 61.7186 18.4395 62.1593 18.9853 62.1593H25.4423V65.5307H12.2798V57.3159ZM27.4184 65.5288V62.1593H30.774C32.8065 62.1611 34.5718 63.5581 35.0329 65.5307L27.4184 65.5288ZM37.0372 65.5288C36.5479 62.4574 33.8943 60.1941 30.774 60.1904H19.9733V53.7776L23.8126 54.837C26.7673 55.6545 29.9233 55.3395 32.656 53.9538L36.7342 51.8893L40.5452 52.135H40.6092C43.9817 52.1387 46.7162 54.8614 46.72 58.2215V65.5307L37.0372 65.5288ZM52.5071 65.5288H48.6961V58.2215C48.6904 54.4413 46.05 51.1712 42.3444 50.3555V27.1906C42.3387 21.704 37.8747 17.2582 32.3699 17.2525C23.6959 17.2619 16.6667 24.2654 16.6554 32.9077V46.2753C12.7277 48.5798 10.3131 52.7763 10.3037 57.3177V65.5307H6.49083V6.46885H52.509L52.5071 65.5288Z" fill="#0E2A4E"/>
</svg>
