<svg width="69" height="67" viewBox="0 0 69 67" fill="none" xmlns="http://www.w3.org/2000/svg">
<path d="M63.4355 40.1999V36.8499C63.4318 33.7679 60.9426 31.2703 57.871 31.2666H38.9516C37.1988 31.2666 35.5498 32.0948 34.5 33.5037C33.4502 32.0948 31.8012 31.2666 30.0484 31.2666H11.129C8.05742 31.2703 5.56823 33.7679 5.56452 36.8499V40.1999C2.4929 40.2037 0.00370968 42.7013 0 45.7833V65.8833C0 66.4993 0.498952 66.9999 1.1129 66.9999H67.8871C68.5011 66.9999 69 66.4993 69 65.8833V45.7833C68.9963 42.7013 66.5071 40.2037 63.4355 40.1999ZM11.129 64.7666H2.22581V45.7833C2.22766 43.9333 3.72081 42.4351 5.56452 42.4333H7.79032C9.63403 42.4351 11.1272 43.9333 11.129 45.7833V64.7666ZM7.79032 40.1999V36.8499C7.79218 35 9.28532 33.5018 11.129 33.4999H30.0484C31.8921 33.5018 33.3852 35 33.3871 36.8499V50.2537C32.4244 49.526 31.254 49.1333 30.0484 49.1333H16.6935C15.4879 49.1314 14.3175 49.526 13.3548 50.2537V45.7833C13.3511 42.7013 10.8619 40.2037 7.79032 40.1999ZM33.3871 54.7166V58.0666H13.3548V54.7166C13.3567 52.8667 14.8498 51.3685 16.6935 51.3666H30.0484C31.8921 51.3685 33.3852 52.8667 33.3871 54.7166ZM55.6452 64.7666H13.3548V60.2999H55.6452V64.7666ZM55.6452 58.0666H35.6129V54.7166C35.6148 52.8667 37.1079 51.3685 38.9516 51.3666H52.3065C54.1502 51.3685 55.6433 52.8667 55.6452 54.7166V58.0666ZM55.6452 45.7833V50.2537C54.6825 49.526 53.5121 49.1333 52.3065 49.1333H38.9516C37.746 49.1314 36.5756 49.526 35.6129 50.2537V36.8499C35.6148 35 37.1079 33.5018 38.9516 33.4999H57.871C59.7147 33.5018 61.2078 35 61.2097 36.8499V40.1999C58.1381 40.2037 55.6489 42.7013 55.6452 45.7833ZM66.7742 64.7666H57.871V45.7833C57.8728 43.9333 59.366 42.4351 61.2097 42.4333H63.4355C65.2792 42.4351 66.7723 43.9333 66.7742 45.7833V64.7666Z" fill="#0E2A4E"/>
<path d="M51.1936 0H17.8065C17.1926 0 16.6936 0.500639 16.6936 1.11667V25.6833C16.6936 26.2994 17.1926 26.8 17.8065 26.8H51.1936C51.8076 26.8 52.3065 26.2994 52.3065 25.6833V1.11667C52.3065 0.500639 51.8076 0 51.1936 0ZM50.0807 24.5667H18.9194V2.23333H50.0807V24.5667Z" fill="#0E2A4E"/>
<path d="M47.8548 3.3501H21.1451C20.5312 3.3501 20.0322 3.85074 20.0322 4.46676V22.3334C20.0322 22.9495 20.5312 23.4501 21.1451 23.4501H47.8548C48.4688 23.4501 48.9677 22.9495 48.9677 22.3334V4.46676C48.9677 3.85074 48.4688 3.3501 47.8548 3.3501ZM25.747 21.2168L28.9355 17.3792L32.1239 21.2168H25.747ZM35.0212 21.2168L32.7026 18.4251L37.2377 12.9665L43.4032 21.2168H35.0212ZM46.7419 21.2168H46.1854L38.1725 10.4968C37.9685 10.2232 37.6513 10.0594 37.31 10.0501C36.9688 10.0408 36.6442 10.1897 36.4271 10.4521L31.254 16.6812L29.7905 14.9206C29.5791 14.6638 29.2656 14.5168 28.9355 14.5168C28.6053 14.5168 28.2918 14.6638 28.0804 14.9188L22.8497 21.2168H22.258V5.58343H46.7419V21.2168Z" fill="#0E2A4E"/>
<path d="M28.9355 13.3999C30.2858 13.3999 31.5026 12.5829 32.0201 11.3322C32.5376 10.0816 32.252 8.64108 31.2967 7.68261C30.3415 6.72413 28.9058 6.43752 27.6594 6.95677C26.4111 7.47416 25.5968 8.69505 25.5968 10.0499C25.5987 11.8999 27.0918 13.3981 28.9355 13.3999ZM28.9355 8.93327C29.3862 8.93327 29.7906 9.205 29.9631 9.62189C30.1356 10.0388 30.0391 10.5189 29.722 10.8391C29.4029 11.1573 28.9244 11.2541 28.5089 11.081C28.0934 10.9079 27.8226 10.5022 27.8226 10.0499C27.8226 9.43391 28.3216 8.93327 28.9355 8.93327Z" fill="#0E2A4E"/>
</svg>
