<svg width="76" height="58" viewBox="0 0 76 58" fill="none" xmlns="http://www.w3.org/2000/svg">
<g clip-path="url(#clip0)">
<path d="M1.31859 25.5927H16.2845V30.0241H11.1552C10.4267 30.0241 9.83665 30.6039 9.83665 31.3198C9.83665 32.0357 10.4267 32.6156 11.1552 32.6156H16.2845V37.047H4.12717C3.39866 37.047 2.80859 37.6268 2.80859 38.3427C2.80859 39.0586 3.39866 39.6384 4.12717 39.6384H16.2845V45.0545C16.2878 45.5777 16.6092 46.0474 17.1021 46.2466L45.689 57.9082C45.8324 57.9632 45.984 57.994 46.1373 57.9989C46.2906 57.994 46.4422 57.9632 46.5856 57.9082L75.1726 46.2466C75.6654 46.0474 75.9868 45.5777 75.9901 45.0545V12.6614C76.0033 12.5545 76.0033 12.4443 75.9901 12.3374V12.2338C75.9621 12.1625 75.9258 12.0929 75.8846 12.0264L75.8055 11.9228L75.6473 11.7543L75.555 11.6766L75.3836 11.5989H75.3176L46.6779 0.092797C46.3615 -0.0335365 46.0055 -0.0335365 45.689 0.092797L17.1152 11.4045H17.0493L16.8779 11.4822L16.7856 11.56L16.6274 11.7284L16.5483 11.8321C16.507 11.8985 16.4708 11.9681 16.4428 12.0394V12.1431C16.4296 12.25 16.4296 12.3601 16.4428 12.467V22.8328H1.31859C0.590067 22.8328 0 23.4127 0 24.1285C0 24.8444 0.590067 25.4243 1.31859 25.4243V25.5927ZM55.5257 19.1141L46.1901 22.9365L35.7732 18.6476L60.4572 8.35954L71.2564 12.6354L55.5257 19.1141ZM73.4452 44.1864L47.4955 54.7855V25.1263L54.9191 22.0943L73.3793 14.5272L73.4452 44.1864ZM46.1769 2.72312L57.0157 6.98607L32.3581 17.2353L21.0842 12.6225L46.1769 2.72312ZM18.9217 14.5531L28.9957 18.6476L44.8187 25.1263V54.7855L18.9217 44.1864V39.6254H24.3938C25.1224 39.6254 25.7124 39.0456 25.7124 38.3297C25.7124 37.6138 25.1224 37.034 24.3938 37.034H18.9217V32.6026H31.4483C32.1768 32.6026 32.7669 32.0228 32.7669 31.3069C32.7669 30.591 32.1768 30.0111 31.4483 30.0111H18.9217V25.5927H21.5589C22.2874 25.5927 22.8775 25.0129 22.8775 24.297C22.8775 23.5811 22.2874 23.0013 21.5589 23.0013H18.9217V14.5531Z" fill="#0E2A4E"/>
</g>
<defs>
<clipPath id="clip0">
<rect width="76" height="58" fill="white"/>
</clipPath>
</defs>
</svg>
