<svg width="68" height="68" viewBox="0 0 68 68" fill="none" xmlns="http://www.w3.org/2000/svg">
<g clip-path="url(#clip0)">
<path d="M57.7292 67.5516H24.2292C20.3822 67.5516 17.25 64.4221 17.25 60.5724V18.6974C17.25 14.8477 20.3822 11.7183 24.2292 11.7183H57.7292C61.5761 11.7183 64.7083 14.8477 64.7083 18.6974V60.5724C64.7083 64.4221 61.5761 67.5516 57.7292 67.5516ZM24.2292 14.5099C21.9205 14.5099 20.0417 16.3887 20.0417 18.6974V60.5724C20.0417 62.8811 21.9205 64.7599 24.2292 64.7599H57.7292C60.0379 64.7599 61.9167 62.8811 61.9167 60.5724V18.6974C61.9167 16.3887 60.0379 14.5099 57.7292 14.5099H24.2292Z" fill="#0E2A4E"/>
<path d="M13.0625 59.1768H10.2708C6.42388 59.1768 3.29163 56.0473 3.29163 52.1976V7.53092C3.29163 3.68122 6.42388 0.551758 10.2708 0.551758H43.7708C47.6177 0.551758 50.75 3.68122 50.75 7.53092C50.75 8.30142 50.1246 8.92676 49.3541 8.92676C48.5836 8.92676 47.9583 8.30142 47.9583 7.53092C47.9583 5.22222 46.0795 3.34342 43.7708 3.34342H10.2708C7.96208 3.34342 6.08329 5.22222 6.08329 7.53092V52.1976C6.08329 54.5063 7.96208 56.3851 10.2708 56.3851H13.0625C13.833 56.3851 14.4583 57.0104 14.4583 57.7809C14.4583 58.5514 13.833 59.1768 13.0625 59.1768Z" fill="#0E2A4E"/>
<path d="M52.1458 48.0099H29.8125C29.042 48.0099 28.4166 47.3846 28.4166 46.6141C28.4166 45.8436 29.042 45.2183 29.8125 45.2183H52.1458C52.9163 45.2183 53.5416 45.8436 53.5416 46.6141C53.5416 47.3846 52.9163 48.0099 52.1458 48.0099Z" fill="#0E2A4E"/>
<path d="M52.1458 59.1769H29.8125C29.042 59.1769 28.4166 58.5516 28.4166 57.7811C28.4166 57.0106 29.042 56.3853 29.8125 56.3853H52.1458C52.9163 56.3853 53.5416 57.0106 53.5416 57.7811C53.5416 58.5516 52.9163 59.1769 52.1458 59.1769Z" fill="#0E2A4E"/>
<path d="M52.1458 36.8434H29.8125C29.042 36.8434 28.4166 36.2181 28.4166 35.4476C28.4166 34.6771 29.042 34.0518 29.8125 34.0518H52.1458C52.9163 34.0518 53.5416 34.6771 53.5416 35.4476C53.5416 36.2181 52.9163 36.8434 52.1458 36.8434Z" fill="#0E2A4E"/>
<path d="M52.1458 25.6769H29.8125C29.042 25.6769 28.4166 25.0516 28.4166 24.2811C28.4166 23.5106 29.042 22.8853 29.8125 22.8853H52.1458C52.9163 22.8853 53.5416 23.5106 53.5416 24.2811C53.5416 25.0516 52.9163 25.6769 52.1458 25.6769Z" fill="#0E2A4E"/>
</g>
<defs>
<clipPath id="clip0">
<rect width="67" height="67" fill="white" transform="translate(0.5 0.551758)"/>
</clipPath>
</defs>
</svg>
