<svg width="20" height="12" viewBox="0 0 20 12" fill="none" xmlns="http://www.w3.org/2000/svg">
<path d="M10.3002 0.384766C6.24519 0.384766 2.62428 2.48197 0.85163 5.86238C0.776019 6.00495 0.776019 6.17346 0.85163 6.31603C2.62428 9.69385 6.24519 11.7911 10.3002 11.7911C14.3551 11.7911 17.976 9.69385 19.7487 6.31344C19.8243 6.17086 19.8243 6.00236 19.7487 5.85978C17.976 2.48197 14.3551 0.384766 10.3002 0.384766ZM10.3002 10.7541C6.76886 10.7541 3.60722 8.97318 1.98299 6.08791C3.60722 3.20264 6.77166 1.4217 10.3002 1.4217C13.8287 1.4217 16.9931 3.20264 18.6173 6.08791C16.9931 8.97318 13.8315 10.7541 10.3002 10.7541Z" fill="#C4C4C4"/>
<path d="M10.3002 2.84749C8.37069 2.84749 6.79967 4.30179 6.79967 6.08791C6.79967 7.87403 8.37069 9.32833 10.3002 9.32833C12.2296 9.32833 13.8007 7.87403 13.8007 6.08791C13.8007 4.30179 12.2296 2.84749 10.3002 2.84749ZM10.3002 8.2914C8.98678 8.2914 7.91983 7.30372 7.91983 6.08791C7.91983 4.8721 8.98678 3.88442 10.3002 3.88442C11.6135 3.88442 12.6805 4.8721 12.6805 6.08791C12.6805 7.30372 11.6135 8.2914 10.3002 8.2914Z" fill="#C4C4C4"/>
</svg>
