<svg width="16" height="13" viewBox="0 0 16 13" fill="none" xmlns="http://www.w3.org/2000/svg">
<path d="M3.46455 7.61143L7.9459 12.0353C8.03146 12.1196 8.14939 12.1684 8.27426 12.1706C8.29738 12.1706 8.3205 12.1684 8.34363 12.1662C8.36444 12.1684 8.38756 12.1706 8.40838 12.1706H8.413C8.53556 12.1706 8.65348 12.1218 8.74135 12.0353L13.2158 7.61586L14.8714 6.02736C16.3051 4.65184 16.3051 2.41329 14.8714 1.03777C14.1777 0.372191 13.2528 0.00390625 12.2723 0.00390625C11.2896 0.00390625 10.3669 0.369972 9.67323 1.03777L8.34132 2.31345L7.01171 1.03777C6.318 0.372191 5.39306 0.00390625 4.41262 0.00390625C3.42987 0.00390625 2.50724 0.369972 1.81353 1.03777C0.379866 2.41329 0.379866 4.65184 1.81353 6.02736L3.46455 7.61143ZM2.46561 1.66562C3.00208 1.15091 3.70735 0.893558 4.41262 0.893558C5.11789 0.893558 5.82316 1.15091 6.35962 1.66562L8.01527 3.25413C8.19564 3.42718 8.48931 3.42718 8.66967 3.25413L10.3253 1.66562C11.3983 0.636202 13.1441 0.636202 14.217 1.66562C15.29 2.69505 15.29 4.37008 14.217 5.3995L12.5567 6.99244L8.34132 11.1545L4.12357 6.988L2.46793 5.3995C1.39268 4.37008 1.39268 2.69505 2.46561 1.66562Z" fill="#C4C4C4"/>
</svg>
