<svg width="80" height="81" viewBox="0 0 80 81" fill="none" xmlns="http://www.w3.org/2000/svg">
<g clip-path="url(#clip0)">
<path d="M54.1627 9.59173H72.401C73.0483 9.59173 73.5729 9.0672 73.5729 8.41986C73.5729 7.77252 73.0483 7.24799 72.401 7.24799H54.1627C53.5154 7.24799 52.9908 7.77252 52.9908 8.41986C52.9908 9.0672 53.5154 9.59173 54.1627 9.59173Z" fill="url(#paint0_linear)"/>
<path d="M54.1627 15.0605H72.401C73.0483 15.0605 73.5729 14.536 73.5729 13.8886C73.5729 13.2413 73.0483 12.7167 72.401 12.7167H54.1627C53.5154 12.7167 52.9908 13.2413 52.9908 13.8886C52.9908 14.536 53.5154 15.0605 54.1627 15.0605Z" fill="url(#paint1_linear)"/>
<path d="M45.4902 60.1777L40.1569 58.7289L38.5567 56.3363C37.5934 54.8955 35.6109 54.4813 34.1378 55.5177V52.6909C36.3238 51.2234 38.0327 49.1002 38.9852 46.6058H42.8161C44.8173 46.6058 46.4455 44.9777 46.4455 42.9764V38.1927C46.4455 37.3036 46.1236 36.4886 45.5909 35.8569V30.6534C45.5909 22.6575 39.0858 16.1523 31.0898 16.1523H22.9469C14.9509 16.1523 8.44563 22.6575 8.44563 30.6534V35.857C7.91313 36.4888 7.59125 37.3036 7.59125 38.1927V42.9764C7.59125 44.9777 9.21922 46.6058 11.2205 46.6058H15.0516C16.0041 49.1002 17.713 51.2233 19.8988 52.6908V55.5175C18.4456 54.4948 16.4567 54.875 15.48 56.3359L13.8797 58.7288C8.43922 60.2169 8.42578 60.1859 7.72266 60.4344C7.1125 60.6498 6.79234 61.3192 7.00781 61.9295C7.22297 62.5386 7.88156 62.8314 8.50297 62.6444C8.50297 62.6444 8.9675 62.5056 14.3108 61.0402L20.0203 66.0406C21.3775 67.2292 23.4291 67.2348 24.7928 66.0553L27.0184 64.1305L29.2439 66.0553C30.6055 67.233 32.6575 67.2308 34.0164 66.0405L39.7259 61.0402L44.8759 62.4391C48.8897 63.5295 51.693 67.1956 51.693 71.355V76.8633C51.693 77.3033 51.3348 77.6614 50.8948 77.6614H46.6669V74.7739C46.6669 74.1266 46.1423 73.602 45.495 73.602C44.8477 73.602 44.3231 74.1266 44.3231 74.7739V77.6614H9.71375V74.7739C9.71375 74.1266 9.18922 73.602 8.54188 73.602C7.89453 73.602 7.37 74.1266 7.37 74.7739V77.6614H3.14188C2.70188 77.6614 2.34375 77.3033 2.34375 76.8633V71.355C2.34375 69.1975 3.10469 67.0966 4.48641 65.4387C4.90078 64.9416 4.83375 64.2027 4.33656 63.7884C3.83953 63.3742 3.10047 63.4411 2.68625 63.9383C0.953906 66.0164 0 68.6505 0 71.3552V76.8634C0 78.5959 1.40953 80.0053 3.14188 80.0053H50.8945C52.627 80.0053 54.0364 78.5958 54.0364 76.8634V71.3552C54.0366 66.1408 50.5222 61.5445 45.4902 60.1777ZM44.1016 38.1927V42.9764C44.1016 43.6853 43.525 44.262 42.8159 44.262H39.63C39.7556 43.5433 39.825 42.8055 39.825 42.0514V36.9072H42.8161C43.525 36.9072 44.1016 37.4837 44.1016 38.1927ZM11.2205 44.262C10.5117 44.262 9.935 43.6855 9.935 42.9764V38.1927C9.935 37.4837 10.5116 36.907 11.2205 36.907H14.2117V42.0513C14.2117 42.8053 14.2809 43.5433 14.4067 44.2619H11.2205V44.262ZM12.7414 30.5522V34.5634C11.2941 34.5711 11.1675 34.545 10.7894 34.5898V30.6534C10.7894 23.95 16.2431 18.4961 22.9469 18.4961H31.0898C37.7933 18.4961 43.2472 23.9498 43.2472 30.6534V34.5898C42.8697 34.545 42.75 34.5711 41.2953 34.5634V30.5522C41.2953 24.8553 36.6605 20.2206 30.9636 20.2206H23.0733C17.3763 20.2206 12.7414 24.8553 12.7414 30.5522ZM15.3834 34.5634C15.3833 34.5634 15.3833 34.5634 15.3834 34.5634H15.0852V30.5522C15.0852 26.1478 18.6686 22.5644 23.0731 22.5644H30.9634C35.368 22.5644 38.9514 26.1478 38.9514 30.5522V34.5634H38.6531C37.9739 34.5634 37.4214 34.0109 37.4214 33.3317V31.6061C37.4214 29.662 35.8397 28.0803 33.8955 28.0803C33.3947 28.0803 32.9091 28.1842 32.452 28.3894C28.9988 29.9391 25.038 29.9394 21.5844 28.3892C21.1273 28.1842 20.6417 28.0803 20.1411 28.0803C18.197 28.0803 16.6153 29.662 16.6153 31.6061V33.3317C16.6152 34.0109 16.0627 34.5634 15.3834 34.5634ZM16.5553 42.0514V36.7098C17.953 36.2237 18.9589 34.893 18.9589 33.3317V31.6061C18.9589 30.9542 19.4892 30.4241 20.1409 30.4241C20.3089 30.4241 20.4719 30.4591 20.625 30.5277C24.688 32.3509 29.3484 32.3509 33.4114 30.5277C33.5645 30.4591 33.7273 30.4241 33.8955 30.4241C34.5473 30.4241 35.0777 30.9544 35.0777 31.6061V33.3317C35.0777 34.893 36.0836 36.2237 37.4813 36.7098V42.0514C37.4813 47.8208 32.7877 52.5144 27.0183 52.5144C21.2489 52.5144 16.5553 47.8208 16.5553 42.0514ZM23.2594 64.2828C22.7748 64.7019 22.0463 64.6994 21.5642 64.2777L16.1559 59.5411L17.4283 57.6389C17.6869 57.2523 18.2183 57.1673 18.5842 57.4547L25.1758 62.6253L23.2594 64.2828ZM22.2425 57.3455V53.9308C23.7195 54.5267 25.3305 54.8581 27.0183 54.8581C28.7061 54.8581 30.317 54.5269 31.7939 53.9309V57.3456L27.0183 61.0919L22.2425 57.3455ZM32.472 64.2777C31.9902 64.6997 31.2616 64.7017 30.7769 64.2827L28.8606 62.6253L35.4522 57.4547C35.8161 57.1694 36.3481 57.2502 36.6083 57.6391L37.8803 59.5411L32.472 64.2777Z" fill="url(#paint2_linear)"/>
<path d="M75.4285 0.0571899H51.0537C48.5331 0.0571899 46.4823 2.10797 46.4823 4.62875V5.68047C46.4823 6.32782 47.0068 6.85235 47.6542 6.85235C48.3015 6.85235 48.826 6.32782 48.826 5.68047V4.62875C48.826 3.40047 49.8254 2.40094 51.0537 2.40094H75.4285C76.6568 2.40094 77.6562 3.40032 77.6562 4.62875V17.8991C77.6562 19.1273 76.6568 20.1267 75.4285 20.1267H60.9264C60.1128 20.1267 59.3481 20.4438 58.7732 21.0194L53.3807 26.42L54.2681 22.2828C54.5062 21.1717 53.6589 20.1266 52.5253 20.1266H51.0539C49.8256 20.1266 48.8262 19.1272 48.8262 17.8989V11.1591C48.8262 10.5117 48.3017 9.98719 47.6543 9.98719C47.007 9.98719 46.4825 10.5117 46.4825 11.1591V17.8991C46.4825 20.4197 48.5332 22.4705 51.0539 22.4705H51.8309L50.5296 28.5373C50.3836 29.2183 50.6965 29.8994 51.3084 30.232C51.9226 30.5658 52.664 30.4552 53.154 29.9642L60.4317 22.6756C60.5639 22.5433 60.7395 22.4706 60.9264 22.4706H75.4285C77.9492 22.4706 79.9999 20.4198 79.9999 17.8992V4.62891C79.9999 2.10797 77.9492 0.0571899 75.4285 0.0571899Z" fill="url(#paint3_linear)"/>
</g>
<defs>
<linearGradient id="paint0_linear" x1="54.1048" y1="12.1001" x2="73.6704" y2="-0.389608" gradientUnits="userSpaceOnUse">
<stop stop-color="#85BDBE"/>
<stop offset="1" stop-color="#D7AC6C"/>
</linearGradient>
<linearGradient id="paint1_linear" x1="54.1048" y1="17.5689" x2="73.6704" y2="5.07915" gradientUnits="userSpaceOnUse">
<stop stop-color="#85BDBE"/>
<stop offset="1" stop-color="#D7AC6C"/>
</linearGradient>
<linearGradient id="paint2_linear" x1="2.92448" y1="148.344" x2="74.9518" y2="143.913" gradientUnits="userSpaceOnUse">
<stop stop-color="#85BDBE"/>
<stop offset="1" stop-color="#D7AC6C"/>
</linearGradient>
<linearGradient id="paint3_linear" x1="48.2963" y1="62.9231" x2="92.8555" y2="59.3479" gradientUnits="userSpaceOnUse">
<stop stop-color="#85BDBE"/>
<stop offset="1" stop-color="#D7AC6C"/>
</linearGradient>
<clipPath id="clip0">
<rect width="80" height="80" fill="white" transform="translate(0 0.03125)"/>
</clipPath>
</defs>
</svg>
