<svg width="83" height="79" viewBox="0 0 83 79" fill="none" xmlns="http://www.w3.org/2000/svg">
<path fill-rule="evenodd" clip-rule="evenodd" d="M41.5663 47.1679C41.3632 47.2314 41.1456 47.2314 40.9424 47.1679L7.46957 36.688C7.03288 36.5513 6.73556 36.1462 6.73556 35.6878C6.73556 35.2294 7.03288 34.8242 7.46957 34.6874L24.2061 29.4474C24.7573 29.2749 25.3441 29.5826 25.5163 30.1351C25.6887 30.6876 25.3814 31.2753 24.8299 31.448L11.2885 35.6878L41.2544 45.0696L71.2203 35.6878L57.6788 31.448C57.1274 31.2753 56.8201 30.6876 56.9924 30.1351C57.1646 29.5826 57.7514 29.2749 58.3027 29.4474L75.0391 34.6874C75.4759 34.8242 75.7732 35.2294 75.7732 35.6878C75.7732 36.1462 75.4759 36.5513 75.0391 36.688L41.5663 47.1679Z" fill="url(#paint0_linear)"/>
<path fill-rule="evenodd" clip-rule="evenodd" d="M41.2545 45.1197C40.6768 45.1197 40.2084 45.5888 40.2084 46.1677V75.5114C40.2084 76.0901 40.6768 76.5594 41.2545 76.5594C41.8321 76.5594 42.3005 76.0901 42.3005 75.5114V46.1677C42.3005 45.5888 41.8321 45.1197 41.2545 45.1197ZM74.7272 47.2157C74.1496 47.2157 73.6812 47.6848 73.6812 48.2637V66.5286C73.6812 67.1073 74.1496 67.5766 74.7272 67.5766C75.3049 67.5766 75.7733 67.1073 75.7733 66.5286V48.2637C75.7733 47.6848 75.3049 47.2157 74.7272 47.2157Z" fill="url(#paint1_linear)"/>
<path fill-rule="evenodd" clip-rule="evenodd" d="M41.2545 45.1197C41.8321 45.1197 42.3005 45.5888 42.3005 46.1677L42.3004 77.0085C42.3004 77.5872 41.832 78.0565 41.2544 78.0565C40.6768 78.0565 40.2083 77.5872 40.2083 77.0085L40.2084 46.1677C40.2084 45.5888 40.6768 45.1197 41.2545 45.1197ZM7.78158 47.2392C8.35928 47.2392 8.82761 47.7082 8.82761 48.2872V66.5286C8.82761 67.1073 8.35928 67.5766 7.78158 67.5766C7.20388 67.5766 6.73556 67.1073 6.73556 66.5286V48.2872C6.73556 47.7082 7.20388 47.2392 7.78158 47.2392Z" fill="url(#paint2_linear)"/>
<path fill-rule="evenodd" clip-rule="evenodd" d="M74.1893 34.789C73.6939 35.0869 73.5332 35.7306 73.8305 36.2269L79.4225 45.5647L48.0041 55.4013L42.1514 45.6284C41.8543 45.1321 41.2117 44.9711 40.7165 45.2689C40.2211 45.5668 40.0604 46.2104 40.3577 46.7068L46.6338 57.1867C46.8822 57.6014 47.3817 57.792 47.8426 57.6478L81.3154 47.1679C81.6217 47.0721 81.8669 46.8407 81.9811 46.5403C82.0951 46.2402 82.0654 45.904 81.9003 45.6284L75.6242 35.1485C75.3271 34.6522 74.6844 34.4912 74.1893 34.789Z" fill="url(#paint3_linear)"/>
<path fill-rule="evenodd" clip-rule="evenodd" d="M8.31982 34.789C8.8152 35.0869 8.97582 35.7306 8.67861 36.2269L3.08648 45.5647L34.5048 55.4013L40.3576 45.6284C40.6546 45.1321 41.2973 44.9711 41.7925 45.2689C42.2879 45.5668 42.4486 46.2104 42.1513 46.7068L35.8751 57.1867C35.6268 57.6014 35.1272 57.792 34.6664 57.6478L1.19349 47.1679C0.887356 47.0721 0.642021 46.8407 0.52792 46.5403C0.413799 46.2402 0.443527 45.904 0.608527 45.6284L6.88467 35.1485C7.18191 34.6522 7.82444 34.4912 8.31982 34.789Z" fill="url(#paint4_linear)"/>
<path fill-rule="evenodd" clip-rule="evenodd" d="M32.7817 2.60135C27.6279 2.60135 23.4721 6.73212 23.4721 11.8004C23.4721 14.2678 24.4538 16.5084 26.058 18.1629L26.0608 18.1657L40.5095 32.8402C40.9191 33.2563 41.5894 33.2561 41.999 32.84L56.1856 18.4266L56.2074 18.405C57.9553 16.7303 59.0369 14.39 59.0369 11.8004C59.0369 6.73212 54.881 2.60135 49.7273 2.60135C46.5739 2.60135 43.7905 4.14902 42.1061 6.51567C41.9099 6.7915 41.5925 6.95524 41.2545 6.95524C40.9164 6.95524 40.599 6.7915 40.4028 6.51567C38.7185 4.14902 35.935 2.60135 32.7817 2.60135ZM21.38 11.8004C21.38 5.55007 26.4969 0.505371 32.7817 0.505371C36.143 0.505371 39.1672 1.94732 41.2545 4.24212C43.3417 1.94732 46.366 0.505371 49.7273 0.505371C56.012 0.505371 61.1289 5.55007 61.1289 11.8004C61.1289 14.9838 59.7984 17.8588 57.6647 19.9089L43.4886 34.3116C42.2599 35.5602 40.2492 35.5604 39.0202 34.312L24.5605 19.6265C22.5932 17.5989 21.38 14.84 21.38 11.8004Z" fill="url(#paint5_linear)"/>
<defs>
<linearGradient id="paint0_linear" x1="41.2544" y1="0.505371" x2="41.2544" y2="35.2482" gradientUnits="userSpaceOnUse">
<stop stop-color="#D7AC6C"/>
<stop offset="1" stop-color="#7CBDC5"/>
</linearGradient>
<linearGradient id="paint1_linear" x1="41.2544" y1="0.505371" x2="41.2544" y2="35.2482" gradientUnits="userSpaceOnUse">
<stop stop-color="#D7AC6C"/>
<stop offset="1" stop-color="#7CBDC5"/>
</linearGradient>
<linearGradient id="paint2_linear" x1="41.2544" y1="0.505371" x2="41.2544" y2="35.2482" gradientUnits="userSpaceOnUse">
<stop stop-color="#D7AC6C"/>
<stop offset="1" stop-color="#7CBDC5"/>
</linearGradient>
<linearGradient id="paint3_linear" x1="41.2544" y1="0.505371" x2="41.2544" y2="35.2482" gradientUnits="userSpaceOnUse">
<stop stop-color="#D7AC6C"/>
<stop offset="1" stop-color="#7CBDC5"/>
</linearGradient>
<linearGradient id="paint4_linear" x1="41.2544" y1="0.505371" x2="41.2544" y2="35.2482" gradientUnits="userSpaceOnUse">
<stop stop-color="#D7AC6C"/>
<stop offset="1" stop-color="#7CBDC5"/>
</linearGradient>
<linearGradient id="paint5_linear" x1="41.2544" y1="0.505371" x2="41.2544" y2="35.2482" gradientUnits="userSpaceOnUse">
<stop stop-color="#D7AC6C"/>
<stop offset="1" stop-color="#7CBDC5"/>
</linearGradient>
</defs>
</svg>
