<svg width="90" height="81" viewBox="0 0 90 81" fill="none" xmlns="http://www.w3.org/2000/svg">
<path fill-rule="evenodd" clip-rule="evenodd" d="M41.5625 19.6979C41.5625 19.0652 42.0756 18.5521 42.7083 18.5521H58.75C61.9141 18.5521 64.4792 21.1171 64.4792 24.2812V41.4687C64.4792 43.3672 66.0182 44.9062 67.9167 44.9062H78.8255C80.1929 44.9062 81.5154 45.3955 82.5538 46.2856L87.6869 50.6851C88.9567 51.7737 89.6875 53.3627 89.6875 55.0352V65.5312C89.6875 68.6953 87.1224 71.2604 83.9583 71.2604H81.6667C81.0339 71.2604 80.5208 70.7473 80.5208 70.1146C80.5208 69.4818 81.0339 68.9687 81.6667 68.9687H83.9583C85.8568 68.9687 87.3958 67.4297 87.3958 65.5312V55.0352C87.3958 54.0317 86.9574 53.0783 86.1955 52.4252L81.0624 48.0254C80.4395 47.4915 79.6459 47.1979 78.8255 47.1979H67.9167C64.7526 47.1979 62.1875 44.6329 62.1875 41.4687V24.2812C62.1875 22.3828 60.6484 20.8437 58.75 20.8437H42.7083C42.0756 20.8437 41.5625 20.3306 41.5625 19.6979ZM10.625 59.8021C11.2578 59.8021 11.7708 60.3152 11.7708 60.9479V65.5312C11.7708 67.4297 13.3099 68.9687 15.2083 68.9687H17.5C18.1327 68.9687 18.6458 69.4818 18.6458 70.1146C18.6458 70.7473 18.1327 71.2604 17.5 71.2604H15.2083C12.0442 71.2604 9.47916 68.6953 9.47916 65.5312V60.9479C9.47916 60.3152 9.99217 59.8021 10.625 59.8021ZM39.2708 70.1146C39.2708 69.4818 39.7839 68.9687 40.4167 68.9687H58.75C59.3827 68.9687 59.8958 69.4818 59.8958 70.1146C59.8958 70.7473 59.3827 71.2604 58.75 71.2604H40.4167C39.7839 71.2604 39.2708 70.7473 39.2708 70.1146Z" fill="url(#paint0_linear)"/>
<path fill-rule="evenodd" clip-rule="evenodd" d="M2.60416 49.4896C2.60416 48.8569 3.11717 48.3438 3.74999 48.3438H10.625C11.2578 48.3438 11.7708 48.8569 11.7708 49.4896C11.7708 50.1223 11.2578 50.6354 10.625 50.6354H3.74999C3.11717 50.6354 2.60416 50.1223 2.60416 49.4896Z" fill="url(#paint1_linear)"/>
<path fill-rule="evenodd" clip-rule="evenodd" d="M4.89584 44.9062C4.89584 44.2735 5.40885 43.7604 6.04167 43.7604H17.5C18.1327 43.7604 18.6458 44.2735 18.6458 44.9062C18.6458 45.539 18.1327 46.0521 17.5 46.0521H6.04167C5.40885 46.0521 4.89584 45.539 4.89584 44.9062Z" fill="url(#paint2_linear)"/>
<path fill-rule="evenodd" clip-rule="evenodd" d="M0.3125 40.3229C0.3125 39.6902 0.825512 39.1771 1.45833 39.1771H15.2083C15.8411 39.1771 16.3542 39.6902 16.3542 40.3229C16.3542 40.9556 15.8411 41.4688 15.2083 41.4688H1.45833C0.825512 41.4688 0.3125 40.9556 0.3125 40.3229Z" fill="url(#paint3_linear)"/>
<path fill-rule="evenodd" clip-rule="evenodd" d="M62.1875 28.8646C62.1875 28.2319 62.7006 27.7188 63.3333 27.7188H69.0428C71.6008 27.7188 73.8489 29.4144 74.5515 31.874L78.1852 44.5914C78.3589 45.2 78.0067 45.8341 77.3982 46.0081C76.7896 46.1818 76.1554 45.8296 75.9815 45.2211L72.3481 32.5035C71.9264 31.0279 70.5775 30.0104 69.0428 30.0104H63.3333C62.7006 30.0104 62.1875 29.4973 62.1875 28.8646Z" fill="url(#paint4_linear)"/>
<path fill-rule="evenodd" clip-rule="evenodd" d="M28.9583 66.6771C25.7942 66.6771 23.2292 69.2421 23.2292 72.4062C23.2292 75.5704 25.7942 78.1354 28.9583 78.1354C32.1224 78.1354 34.6875 75.5704 34.6875 72.4062C34.6875 69.2421 32.1224 66.6771 28.9583 66.6771ZM20.9375 72.4062C20.9375 67.9765 24.5285 64.3854 28.9583 64.3854C33.3881 64.3854 36.9792 67.9765 36.9792 72.4062C36.9792 76.836 33.3881 80.4271 28.9583 80.4271C24.5285 80.4271 20.9375 76.836 20.9375 72.4062Z" fill="url(#paint5_linear)"/>
<path fill-rule="evenodd" clip-rule="evenodd" d="M70.2083 66.6771C67.0442 66.6771 64.4792 69.2421 64.4792 72.4062C64.4792 75.5704 67.0442 78.1354 70.2083 78.1354C73.3724 78.1354 75.9375 75.5704 75.9375 72.4062C75.9375 69.2421 73.3724 66.6771 70.2083 66.6771ZM62.1875 72.4062C62.1875 67.9765 65.7785 64.3854 70.2083 64.3854C74.6381 64.3854 78.2292 67.9765 78.2292 72.4062C78.2292 76.836 74.6381 80.4271 70.2083 80.4271C65.7785 80.4271 62.1875 76.836 62.1875 72.4062Z" fill="url(#paint6_linear)"/>
<path fill-rule="evenodd" clip-rule="evenodd" d="M19.7917 9.38542C20.4244 9.38542 20.9375 9.89852 20.9375 10.5312V16.9316L23.5647 14.3043C24.0122 13.8569 24.7378 13.8569 25.1853 14.3043C25.6327 14.7518 25.6327 15.4774 25.1853 15.9249L20.602 20.5082C20.2743 20.836 19.7814 20.9338 19.3533 20.7564C18.925 20.5791 18.6458 20.1613 18.6458 19.6979V10.5312C18.6458 9.89852 19.1589 9.38542 19.7917 9.38542Z" fill="url(#paint7_linear)"/>
<path fill-rule="evenodd" clip-rule="evenodd" d="M19.7917 2.51042C11.5649 2.51042 4.89583 9.1794 4.89583 17.4062C4.89583 25.6331 11.5649 32.3021 19.7917 32.3021C28.0185 32.3021 34.6875 25.6331 34.6875 17.4062C34.6875 9.1794 28.0185 2.51042 19.7917 2.51042ZM2.60416 17.4062C2.60416 7.91394 10.2993 0.21875 19.7917 0.21875C29.284 0.21875 36.9792 7.91394 36.9792 17.4062C36.9792 26.8986 29.284 34.5938 19.7917 34.5938C10.2993 34.5938 2.60416 26.8986 2.60416 17.4062Z" fill="url(#paint8_linear)"/>
<path fill-rule="evenodd" clip-rule="evenodd" d="M0.3125 79.2812C0.3125 78.6485 0.825513 78.1354 1.45833 78.1354H88.5417C89.1744 78.1354 89.6875 78.6485 89.6875 79.2812C89.6875 79.914 89.1744 80.4271 88.5417 80.4271H1.45833C0.825513 80.4271 0.3125 79.914 0.3125 79.2812Z" fill="url(#paint9_linear)"/>
<defs>
<linearGradient id="paint0_linear" x1="45" y1="0.21875" x2="45" y2="80.4271" gradientUnits="userSpaceOnUse">
<stop stop-color="#7AB9C3"/>
<stop offset="1" stop-color="#D7AC6C"/>
</linearGradient>
<linearGradient id="paint1_linear" x1="45" y1="0.21875" x2="45" y2="80.4271" gradientUnits="userSpaceOnUse">
<stop stop-color="#7AB9C3"/>
<stop offset="1" stop-color="#D7AC6C"/>
</linearGradient>
<linearGradient id="paint2_linear" x1="45" y1="0.21875" x2="45" y2="80.4271" gradientUnits="userSpaceOnUse">
<stop stop-color="#7AB9C3"/>
<stop offset="1" stop-color="#D7AC6C"/>
</linearGradient>
<linearGradient id="paint3_linear" x1="45" y1="0.21875" x2="45" y2="80.4271" gradientUnits="userSpaceOnUse">
<stop stop-color="#7AB9C3"/>
<stop offset="1" stop-color="#D7AC6C"/>
</linearGradient>
<linearGradient id="paint4_linear" x1="45" y1="0.21875" x2="45" y2="80.4271" gradientUnits="userSpaceOnUse">
<stop stop-color="#7AB9C3"/>
<stop offset="1" stop-color="#D7AC6C"/>
</linearGradient>
<linearGradient id="paint5_linear" x1="45" y1="0.21875" x2="45" y2="80.4271" gradientUnits="userSpaceOnUse">
<stop stop-color="#7AB9C3"/>
<stop offset="1" stop-color="#D7AC6C"/>
</linearGradient>
<linearGradient id="paint6_linear" x1="45" y1="0.21875" x2="45" y2="80.4271" gradientUnits="userSpaceOnUse">
<stop stop-color="#7AB9C3"/>
<stop offset="1" stop-color="#D7AC6C"/>
</linearGradient>
<linearGradient id="paint7_linear" x1="45" y1="0.21875" x2="45" y2="80.4271" gradientUnits="userSpaceOnUse">
<stop stop-color="#7AB9C3"/>
<stop offset="1" stop-color="#D7AC6C"/>
</linearGradient>
<linearGradient id="paint8_linear" x1="45" y1="0.21875" x2="45" y2="80.4271" gradientUnits="userSpaceOnUse">
<stop stop-color="#7AB9C3"/>
<stop offset="1" stop-color="#D7AC6C"/>
</linearGradient>
<linearGradient id="paint9_linear" x1="45" y1="0.21875" x2="45" y2="80.4271" gradientUnits="userSpaceOnUse">
<stop stop-color="#7AB9C3"/>
<stop offset="1" stop-color="#D7AC6C"/>
</linearGradient>
</defs>
</svg>
