<svg width="80" height="84" viewBox="0 0 80 84" fill="none" xmlns="http://www.w3.org/2000/svg">
<path fill-rule="evenodd" clip-rule="evenodd" d="M31.7346 35.13C29.0595 35.9794 26.2551 37.504 22.4587 40.2639C21.9833 40.6093 21.3179 40.504 20.9723 40.0287C20.6269 39.5533 20.7323 38.8878 21.2074 38.5422C25.0964 35.7155 28.1111 34.0478 31.0906 33.1016C34.074 32.1542 36.9484 31.9543 40.498 31.9543C44.0621 31.9543 46.9142 32.2229 49.7522 33.2106C52.586 34.1968 55.3283 35.8726 58.7264 38.5694C59.1867 38.9348 59.2637 39.6042 58.8983 40.0645C58.5332 40.5248 57.8639 40.6019 57.4037 40.2367C54.0977 37.613 51.5697 36.0965 49.0528 35.2205C46.5401 34.346 43.9606 34.0825 40.498 34.0825C37.0208 34.0825 34.4053 34.2817 31.7346 35.13ZM15.2909 45.1952C15.7135 45.6034 15.7252 46.2771 15.3171 46.6998C12.6678 49.4433 10.2117 52.3036 8.41545 54.4816C7.51807 55.5697 6.78715 56.4853 6.28115 57.1282C6.02818 57.4496 5.83151 57.7028 5.69847 57.875L5.54758 58.0712L5.50968 58.1208L5.49821 58.1357L5.49189 58.144C4.46387 59.4727 3.34574 61.4547 2.86687 63.5944C2.39204 65.7162 2.55719 67.9142 3.95846 69.8447C4.30367 70.3203 4.19802 70.9858 3.72249 71.331C3.24696 71.6762 2.58162 71.5706 2.23643 71.095C0.379288 68.5363 0.223011 65.6647 0.79032 63.1296C1.35314 60.6147 2.63916 58.3543 3.80623 56.8452L3.8177 56.8301L3.85817 56.7771L4.01442 56.574C4.15117 56.397 4.35183 56.1388 4.6091 55.8119C5.12357 55.1584 5.86473 54.2298 6.77387 53.1274C8.5906 50.9245 11.0852 48.0187 13.7865 45.2213C14.1946 44.7987 14.8681 44.787 15.2909 45.1952ZM64.8917 45.8773C65.3187 45.4738 65.9922 45.4929 66.3957 45.92C68.8884 48.559 71.3078 51.2812 73.1023 53.3413C74.0001 54.372 74.7427 55.2382 75.2609 55.8473C75.5201 56.1516 75.7233 56.3919 75.8618 56.5562L76.0201 56.7443L76.0625 56.7947C77.4869 58.3798 78.7237 60.9362 79.2406 63.5505C79.7551 66.1535 79.6047 69.0924 77.8657 71.2114C77.4929 71.6658 76.8226 71.7318 76.3683 71.3589C75.9142 70.986 75.848 70.3154 76.2208 69.8613C77.3746 68.4554 77.6131 66.2914 77.1531 63.9632C76.6966 61.6547 75.6014 59.4597 74.4695 58.2059C74.4619 58.1974 74.4542 58.1887 74.4467 58.1798L74.4433 58.1757L74.4401 58.1719L74.2352 57.9282C74.0986 57.7663 73.8975 57.5285 73.6407 57.2268C73.1268 56.623 72.3897 55.763 71.4978 54.7393C69.7136 52.6909 67.3145 49.9921 64.8489 47.3815C64.4452 46.9543 64.4644 46.2808 64.8917 45.8773Z" fill="url(#paint0_linear)"/>
<path fill-rule="evenodd" clip-rule="evenodd" d="M50.3051 19.2151C50.8811 19.0987 51.4422 19.4713 51.5586 20.0472C51.711 20.8013 51.7908 21.5806 51.7908 22.3774C51.7908 28.842 46.551 34.0825 40.0871 34.0825C33.6233 34.0825 28.3835 28.842 28.3835 22.3774C28.3835 21.5819 28.4631 20.8038 28.6148 20.0511C28.731 19.475 29.2923 19.1021 29.8681 19.2183C30.4442 19.3345 30.817 19.8957 30.7008 20.4718C30.5767 21.0869 30.5114 21.724 30.5114 22.3774C30.5114 27.6666 34.7986 31.9543 40.0871 31.9543C45.3757 31.9543 49.6629 27.6666 49.6629 22.3774C49.6629 21.723 49.5973 21.0847 49.4728 20.4688C49.3564 19.8929 49.729 19.3315 50.3051 19.2151Z" fill="url(#paint1_linear)"/>
<path fill-rule="evenodd" clip-rule="evenodd" d="M13.4879 41.5312C13.4879 39.7682 14.917 38.3389 16.6798 38.3389H63.4945C65.2572 38.3389 66.6864 39.7682 66.6864 41.5312V58.5569C66.6864 59.1445 66.2099 59.621 65.6224 59.621C65.0349 59.621 64.5584 59.1445 64.5584 58.5569V41.5312C64.5584 40.9437 64.082 40.4671 63.4945 40.4671H16.6798C16.0923 40.4671 15.6158 40.9437 15.6158 41.5312V58.5569C15.6158 59.1445 15.1394 59.621 14.5519 59.621C13.9643 59.621 13.4879 59.1445 13.4879 58.5569V41.5312ZM14.5519 71.3261C15.1394 71.3261 15.6158 71.8026 15.6158 72.3902V79.8389C15.6158 80.4265 16.0923 80.903 16.6798 80.903H63.4945C64.082 80.903 64.5584 80.4265 64.5584 79.8389V72.3902C64.5584 71.8026 65.0349 71.3261 65.6224 71.3261C66.2099 71.3261 66.6864 71.8026 66.6864 72.3902V79.8389C66.6864 81.6019 65.2572 83.0312 63.4945 83.0312H16.6798C14.917 83.0312 13.4879 81.6019 13.4879 79.8389V72.3902C13.4879 71.8026 13.9643 71.3261 14.5519 71.3261Z" fill="url(#paint2_linear)"/>
<path fill-rule="evenodd" clip-rule="evenodd" d="M30.5114 39.403C30.5114 38.8154 30.9879 38.3389 31.5754 38.3389H48.5989C49.1864 38.3389 49.6629 38.8154 49.6629 39.403V54.3005C49.6629 54.6693 49.472 55.0117 49.1583 55.2056C48.8447 55.3995 48.4529 55.4171 48.1231 55.2522L44.343 53.3619L40.5629 55.2522C40.2633 55.402 39.9109 55.402 39.6113 55.2522L35.8313 53.3619L32.0512 55.2522C31.7214 55.4171 31.3296 55.3995 31.0159 55.2056C30.7023 55.0117 30.5114 54.6693 30.5114 54.3005V39.403ZM32.6394 40.4671V52.5788L35.3554 51.2205C35.6551 51.0707 36.0075 51.0707 36.3071 51.2205L40.0871 53.1108L43.8672 51.2205C44.1668 51.0707 44.5192 51.0707 44.8188 51.2205L47.5349 52.5788V40.4671H32.6394Z" fill="url(#paint3_linear)"/>
<path fill-rule="evenodd" clip-rule="evenodd" d="M19.9019 60.1032C17.6667 57.7801 14.1493 56.9265 10.9761 57.8718L6.6653 59.1562C1.92162 60.5697 -0.63742 65.4584 1.44813 69.8066C3.37149 73.8165 8.43645 75.5564 12.7225 73.8842L16.8892 72.2585C22.0816 70.2326 23.7386 64.0913 19.9019 60.1032ZM11.5836 59.9115C14.0399 59.1796 16.7179 59.8634 18.3685 61.5789C21.044 64.3599 20.0432 68.7435 16.1159 70.2758L11.949 71.9014C8.58 73.216 4.75484 71.7801 3.36674 68.8861C1.92996 65.8905 3.59269 62.2923 7.27287 61.1959L11.5836 59.9115Z" fill="url(#paint4_linear)"/>
<path fill-rule="evenodd" clip-rule="evenodd" d="M60.2719 60.1032C62.5069 57.7801 66.0246 56.9265 69.1978 57.8718L73.5085 59.1562C78.2521 60.5697 80.8112 65.4584 78.7256 69.8066C76.8022 73.8165 71.7372 75.5564 67.4514 73.8842L63.2846 72.2585C58.0923 70.2326 56.435 64.0913 60.2719 60.1032ZM68.5902 59.9115C66.1337 59.1796 63.4557 59.8634 61.8053 61.5789C59.1296 64.3599 60.1304 68.7435 64.0579 70.2758L68.2247 71.9014C71.5938 73.216 75.419 71.7801 76.8071 68.8861C78.2438 65.8905 76.5811 62.2923 72.9008 61.1959L68.5902 59.9115Z" fill="url(#paint5_linear)"/>
<path fill-rule="evenodd" clip-rule="evenodd" d="M40.0869 12.8005C37.0859 12.8005 32.8381 13.5356 30.7136 13.945C30.3433 14.0163 30.039 14.2964 29.9339 14.6833L29.2336 17.2612C29.028 18.0176 29.6832 18.7292 30.454 18.5864L39.1181 16.9818C39.7586 16.8632 40.4153 16.8632 41.0556 16.9818L49.7197 18.5864C50.4904 18.7292 51.1456 18.0176 50.9403 17.2612L50.24 14.6833C50.1348 14.2964 49.8303 14.0163 49.4601 13.945C47.3355 13.5356 43.0877 12.8005 40.0869 12.8005ZM30.311 11.8551C32.4253 11.4477 36.8578 10.6723 40.0869 10.6723C43.3161 10.6723 47.7484 11.4477 49.8627 11.8551C51.0537 12.0848 51.9815 12.9775 52.2934 14.1253L52.9937 16.7032C53.6102 18.9727 51.6444 21.1073 49.3322 20.6791L40.6681 19.0744C40.2838 19.0031 39.8899 19.0031 39.5056 19.0744L30.8415 20.6791C28.5292 21.1073 26.5634 18.9727 27.1799 16.7032L27.8802 14.1253C28.1922 12.9775 29.12 12.0848 30.311 11.8551Z" fill="url(#paint6_linear)"/>
<path fill-rule="evenodd" clip-rule="evenodd" d="M40.0867 2.15946C37.7496 2.15946 34.606 3.1237 32.3623 3.95153C31.2451 4.36366 30.511 5.462 30.511 6.72614V11.0056C30.511 11.7095 31.2102 12.278 31.9576 12.0971C34.2091 11.5527 37.5017 10.8782 40.0867 10.8782C42.6715 10.8782 45.9641 11.5527 48.2156 12.0971C48.963 12.278 49.6624 11.7095 49.6624 11.0056V6.72614C49.6624 5.462 48.9281 4.36366 47.8109 3.95153C45.5672 3.1237 42.4236 2.15946 40.0867 2.15946ZM31.6258 1.95485C33.8738 1.12545 37.3338 0.03125 40.0867 0.03125C42.8394 0.03125 46.2994 1.12545 48.5476 1.95485C50.5685 2.70049 51.7904 4.64522 51.7904 6.72614V11.0056C51.7904 13.1521 49.7382 14.655 47.7156 14.1657C45.4766 13.6243 42.3976 13.0065 40.0867 13.0065C37.7758 13.0065 34.6966 13.6243 32.4578 14.1657C30.435 14.655 28.383 13.1521 28.383 11.0056V6.72614C28.383 4.64522 29.6047 2.70049 31.6258 1.95485Z" fill="url(#paint7_linear)"/>
<defs>
<linearGradient id="paint0_linear" x1="40" y1="0.03125" x2="40" y2="83.0312" gradientUnits="userSpaceOnUse">
<stop stop-color="#7AB9C3"/>
<stop offset="1" stop-color="#D7AC6C"/>
</linearGradient>
<linearGradient id="paint1_linear" x1="40" y1="0.03125" x2="40" y2="83.0312" gradientUnits="userSpaceOnUse">
<stop stop-color="#7AB9C3"/>
<stop offset="1" stop-color="#D7AC6C"/>
</linearGradient>
<linearGradient id="paint2_linear" x1="40" y1="0.03125" x2="40" y2="83.0312" gradientUnits="userSpaceOnUse">
<stop stop-color="#7AB9C3"/>
<stop offset="1" stop-color="#D7AC6C"/>
</linearGradient>
<linearGradient id="paint3_linear" x1="40" y1="0.03125" x2="40" y2="83.0312" gradientUnits="userSpaceOnUse">
<stop stop-color="#7AB9C3"/>
<stop offset="1" stop-color="#D7AC6C"/>
</linearGradient>
<linearGradient id="paint4_linear" x1="40" y1="0.03125" x2="40" y2="83.0312" gradientUnits="userSpaceOnUse">
<stop stop-color="#7AB9C3"/>
<stop offset="1" stop-color="#D7AC6C"/>
</linearGradient>
<linearGradient id="paint5_linear" x1="40" y1="0.03125" x2="40" y2="83.0312" gradientUnits="userSpaceOnUse">
<stop stop-color="#7AB9C3"/>
<stop offset="1" stop-color="#D7AC6C"/>
</linearGradient>
<linearGradient id="paint6_linear" x1="40" y1="0.03125" x2="40" y2="83.0312" gradientUnits="userSpaceOnUse">
<stop stop-color="#7AB9C3"/>
<stop offset="1" stop-color="#D7AC6C"/>
</linearGradient>
<linearGradient id="paint7_linear" x1="40" y1="0.03125" x2="40" y2="83.0312" gradientUnits="userSpaceOnUse">
<stop stop-color="#7AB9C3"/>
<stop offset="1" stop-color="#D7AC6C"/>
</linearGradient>
</defs>
</svg>
