<svg width="18" height="19" viewBox="0 0 18 19" fill="none" xmlns="http://www.w3.org/2000/svg">
<path d="M9.35938 18.0156L10.1406 17.2734C10.3359 17.0781 10.3359 16.7656 10.1406 16.6094L4.08594 10.5156H17.4453C17.6797 10.5156 17.9141 10.3203 17.9141 10.0469V8.95312C17.9141 8.71875 17.6797 8.48438 17.4453 8.48438H4.08594L10.1406 2.42969C10.3359 2.27344 10.3359 1.96094 10.1406 1.76562L9.35938 1.02344C9.20312 0.828125 8.89062 0.828125 8.69531 1.02344L0.53125 9.1875C0.335938 9.38281 0.335938 9.65625 0.53125 9.85156L8.69531 18.0156C8.89062 18.2109 9.20312 18.2109 9.35938 18.0156Z" fill="#858D8F"/>
</svg>
