<svg width="27" height="26" viewBox="0 0 27 26" fill="none" xmlns="http://www.w3.org/2000/svg">
<path d="M16.9982 2.23523C12.7702 2.23523 9.33025 5.54779 9.33025 9.61842C9.33025 10.5195 9.50406 11.3905 9.82975 12.2192L2.57687 19.3197C2.42162 19.4716 2.33472 19.6764 2.33472 19.8892V22.9515C2.33472 23.4 2.71187 23.764 3.17847 23.764H8.29581C8.7624 23.764 9.13956 23.4 9.13956 22.9515V21.0844H11.0785C11.5451 21.0844 11.9222 20.7204 11.9222 20.2719V18.261H14.3582C14.8247 18.261 15.2019 17.897 15.2019 17.4485V16.7879C15.7866 16.9236 16.3857 17 16.9982 17C21.2254 17 24.6646 13.6882 24.6646 9.61679C24.6646 5.54536 21.2254 2.23523 16.9982 2.23523ZM11.0186 9.61842C11.0186 6.44317 13.7017 3.86023 16.9991 3.86023C20.2956 3.86023 22.9779 6.44317 22.9779 9.61842C22.9779 12.7937 20.2956 15.3766 16.9991 15.3766C16.1975 15.3766 15.4213 15.2271 14.6897 14.9322C14.5885 14.8907 14.4763 14.8672 14.359 14.8672C13.8924 14.8672 13.5152 15.2312 13.5152 15.6797V16.6376H11.0793C10.6127 16.6376 10.2356 17.0016 10.2356 17.4501V19.461H8.29665C7.83006 19.461 7.4529 19.825 7.4529 20.2735V22.1407H4.02306V20.2232L11.2776 13.1203C11.2776 13.1203 11.8505 12.6694 11.4624 11.7992C11.0051 10.7738 11.0186 9.61842 11.0186 9.61842ZM18.4655 5.29754C16.7865 5.29754 15.4204 6.61379 15.4204 8.23067C15.4204 9.84754 16.7865 11.1638 18.4655 11.1638C20.1463 11.1638 21.5132 9.84754 21.5132 8.23067C21.5132 6.61379 20.1463 5.29754 18.4655 5.29754ZM18.4655 9.53961C17.7163 9.53961 17.1079 8.95298 17.1079 8.23148C17.1079 7.50998 17.7171 6.92336 18.4655 6.92336C19.2156 6.92336 19.8257 7.50998 19.8257 8.23148C19.8257 8.95298 19.2148 9.53961 18.4655 9.53961Z" fill="#D7AC6C"/>
</svg>
