<svg width="26" height="26" viewBox="0 0 26 26" fill="none" xmlns="http://www.w3.org/2000/svg">
<path d="M21.1837 0H8.35519C6.93149 0 5.77327 1.09347 5.77327 2.4375V3.25H3.99877C3.02585 3.25 2.23438 4.04148 2.23438 5.01439V24.2356C2.23438 25.2085 3.02585 26 3.99877 26H18.4623C19.4353 26 20.2267 25.2085 20.2267 24.2356V22.75H21.1837C22.6074 22.75 23.7656 21.6565 23.7656 20.3125V2.4375C23.7656 1.09347 22.6074 0 21.1837 0ZM18.6017 24.2356C18.6017 24.3125 18.5392 24.375 18.4623 24.375H3.99877C3.92189 24.375 3.85938 24.3125 3.85938 24.2356V5.01439C3.85938 4.93751 3.92189 4.875 3.99877 4.875H18.4623C18.5392 4.875 18.6017 4.93751 18.6017 5.01439V24.2356ZM22.1406 20.3125C22.1406 20.7605 21.7113 21.125 21.1837 21.125H20.2267V5.01439C20.2267 4.04148 19.4353 3.25 18.4623 3.25H7.39827V2.4375C7.39827 1.98951 7.82757 1.625 8.35519 1.625H21.1837C21.7113 1.625 22.1406 1.98951 22.1406 2.4375V20.3125Z" fill="#D7AC6C"/>
<path d="M15.2344 10.9688H7.51562C7.06692 10.9688 6.70312 10.605 6.70312 10.1562C6.70312 9.70755 7.06692 9.34375 7.51562 9.34375H15.2344C15.6831 9.34375 16.0469 9.70755 16.0469 10.1562C16.0469 10.605 15.6831 10.9688 15.2344 10.9688Z" fill="#D7AC6C"/>
<path d="M15.2344 14.2188H7.51562C7.06692 14.2188 6.70312 13.855 6.70312 13.4062C6.70312 12.9575 7.06692 12.5938 7.51562 12.5938H15.2344C15.6831 12.5938 16.0469 12.9575 16.0469 13.4062C16.0469 13.855 15.6831 14.2188 15.2344 14.2188Z" fill="#D7AC6C"/>
<path d="M15.2344 17.4688H7.51562C7.06692 17.4688 6.70312 17.105 6.70312 16.6562C6.70312 16.2075 7.06692 15.8438 7.51562 15.8438H15.2344C15.6831 15.8438 16.0469 16.2075 16.0469 16.6562C16.0469 17.105 15.6831 17.4688 15.2344 17.4688Z" fill="#D7AC6C"/>
</svg>
