<svg width="28" height="29" viewBox="0 0 28 29" fill="none" xmlns="http://www.w3.org/2000/svg">
<g clip-path="url(#clip0)">
<path d="M27.8846 11.2945C27.542 9.89466 26.3608 8.75461 24.9457 8.45834C24.8289 8.43384 24.7124 8.43815 24.5954 8.42415C23.5425 3.85934 19.5294 0.593262 14.779 0.593262H13.2233C8.47372 0.593262 4.45995 3.86 3.40659 8.42429C2.66226 8.51865 1.9511 8.80331 1.3704 9.29689C0.499844 10.0375 0 11.1175 0 12.2599C0 13.476 0.586396 14.6244 1.55568 15.3551V22.3711C1.55568 23.5177 2.1859 24.5099 3.11135 25.0495V26.2599C3.11135 27.5466 4.15807 28.5933 5.44491 28.5933C6.73174 28.5933 7.77846 27.5466 7.77846 26.2599V25.4821H20.2239V26.2599C20.2239 27.5466 21.2707 28.5933 22.5575 28.5933C23.8443 28.5933 24.8911 27.5466 24.8911 26.2599V25.0495C25.8165 24.5099 26.4467 23.5177 26.4467 22.3711V15.3559C27.6901 14.4231 28.2636 12.8463 27.8846 11.2945ZM13.2222 2.14879H14.7777C18.7165 2.14879 22.0517 4.80449 23.0235 8.5446C22.5332 8.68752 22.0664 8.91087 21.6608 9.23994C20.7463 9.98274 20.2222 11.0833 20.2222 12.2599V16.1488H7.7778V12.4263C7.7778 10.6084 6.59859 9.02425 4.97722 8.5403C5.94993 4.80303 9.28528 2.14879 13.2222 2.14879ZM21.7778 18.4821C21.7778 18.9112 21.4292 19.2599 21 19.2599H7C6.57089 19.2599 6.2222 18.9113 6.2222 18.4821C6.2222 18.053 6.57081 17.7043 7 17.7043H21C21.4291 17.7044 21.7778 18.053 21.7778 18.4821ZM6.2222 26.2599C6.2222 26.689 5.87358 27.0377 5.4444 27.0377C5.01528 27.0377 4.66667 26.689 4.66667 26.2599V25.4821H6.2222V26.2599ZM23.3333 26.2599C23.3333 26.689 22.9847 27.0377 22.5555 27.0377C22.1264 27.0377 21.7777 26.6891 21.7777 26.2599V25.4821H23.3333V26.2599ZM25.2755 14.2674C25.0362 14.4064 24.8889 14.6624 24.8889 14.9396V22.3711C24.8889 23.2286 24.1908 23.9266 23.3333 23.9266H4.66667C3.80917 23.9266 3.11114 23.2286 3.11114 22.3711V14.9396C3.11114 14.6631 2.96377 14.4072 2.72453 14.2674C1.9923 13.8413 1.55553 13.0909 1.55553 12.2599C1.55553 11.5748 1.85558 10.9261 2.3781 10.4819C2.90828 10.0306 3.58808 9.84537 4.28611 9.95926C5.38971 10.1385 6.2222 11.1996 6.2222 12.4263V16.2921C5.31883 16.6142 4.66667 17.4695 4.66667 18.4821C4.66667 19.7688 5.71331 20.8155 7 20.8155H21C22.2867 20.8155 23.3333 19.7688 23.3333 18.4821C23.3333 17.4695 22.6812 16.6142 21.7778 16.2921V12.2599C21.7778 11.5535 22.0923 10.8935 22.6414 10.4477C23.1981 9.99572 23.9023 9.8294 24.6246 9.98055C25.4662 10.1568 26.168 10.8335 26.3708 11.6637C26.6268 12.7096 26.1968 13.7312 25.2755 14.2674Z" fill="#D7AC6C"/>
</g>
<defs>
<clipPath id="clip0">
<rect width="28" height="28" fill="white" transform="translate(0 0.593262)"/>
</clipPath>
</defs>
</svg>
