<svg width="30" height="29" viewBox="0 0 30 29" fill="none" xmlns="http://www.w3.org/2000/svg">
<g clip-path="url(#clip0)">
<path d="M25.0101 2.5935C25.5067 2.09228 26.1815 1.808 26.8871 1.80281C27.5926 1.79761 28.2715 2.07191 28.7755 2.56577C29.2794 3.05962 29.5673 3.73287 29.5763 4.43838C29.5854 5.14389 29.3148 5.82429 28.8236 6.33088L14.6136 24.0952C14.3695 24.358 14.0749 24.569 13.7475 24.7154C13.42 24.8619 13.0664 24.9409 12.7078 24.9476C12.3491 24.9544 11.9928 24.8888 11.6601 24.7548C11.3273 24.6208 11.025 24.4211 10.7711 24.1677L1.34977 14.7499C0.849114 14.249 0.567945 13.5698 0.568115 12.8616C0.568285 12.1534 0.84978 11.4743 1.35067 10.9736C1.85157 10.4729 2.53083 10.1918 3.23903 10.1919C3.94724 10.1921 4.62636 10.4736 5.12702 10.9745L12.5782 18.4275L24.9395 2.67688C24.9619 2.64822 24.9861 2.62098 25.012 2.59532L25.0101 2.5935Z" fill="#D7AC6C"/>
</g>
<defs>
<clipPath id="clip0">
<rect width="29" height="29" fill="white" transform="translate(0.568359)"/>
</clipPath>
</defs>
</svg>
