<svg width="40" height="42" viewBox="0 0 40 42" fill="none" xmlns="http://www.w3.org/2000/svg">
<g clip-path="url(#clip0)">
<path d="M39.9229 23.3534C39.5637 19.6506 37.9499 16.1599 35.3784 13.5241C33.1809 11.2717 30.4912 9.82426 27.661 9.18066V7.14601C28.8169 6.85124 29.6762 5.77873 29.6762 4.50395C29.6762 3.00262 28.4846 1.78125 27.0199 1.78125H21.3948C19.9301 1.78125 18.7385 3.00262 18.7385 4.50395C18.7385 5.77865 19.5977 6.85116 20.7536 7.14601V9.18635C17.9321 9.83267 15.2513 11.2781 13.06 13.5242C12.5804 14.0157 12.1382 14.5313 11.7335 15.0672C11.7139 15.0657 11.6942 15.0642 11.6742 15.0642H6.10689C5.67548 15.0642 5.32563 15.4227 5.32563 15.865C5.32563 16.3072 5.67548 16.6658 6.10689 16.6658H10.6704C10.0976 17.6487 9.6357 18.681 9.28413 19.7437H0.781262C0.349849 19.7437 0 20.1022 0 20.5445C0 20.9868 0.349849 21.3453 0.781262 21.3453H8.84264C8.61748 22.3584 8.48826 23.3894 8.4549 24.4233H5.00008C4.56867 24.4233 4.21882 24.7818 4.21882 25.2241C4.21882 25.6664 4.56867 26.0249 5.00008 26.0249H8.47982C8.54576 27.0614 8.70834 28.0925 8.96764 29.1029H3.90631C3.4749 29.1029 3.12505 29.4614 3.12505 29.9037C3.12505 30.346 3.4749 30.7045 3.90631 30.7045H9.46624C10.2327 32.7826 11.4304 34.7304 13.06 36.4007C15.6339 39.039 19.043 40.6936 22.6592 41.0598C23.1753 41.112 23.6918 41.1379 24.2076 41.1379C27.2562 41.1379 30.2661 40.2335 32.82 38.5288C33.1816 38.2874 33.2839 37.7913 33.0484 37.4207C32.8129 37.0501 32.3289 36.9453 31.9674 37.1867C26.3769 40.9181 18.8898 40.1113 14.1648 35.2682C8.62084 29.5856 8.62084 20.3394 14.1648 14.6567C19.7087 8.97422 28.7294 8.97422 34.2735 14.6567C38.9922 19.4935 39.7837 27.1612 36.1553 32.8886C35.9202 33.2596 36.0231 33.7556 36.3849 33.9964C36.747 34.2373 37.2307 34.1318 37.4657 33.7609C39.4043 30.7006 40.277 27.0046 39.9229 23.3534ZM20.301 4.50403C20.301 3.88582 20.7917 3.38292 21.3948 3.38292H27.0199C27.623 3.38292 28.1136 3.88582 28.1136 4.50403C28.1136 5.12224 27.623 5.62514 27.0199 5.62514H26.8797H21.5349H21.3948C20.7917 5.62514 20.301 5.12216 20.301 4.50403ZM22.3161 8.91104V7.22673H26.0985V8.90815C24.8425 8.75504 23.5719 8.756 22.3161 8.91104Z" fill="#D7AC6C"/>
<path d="M34.8264 35.0332C34.6202 35.0332 34.4194 35.1189 34.2742 35.2678C34.1281 35.4168 34.0452 35.6234 34.0452 35.834C34.0452 36.0446 34.1281 36.2512 34.2742 36.4001C34.4194 36.5499 34.6202 36.6348 34.8264 36.6348C35.0319 36.6348 35.2327 36.5499 35.3788 36.4001C35.5241 36.2512 35.6077 36.0446 35.6077 35.834C35.6077 35.6234 35.5242 35.4168 35.3788 35.2678C35.2327 35.1189 35.0318 35.0332 34.8264 35.0332Z" fill="#D7AC6C"/>
<path d="M24.2193 12.5391C17.5365 12.5391 12.0996 18.1118 12.0996 24.9617C12.0996 31.8116 17.5365 37.3843 24.2193 37.3843C30.902 37.3843 36.3389 31.8116 36.3389 24.9617C36.3389 18.1118 30.902 12.5391 24.2193 12.5391ZM24.2193 35.7827C18.398 35.7827 13.6621 30.9284 13.6621 24.9617C13.6621 18.995 18.398 14.1407 24.2193 14.1407C30.0405 14.1407 34.7764 18.995 34.7764 24.9617C34.7764 30.9284 30.0405 35.7827 24.2193 35.7827Z" fill="#D7AC6C"/>
<path d="M29.1612 18.7638L25.2916 22.7301C24.968 22.5661 24.604 22.4734 24.2192 22.4734C23.8344 22.4734 23.4705 22.5661 23.1469 22.7301L21.415 20.955C21.1099 20.6423 20.6153 20.6423 20.3101 20.955C20.005 21.2677 20.005 21.7747 20.3101 22.0874L22.0419 23.8626C21.8819 24.1943 21.7915 24.5673 21.7915 24.9617C21.7915 26.3338 22.8805 27.4501 24.2192 27.4501C25.5579 27.4501 26.6469 26.3338 26.6469 24.9617C26.6469 24.5673 26.5565 24.1943 26.3965 23.8626L30.1525 20.0127L30.266 19.8963C30.5711 19.5836 30.5711 19.0765 30.266 18.7638C29.961 18.4511 29.4664 18.4511 29.1612 18.7638ZM24.2192 25.8486C23.7422 25.8486 23.3541 25.4508 23.3541 24.9618C23.3541 24.4729 23.7422 24.075 24.2192 24.075C24.6963 24.075 25.0844 24.4729 25.0844 24.9618C25.0844 25.4508 24.6963 25.8486 24.2192 25.8486Z" fill="#D7AC6C"/>
<path d="M32.5725 24.1719H31.8486C31.4172 24.1719 31.0674 24.5304 31.0674 24.9727C31.0674 25.4149 31.4172 25.7734 31.8486 25.7734H32.5725C33.0039 25.7734 33.3537 25.4149 33.3537 24.9727C33.3537 24.5304 33.0039 24.1719 32.5725 24.1719Z" fill="#D7AC6C"/>
<path d="M16.59 24.1523H15.8662C15.4348 24.1523 15.085 24.5109 15.085 24.9531C15.085 25.3954 15.4348 25.7539 15.8662 25.7539H16.59C17.0214 25.7539 17.3712 25.3954 17.3712 24.9531C17.3712 24.5109 17.0214 24.1523 16.59 24.1523Z" fill="#D7AC6C"/>
<path d="M24.2285 17.943C24.6599 17.943 25.0098 17.5845 25.0098 17.1422V16.4004C25.0098 15.9581 24.6599 15.5996 24.2285 15.5996C23.7971 15.5996 23.4473 15.9581 23.4473 16.4004V17.1422C23.4473 17.5845 23.7971 17.943 24.2285 17.943Z" fill="#D7AC6C"/>
<path d="M24.2097 31.9824C23.7783 31.9824 23.4285 32.3409 23.4285 32.7832V33.525C23.4285 33.9673 23.7783 34.3258 24.2097 34.3258C24.6411 34.3258 24.991 33.9673 24.991 33.525V32.7832C24.991 32.3409 24.6411 31.9824 24.2097 31.9824Z" fill="#D7AC6C"/>
<path d="M0.78125 29.1035C0.575781 29.1035 0.374219 29.1892 0.228906 29.3381C0.0835938 29.4871 0 29.6937 0 29.9043C0 30.1157 0.0835156 30.3215 0.228906 30.4704C0.374297 30.6194 0.575781 30.7051 0.78125 30.7051C0.986719 30.7051 1.18828 30.6194 1.33352 30.4704C1.47883 30.3215 1.5625 30.1149 1.5625 29.9043C1.5625 29.6937 1.47891 29.4871 1.33352 29.3381C1.18828 29.1892 0.986719 29.1035 0.78125 29.1035Z" fill="#D7AC6C"/>
</g>
<defs>
<clipPath id="clip0">
<rect width="40" height="41" fill="white" transform="translate(0 0.958984)"/>
</clipPath>
</defs>
</svg>
