<svg width="23" height="23" viewBox="0 0 23 23" fill="none" xmlns="http://www.w3.org/2000/svg">
<path d="M11.717 22.0361C11.6441 22.0361 11.5713 22.0361 11.4979 22.0358C9.77338 22.04 8.17995 21.9964 6.63033 21.9026C5.20962 21.8167 3.91279 21.3287 2.87982 20.4914C1.88311 19.6835 1.20247 18.5911 0.856856 17.2449C0.556063 16.0729 0.540117 14.9224 0.524842 13.8096C0.513764 13.0112 0.50235 12.0651 0.5 11.103C0.50235 10.1369 0.513764 9.19087 0.524842 8.39247C0.540117 7.27987 0.556063 6.1294 0.856856 4.95723C1.20247 3.61103 1.88311 2.51863 2.87982 1.71071C3.91279 0.873425 5.20962 0.38537 6.6305 0.299439C8.18012 0.205833 9.77388 0.162117 11.5021 0.166288C13.2271 0.162617 14.82 0.205833 16.3697 0.299439C17.7904 0.38537 19.0872 0.873425 20.1202 1.71071C21.1171 2.51863 21.7975 3.61103 22.1431 4.95723C22.4439 6.12923 22.4599 7.27987 22.4752 8.39247C22.4862 9.19087 22.4978 10.1369 22.5 11.099V11.103C22.4978 12.0651 22.4862 13.0112 22.4752 13.8096C22.4599 14.9222 22.4441 16.0727 22.1431 17.2449C21.7975 18.5911 21.1171 19.6835 20.1202 20.4914C19.0872 21.3287 17.7904 21.8167 16.3697 21.9026C14.8857 21.9924 13.3612 22.0361 11.717 22.0361ZM11.4979 20.3272C13.1944 20.3312 14.7521 20.2886 16.2653 20.1972C17.3395 20.1323 18.2709 19.7857 19.034 19.1672C19.7393 18.5954 20.2251 17.8065 20.4777 16.8224C20.7281 15.8468 20.7426 14.7992 20.7565 13.7863C20.7674 12.9932 20.7788 12.0538 20.7812 11.101C20.7788 10.1481 20.7674 9.20889 20.7565 8.41583C20.7426 7.40284 20.7281 6.35532 20.4777 5.37954C20.2251 4.39543 19.7393 3.60653 19.034 3.03471C18.2709 2.41634 17.3395 2.06978 16.2653 2.00488C14.7521 1.91327 13.1944 1.87106 11.5019 1.87473C9.80577 1.87072 8.24793 1.91327 6.73474 2.00488C5.66048 2.06978 4.72906 2.41634 3.966 3.03471C3.26068 3.60653 2.77491 4.39543 2.52229 5.37954C2.27186 6.35532 2.25742 7.40268 2.24349 8.41583C2.23258 9.20956 2.22117 10.1495 2.21882 11.103C2.22117 12.0525 2.23258 12.9925 2.24349 13.7863C2.25742 14.7992 2.27186 15.8468 2.52229 16.8224C2.77491 17.8065 3.26068 18.5954 3.966 19.1672C4.72906 19.7856 5.66048 20.1321 6.73474 20.197C8.24793 20.2886 9.80611 20.3314 11.4979 20.3272ZM11.4569 16.4404C8.49535 16.4404 6.08565 14.0452 6.08565 11.101C6.08565 8.15687 8.49535 5.76164 11.4569 5.76164C14.4187 5.76164 16.8282 8.15687 16.8282 11.101C16.8282 14.0452 14.4187 16.4404 11.4569 16.4404ZM11.4569 7.47025C9.44304 7.47025 7.80446 9.0991 7.80446 11.101C7.80446 13.103 9.44304 14.7318 11.4569 14.7318C13.471 14.7318 15.1094 13.103 15.1094 11.101C15.1094 9.0991 13.471 7.47025 11.4569 7.47025ZM17.4298 4.05304C16.718 4.05304 16.1407 4.62669 16.1407 5.33449C16.1407 6.0423 16.718 6.61595 17.4298 6.61595C18.1419 6.61595 18.7189 6.0423 18.7189 5.33449C18.7189 4.62669 18.1419 4.05304 17.4298 4.05304Z" fill="white"/>
</svg>
