<svg width="50" height="50" viewBox="0 0 50 50" fill="none" xmlns="http://www.w3.org/2000/svg">
<g clip-path="url(#clip0)">
<path d="M22.5027 34.3597C22.7741 34.6307 23.142 34.7832 23.5259 34.7832C23.9095 34.7832 24.2774 34.6311 24.5488 34.3597L29.7141 29.1943C30.2794 28.6291 30.2794 27.7131 29.7141 27.1479C29.1492 26.583 28.233 26.583 27.6681 27.1479L23.5259 31.2901L21.6373 29.4014C21.072 28.8365 20.1561 28.8365 19.5909 29.4014C19.026 29.9663 19.026 30.8826 19.5909 31.4478L22.5027 34.3597Z" fill="#D7AC6C"/>
<path d="M24.6527 42.2394C30.986 42.2394 36.1382 37.0868 36.1382 30.7536C36.1382 24.4203 30.986 19.2681 24.6527 19.2681C18.3191 19.2681 13.1669 24.4203 13.1669 30.7536C13.1669 37.0868 18.3195 42.2394 24.6527 42.2394ZM24.6527 22.1616C29.3904 22.1616 33.2447 26.0159 33.2447 30.7536C33.2447 35.4912 29.3904 39.3459 24.6527 39.3459C19.9151 39.3459 16.0604 35.4912 16.0604 30.7536C16.0604 26.0159 19.9151 22.1616 24.6527 22.1616Z" fill="#D7AC6C"/>
<path d="M43.9103 3.22584H41.2714V1.59178C41.2714 0.792885 40.6235 0.14502 39.8246 0.14502C39.0257 0.14502 38.3779 0.792885 38.3779 1.59178V3.22584H35.5348V1.59178C35.5348 0.792885 34.887 0.14502 34.0877 0.14502C33.2888 0.14502 32.6409 0.792885 32.6409 1.59178V3.22584H16.6645V1.59178C16.6645 0.792885 16.0166 0.14502 15.2173 0.14502C14.4184 0.14502 13.7706 0.792885 13.7706 1.59178V3.22584H10.9275V1.59178C10.9275 0.792885 10.2797 0.14502 9.48039 0.14502C8.6815 0.14502 8.03363 0.792885 8.03363 1.59178V3.22584H5.39432C2.81445 3.22584 0.715332 5.32495 0.715332 7.9052V44.466C0.715332 47.0459 2.81445 49.145 5.39432 49.145H43.9103C46.4906 49.145 48.5893 47.0459 48.5893 44.466V7.9052C48.5893 5.32495 46.4902 3.22584 43.9103 3.22584ZM45.6954 44.466C45.6954 45.4504 44.8947 46.2515 43.9103 46.2515H5.39432C4.41 46.2515 3.60886 45.4504 3.60886 44.466V15.2564H45.6954V44.466ZM3.60886 7.9052C3.60886 6.9205 4.41 6.11974 5.39432 6.11974H8.03363V7.75379C8.03363 8.55269 8.6815 9.20055 9.48077 9.20055C10.2797 9.20055 10.9275 8.55269 10.9275 7.75379V6.11974H13.7706V7.75379C13.7706 8.55269 14.4184 9.20055 15.2177 9.20055C16.0166 9.20055 16.6645 8.55269 16.6645 7.75379V6.11974H32.6409V7.75379C32.6409 8.55269 33.2888 9.20055 34.0881 9.20055C34.887 9.20055 35.5348 8.55269 35.5348 7.75379V6.11974H38.3779V7.75379C38.3779 8.55269 39.0257 9.20055 39.8246 9.20055C40.6239 9.20055 41.2718 8.55269 41.2718 7.75379V6.11974H43.9103C44.8947 6.11974 45.6958 6.9205 45.6958 7.9052V12.3625H3.60886V7.9052Z" fill="#D7AC6C"/>
</g>
<defs>
<clipPath id="clip0">
<rect width="49" height="49" fill="white" transform="translate(0.141113 0.14502)"/>
</clipPath>
</defs>
</svg>
