<svg width="57" height="57" viewBox="0 0 57 57" fill="none" xmlns="http://www.w3.org/2000/svg">
<g clip-path="url(#clip0)">
<path d="M28.0361 0.0595703C12.6187 0.0595703 0.0361328 12.6431 0.0361328 28.0596C0.0361328 43.477 12.6196 56.0596 28.0361 56.0596C43.4535 56.0596 56.0361 43.476 56.0361 28.0596C56.0361 12.6422 43.4526 0.0595703 28.0361 0.0595703ZM28.0361 52.7783C14.4061 52.7783 3.31738 41.6896 3.31738 28.0596C3.31738 14.4296 14.4061 3.34082 28.0361 3.34082C41.6661 3.34082 52.7549 14.4296 52.7549 28.0596C52.7549 41.6896 41.6661 52.7783 28.0361 52.7783Z" fill="#D7AC6C"/>
<path d="M14.115 43.6213C15.0211 43.6213 15.7556 42.8867 15.7556 41.9807C15.7556 41.0746 15.0211 40.34 14.115 40.34C13.2089 40.34 12.4744 41.0746 12.4744 41.9807C12.4744 42.8867 13.2089 43.6213 14.115 43.6213Z" fill="#D7AC6C"/>
<path d="M41.9573 15.7791C42.8634 15.7791 43.5979 15.0446 43.5979 14.1385C43.5979 13.2324 42.8634 12.4979 41.9573 12.4979C41.0512 12.4979 40.3167 13.2324 40.3167 14.1385C40.3167 15.0446 41.0512 15.7791 41.9573 15.7791Z" fill="#D7AC6C"/>
<path d="M12.9549 12.9783C12.3142 13.6191 12.3142 14.6578 12.9549 15.2985C13.5956 15.9392 14.6344 15.9392 15.2751 15.2985C15.9158 14.6578 15.9158 13.6191 15.2751 12.9783C14.6345 12.3376 13.5956 12.3376 12.9549 12.9783Z" fill="#D7AC6C"/>
<path d="M40.7972 40.8206C40.1565 41.4613 40.1565 42.5001 40.7972 43.1408C41.4379 43.7815 42.4766 43.7815 43.1174 43.1408C43.7581 42.5001 43.7581 41.4613 43.1174 40.8206C42.4766 40.1799 41.4378 40.1799 40.7972 40.8206Z" fill="#D7AC6C"/>
<path d="M28.0361 13.2939C28.9422 13.2939 29.6768 12.5594 29.6768 11.6533V8.37207C29.6768 7.46601 28.9422 6.73145 28.0361 6.73145C27.1301 6.73145 26.3955 7.46601 26.3955 8.37207V11.6533C26.3955 12.5594 27.1301 13.2939 28.0361 13.2939Z" fill="#D7AC6C"/>
<path d="M28.0361 42.8252C27.1301 42.8252 26.3955 43.5598 26.3955 44.4658V47.7471C26.3955 48.6531 27.1301 49.3877 28.0361 49.3877C28.9422 49.3877 29.6768 48.6531 29.6768 47.7471V44.4658C29.6768 43.5598 28.9422 42.8252 28.0361 42.8252Z" fill="#D7AC6C"/>
<path d="M13.2705 28.0596C13.2705 27.1535 12.5359 26.4189 11.6299 26.4189H8.34863C7.44257 26.4189 6.70801 27.1535 6.70801 28.0596C6.70801 28.9656 7.44257 29.7002 8.34863 29.7002H11.6299C12.5359 29.7002 13.2705 28.9656 13.2705 28.0596Z" fill="#D7AC6C"/>
<path d="M42.8018 28.0596C42.8018 28.9656 43.5363 29.7002 44.4424 29.7002H47.7236C48.6297 29.7002 49.3643 28.9656 49.3643 28.0596C49.3643 27.1535 48.6297 26.4189 47.7236 26.4189H44.4424C43.5363 26.4189 42.8018 27.1535 42.8018 28.0596Z" fill="#D7AC6C"/>
<path d="M29.6768 27.38V18.2158C29.6768 17.3098 28.9422 16.5752 28.0361 16.5752C27.1301 16.5752 26.3955 17.3098 26.3955 18.2158V28.0596C26.3955 28.4947 26.5684 28.9119 26.8761 29.2197L36.7199 39.0635C37.3605 39.7041 38.3993 39.7042 39.04 39.0635C39.6807 38.4227 39.6807 37.384 39.04 36.7433L29.6768 27.38Z" fill="#D7AC6C"/>
</g>
<defs>
<clipPath id="clip0">
<rect width="56" height="56" fill="white" transform="translate(0.0361328 0.0595703)"/>
</clipPath>
</defs>
</svg>
