<svg width="53" height="54" viewBox="0 0 53 54" fill="none" xmlns="http://www.w3.org/2000/svg">
<path d="M29.4994 45.1388C25.4154 45.1388 22.0927 41.8157 22.0927 37.7311C22.0927 36.8164 22.8342 36.0748 23.749 36.0748H35.2505C36.1652 36.0748 36.9067 36.8164 36.9067 37.7311C36.9068 41.8157 33.5839 45.1388 29.4994 45.1388ZM25.7551 39.3874C26.3922 40.8227 27.8309 41.8264 29.4994 41.8264C31.1681 41.8264 32.607 40.8228 33.2443 39.3874H25.7551Z" fill="#D7AC6C"/>
<path d="M48.2295 39.3874C48.2289 39.3874 48.2282 39.3874 48.2274 39.3874H10.7723C9.85757 39.3874 9.11609 38.6459 9.11609 37.7312C9.11609 34.107 11.2985 30.9031 14.5589 29.5397V18.0125C14.5589 14.0629 16.097 10.3498 18.8897 7.55712C21.6824 4.76437 25.3952 3.22644 29.3441 3.22644H29.6557C33.5474 3.22644 37.3578 4.80495 40.11 7.55722C42.9028 10.3499 44.4408 14.063 44.4408 18.0126V29.5398C47.6735 30.8917 49.8465 34.0526 49.8831 37.6388C49.8849 37.6694 49.8856 37.7002 49.8856 37.7314C49.8857 38.6459 49.1441 39.3874 48.2295 39.3874ZM12.6789 36.0749H46.3208C45.7582 34.2619 44.2916 32.8191 42.3776 32.3339C41.6428 32.1477 41.1283 31.4864 41.1283 30.7284V18.0125C41.1283 14.9477 39.9349 12.0664 37.7678 9.89947C35.6321 7.76374 32.6754 6.53894 29.6557 6.53894H29.3441C26.2798 6.53894 23.399 7.73237 21.2321 9.89947C19.0649 12.0665 17.8714 14.9478 17.8714 18.0126V30.7286C17.8714 31.4866 17.3569 32.1479 16.6221 32.3341C14.708 32.819 13.2415 34.2619 12.6789 36.0749Z" fill="#D7AC6C"/>
</svg>
