<svg width="85" height="43" viewBox="0 0 85 43" fill="none" xmlns="http://www.w3.org/2000/svg">
<path fill-rule="evenodd" clip-rule="evenodd" d="M37.2436 33.6136C37.2436 33.0991 37.7144 32.6818 38.2949 32.6818H55.1154C55.6959 32.6818 56.1667 33.0991 56.1667 33.6136C56.1667 34.1282 55.6959 34.5455 55.1154 34.5455H38.2949C37.7144 34.5455 37.2436 34.1282 37.2436 33.6136Z" fill="#D7AC6C"/>
<path fill-rule="evenodd" clip-rule="evenodd" d="M7.80769 33.6136C7.80769 33.0991 8.27837 32.6818 8.85897 32.6818H17.2692C17.8497 32.6818 18.3205 33.0991 18.3205 33.6136C18.3205 34.1282 17.8497 34.5455 17.2692 34.5455H8.85897C8.27837 34.5455 7.80769 34.1282 7.80769 33.6136Z" fill="#D7AC6C"/>
<path fill-rule="evenodd" clip-rule="evenodd" d="M1.5 24.2955C1.5 23.7809 1.97068 23.3636 2.55128 23.3636H36.1923C36.7728 23.3636 37.2436 23.7809 37.2436 24.2955C37.2436 24.81 36.7728 25.2273 36.1923 25.2273H2.55128C1.97068 25.2273 1.5 24.81 1.5 24.2955Z" fill="#D7AC6C"/>
<path fill-rule="evenodd" clip-rule="evenodd" d="M9.91026 18.7045C9.91026 18.19 10.3809 17.7727 10.9615 17.7727H34.0897C34.6703 17.7727 35.141 18.19 35.141 18.7045C35.141 19.2191 34.6703 19.6364 34.0897 19.6364H10.9615C10.3809 19.6364 9.91026 19.2191 9.91026 18.7045Z" fill="#D7AC6C"/>
<path fill-rule="evenodd" clip-rule="evenodd" d="M35.4537 2.86364C34.332 2.86364 33.2948 3.39179 32.7296 4.25055L27.8045 11.734C26.8626 13.1653 25.1337 14.0455 23.2643 14.0455H10.9615C10.3809 14.0455 9.91026 13.6282 9.91026 13.1136C9.91026 12.5991 10.3809 12.1818 10.9615 12.1818H23.2643C24.386 12.1818 25.4232 11.6537 25.9884 10.7949L30.9134 3.31147C31.8553 1.88019 33.5843 1 35.4537 1H47.3187C52.4952 1 57.2274 3.59232 59.5425 7.69623L63.6869 15.0432C64.061 15.7065 64.717 16.2106 65.5105 16.4451L73.8953 18.9224C79.6311 20.6172 83.5 25.3749 83.5 30.7339C83.5 32.8389 81.5747 34.5455 79.1998 34.5455H76.141C75.5605 34.5455 75.0897 34.1282 75.0897 33.6136C75.0897 33.0991 75.5605 32.6818 76.141 32.6818H79.1998C80.4136 32.6818 81.3974 31.8098 81.3974 30.7339C81.3974 26.1772 78.1078 22.1314 73.2304 20.6904L64.8456 18.2131C63.5231 17.8223 62.4298 16.982 61.8064 15.8767L57.6618 8.52965C55.7031 5.05714 51.6987 2.86364 47.3187 2.86364H35.4537Z" fill="#D7AC6C"/>
<path fill-rule="evenodd" clip-rule="evenodd" d="M27.7821 30.8182C24.879 30.8182 22.5256 32.9042 22.5256 35.4773C22.5256 38.0504 24.879 40.1364 27.7821 40.1364C30.6851 40.1364 33.0385 38.0504 33.0385 35.4773C33.0385 32.9042 30.6851 30.8182 27.7821 30.8182ZM20.4231 35.4773C20.4231 31.8749 23.7178 28.9545 27.7821 28.9545C31.8463 28.9545 35.141 31.8749 35.141 35.4773C35.141 39.0797 31.8463 42 27.7821 42C23.7178 42 20.4231 39.0797 20.4231 35.4773Z" fill="#D7AC6C"/>
<path fill-rule="evenodd" clip-rule="evenodd" d="M65.6282 30.8182C62.7252 30.8182 60.3718 32.9042 60.3718 35.4773C60.3718 38.0504 62.7252 40.1364 65.6282 40.1364C68.5312 40.1364 70.8846 38.0504 70.8846 35.4773C70.8846 32.9042 68.5312 30.8182 65.6282 30.8182ZM58.2692 35.4773C58.2692 31.8749 61.5639 28.9545 65.6282 28.9545C69.6925 28.9545 72.9872 31.8749 72.9872 35.4773C72.9872 39.0797 69.6925 42 65.6282 42C61.5639 42 58.2692 39.0797 58.2692 35.4773Z" fill="#D7AC6C"/>
<path fill-rule="evenodd" clip-rule="evenodd" d="M1.5 41.0682C1.5 40.5536 1.97068 40.1364 2.55128 40.1364H82.4487C83.0292 40.1364 83.5 40.5536 83.5 41.0682C83.5 41.5827 83.0292 42 82.4487 42H2.55128C1.97068 42 1.5 41.5827 1.5 41.0682Z" fill="#D7AC6C"/>
<path fill-rule="evenodd" clip-rule="evenodd" d="M46.7051 4.72727C47.2856 4.72727 47.7564 5.14454 47.7564 5.65909V13.1136C47.7564 14.6575 49.1685 15.9091 50.9103 15.9091H58.9921C59.5726 15.9091 60.0434 16.3264 60.0434 16.8409C60.0434 17.3555 59.5726 17.7727 58.9921 17.7727H50.9103C48.0072 17.7727 45.6538 15.6868 45.6538 13.1136V5.65909C45.6538 5.14454 46.1246 4.72727 46.7051 4.72727Z" fill="#D7AC6C"/>
<path fill-rule="evenodd" clip-rule="evenodd" d="M37.2436 33.6136C37.2436 33.0991 37.7144 32.6818 38.2949 32.6818H55.1154C55.6959 32.6818 56.1667 33.0991 56.1667 33.6136C56.1667 34.1282 55.6959 34.5455 55.1154 34.5455H38.2949C37.7144 34.5455 37.2436 34.1282 37.2436 33.6136Z" stroke="#D7AC6C" stroke-width="2"/>
<path fill-rule="evenodd" clip-rule="evenodd" d="M7.80769 33.6136C7.80769 33.0991 8.27837 32.6818 8.85897 32.6818H17.2692C17.8497 32.6818 18.3205 33.0991 18.3205 33.6136C18.3205 34.1282 17.8497 34.5455 17.2692 34.5455H8.85897C8.27837 34.5455 7.80769 34.1282 7.80769 33.6136Z" stroke="#D7AC6C" stroke-width="2"/>
<path fill-rule="evenodd" clip-rule="evenodd" d="M1.5 24.2955C1.5 23.7809 1.97068 23.3636 2.55128 23.3636H36.1923C36.7728 23.3636 37.2436 23.7809 37.2436 24.2955C37.2436 24.81 36.7728 25.2273 36.1923 25.2273H2.55128C1.97068 25.2273 1.5 24.81 1.5 24.2955Z" stroke="#D7AC6C" stroke-width="2"/>
<path fill-rule="evenodd" clip-rule="evenodd" d="M9.91026 18.7045C9.91026 18.19 10.3809 17.7727 10.9615 17.7727H34.0897C34.6703 17.7727 35.141 18.19 35.141 18.7045C35.141 19.2191 34.6703 19.6364 34.0897 19.6364H10.9615C10.3809 19.6364 9.91026 19.2191 9.91026 18.7045Z" stroke="#D7AC6C" stroke-width="2"/>
<path fill-rule="evenodd" clip-rule="evenodd" d="M35.4537 2.86364C34.332 2.86364 33.2948 3.39179 32.7296 4.25055L27.8045 11.734C26.8626 13.1653 25.1337 14.0455 23.2643 14.0455H10.9615C10.3809 14.0455 9.91026 13.6282 9.91026 13.1136C9.91026 12.5991 10.3809 12.1818 10.9615 12.1818H23.2643C24.386 12.1818 25.4232 11.6537 25.9884 10.7949L30.9134 3.31147C31.8553 1.88019 33.5843 1 35.4537 1H47.3187C52.4952 1 57.2274 3.59232 59.5425 7.69623L63.6869 15.0432C64.061 15.7065 64.717 16.2106 65.5105 16.4451L73.8953 18.9224C79.6311 20.6172 83.5 25.3749 83.5 30.7339C83.5 32.8389 81.5747 34.5455 79.1998 34.5455H76.141C75.5605 34.5455 75.0897 34.1282 75.0897 33.6136C75.0897 33.0991 75.5605 32.6818 76.141 32.6818H79.1998C80.4136 32.6818 81.3974 31.8098 81.3974 30.7339C81.3974 26.1772 78.1078 22.1314 73.2304 20.6904L64.8456 18.2131C63.5231 17.8223 62.4298 16.982 61.8064 15.8767L57.6618 8.52965C55.7031 5.05714 51.6987 2.86364 47.3187 2.86364H35.4537Z" stroke="#D7AC6C" stroke-width="2"/>
<path fill-rule="evenodd" clip-rule="evenodd" d="M27.7821 30.8182C24.879 30.8182 22.5256 32.9042 22.5256 35.4773C22.5256 38.0504 24.879 40.1364 27.7821 40.1364C30.6851 40.1364 33.0385 38.0504 33.0385 35.4773C33.0385 32.9042 30.6851 30.8182 27.7821 30.8182ZM20.4231 35.4773C20.4231 31.8749 23.7178 28.9545 27.7821 28.9545C31.8463 28.9545 35.141 31.8749 35.141 35.4773C35.141 39.0797 31.8463 42 27.7821 42C23.7178 42 20.4231 39.0797 20.4231 35.4773Z" stroke="#D7AC6C" stroke-width="2"/>
<path fill-rule="evenodd" clip-rule="evenodd" d="M65.6282 30.8182C62.7252 30.8182 60.3718 32.9042 60.3718 35.4773C60.3718 38.0504 62.7252 40.1364 65.6282 40.1364C68.5312 40.1364 70.8846 38.0504 70.8846 35.4773C70.8846 32.9042 68.5312 30.8182 65.6282 30.8182ZM58.2692 35.4773C58.2692 31.8749 61.5639 28.9545 65.6282 28.9545C69.6925 28.9545 72.9872 31.8749 72.9872 35.4773C72.9872 39.0797 69.6925 42 65.6282 42C61.5639 42 58.2692 39.0797 58.2692 35.4773Z" stroke="#D7AC6C" stroke-width="2"/>
<path fill-rule="evenodd" clip-rule="evenodd" d="M1.5 41.0682C1.5 40.5536 1.97068 40.1364 2.55128 40.1364H82.4487C83.0292 40.1364 83.5 40.5536 83.5 41.0682C83.5 41.5827 83.0292 42 82.4487 42H2.55128C1.97068 42 1.5 41.5827 1.5 41.0682Z" stroke="#D7AC6C" stroke-width="2"/>
<path fill-rule="evenodd" clip-rule="evenodd" d="M46.7051 4.72727C47.2856 4.72727 47.7564 5.14454 47.7564 5.65909V13.1136C47.7564 14.6575 49.1685 15.9091 50.9103 15.9091H58.9921C59.5726 15.9091 60.0434 16.3264 60.0434 16.8409C60.0434 17.3555 59.5726 17.7727 58.9921 17.7727H50.9103C48.0072 17.7727 45.6538 15.6868 45.6538 13.1136V5.65909C45.6538 5.14454 46.1246 4.72727 46.7051 4.72727Z" stroke="#D7AC6C" stroke-width="2"/>
</svg>
