<svg width="83" height="43" viewBox="0 0 83 43" fill="none" xmlns="http://www.w3.org/2000/svg">
<path fill-rule="evenodd" clip-rule="evenodd" d="M36.2436 33.6136C36.2436 33.0991 36.7144 32.6818 37.2949 32.6818H54.1154C54.6959 32.6818 55.1667 33.0991 55.1667 33.6136C55.1667 34.1282 54.6959 34.5455 54.1154 34.5455H37.2949C36.7144 34.5455 36.2436 34.1282 36.2436 33.6136Z" fill="#D7AC6C"/>
<path fill-rule="evenodd" clip-rule="evenodd" d="M6.80769 33.6136C6.80769 33.0991 7.27837 32.6818 7.85897 32.6818H16.2692C16.8497 32.6818 17.3205 33.0991 17.3205 33.6136C17.3205 34.1282 16.8497 34.5455 16.2692 34.5455H7.85897C7.27837 34.5455 6.80769 34.1282 6.80769 33.6136Z" fill="#D7AC6C"/>
<path fill-rule="evenodd" clip-rule="evenodd" d="M0.5 24.2955C0.5 23.7809 0.97068 23.3636 1.55128 23.3636H35.1923C35.7728 23.3636 36.2436 23.7809 36.2436 24.2955C36.2436 24.81 35.7728 25.2273 35.1923 25.2273H1.55128C0.97068 25.2273 0.5 24.81 0.5 24.2955Z" fill="#D7AC6C"/>
<path fill-rule="evenodd" clip-rule="evenodd" d="M8.91026 18.7045C8.91026 18.19 9.38094 17.7727 9.96154 17.7727H33.0897C33.6703 17.7727 34.141 18.19 34.141 18.7045C34.141 19.2191 33.6703 19.6364 33.0897 19.6364H9.96154C9.38094 19.6364 8.91026 19.2191 8.91026 18.7045Z" fill="#D7AC6C"/>
<path fill-rule="evenodd" clip-rule="evenodd" d="M34.4537 2.86364C33.332 2.86364 32.2948 3.39179 31.7296 4.25055L26.8045 11.734C25.8626 13.1653 24.1337 14.0455 22.2643 14.0455H9.96154C9.38094 14.0455 8.91026 13.6282 8.91026 13.1136C8.91026 12.5991 9.38094 12.1818 9.96154 12.1818H22.2643C23.386 12.1818 24.4232 11.6537 24.9884 10.7949L29.9134 3.31147C30.8553 1.88019 32.5843 1 34.4537 1H46.3187C51.4952 1 56.2274 3.59232 58.5425 7.69623L62.6869 15.0432C63.061 15.7065 63.717 16.2106 64.5105 16.4451L72.8953 18.9224C78.6311 20.6172 82.5 25.3749 82.5 30.7339C82.5 32.8389 80.5747 34.5455 78.1998 34.5455H75.141C74.5605 34.5455 74.0897 34.1282 74.0897 33.6136C74.0897 33.0991 74.5605 32.6818 75.141 32.6818H78.1998C79.4136 32.6818 80.3974 31.8098 80.3974 30.7339C80.3974 26.1772 77.1078 22.1314 72.2304 20.6904L63.8456 18.2131C62.5231 17.8223 61.4298 16.982 60.8064 15.8767L56.6618 8.52965C54.7031 5.05714 50.6987 2.86364 46.3187 2.86364H34.4537Z" fill="#D7AC6C"/>
<path fill-rule="evenodd" clip-rule="evenodd" d="M26.7821 30.8182C23.879 30.8182 21.5256 32.9042 21.5256 35.4773C21.5256 38.0504 23.879 40.1364 26.7821 40.1364C29.6851 40.1364 32.0385 38.0504 32.0385 35.4773C32.0385 32.9042 29.6851 30.8182 26.7821 30.8182ZM19.4231 35.4773C19.4231 31.8749 22.7178 28.9545 26.7821 28.9545C30.8463 28.9545 34.141 31.8749 34.141 35.4773C34.141 39.0797 30.8463 42 26.7821 42C22.7178 42 19.4231 39.0797 19.4231 35.4773Z" fill="#D7AC6C"/>
<path fill-rule="evenodd" clip-rule="evenodd" d="M64.6282 30.8182C61.7252 30.8182 59.3718 32.9042 59.3718 35.4773C59.3718 38.0504 61.7252 40.1364 64.6282 40.1364C67.5312 40.1364 69.8846 38.0504 69.8846 35.4773C69.8846 32.9042 67.5312 30.8182 64.6282 30.8182ZM57.2692 35.4773C57.2692 31.8749 60.5639 28.9545 64.6282 28.9545C68.6925 28.9545 71.9872 31.8749 71.9872 35.4773C71.9872 39.0797 68.6925 42 64.6282 42C60.5639 42 57.2692 39.0797 57.2692 35.4773Z" fill="#D7AC6C"/>
<path fill-rule="evenodd" clip-rule="evenodd" d="M0.5 41.0682C0.5 40.5536 0.97068 40.1364 1.55128 40.1364H81.4487C82.0292 40.1364 82.5 40.5536 82.5 41.0682C82.5 41.5827 82.0292 42 81.4487 42H1.55128C0.97068 42 0.5 41.5827 0.5 41.0682Z" fill="#D7AC6C"/>
<path fill-rule="evenodd" clip-rule="evenodd" d="M45.7051 4.72727C46.2856 4.72727 46.7564 5.14454 46.7564 5.65909V13.1136C46.7564 14.6575 48.1685 15.9091 49.9103 15.9091H57.9921C58.5726 15.9091 59.0434 16.3264 59.0434 16.8409C59.0434 17.3555 58.5726 17.7727 57.9921 17.7727H49.9103C47.0072 17.7727 44.6538 15.6868 44.6538 13.1136V5.65909C44.6538 5.14454 45.1246 4.72727 45.7051 4.72727Z" fill="#D7AC6C"/>
<path fill-rule="evenodd" clip-rule="evenodd" d="M36.2436 33.6136C36.2436 33.0991 36.7144 32.6818 37.2949 32.6818H54.1154C54.6959 32.6818 55.1667 33.0991 55.1667 33.6136C55.1667 34.1282 54.6959 34.5455 54.1154 34.5455H37.2949C36.7144 34.5455 36.2436 34.1282 36.2436 33.6136Z" stroke="#D7AC6C" stroke-width="0.2"/>
<path fill-rule="evenodd" clip-rule="evenodd" d="M6.80769 33.6136C6.80769 33.0991 7.27837 32.6818 7.85897 32.6818H16.2692C16.8497 32.6818 17.3205 33.0991 17.3205 33.6136C17.3205 34.1282 16.8497 34.5455 16.2692 34.5455H7.85897C7.27837 34.5455 6.80769 34.1282 6.80769 33.6136Z" stroke="#D7AC6C" stroke-width="0.2"/>
<path fill-rule="evenodd" clip-rule="evenodd" d="M0.5 24.2955C0.5 23.7809 0.97068 23.3636 1.55128 23.3636H35.1923C35.7728 23.3636 36.2436 23.7809 36.2436 24.2955C36.2436 24.81 35.7728 25.2273 35.1923 25.2273H1.55128C0.97068 25.2273 0.5 24.81 0.5 24.2955Z" stroke="#D7AC6C" stroke-width="0.2"/>
<path fill-rule="evenodd" clip-rule="evenodd" d="M8.91026 18.7045C8.91026 18.19 9.38094 17.7727 9.96154 17.7727H33.0897C33.6703 17.7727 34.141 18.19 34.141 18.7045C34.141 19.2191 33.6703 19.6364 33.0897 19.6364H9.96154C9.38094 19.6364 8.91026 19.2191 8.91026 18.7045Z" stroke="#D7AC6C" stroke-width="0.2"/>
<path fill-rule="evenodd" clip-rule="evenodd" d="M34.4537 2.86364C33.332 2.86364 32.2948 3.39179 31.7296 4.25055L26.8045 11.734C25.8626 13.1653 24.1337 14.0455 22.2643 14.0455H9.96154C9.38094 14.0455 8.91026 13.6282 8.91026 13.1136C8.91026 12.5991 9.38094 12.1818 9.96154 12.1818H22.2643C23.386 12.1818 24.4232 11.6537 24.9884 10.7949L29.9134 3.31147C30.8553 1.88019 32.5843 1 34.4537 1H46.3187C51.4952 1 56.2274 3.59232 58.5425 7.69623L62.6869 15.0432C63.061 15.7065 63.717 16.2106 64.5105 16.4451L72.8953 18.9224C78.6311 20.6172 82.5 25.3749 82.5 30.7339C82.5 32.8389 80.5747 34.5455 78.1998 34.5455H75.141C74.5605 34.5455 74.0897 34.1282 74.0897 33.6136C74.0897 33.0991 74.5605 32.6818 75.141 32.6818H78.1998C79.4136 32.6818 80.3974 31.8098 80.3974 30.7339C80.3974 26.1772 77.1078 22.1314 72.2304 20.6904L63.8456 18.2131C62.5231 17.8223 61.4298 16.982 60.8064 15.8767L56.6618 8.52965C54.7031 5.05714 50.6987 2.86364 46.3187 2.86364H34.4537Z" stroke="#D7AC6C" stroke-width="0.2"/>
<path fill-rule="evenodd" clip-rule="evenodd" d="M26.7821 30.8182C23.879 30.8182 21.5256 32.9042 21.5256 35.4773C21.5256 38.0504 23.879 40.1364 26.7821 40.1364C29.6851 40.1364 32.0385 38.0504 32.0385 35.4773C32.0385 32.9042 29.6851 30.8182 26.7821 30.8182ZM19.4231 35.4773C19.4231 31.8749 22.7178 28.9545 26.7821 28.9545C30.8463 28.9545 34.141 31.8749 34.141 35.4773C34.141 39.0797 30.8463 42 26.7821 42C22.7178 42 19.4231 39.0797 19.4231 35.4773Z" stroke="#D7AC6C" stroke-width="0.2"/>
<path fill-rule="evenodd" clip-rule="evenodd" d="M64.6282 30.8182C61.7252 30.8182 59.3718 32.9042 59.3718 35.4773C59.3718 38.0504 61.7252 40.1364 64.6282 40.1364C67.5312 40.1364 69.8846 38.0504 69.8846 35.4773C69.8846 32.9042 67.5312 30.8182 64.6282 30.8182ZM57.2692 35.4773C57.2692 31.8749 60.5639 28.9545 64.6282 28.9545C68.6925 28.9545 71.9872 31.8749 71.9872 35.4773C71.9872 39.0797 68.6925 42 64.6282 42C60.5639 42 57.2692 39.0797 57.2692 35.4773Z" stroke="#D7AC6C" stroke-width="0.2"/>
<path fill-rule="evenodd" clip-rule="evenodd" d="M0.5 41.0682C0.5 40.5536 0.97068 40.1364 1.55128 40.1364H81.4487C82.0292 40.1364 82.5 40.5536 82.5 41.0682C82.5 41.5827 82.0292 42 81.4487 42H1.55128C0.97068 42 0.5 41.5827 0.5 41.0682Z" stroke="#D7AC6C" stroke-width="0.2"/>
<path fill-rule="evenodd" clip-rule="evenodd" d="M45.7051 4.72727C46.2856 4.72727 46.7564 5.14454 46.7564 5.65909V13.1136C46.7564 14.6575 48.1685 15.9091 49.9103 15.9091H57.9921C58.5726 15.9091 59.0434 16.3264 59.0434 16.8409C59.0434 17.3555 58.5726 17.7727 57.9921 17.7727H49.9103C47.0072 17.7727 44.6538 15.6868 44.6538 13.1136V5.65909C44.6538 5.14454 45.1246 4.72727 45.7051 4.72727Z" stroke="#D7AC6C" stroke-width="0.2"/>
</svg>
