<svg width="99" height="53" viewBox="0 0 99 53" fill="none" xmlns="http://www.w3.org/2000/svg">
<path fill-rule="evenodd" clip-rule="evenodd" d="M0.959473 30.2045C0.959473 29.5953 1.53578 29.1014 2.24668 29.1014H43.4373C44.1481 29.1014 44.7245 29.5953 44.7245 30.2045C44.7245 30.8136 44.1481 31.3076 43.4373 31.3076H2.24668C1.53578 31.3076 0.959473 30.8136 0.959473 30.2045Z" fill="#D7AC6C"/>
<path fill-rule="evenodd" clip-rule="evenodd" d="M11.2571 23.5857C11.2571 22.9766 11.8334 22.4826 12.5443 22.4826H48.5861C49.2969 22.4826 49.8733 22.9766 49.8733 23.5857C49.8733 24.1949 49.2969 24.6889 48.5861 24.6889H12.5443C11.8334 24.6889 11.2571 24.1949 11.2571 23.5857Z" fill="#D7AC6C"/>
<path fill-rule="evenodd" clip-rule="evenodd" d="M6.1083 16.967C6.1083 16.3578 6.68461 15.8639 7.39551 15.8639H43.4373C44.1481 15.8639 44.7245 16.3578 44.7245 16.967C44.7245 17.5761 44.1481 18.0701 43.4373 18.0701H7.39551C6.68461 18.0701 6.1083 17.5761 6.1083 16.967Z" fill="#D7AC6C"/>
<path fill-rule="evenodd" clip-rule="evenodd" d="M18.9804 10.3482C18.9804 9.7391 19.5568 9.24512 20.2676 9.24512H46.0117C46.7225 9.24512 47.2989 9.7391 47.2989 10.3482C47.2989 10.9574 46.7225 11.4514 46.0117 11.4514H20.2676C19.5568 11.4514 18.9804 10.9574 18.9804 10.3482Z" fill="#D7AC6C"/>
<path fill-rule="evenodd" clip-rule="evenodd" d="M0.959473 30.2045C0.959473 29.5953 1.53578 29.1014 2.24668 29.1014H43.4373C44.1481 29.1014 44.7245 29.5953 44.7245 30.2045C44.7245 30.8136 44.1481 31.3076 43.4373 31.3076H2.24668C1.53578 31.3076 0.959473 30.8136 0.959473 30.2045Z" stroke="#D7AC6C" stroke-width="0.2"/>
<path fill-rule="evenodd" clip-rule="evenodd" d="M11.2571 23.5857C11.2571 22.9766 11.8334 22.4826 12.5443 22.4826H48.5861C49.2969 22.4826 49.8733 22.9766 49.8733 23.5857C49.8733 24.1949 49.2969 24.6889 48.5861 24.6889H12.5443C11.8334 24.6889 11.2571 24.1949 11.2571 23.5857Z" stroke="#D7AC6C" stroke-width="0.2"/>
<path fill-rule="evenodd" clip-rule="evenodd" d="M6.1083 16.967C6.1083 16.3578 6.68461 15.8639 7.39551 15.8639H43.4373C44.1481 15.8639 44.7245 16.3578 44.7245 16.967C44.7245 17.5761 44.1481 18.0701 43.4373 18.0701H7.39551C6.68461 18.0701 6.1083 17.5761 6.1083 16.967Z" stroke="#D7AC6C" stroke-width="0.2"/>
<path fill-rule="evenodd" clip-rule="evenodd" d="M18.9804 10.3482C18.9804 9.7391 19.5568 9.24512 20.2676 9.24512H46.0117C46.7225 9.24512 47.2989 9.7391 47.2989 10.3482C47.2989 10.9574 46.7225 11.4514 46.0117 11.4514H20.2676C19.5568 11.4514 18.9804 10.9574 18.9804 10.3482Z" stroke="#D7AC6C" stroke-width="0.2"/>
<path fill-rule="evenodd" clip-rule="evenodd" d="M11.9716 42.6613C11.9716 42.0883 12.5065 41.6236 13.1664 41.6236H22.725C23.3847 41.6236 23.9198 42.0883 23.9198 42.6613C23.9198 43.2343 23.3847 43.6989 22.725 43.6989H13.1664C12.5065 43.6989 11.9716 43.2343 11.9716 42.6613ZM45.4266 42.6613C45.4266 42.0883 45.9617 41.6236 46.6214 41.6236H65.7386C66.3984 41.6236 66.9334 42.0883 66.9334 42.6613C66.9334 43.2343 66.3984 43.6989 65.7386 43.6989H46.6214C45.9617 43.6989 45.4266 43.2343 45.4266 42.6613Z" fill="#D7AC6C"/>
<path fill-rule="evenodd" clip-rule="evenodd" d="M16.7508 1.15532C16.7508 0.582335 17.2858 0.117676 17.9457 0.117676H71.2482C75.6848 0.117676 79.9099 1.76546 82.8576 4.64515L92.8683 14.4258C96.1731 17.6548 97.9988 21.8249 97.9988 26.1452V38.5107C97.9988 41.376 95.3241 43.6989 92.0247 43.6989H89.6351C88.9753 43.6989 88.4403 43.2343 88.4403 42.6613C88.4403 42.0883 88.9753 41.6236 89.6351 41.6236H92.0247C94.0043 41.6236 95.6092 40.2299 95.6092 38.5107V26.1452C95.6092 22.3331 93.9983 18.6536 91.0822 15.8046L81.0715 6.02397C78.5772 3.58716 75.0023 2.19297 71.2482 2.19297H17.9457C17.2858 2.19297 16.7508 1.72831 16.7508 1.15532Z" fill="#D7AC6C"/>
<path fill-rule="evenodd" clip-rule="evenodd" d="M70.5179 4.26827C71.1777 4.26827 71.7127 4.73293 71.7127 5.30592V13.6071C71.7127 15.3263 73.3176 16.7201 75.2972 16.7201H87.2454C87.9052 16.7201 88.4403 17.1847 88.4403 17.7577C88.4403 18.3307 87.9052 18.7954 87.2454 18.7954H75.2972C71.9978 18.7954 69.3231 16.4725 69.3231 13.6071V5.30592C69.3231 4.73293 69.8581 4.26827 70.5179 4.26827Z" fill="#D7AC6C"/>
<path fill-rule="evenodd" clip-rule="evenodd" d="M34.6732 39.5483C31.3738 39.5483 28.6991 41.8712 28.6991 44.7366C28.6991 47.6019 31.3738 49.9248 34.6732 49.9248C37.9726 49.9248 40.6473 47.6019 40.6473 44.7366C40.6473 41.8712 37.9726 39.5483 34.6732 39.5483ZM26.3094 44.7366C26.3094 40.725 30.054 37.473 34.6732 37.473C39.2924 37.473 43.037 40.725 43.037 44.7366C43.037 48.7481 39.2924 52.0001 34.6732 52.0001C30.054 52.0001 26.3094 48.7481 26.3094 44.7366Z" fill="#D7AC6C"/>
<path fill-rule="evenodd" clip-rule="evenodd" d="M77.6868 39.5483C74.3875 39.5483 71.7127 41.8712 71.7127 44.7366C71.7127 47.6019 74.3875 49.9248 77.6868 49.9248C80.9862 49.9248 83.661 47.6019 83.661 44.7366C83.661 41.8712 80.9862 39.5483 77.6868 39.5483ZM69.3231 44.7366C69.3231 40.725 73.0677 37.473 77.6868 37.473C82.306 37.473 86.0506 40.725 86.0506 44.7366C86.0506 48.7481 82.306 52.0001 77.6868 52.0001C73.0677 52.0001 69.3231 48.7481 69.3231 44.7366Z" fill="#D7AC6C"/>
<path fill-rule="evenodd" clip-rule="evenodd" d="M4.80261 50.9625C4.80261 50.3895 5.33756 49.9248 5.99744 49.9248H96.804C97.4638 49.9248 97.9988 50.3895 97.9988 50.9625C97.9988 51.5355 97.4638 52.0001 96.804 52.0001H5.99744C5.33756 52.0001 4.80261 51.5355 4.80261 50.9625Z" fill="#D7AC6C"/>
<path fill-rule="evenodd" clip-rule="evenodd" d="M11.9716 42.6613C11.9716 42.0883 12.5065 41.6236 13.1664 41.6236H22.725C23.3847 41.6236 23.9198 42.0883 23.9198 42.6613C23.9198 43.2343 23.3847 43.6989 22.725 43.6989H13.1664C12.5065 43.6989 11.9716 43.2343 11.9716 42.6613ZM45.4266 42.6613C45.4266 42.0883 45.9617 41.6236 46.6214 41.6236H65.7386C66.3984 41.6236 66.9334 42.0883 66.9334 42.6613C66.9334 43.2343 66.3984 43.6989 65.7386 43.6989H46.6214C45.9617 43.6989 45.4266 43.2343 45.4266 42.6613Z" stroke="#D7AC6C" stroke-width="0.2"/>
<path fill-rule="evenodd" clip-rule="evenodd" d="M16.7508 1.15532C16.7508 0.582335 17.2858 0.117676 17.9457 0.117676H71.2482C75.6848 0.117676 79.9099 1.76546 82.8576 4.64515L92.8683 14.4258C96.1731 17.6548 97.9988 21.8249 97.9988 26.1452V38.5107C97.9988 41.376 95.3241 43.6989 92.0247 43.6989H89.6351C88.9753 43.6989 88.4403 43.2343 88.4403 42.6613C88.4403 42.0883 88.9753 41.6236 89.6351 41.6236H92.0247C94.0043 41.6236 95.6092 40.2299 95.6092 38.5107V26.1452C95.6092 22.3331 93.9983 18.6536 91.0822 15.8046L81.0715 6.02397C78.5772 3.58716 75.0023 2.19297 71.2482 2.19297H17.9457C17.2858 2.19297 16.7508 1.72831 16.7508 1.15532Z" stroke="#D7AC6C" stroke-width="0.2"/>
<path fill-rule="evenodd" clip-rule="evenodd" d="M70.5179 4.26827C71.1777 4.26827 71.7127 4.73293 71.7127 5.30592V13.6071C71.7127 15.3263 73.3176 16.7201 75.2972 16.7201H87.2454C87.9052 16.7201 88.4403 17.1847 88.4403 17.7577C88.4403 18.3307 87.9052 18.7954 87.2454 18.7954H75.2972C71.9978 18.7954 69.3231 16.4725 69.3231 13.6071V5.30592C69.3231 4.73293 69.8581 4.26827 70.5179 4.26827Z" stroke="#D7AC6C" stroke-width="0.2"/>
<path fill-rule="evenodd" clip-rule="evenodd" d="M34.6732 39.5483C31.3738 39.5483 28.6991 41.8712 28.6991 44.7366C28.6991 47.6019 31.3738 49.9248 34.6732 49.9248C37.9726 49.9248 40.6473 47.6019 40.6473 44.7366C40.6473 41.8712 37.9726 39.5483 34.6732 39.5483ZM26.3094 44.7366C26.3094 40.725 30.054 37.473 34.6732 37.473C39.2924 37.473 43.037 40.725 43.037 44.7366C43.037 48.7481 39.2924 52.0001 34.6732 52.0001C30.054 52.0001 26.3094 48.7481 26.3094 44.7366Z" stroke="#D7AC6C" stroke-width="0.2"/>
<path fill-rule="evenodd" clip-rule="evenodd" d="M77.6868 39.5483C74.3875 39.5483 71.7127 41.8712 71.7127 44.7366C71.7127 47.6019 74.3875 49.9248 77.6868 49.9248C80.9862 49.9248 83.661 47.6019 83.661 44.7366C83.661 41.8712 80.9862 39.5483 77.6868 39.5483ZM69.3231 44.7366C69.3231 40.725 73.0677 37.473 77.6868 37.473C82.306 37.473 86.0506 40.725 86.0506 44.7366C86.0506 48.7481 82.306 52.0001 77.6868 52.0001C73.0677 52.0001 69.3231 48.7481 69.3231 44.7366Z" stroke="#D7AC6C" stroke-width="0.2"/>
<path fill-rule="evenodd" clip-rule="evenodd" d="M4.80261 50.9625C4.80261 50.3895 5.33756 49.9248 5.99744 49.9248H96.804C97.4638 49.9248 97.9988 50.3895 97.9988 50.9625C97.9988 51.5355 97.4638 52.0001 96.804 52.0001H5.99744C5.33756 52.0001 4.80261 51.5355 4.80261 50.9625Z" stroke="#D7AC6C" stroke-width="0.2"/>
</svg>
