<svg width="97" height="88" viewBox="0 0 97 88" fill="none" xmlns="http://www.w3.org/2000/svg">
<path d="M83.3002 5.01472H72.0362V3.42111C72.0362 2.5758 71.6991 1.76512 71.099 1.1674C70.4988 0.569682 69.6849 0.233887 68.8362 0.233887C67.9875 0.233887 67.1736 0.569682 66.5735 1.1674C65.9734 1.76512 65.6362 2.5758 65.6362 3.42111V5.01472H31.9082V3.42111C31.9082 2.5758 31.5711 1.76512 30.971 1.1674C30.3708 0.569682 29.5569 0.233887 28.7082 0.233887C27.8595 0.233887 27.0456 0.569682 26.4455 1.1674C25.8454 1.76512 25.5082 2.5758 25.5082 3.42111V5.01472H14.2442C10.6738 5.02314 7.25207 6.43954 4.72741 8.95412C2.20275 11.4687 0.780667 14.8768 0.772217 18.4329V74.3368C0.780667 77.8929 2.20275 81.301 4.72741 83.8156C7.25207 86.3302 10.6738 87.7466 14.2442 87.755H83.3002C86.8706 87.7466 90.2924 86.3302 92.817 83.8156C95.3417 81.301 96.7638 77.8929 96.7722 74.3368V18.4329C96.7638 14.8768 95.3417 11.4687 92.817 8.95412C90.2924 6.43954 86.8706 5.02314 83.3002 5.01472ZM14.2442 11.3892H25.5082V12.9828C25.5082 13.8281 25.8454 14.6388 26.4455 15.2365C27.0456 15.8342 27.8595 16.17 28.7082 16.17C29.5569 16.17 30.3708 15.8342 30.971 15.2365C31.5711 14.6388 31.9082 13.8281 31.9082 12.9828V11.3892H65.6362V12.9828C65.6362 13.8281 65.9734 14.6388 66.5735 15.2365C67.1736 15.8342 67.9875 16.17 68.8362 16.17C69.6849 16.17 70.4988 15.8342 71.099 15.2365C71.6991 14.6388 72.0362 13.8281 72.0362 12.9828V11.3892H83.3002C85.1758 11.3892 86.9746 12.1313 88.3009 13.4522C89.6271 14.7732 90.3722 16.5648 90.3722 18.4329V25.9866H7.17222V18.4329C7.17222 16.5648 7.9173 14.7732 9.24356 13.4522C10.5698 12.1313 12.3686 11.3892 14.2442 11.3892ZM83.3002 81.508H14.2442C13.3046 81.5082 12.3745 81.3219 11.508 80.9599C10.6415 80.598 9.85615 80.0677 9.19775 79.4001C8.53936 78.7325 8.02113 77.9408 7.67335 77.0715C7.32557 76.2021 7.15521 75.2725 7.17222 74.3368V32.3611H90.3722V74.3368C90.3892 75.2725 90.2189 76.2021 89.8711 77.0715C89.5233 77.9408 89.0051 78.7325 88.3467 79.4001C87.6883 80.0677 86.9029 80.598 86.0365 80.9599C85.17 81.3219 84.2398 81.5082 83.3002 81.508Z" fill="#D7AC6C"/>
</svg>
