<svg width="22" height="20" viewBox="0 0 22 20" fill="none" xmlns="http://www.w3.org/2000/svg">
<path d="M18.9127 1.0925H16.3313V0.728332C16.3313 0.535166 16.2541 0.349912 16.1165 0.213324C15.979 0.0767347 15.7925 0 15.598 0C15.4035 0 15.217 0.0767347 15.0795 0.213324C14.9419 0.349912 14.8647 0.535166 14.8647 0.728332V1.0925H7.13533V0.728332C7.13533 0.535166 7.05807 0.349912 6.92055 0.213324C6.78302 0.0767347 6.59649 0 6.402 0C6.20751 0 6.02098 0.0767347 5.88345 0.213324C5.74593 0.349912 5.66867 0.535166 5.66867 0.728332V1.0925H3.08733C2.26912 1.09442 1.48497 1.41809 0.906398 1.99272C0.32783 2.56734 0.00193662 3.34614 0 4.15878V16.9337C0.00193662 17.7464 0.32783 18.5252 0.906398 19.0998C1.48497 19.6744 2.26912 19.9981 3.08733 20H18.9127C19.7309 19.9981 20.515 19.6744 21.0936 19.0998C21.6722 18.5252 21.9981 17.7464 22 16.9337V4.15878C21.9981 3.34614 21.6722 2.56734 21.0936 1.99272C20.515 1.41809 19.7309 1.09442 18.9127 1.0925ZM3.08733 2.54916H5.66867V2.91333C5.66867 3.10649 5.74593 3.29175 5.88345 3.42834C6.02098 3.56493 6.20751 3.64166 6.402 3.64166C6.59649 3.64166 6.78302 3.56493 6.92055 3.42834C7.05807 3.29175 7.13533 3.10649 7.13533 2.91333V2.54916H14.8647V2.91333C14.8647 3.10649 14.9419 3.29175 15.0795 3.42834C15.217 3.56493 15.4035 3.64166 15.598 3.64166C15.7925 3.64166 15.979 3.56493 16.1165 3.42834C16.2541 3.29175 16.3313 3.10649 16.3313 2.91333V2.54916H18.9127C19.3425 2.54916 19.7547 2.71875 20.0587 3.02061C20.3626 3.32247 20.5333 3.73188 20.5333 4.15878V5.88492H1.46667V4.15878C1.46667 3.73188 1.63742 3.32247 1.94135 3.02061C2.24528 2.71875 2.65751 2.54916 3.08733 2.54916ZM18.9127 18.5725H3.08733C2.87201 18.5725 2.65885 18.5299 2.46028 18.4472C2.26172 18.3645 2.08173 18.2433 1.93085 18.0908C1.77997 17.9382 1.66121 17.7573 1.58151 17.5586C1.50181 17.36 1.46277 17.1475 1.46667 16.9337V7.34159H20.5333V16.9337C20.5372 17.1475 20.4982 17.36 20.4185 17.5586C20.3388 17.7573 20.22 17.9382 20.0691 18.0908C19.9183 18.2433 19.7383 18.3645 19.5397 18.4472C19.3412 18.5299 19.128 18.5725 18.9127 18.5725Z" fill="#D7AC6C"/>
</svg>
