<svg width="22" height="29" viewBox="0 0 22 29" fill="none" xmlns="http://www.w3.org/2000/svg">
<path d="M11 18.8047H14.3846C14.8519 18.8047 15.2308 18.4243 15.2308 17.9551C15.2308 17.4859 14.8519 17.1055 14.3846 17.1055H11.8462V14.5566C11.8462 14.0874 11.4673 13.707 11 13.707C10.5327 13.707 10.1538 14.0874 10.1538 14.5566V17.9551C10.1538 18.4243 10.5327 18.8047 11 18.8047Z" fill="#D7AC6C"/>
<path d="M11 29C17.0654 29 22 24.0452 22 17.9551C22 14.0247 19.418 10.6386 17.1401 7.65102C15.2879 5.22193 13.5385 2.92758 13.5385 0.849609C13.5385 0.380398 13.1596 0 12.6923 0C9.38644 0 9.24011 7.75977 7.61538 7.75977C7.10307 7.75977 6.77205 6.2495 6.76923 5.21094C6.76923 4.43049 5.80445 4.06374 5.28948 4.64782C2.61394 7.68273 0 12.9882 0 17.9551C0 23.9957 4.89156 29 11 29ZM5.37578 7.34618C5.9101 9.17782 6.99859 9.45898 7.61538 9.45898C10.3766 9.45898 10.727 4.47087 12.0275 2.29293C12.5515 4.42833 14.1363 6.50676 15.7964 8.68397C18.0143 11.5927 20.3077 14.6005 20.3077 17.9551C20.3077 23.1083 16.1323 27.3008 11 27.3008C5.83 27.3008 1.69231 23.0638 1.69231 17.9551C1.69231 14.2036 3.29323 10.4028 5.37578 7.34618Z" fill="#D7AC6C"/>
<path d="M11 25.6016C15.1991 25.6016 18.6154 22.1714 18.6154 17.9551C18.6154 13.7388 15.1991 10.3086 11 10.3086C6.80088 10.3086 3.38462 13.7388 3.38462 17.9551C3.38462 22.1714 6.80088 25.6016 11 25.6016ZM11 12.0078C14.266 12.0078 16.9231 14.6758 16.9231 17.9551C16.9231 21.2344 14.266 23.9023 11 23.9023C7.73402 23.9023 5.07692 21.2344 5.07692 17.9551C5.07692 14.6758 7.73402 12.0078 11 12.0078Z" fill="#D7AC6C"/>
</svg>
