<svg width="97" height="100" viewBox="0 0 97 100" fill="none" xmlns="http://www.w3.org/2000/svg">
<path d="M48.7222 99.5623C39.2287 99.5623 29.9484 96.6552 22.0548 91.2086C14.1613 85.762 8.00898 78.0204 4.37597 68.963C0.742965 59.9056 -0.207594 49.9391 1.6445 40.3238C3.49659 30.7085 8.06814 21.8763 14.7811 14.944C21.494 8.01177 30.0468 3.29085 39.3578 1.37824C48.6689 -0.534359 58.3201 0.447258 67.091 4.19896C75.8618 7.95067 83.3584 14.304 88.6327 22.4554C93.907 30.6069 96.7222 40.1904 96.7222 49.9941C96.7022 53.6597 96.3202 57.3136 95.5822 60.8991C95.4955 61.3059 95.3321 61.6912 95.1012 62.0328C94.8704 62.3744 94.5767 62.6657 94.2368 62.8901C93.8969 63.1145 93.5176 63.2675 93.1205 63.3405C92.7233 63.4135 92.3161 63.405 91.9222 63.3155C91.5282 63.226 91.1552 63.0573 90.8244 62.8189C90.4936 62.5805 90.2114 62.2772 89.9942 61.9262C89.7769 61.5753 89.6287 61.1835 89.558 60.7734C89.4873 60.3633 89.4955 59.9428 89.5822 59.536C90.2939 56.407 90.6761 53.2078 90.7222 49.9941C90.7157 40.5263 87.7094 31.3209 82.1622 23.7827C76.6151 16.2446 68.8317 10.7879 60.0003 8.24558C51.1688 5.70325 41.7744 6.21492 33.2509 9.70249C24.7274 13.1901 17.5431 19.462 12.7946 27.5608C8.04604 35.6597 5.99415 45.1407 6.95209 54.5566C7.91003 63.9725 11.8252 72.8061 18.0999 79.7091C24.3747 86.612 32.6644 91.2051 41.7036 92.7872C50.7429 94.3694 60.0352 92.8536 68.1622 88.4714C68.512 88.2242 68.9086 88.0563 69.3258 87.9788C69.7431 87.9013 70.1715 87.916 70.5828 88.022C70.9941 88.1279 71.379 88.3227 71.7121 88.5934C72.0453 88.8642 72.319 89.2047 72.5154 89.5927C72.7118 89.9807 72.8263 90.4072 72.8515 90.8442C72.8766 91.2812 72.8118 91.7188 72.6612 92.128C72.5107 92.5373 72.2779 92.9089 71.9781 93.2185C71.6784 93.528 71.3185 93.7685 70.9222 93.924C64.0776 97.6434 56.4565 99.579 48.7222 99.5623Z" fill="#D7AC6C"/>
<path d="M81.7222 87.1703C80.9265 87.1703 80.1635 86.8439 79.6009 86.2629C79.0382 85.6819 78.7222 84.8939 78.7222 84.0723V59.2881C78.7222 58.4665 79.0382 57.6785 79.6009 57.0975C80.1635 56.5165 80.9265 56.1901 81.7222 56.1901C82.5178 56.1901 83.2809 56.5165 83.8435 57.0975C84.4061 57.6785 84.7222 58.4665 84.7222 59.2881V84.0723C84.7222 84.8939 84.4061 85.6819 83.8435 86.2629C83.2809 86.8439 82.5178 87.1703 81.7222 87.1703Z" fill="#D7AC6C"/>
<path d="M81.7222 99.5623C83.379 99.5623 84.7222 98.1753 84.7222 96.4643C84.7222 94.7533 83.379 93.3663 81.7222 93.3663C80.0653 93.3663 78.7222 94.7533 78.7222 96.4643C78.7222 98.1753 80.0653 99.5623 81.7222 99.5623Z" fill="#D7AC6C"/>
<path d="M31.2022 67.219C30.7648 66.5264 30.6078 65.6842 30.7648 64.8734C30.9219 64.0625 31.3805 63.3475 32.0422 62.8818L48.7222 51.4192V22.1119C48.7222 21.2903 49.0382 20.5023 49.6009 19.9213C50.1635 19.3403 50.9265 19.0139 51.7222 19.0139C52.5178 19.0139 53.2809 19.3403 53.8435 19.9213C54.4061 20.5023 54.7222 21.2903 54.7222 22.1119V53.0921C54.7226 53.6038 54.6028 54.108 54.3728 54.5613C54.1429 55.0146 53.8098 55.4034 53.4022 55.6944L35.4022 68.0865C34.7166 68.4814 33.9172 68.611 33.1474 68.452C32.3776 68.293 31.6879 67.8559 31.2022 67.219Z" fill="#D7AC6C"/>
</svg>
