<svg width="52" height="69" viewBox="0 0 52 69" fill="none" xmlns="http://www.w3.org/2000/svg">
<path d="M26.298 44.2129H34.1717C35.2588 44.2129 36.1401 43.3227 36.1401 42.2246C36.1401 41.1266 35.2588 40.2363 34.1717 40.2363H28.2664V34.2714C28.2664 33.1733 27.3851 32.2831 26.298 32.2831C25.2109 32.2831 24.3296 33.1733 24.3296 34.2714V42.2246C24.3296 43.3227 25.2109 44.2129 26.298 44.2129Z" fill="#D7AC6C"/>
<path d="M26.298 68.0726C40.408 68.0726 51.8874 56.4772 51.8874 42.2246C51.8874 33.0266 45.881 25.1021 40.5818 18.1104C36.273 12.4257 32.2033 7.05639 32.2033 2.19339C32.2033 1.09531 31.3219 0.205078 30.2349 0.205078C22.5444 0.205078 22.204 18.365 18.4244 18.365C17.2325 18.365 16.4625 14.8305 16.4559 12.4C16.4559 10.5736 14.2116 9.71528 13.0136 11.0822C6.78945 18.1847 0.708618 30.6009 0.708618 42.2246C0.708618 56.3612 12.0879 68.0726 26.298 68.0726ZM13.2144 17.397C14.4573 21.6836 16.9895 22.3416 18.4244 22.3416C24.8477 22.3416 25.6629 10.6681 28.6883 5.57112C29.9072 10.5685 33.594 15.4326 37.4559 20.5278C42.6154 27.3351 47.9506 34.3741 47.9506 42.2246C47.9506 54.2845 38.2373 64.096 26.298 64.096C14.271 64.096 4.64545 54.1805 4.64545 42.2246C4.64545 33.4452 8.36969 24.5503 13.2144 17.397Z" fill="#D7AC6C"/>
<path d="M26.298 60.1194C36.0665 60.1194 44.0138 52.0918 44.0138 42.2246C44.0138 32.3575 36.0665 24.3299 26.298 24.3299C16.5296 24.3299 8.58228 32.3575 8.58228 42.2246C8.58228 52.0918 16.5296 60.1194 26.298 60.1194ZM26.298 28.3065C33.8957 28.3065 40.0769 34.5502 40.0769 42.2246C40.0769 49.8991 33.8957 56.1428 26.298 56.1428C18.7003 56.1428 12.5191 49.8991 12.5191 42.2246C12.5191 34.5502 18.7003 28.3065 26.298 28.3065Z" fill="#D7AC6C"/>
</svg>
