<svg width="53" height="48" viewBox="0 0 53 48" fill="none" xmlns="http://www.w3.org/2000/svg">
<path d="M45.3664 2.63351H39.2456V1.77C39.2456 1.31196 39.0623 0.872685 38.7362 0.548804C38.4101 0.224923 37.9678 0.0429688 37.5067 0.0429688C37.0455 0.0429688 36.6032 0.224923 36.2771 0.548804C35.951 0.872685 35.7678 1.31196 35.7678 1.77V2.63351H17.4399V1.77C17.4399 1.31196 17.2567 0.872685 16.9306 0.548804C16.6045 0.224923 16.1622 0.0429688 15.701 0.0429688C15.2398 0.0429688 14.7975 0.224923 14.4714 0.548804C14.1453 0.872685 13.9621 1.31196 13.9621 1.77V2.63351H7.84123C5.90106 2.63807 4.04168 3.40557 2.66977 4.76812C1.29786 6.13067 0.5251 7.97738 0.520508 9.90431V40.1964C0.5251 42.1233 1.29786 43.97 2.66977 45.3326C4.04168 46.6952 5.90106 47.4626 7.84123 47.4672H45.3664C47.3066 47.4626 49.166 46.6952 50.5379 45.3326C51.9098 43.97 52.6826 42.1233 52.6872 40.1964V9.90431C52.6826 7.97738 51.9098 6.13067 50.5379 4.76812C49.166 3.40557 47.3066 2.63807 45.3664 2.63351ZM7.84123 6.08757H13.9621V6.95109C13.9621 7.40912 14.1453 7.8484 14.4714 8.17228C14.7975 8.49616 15.2398 8.67812 15.701 8.67812C16.1622 8.67812 16.6045 8.49616 16.9306 8.17228C17.2567 7.8484 17.4399 7.40912 17.4399 6.95109V6.08757H35.7678V6.95109C35.7678 7.40912 35.951 7.8484 36.2771 8.17228C36.6032 8.49616 37.0455 8.67812 37.5067 8.67812C37.9678 8.67812 38.4101 8.49616 38.7362 8.17228C39.0623 7.8484 39.2456 7.40912 39.2456 6.95109V6.08757H45.3664C46.3857 6.08757 47.3631 6.48969 48.0838 7.20547C48.8045 7.92125 49.2094 8.89205 49.2094 9.90431V13.9974H3.99828V9.90431C3.99828 8.89205 4.40317 7.92125 5.12386 7.20547C5.84455 6.48969 6.82202 6.08757 7.84123 6.08757ZM45.3664 44.0822H7.84123C7.33066 44.0823 6.82519 43.9813 6.35435 43.7852C5.88351 43.5891 5.45674 43.3018 5.09897 42.94C4.74119 42.5783 4.45959 42.1493 4.2706 41.6782C4.08162 41.2072 3.98904 40.7034 3.99828 40.1964V17.4514H49.2094V40.1964C49.2186 40.7034 49.126 41.2072 48.9371 41.6782C48.7481 42.1493 48.4665 42.5783 48.1087 42.94C47.7509 43.3018 47.3242 43.5891 46.8533 43.7852C46.3825 43.9813 45.877 44.0823 45.3664 44.0822Z" fill="#D7AC6C"/>
</svg>
