<svg width="64" height="63" viewBox="0 0 64 63" fill="none" xmlns="http://www.w3.org/2000/svg">
<path d="M37.2876 30.701L29.9777 27.2901C29.3398 26.994 28.8158 27.3259 28.8158 28.0322V34.4568C28.8158 35.1631 29.3398 35.4951 29.9777 35.1989L37.2844 31.788C37.9255 31.4886 37.9255 31.0004 37.2876 30.701ZM32.0704 0C14.8144 0 0.825928 13.9884 0.825928 31.2445C0.825928 48.5006 14.8144 62.489 32.0704 62.489C49.3265 62.489 63.3149 48.5006 63.3149 31.2445C63.3149 13.9884 49.3265 0 32.0704 0ZM32.0704 43.9376C16.0772 43.9376 15.7973 42.4958 15.7973 31.2445C15.7973 19.9932 16.0772 18.5514 32.0704 18.5514C48.0637 18.5514 48.3436 19.9932 48.3436 31.2445C48.3436 42.4958 48.0637 43.9376 32.0704 43.9376Z" fill="#0E2A4E"/>
</svg>
