<?xml version="1.0" encoding="UTF-8"?>
<!DOCTYPE svg PUBLIC "-//W3C//DTD SVG 1.1//EN" "http://www.w3.org/Graphics/SVG/1.1/DTD/svg11.dtd">
<!-- Creator: CorelDRAW X8 -->
<svg xmlns="http://www.w3.org/2000/svg" xml:space="preserve" width="2269px" height="673px" version="1.1" shape-rendering="geometricPrecision" text-rendering="geometricPrecision" image-rendering="optimizeQuality" fill-rule="evenodd" clip-rule="evenodd"
viewBox="0 0 2269000 672999"
 xmlns:xlink="http://www.w3.org/1999/xlink">
 <g id="Слой_x0020_1">
  <metadata id="CorelCorpID_0Corel-Layer"/>
  <path fill="#0E2A4E" d="M508899 537177l351 -764c21358,-45706 51225,-188466 58256,-223612 2458,-8591 4653,-41964 16113,-41964 11092,0 25680,37026 25999,46731 1694,14008 -68382,195155 -100390,224885l-329 320 -333 -320c-31993,-29730 -102082,-210877 -100386,-224885 329,-9705 14904,-46731 25999,-46731 11456,0 13666,33373 16111,41964 7044,35146 36900,177906 58254,223612l355 764z"/>
  <path fill="#CBCBCB" d="M246197 339580l-43226 0c-5553,4474 -10684,6783 -16293,7832 -13117,2445 -18510,-5419 -42074,-7832l-60248 0c626,10106 46718,11846 59200,22178 11992,9921 23712,21745 34498,35897l38548 -35929c-3709,-7057 2673,-12802 15475,-17730l2071 -775c3573,-1282 11127,923 12049,-3641z"/>
  <path fill="#0E2A4E" d="M636639 481197c4586,-48187 -181,-59575 17942,-7874 5590,15930 8854,14040 -6017,18546 -16259,4928 -13563,6543 -11925,-10672zm-106053 164423c3980,0 7202,-3218 7202,-7212 0,-3960 -3222,-7191 -7202,-7191 -3970,0 -7203,3231 -7203,7191 0,3994 3233,7212 7203,7212zm0 -57516c3980,0 7202,-3218 7202,-7189 0,-3983 -3222,-7201 -7202,-7201 -3970,0 -7203,3218 -7203,7201 0,3971 3233,7189 7203,7189zm114290 84767l-7643 -93300c2332,-1365 5461,-2603 9566,-4142 42932,-15997 83587,-33030 88740,-39561 14904,-15120 2683,-65138 -10753,-97443 -41041,-102024 -44467,-153477 -124683,-166937 4371,5529 7737,12244 10025,17214 3379,7318 8466,20116 8843,28276 203,2889 -651,6247 -2096,9740 -2900,11343 -9283,26941 -11685,32962 -18568,46489 -56571,157746 -92821,192504l0 120687 132507 0zm-266346 -175232l-14336 175232 141234 0 0 -120687c-36238,-34736 -74277,-146072 -92823,-192504 -2400,-6021 -8782,-21619 -11684,-32952 -1446,-3503 -2298,-6861 -2081,-9750 361,-8160 5447,-20958 8818,-28276 2296,-4970 5663,-11685 10033,-17214 -80216,13460 -83641,64913 -124679,166937 -11050,-10987 -68905,-64672 -72843,-72146l-38548 35921 -6122 5712c94291,124804 122816,148868 136161,142498 17636,2706 62316,-60725 94121,-112255 -7603,15894 -15875,31505 -23965,47173 -2195,4277 -3082,7669 -3286,12311zm-183131 -89101c3412,0 6180,2776 6180,6189 0,3425 -2768,6189 -6180,6189 -3425,0 -6190,-2764 -6190,-6189 0,-3413 2765,-6189 6190,-6189z"/>
  <path fill="#D7AC6C" d="M508905 406628c3971,0 7203,-3219 7203,-7212 0,-3973 -3232,-7202 -7203,-7202 -3982,0 -7214,3229 -7214,7202 0,3993 3232,7212 7214,7212z"/>
  <path fill="#0E2A4E" d="M494263 84948c-58643,3573 -104051,28343 -104051,58359 0,17932 16214,33984 41767,44760l0 -33769c0,-21051 34443,-38116 76917,-38116 42486,0 76926,17065 76926,38116l0 33769c25544,-10776 41758,-26828 41758,-44760 0,-15066 -11425,-28799 -30218,-39198l0 -28694c0,-48860 -39610,-75291 -88466,-75291 -48856,0 -88464,26431 -88464,75291l0 17087c23439,-8215 49676,-11560 73831,-7554z"/>
  <path fill="#D7AC6C" d="M508905 357149c3971,0 7203,-3219 7203,-7202 0,-3970 -3232,-7203 -7203,-7203 -3982,0 -7214,3233 -7214,7203 0,3983 3232,7202 7214,7202z"/>
  <path fill="#D7AC6C" d="M508905 456097c3971,0 7203,-3222 7203,-7215 0,-3970 -3232,-7202 -7203,-7202 -3982,0 -7214,3232 -7214,7202 0,3993 3232,7215 7214,7215z"/>
  <polygon fill="#0E2A4E" points="322332,320793 322332,332317 330660,327506 330660,315991 "/>
  <polygon fill="#0E2A4E" points="-98,333566 319930,333566 319930,321835 -98,321835 "/>
  <path fill="#D7AC6C" d="M464110 260881c8440,0 23596,9476 31833,14017l0 2664 -6361 -1206 -15154 -2868 14349 6370 7166 3186 -6815 820 -15268 1809 15268 1810 6815 819 0 3573c-8237,4551 -23393,14018 -31833,14018 -11802,-261 -11802,-44738 0,-45012zm55352 28682l0 -12356c0,-3619 -2458,-6576 -5447,-6576l-10231 0c-2993,0 -5438,2957 -5438,6576l0 12356c0,3619 2445,6576 5438,6576l10231 0c2989,0 5447,-2957 5447,-6576zm34226 -28682c-8431,0 -23598,9476 -31837,14017l0 2664 6374 -1206 15143 -2868 -14346 6370 -7171 3186 6815 820 15272 1809 -15272 1810 -6815 819 0 3573c8239,4551 23406,14018 31837,14018 11798,-261 11798,-44738 0,-45012z"/>
  <polygon fill="#0E2A4E" points="84050,319403 84050,314614 9465,314614 1137,319416 "/>
  <polygon fill="#0E2A4E" points="246343,314610 246343,314882 208532,319400 208532,319422 319947,319422 328286,314610 "/>
  <polygon fill="#D7AC6C" points="188458,250176 97912,250176 97912,250950 188458,250950 "/>
  <polygon fill="#D7AC6C" points="188458,260404 97912,260404 97912,261177 188458,261177 "/>
  <polygon fill="#D7AC6C" points="188467,270754 97922,270515 97922,271289 188467,271527 "/>
  <polygon fill="#D7AC6C" points="246110,194789 126491,194789 84243,199523 206184,199523 "/>
  <path fill="#D7AC6C" fill-rule="nonzero" d="M197595 279941l-107489 0 0 -38538 107489 0 0 38538zm-113542 -76403l0 116020 118810 0 0 13 706 0 0 -116033 -119516 0z"/>
  <polygon fill="#D7AC6C" fill-rule="nonzero" points="208530,203542 208530,304042 208530,319562 208610,319562 208610,319552 246339,315046 246339,199023 "/>
  <path fill="#0E2A4E" fill-rule="nonzero" d="M952972 395907c0,-12288 -8899,-21461 -21200,-21461l-41597 0 0 43180 41597 0c12301,0 21200,-9161 21200,-21719zm-62797 -93926l0 40290 36104 0c11253,0 19626,-8638 19626,-20139 0,-11517 -8112,-20151 -19626,-20151l-36104 0zm98636 96280c0,31405 -25383,53114 -57039,53114l-77700 0 0 -183154 72207 0c30878,0 55730,20935 55730,51553 0,15691 -6531,28002 -17262,36626 14642,8377 24064,22758 24064,41861z"/>
  <path fill="#0E2A4E" fill-rule="nonzero" d="M1048772 391462l0 -123237 35842 0 0 120358c0,17797 9421,31130 34020,31130 24587,0 34008,-13333 34008,-31130l0 -120358 36104 0 0 123237c0,39516 -29822,63580 -70112,63580 -40038,0 -69862,-24064 -69862,-63580z"/>
  <path fill="#0E2A4E" fill-rule="nonzero" d="M1251068 409772l30869 -18045c6541,17001 19364,27992 42118,27992 21723,0 29312,-9159 29312,-19355 0,-13607 -12302,-18842 -39507,-26693 -27989,-8114 -55204,-19889 -55204,-54683 0,-34543 28773,-54421 60178,-54421 30086,0 53114,15439 65402,41074l-30346 17532c-6541,-13868 -16488,-23551 -35056,-23551 -15179,0 -24077,7851 -24077,18320 0,11254 7066,17259 34794,25644 29050,9150 59920,18833 59920,56256 0,34269 -27467,55204 -66460,55204 -37414,0 -62000,-18056 -71943,-45274z"/>
  <polygon fill="#0E2A4E" fill-rule="nonzero" points="1487103,451375 1451002,451375 1451002,268221 1487103,268221 "/>
  <polygon fill="#0E2A4E" fill-rule="nonzero" points="1702445,268225 1702445,451379 1674979,451379 1596481,339393 1596481,451379 1560391,451379 1560391,268225 1587857,268225 1666341,379945 1666341,268225 "/>
  <polygon fill="#0E2A4E" fill-rule="nonzero" points="1889037,416838 1889037,451371 1775758,451371 1775758,268218 1887740,268218 1887740,302764 1811859,302764 1811859,341745 1881199,341745 1881199,375765 1811859,375765 1811859,416838 "/>
  <path fill="#0E2A4E" fill-rule="nonzero" d="M1944296 409772l30869 -18045c6540,17001 19364,27992 42122,27992 21719,0 29308,-9159 29308,-19355 0,-13607 -12298,-18842 -39503,-26693 -27992,-8114 -55207,-19889 -55207,-54683 0,-34543 28776,-54421 60167,-54421 30095,0 53124,15439 65412,41074l-30347 17532c-6540,-13868 -16484,-23551 -35065,-23551 -15169,0 -24064,7851 -24064,18320 0,11254 7063,17259 34795,25644 29046,9150 59916,18833 59916,56256 0,34269 -27467,55204 -66461,55204 -37409,0 -61998,-18056 -71942,-45274z"/>
  <path fill="#0E2A4E" fill-rule="nonzero" d="M2130620 409772l30869 -18045c6544,17001 19368,27992 42122,27992 21722,0 29311,-9159 29311,-19355 0,-13607 -12301,-18842 -39505,-26693 -27990,-8114 -55208,-19889 -55208,-54683 0,-34543 28776,-54421 60180,-54421 30083,0 53114,15439 65402,41074l-30346 17532c-6544,-13868 -16488,-23551 -35056,-23551 -15177,0 -24077,7851 -24077,18320 0,11254 7067,17259 34795,25644 29047,9150 59915,18833 59915,56256 0,34269 -27466,55204 -66455,55204 -37414,0 -62000,-18056 -71947,-45274z"/>
  <path fill="#D7AC6C" fill-rule="nonzero" d="M942348 603698c0,-13732 -11493,-24951 -25658,-24951l-48253 0 0 49893 48253 0c14165,0 25658,-11014 25658,-24942zm-73911 -84912l0 47206 43531 0c13347,0 24225,-10444 24225,-23610 0,-12946 -10878,-23596 -24225,-23596l-43531 0zm88282 84912c0,20890 -17852,37707 -40029,37707l-62625 0 0 -135375 57903 0c21345,0 38594,16431 38594,36352 0,12573 -6563,22826 -16839,28835 13552,5402 22996,17397 22996,32481z"/>
  <path fill="#D7AC6C" fill-rule="nonzero" d="M1080985 595377l0 -89350 14370 0 0 89350c0,21470 14165,35204 39006,35204 24848,0 39003,-13734 39003,-35204l0 -89350 14381 0 0 89350c0,29595 -21969,48357 -53384,48357 -31405,0 -53376,-18762 -53376,-48357z"/>
  <polygon fill="#D7AC6C" fill-rule="nonzero" points="1411580,518786 1367436,518786 1367436,641408 1353064,641408 1353064,518786 1308929,518786 1308929,506030 1411580,506030 "/>
  <polygon fill="#D7AC6C" fill-rule="nonzero" points="1614876,628645 1614876,641412 1534808,641412 1534808,506034 1549190,506034 1549190,628645 "/>
  <polygon fill="#D7AC6C" fill-rule="nonzero" points="1822270,628645 1822270,641412 1738107,641412 1738107,506034 1821245,506034 1821245,518790 1752466,518790 1752466,566759 1816113,566759 1816113,579525 1752466,579525 1752466,628645 "/>
  <path fill="#D7AC6C" fill-rule="nonzero" d="M1963973 574487l43113 0c15816,0 28740,-12558 28740,-27841 0,-15488 -12924,-27866 -28740,-27866l-43113 0 0 55707zm40245 12766l-40245 0 0 54161 -14369 0 0 -135387 57482 0c23825,0 43111,18182 43111,40619 0,18375 -13129,34030 -30994,38879l35101 55889 -16417 0 -33669 -54161z"/>
  <path fill="#D7AC6C" fill-rule="nonzero" d="M2167266 610655l12323 -6769c5132,16248 18694,26692 41268,26692 21754,0 33872,-9853 33872,-24370 0,-15668 -14176,-20687 -35318,-27263 -23402,-7361 -45979,-13153 -45979,-38104 0,-23793 20322,-37129 44138,-37129 23609,0 40025,13143 47434,29198l-12130 6392c-5325,-12194 -16407,-22447 -35304,-22447 -17249,0 -29766,8511 -29766,23405 0,14688 12324,19343 31824,25338 26066,8125 49472,15076 49472,40223 0,23208 -19706,37910 -48459,37910 -26477,0 -45980,-12572 -53375,-33076z"/>
 </g>
</svg>
