<svg width="70" height="73" viewBox="0 0 70 73" fill="none" xmlns="http://www.w3.org/2000/svg">
<g clip-path="url(#clip0)">
<path d="M15.1664 42.2738C15.1664 53.6156 24.0458 62.8094 34.9997 62.8094C45.9536 62.8094 54.833 53.6156 54.833 42.2738C54.833 30.9321 45.9536 21.7363 34.9997 21.7363C24.0513 21.7495 15.1791 30.9377 15.1664 42.2738ZM34.9997 24.1542C44.6648 24.1542 52.4997 32.2665 52.4997 42.2738C52.4997 52.2812 44.6648 60.3935 34.9997 60.3935C25.3346 60.3935 17.4997 52.2812 17.4997 42.2738C17.5107 32.2722 25.3401 24.1655 34.9997 24.1542Z" fill="#0E2A4E"/>
<path d="M34.9999 54.3534C41.4439 54.3534 46.6666 48.9439 46.6666 42.2736C46.6666 35.6014 41.4439 30.1938 34.9999 30.1938C28.5559 30.1938 23.3333 35.6033 23.3333 42.2736C23.3405 48.942 28.5596 54.3458 34.9999 54.3534ZM34.9999 32.6098C40.1551 32.6098 44.3333 36.9378 44.3333 42.2736C44.3333 47.6114 40.1551 51.9374 34.9999 51.9374C29.8447 51.9374 25.6666 47.6114 25.6666 42.2736C25.6721 36.9396 29.8484 32.6155 34.9999 32.6098Z" fill="#0E2A4E"/>
<path d="M1.91224 21.7946L3.58203 22.0777C3.90286 23.2725 4.36589 24.422 4.96016 25.4997L3.97578 26.9134C3.39245 27.7382 3.41068 28.8651 4.02318 29.6672C4.35859 30.0919 4.72318 30.5034 5.14063 30.9413C5.53255 31.3339 5.92448 31.7019 6.36927 32.0907C7.13672 32.7079 8.20677 32.723 8.99063 32.1285L10.3706 31.0998C11.1198 31.5302 11.9036 31.8888 12.713 32.1757C12.1406 33.5139 11.6831 34.9031 11.3458 36.3243L8.40729 36.8226C7.12578 37.034 6.13594 38.0985 5.98099 39.4311C5.78594 41.3261 5.78594 43.2362 5.98099 45.1293C6.14141 46.4543 7.1276 47.5132 8.40182 47.7227L11.3422 48.221C11.9328 50.7464 12.9008 53.1624 14.2115 55.3783L12.487 57.8773C11.7159 58.9663 11.7359 60.4518 12.5362 61.5182C13.1177 62.2505 13.7339 62.9527 14.3828 63.6208C14.9789 64.238 15.6206 64.842 16.4372 65.5536C17.4563 66.369 18.8745 66.3879 19.9117 65.597L22.3417 63.7964C24.4818 65.1553 26.8151 66.1557 29.2542 66.7672L29.7354 69.8098C29.9396 71.1367 30.9677 72.1616 32.2547 72.322C34.0831 72.524 35.926 72.524 37.7544 72.322C39.0378 72.1578 40.0604 71.1348 40.2628 69.8117L40.744 66.7672C43.1831 66.1576 45.5164 65.1535 47.6565 63.7964L50.0828 65.5951C51.1383 66.3916 52.5766 66.3614 53.5992 65.5215C54.3794 64.842 55.0193 64.238 55.6154 63.6208C56.2716 62.9451 56.8951 62.2354 57.482 61.4937C58.2659 60.4367 58.2823 58.972 57.524 57.8961L55.7867 55.3783C57.0992 53.1624 58.0654 50.7464 58.656 48.221L61.5945 47.7227C62.8742 47.5094 63.8659 46.4468 64.0208 45.1124C64.2159 43.2249 64.2159 41.3223 64.0208 39.4349V39.4235C63.8622 38.0948 62.8742 37.0359 61.5964 36.8264L58.656 36.3281C58.3169 34.9049 57.8576 33.5139 57.2833 32.1738C58.0927 31.8869 58.8784 31.5264 59.6276 31.0979L61.0167 32.1247C61.8169 32.7249 62.907 32.6947 63.6763 32.0511C64.081 31.6963 64.4729 31.3263 64.8904 30.9092C65.275 30.4977 65.6451 30.0863 66.0005 29.6351C66.5893 28.8405 66.6021 27.7401 66.0333 26.9304L65.0399 25.5035C65.6341 24.4257 66.0971 23.2763 66.418 22.0815L68.1115 21.7946C69.0685 21.6191 69.8013 20.8131 69.9143 19.8128C69.9654 19.256 70.0018 18.7011 70.0018 18.1216C70.0018 17.544 69.9654 16.9835 69.9143 16.4153C69.8068 15.4056 69.0594 14.5958 68.0896 14.4411L66.4198 14.1579C66.099 12.9632 65.6359 11.8118 65.0417 10.736L66.0352 9.29394C66.6094 8.47101 66.5857 7.35174 65.9768 6.55523C65.6396 6.12678 65.2695 5.7021 64.8685 5.28497C64.4711 4.88671 64.0737 4.50356 63.638 4.1355C62.8706 3.5183 61.8023 3.50509 61.0167 4.09964L59.6349 5.12453C58.5922 4.51299 57.482 4.03546 56.3281 3.70138L56.0565 1.97813C55.907 0.966447 55.1159 0.186925 54.1333 0.0812266C53.0414 -0.0244714 51.9422 -0.0244714 50.8484 0.0812266C49.8732 0.1907 49.0912 0.966447 48.9417 1.97058L48.6719 3.70327C47.5198 4.03546 46.4096 4.51111 45.3669 5.12076L43.9815 4.10153C43.1867 3.5032 42.1057 3.52774 41.3365 4.16192C40.9263 4.50922 40.5289 4.88671 40.1206 5.30573C39.7104 5.72286 39.3568 6.13621 39.0068 6.57599C38.4052 7.3725 38.3852 8.48799 38.9594 9.30527L39.9529 10.7322C39.5992 11.3758 39.2911 12.044 39.0323 12.7348C38.6477 12.4592 38.2029 12.2856 37.7362 12.2289C35.9078 12.0251 34.0648 12.0251 32.2365 12.2289C31.7753 12.2837 31.3341 12.4573 30.9531 12.731C30.6961 12.0421 30.388 11.372 30.0344 10.7303L31.0297 9.29583C31.6039 8.47289 31.5802 7.35363 30.9714 6.55712C30.6341 6.12866 30.2659 5.70398 29.863 5.28685C29.4656 4.8886 29.0682 4.50544 28.6344 4.13739C27.8669 3.52019 26.7969 3.50509 26.0148 4.10153L24.6313 5.12642C23.5885 4.51488 22.4784 4.03735 21.3245 3.70327L21.0529 1.98002C20.9034 0.968335 20.1122 0.1907 19.1297 0.0831141C18.0378 -0.0206965 16.9385 -0.0206965 15.8448 0.0831141C14.8695 0.192587 14.0875 0.968335 13.9362 1.97247L13.6719 3.70327C12.5198 4.03546 11.4096 4.51299 10.3669 5.12076L8.98333 4.10153C8.18854 3.5032 7.10573 3.52774 6.33828 4.16192C5.92813 4.50922 5.53073 4.88671 5.12057 5.30573C4.71042 5.72286 4.35677 6.1381 4.00677 6.57599C3.40521 7.3725 3.38516 8.48799 3.9612 9.30527L4.95469 10.7322C4.36224 11.808 3.89922 12.9575 3.58021 14.1504L1.91589 14.4316C0.938802 14.5864 0.185938 15.4056 0.0838542 16.4229C0.0364583 16.9759 0 17.5308 0 18.1141C0 18.6973 0.0364583 19.2522 0.0875 19.8222C0.207813 20.8263 0.94974 21.6266 1.91224 21.7946ZM42.3044 9.96588L40.919 7.9746C41.1852 7.64618 41.475 7.31965 41.763 7.02143C42.082 6.70057 42.401 6.38913 42.7091 6.12111L44.6359 7.54615C45.0242 7.83304 45.5419 7.84814 45.9448 7.58012C47.1734 6.76663 48.5315 6.1834 49.9552 5.85687C50.4201 5.74928 50.7755 5.36046 50.8539 4.8735L51.2331 2.47264C52.0771 2.39715 52.9266 2.39715 53.7724 2.47264L54.1516 4.8735C54.2281 5.36046 54.5836 5.75117 55.0503 5.85687C56.474 6.1834 57.832 6.76663 59.0607 7.58012C59.4617 7.84626 59.9813 7.83304 60.3695 7.54615L62.2945 6.12111C62.6154 6.40235 62.9271 6.70623 63.2279 7.00822C63.5287 7.31022 63.8221 7.65185 64.0846 7.9746L62.701 9.96588C62.4185 10.3698 62.4057 10.9115 62.6682 11.3305C63.4612 12.597 64.0263 14.0032 64.3399 15.4773C64.4438 15.9586 64.8193 16.3266 65.2896 16.4078L67.6065 16.8004C67.6448 17.2307 67.6703 17.663 67.6703 18.1141C67.6703 18.5652 67.643 19.0049 67.6065 19.4277L65.2896 19.8203C64.8193 19.8996 64.4419 20.2695 64.3399 20.7509C64.0263 22.225 63.4612 23.6311 62.6682 24.8976C62.4057 25.3147 62.4185 25.8564 62.701 26.2622L64.0865 28.2516C63.8167 28.5838 63.5232 28.9047 63.2425 29.2048C62.9198 29.5294 62.5953 29.8352 62.2945 30.1032L60.3732 28.6688C59.9831 28.3781 59.4599 28.363 59.057 28.6348C58.182 29.218 57.2396 29.6842 56.2497 30.0164C56.0966 29.7333 55.9563 29.4445 55.7904 29.1708L57.5276 26.6586C57.668 26.4548 57.781 26.232 57.8667 25.998C60.3622 24.2049 61.8461 21.2586 61.837 18.1141C61.837 12.7763 57.657 8.45024 52.5037 8.45024C47.3503 8.45024 43.1703 12.7763 43.1703 18.1141C43.1703 18.2632 43.194 18.4104 43.2013 18.5595C42.3974 18.2556 41.5807 17.9952 40.7513 17.7819L40.4578 15.9303C40.5581 15.7963 40.631 15.6434 40.6693 15.4792C40.981 14.0032 41.5479 12.5989 42.3409 11.3324C42.6016 10.9115 42.587 10.3698 42.3044 9.96588ZM45.6786 19.6372C45.5675 19.1371 45.5073 18.6275 45.5018 18.1141C45.5018 14.1108 48.6354 10.8662 52.5018 10.8662C56.3682 10.8662 59.5018 14.1108 59.5018 18.1141C59.5073 19.9921 58.8018 21.7965 57.5386 23.1423C57.513 23.1045 57.493 23.0649 57.4675 23.029C56.8914 22.2929 56.2734 21.5908 55.6208 20.9264C54.9682 20.245 54.2828 19.6014 53.5664 18.9936C52.5474 18.1763 51.1292 18.1575 50.0919 18.9483L47.662 20.7509C47.0185 20.3432 46.3495 19.9789 45.6786 19.6372ZM32.4935 14.6279C34.156 14.4429 35.8331 14.4429 37.4938 14.6279C37.738 14.6676 37.9294 14.8714 37.9604 15.1262L38.5711 18.9766C38.6495 19.4693 39.0122 19.8637 39.4862 19.9638C42.1859 20.5432 44.7544 21.6474 47.0586 23.2178C47.4615 23.4914 47.9865 23.4801 48.3784 23.1895L51.4518 20.9094C51.6432 20.7509 51.9112 20.7414 52.1135 20.8849C52.7643 21.4379 53.3859 22.0268 53.9802 22.644C54.5708 23.2442 55.1268 23.8765 55.6464 24.5409C55.7886 24.7542 55.7831 25.0373 55.63 25.243L53.4352 28.4215C53.1544 28.8273 53.1435 29.3709 53.4078 29.788C54.9245 32.1719 55.9909 34.8332 56.5487 37.6286C56.6471 38.1174 57.0263 38.4949 57.5039 38.5761L61.2208 39.2084C61.4669 39.2423 61.662 39.4386 61.7021 39.6916C61.8789 41.4091 61.8789 43.14 61.7021 44.8575C61.6565 45.1086 61.4633 45.3011 61.219 45.3407L57.5021 45.973C57.0245 46.0542 56.6453 46.4298 56.5487 46.9205C55.9891 49.7159 54.9245 52.3772 53.406 54.7611C53.1417 55.1782 53.1526 55.7218 53.4333 56.1276L55.6427 59.3231C55.7849 59.5213 55.7904 59.7912 55.6573 59.9969C55.1268 60.6651 54.5635 61.3068 53.9693 61.9183C53.4206 62.4865 52.8263 63.0433 52.1391 63.6454C51.9349 63.8077 51.6505 63.8039 51.4482 63.6378L48.3784 61.3634C47.9865 61.0728 47.4615 61.0614 47.0586 61.3351C44.7563 62.9055 42.1859 64.0097 39.4862 64.5872C39.0141 64.6891 38.6495 65.0817 38.5729 65.5762L37.9622 69.4248C37.9331 69.6758 37.7471 69.8778 37.5065 69.9212C35.844 70.1062 34.1688 70.1062 32.5063 69.9212C32.2602 69.8816 32.0706 69.6777 32.0396 69.4229L31.4289 65.5744C31.3505 65.0798 30.9878 64.6872 30.5156 64.5872C27.8159 64.0078 25.2456 62.9055 22.9432 61.3332C22.5404 61.0595 22.0172 61.0709 21.6234 61.3615L18.5518 63.6397C18.3659 63.7945 18.1052 63.8077 17.9029 63.6775C17.1755 63.0433 16.5813 62.4846 16.0362 61.9183C15.451 61.3162 14.8932 60.6839 14.3682 60.0233C14.2169 59.81 14.2188 59.5175 14.3755 59.308L16.5703 56.1295C16.851 55.7237 16.862 55.1801 16.5958 54.763C15.0792 52.3791 14.0128 49.7178 13.4549 46.9224C13.3565 46.4336 12.9773 46.0561 12.5016 45.9749L8.78281 45.3426C8.54401 45.303 8.35443 45.1161 8.30339 44.8708C8.12474 43.1494 8.12474 41.4129 8.30339 39.6934C8.34167 39.4405 8.53854 39.2423 8.78464 39.2103L12.5016 38.578C12.9792 38.4968 13.3583 38.1212 13.4568 37.6304C14.0164 34.8351 15.0828 32.1738 16.5995 29.7899C16.8638 29.3728 16.8529 28.8292 16.5721 28.4234L14.3737 25.2411C14.2242 25.0411 14.2133 24.7655 14.3482 24.5541C14.875 23.8803 15.4383 23.2404 16.0362 22.6327C16.6177 22.0249 17.2302 21.4492 17.8682 20.9056C18.0742 20.7471 18.3568 20.749 18.5591 20.9132L21.6289 23.1857C22.0208 23.4763 22.5458 23.4877 22.9487 23.214C25.251 21.6436 27.8214 20.5395 30.5211 19.9619C30.9932 19.86 31.3578 19.4674 31.4344 18.9729L32.0451 15.1224C32.0706 14.8733 32.2547 14.6732 32.4935 14.6279ZM12.5271 23.0403C12.5016 23.0705 12.4852 23.1083 12.4633 23.1404C10.0826 20.6546 9.74531 16.7683 11.6576 13.8824C13.5698 10.9964 17.1938 9.92624 20.2909 11.3324C23.3862 12.7386 25.0797 16.2247 24.3232 19.6372C23.6505 19.9789 22.987 20.3432 22.3398 20.7509L19.9135 18.9521C18.8654 18.1575 17.4344 18.1839 16.4135 19.0144C15.7099 19.6108 15.0372 20.2469 14.3956 20.9151C13.7339 21.5851 13.1086 22.2948 12.5271 23.0403ZM2.39531 16.7985L4.71406 16.4059C5.18438 16.3266 5.56172 15.9567 5.66563 15.4754C5.97917 14.0013 6.54427 12.597 7.33724 11.3286C7.59974 10.9096 7.58698 10.3679 7.30443 9.96399L5.91901 7.97272C6.18516 7.6443 6.475 7.31777 6.76302 7.01955C7.08203 6.69868 7.40104 6.38725 7.70912 6.11923L9.63594 7.54426C10.0242 7.83116 10.5419 7.84626 10.9448 7.57824C12.1734 6.76474 13.5315 6.18151 14.9552 5.85498C15.4219 5.7474 15.7755 5.35858 15.8539 4.87161L16.2331 2.47076C17.0771 2.39526 17.9266 2.39526 18.7724 2.47076L19.1516 4.87161C19.2281 5.35858 19.5836 5.74928 20.0503 5.85498C21.474 6.18151 22.832 6.76474 24.0607 7.57824C24.4617 7.84437 24.9813 7.83116 25.3677 7.54426L27.2927 6.11923C27.6135 6.40046 27.9253 6.70434 28.226 7.00633C28.5268 7.30833 28.8203 7.64996 29.0828 7.97272L27.6974 9.96399C27.4148 10.3679 27.4021 10.9096 27.6646 11.3286C28.4576 12.5951 29.0227 14.0013 29.3362 15.4754C29.3763 15.6396 29.4474 15.7944 29.5477 15.9265L29.2542 17.7781C28.4247 17.9914 27.6063 18.2518 26.8042 18.5557C26.8042 18.4066 26.8352 18.2594 26.8352 18.1103C26.8352 12.7725 22.6552 8.44647 17.5 8.44647C12.3448 8.44647 8.16667 12.7744 8.16667 18.1103C8.15938 21.251 9.64141 24.1974 12.1333 25.9905C12.219 26.2226 12.332 26.4434 12.4724 26.6473L14.2115 29.1633C14.0474 29.4407 13.9052 29.7295 13.7521 30.0089C12.7641 29.6767 11.8198 29.2142 10.9466 28.631C10.5438 28.3611 10.0206 28.3743 9.63047 28.665L7.71094 30.0976C7.3901 29.8107 7.07839 29.5181 6.78854 29.2256C6.47865 28.8953 6.17787 28.565 5.91901 28.246L7.30443 26.2547C7.58516 25.8489 7.59792 25.3091 7.33724 24.8901C6.54427 23.6236 5.97917 22.2174 5.66563 20.7433C5.56172 20.262 5.18438 19.8921 4.71406 19.8128L2.39714 19.4202C2.35885 18.988 2.33333 18.5576 2.33333 18.1065C2.33333 17.6611 2.36068 17.2251 2.39531 16.7985Z" fill="#0E2A4E"/>
</g>
<defs>
<clipPath id="clip0">
<rect width="70" height="72.4786" fill="white"/>
</clipPath>
</defs>
</svg>
