<svg width="108" height="118" viewBox="0 0 108 118" fill="none" xmlns="http://www.w3.org/2000/svg">
<g clip-path="url(#clip0)">
<path d="M102.071 62.3511C101.098 37.2898 80.9649 17.0808 55.9906 16.0893V11.8607C58.2266 11.0656 59.8342 8.92046 59.8342 6.40748C59.8319 3.21827 57.2475 0.623047 54.0665 0.623047C50.8878 0.623047 48.3011 3.21827 48.3011 6.40748C48.3011 8.92046 49.9087 11.0634 52.1447 11.8607V16.0893C41.8526 16.5074 31.877 20.2586 23.8664 26.7604C23.0421 27.4297 22.9146 28.6451 23.5818 29.4721C24.2489 30.2991 25.4603 30.427 26.2846 29.7577C34.1107 23.4044 43.977 19.9045 54.0665 19.9045C77.7931 19.9045 97.2138 38.761 98.2248 62.3214H9.91056C10.3227 52.8771 13.7587 43.7276 19.6904 36.376C20.3575 35.549 20.23 34.3336 19.4057 33.6642C18.5814 32.9948 17.3701 33.1228 16.7029 33.9498C10.2134 41.9959 6.47453 52.0158 6.06467 62.3533C3.16602 62.6549 0.900391 65.1199 0.900391 68.1035C0.900391 71.2927 3.48708 73.8879 6.6658 73.8879H29.8595C29.3654 74.852 29.0853 75.944 29.0853 77.1023V100.238V115.663C29.0853 116.727 29.946 117.591 31.0071 117.591H66.8793C67.9404 117.591 68.8011 116.727 68.8011 115.663V110.52C68.8011 109.456 67.9404 108.592 66.8793 108.592C65.8182 108.592 64.9575 109.456 64.9575 110.52V113.735H32.9289V102.166H66.8793C66.9522 102.166 67.0136 102.161 67.0683 102.152C67.6876 102.09 68.2455 101.732 68.5529 101.181L82.0147 77.1228C82.042 77.0749 82.067 77.0269 82.0875 76.9766C82.5338 75.9897 82.6386 74.9091 82.4131 73.8857H101.467C104.646 73.8857 107.233 71.2904 107.233 68.1012C107.235 65.1176 104.967 62.6549 102.071 62.3511ZM54.0665 4.47933C55.1253 4.47933 55.9883 5.34517 55.9883 6.40748C55.9883 7.46979 55.1253 8.33562 54.0665 8.33562C53.0077 8.33562 52.1447 7.46979 52.1447 6.40748C52.1447 5.34517 53.0077 4.47933 54.0665 4.47933ZM78.5172 74.3745C78.6059 74.5139 78.7904 74.8794 78.6151 75.3272L65.7545 98.3096H32.9289V77.1C32.9289 75.3272 34.3657 73.8857 36.1327 73.8857C37.8997 73.8857 39.3365 75.3272 39.3365 77.1V87.3827C39.3365 88.1617 39.8055 88.8653 40.5228 89.1646C41.2423 89.4639 42.0666 89.2994 42.6177 88.7465L54.9454 76.3781C56.5462 74.7721 58.6752 73.8879 60.9386 73.8879H77.6337C78.1505 73.8879 78.4238 74.2283 78.5172 74.3745ZM42.4036 73.8879H51.9899L43.1778 82.7291V77.1C43.1778 75.9463 42.8977 74.8543 42.4036 73.8879ZM101.47 70.0317H6.6658C5.60699 70.0317 4.744 69.1658 4.744 68.1035C4.744 67.0412 5.60699 66.1754 6.6658 66.1754H101.47C102.528 66.1754 103.391 67.0412 103.391 68.1035C103.391 69.1681 102.528 70.0317 101.47 70.0317Z" fill="#0E2A4E"/>
<path d="M41.896 109.237C42.9574 109.237 43.8178 108.374 43.8178 107.309C43.8178 106.244 42.9574 105.381 41.896 105.381C40.8347 105.381 39.9742 106.244 39.9742 107.309C39.9742 108.374 40.8347 109.237 41.896 109.237Z" fill="#0E2A4E"/>
</g>
<defs>
<clipPath id="clip0">
<rect width="106.335" height="116.968" fill="white" transform="translate(0.900391 0.623047)"/>
</clipPath>
</defs>
</svg>
