<svg width="61" height="74" viewBox="0 0 61 74" fill="none" xmlns="http://www.w3.org/2000/svg">
<path d="M56.066 8.25852C56.0063 8.06253 55.899 7.88471 55.7539 7.74118C55.6088 7.59765 55.4305 7.49297 55.2352 7.43662L41.5175 3.47909L40.1311 0.680269C40.0296 0.476175 39.8737 0.304686 39.6809 0.185043C39.4882 0.0653993 39.2663 0.0023349 39.04 0.00292476V0H21.96V0.00323277C21.7337 0.00221633 21.5115 0.0651044 21.3187 0.184795C21.1259 0.304486 20.9701 0.47621 20.8689 0.680577L19.4825 3.47909L5.7645 7.43662C5.56918 7.49297 5.39089 7.59765 5.2458 7.74118C5.10072 7.88471 4.99343 8.06253 4.93368 8.25852C4.88274 8.42586 3.67006 12.4621 2.45068 21.5403C0.42517 36.6228 0 53.6458 0 65.2714C0 65.598 0.128536 65.9112 0.35733 66.1422C0.586124 66.3731 0.896436 66.5029 1.22 66.5029H8.67725L8.54839 67.5877C8.52413 67.7917 8.55079 67.9985 8.62596 68.1894C8.70112 68.3803 8.8224 68.5492 8.97874 68.6807C16.6101 75.1001 27.7254 73.9377 28.1937 73.8847C28.4254 73.8587 28.6448 73.7663 28.826 73.6184C29.0072 73.4706 29.1427 73.2734 29.2164 73.0502L30.5 69.1661L31.7825 73.0504C31.8562 73.2735 31.9917 73.4707 32.1729 73.6186C32.3542 73.7665 32.5736 73.8589 32.8052 73.8849C33.651 73.9671 34.5005 74.0054 35.3503 73.9994C39.1713 73.9994 46.5061 73.3201 52.021 68.6809C52.1773 68.5494 52.2986 68.3805 52.3737 68.1896C52.4489 67.9987 52.4756 67.7918 52.4513 67.5879L52.3228 66.5029H59.78C60.1036 66.5029 60.4139 66.3731 60.6427 66.1422C60.8715 65.9112 61 65.598 61 65.2714C61 53.6458 60.5748 36.6228 58.549 21.5403C57.3296 12.4621 56.117 8.42586 56.066 8.25852ZM39.3603 4.6315L43.3689 12.7244L39.9643 13.5837C39.7746 13.6315 39.5991 13.7247 39.4525 13.8554C39.306 13.986 39.1927 14.1503 39.1222 14.3344C39.0517 14.5185 39.026 14.717 39.0474 14.9132C39.0688 15.1094 39.1366 15.2976 39.2451 15.4618L41.2337 18.473L31.3221 33.481L39.3603 4.6315ZM36.7434 4.92614H24.2567L23.5704 2.46307H37.4296L36.7434 4.92614ZM36.0571 7.38921L30.5 27.3342L24.9431 7.38921H36.0571ZM21.6397 4.6315L29.2327 31.8829L29.0516 32.5333L19.7663 18.473L21.755 15.4616C21.8635 15.2974 21.9313 15.1093 21.9527 14.9131C21.9741 14.7169 21.9485 14.5184 21.878 14.3343C21.8075 14.1502 21.6942 13.9859 21.5476 13.8552C21.4011 13.7246 21.2255 13.6314 21.0359 13.5835L17.6313 12.7242L21.6397 4.6315ZM2.44153 64.0398C2.50878 37.0181 4.77478 21.09 6.17778 13.7995L12.1814 37.0312L8.97036 64.0398H2.44153ZM12.5992 54.1875H19.52V56.6506H12.3068L12.5992 54.1875ZM27.1603 71.4906C24.6898 71.6153 16.7703 71.6225 11.0521 67.2007L11.264 65.4182L12.0136 59.1137H20.74C21.0636 59.1137 21.3739 58.9839 21.6027 58.753C21.8315 58.522 21.96 58.2088 21.96 57.8821V52.956C21.96 52.6294 21.8315 52.3161 21.6027 52.0852C21.3739 51.8542 21.0636 51.7245 20.74 51.7245H12.892L14.6313 37.0928C14.6496 36.9396 14.6392 36.7844 14.6008 36.6351L7.58138 9.4742L18.0022 6.46833L14.7692 12.9955C14.6875 13.1604 14.6435 13.3418 14.6405 13.5262C14.6375 13.7106 14.6756 13.8933 14.752 14.0608C14.8283 14.2284 14.9409 14.3765 15.0816 14.4942C15.2222 14.6119 15.3872 14.6963 15.5645 14.741L18.765 15.5487L17.2857 17.7892C17.1521 17.9915 17.0808 18.2292 17.0808 18.4724C17.0808 18.7156 17.1521 18.9533 17.2857 19.1556L28.182 35.6562L26.8858 40.3072C26.8554 40.4157 26.84 40.5279 26.84 40.6407V59.1137C26.84 59.2704 26.8696 59.4256 26.9272 59.571L29.2013 65.3097L27.1603 71.4906ZM33.8397 71.4906L31.6575 64.8819C31.6499 64.8586 31.6384 64.8379 31.6296 64.8154L31.6328 64.814L29.28 58.8765V41.0135L36.8463 29.5568H45.14C45.4636 29.5568 45.7739 29.4271 46.0027 29.1961C46.2315 28.9652 46.36 28.6519 46.36 28.3253C46.36 27.9987 46.2315 27.6854 46.0027 27.4545C45.7739 27.2235 45.4636 27.0938 45.14 27.0938H38.4729L43.715 19.1562C43.8487 18.9539 43.92 18.7162 43.92 18.473C43.92 18.2299 43.8487 17.9921 43.715 17.7898L42.2358 15.5494L45.4363 14.7416C45.6135 14.6969 45.7786 14.6126 45.9192 14.4948C46.0598 14.3771 46.1725 14.229 46.2488 14.0615C46.3251 13.8939 46.3632 13.7112 46.3602 13.5268C46.3573 13.3424 46.3133 13.161 46.2316 12.9961L42.9986 6.46895L53.4194 9.47481L46.3995 36.6351C46.3611 36.7844 46.3507 36.9396 46.369 37.0928L48.108 51.7245H40.26C39.9364 51.7245 39.6261 51.8542 39.3973 52.0852C39.1685 52.3161 39.04 52.6294 39.04 52.956V57.8821C39.04 58.2088 39.1685 58.522 39.3973 58.753C39.6261 58.9839 39.9364 59.1137 40.26 59.1137H48.9864L49.7359 65.4181L49.9477 67.2006C44.2288 71.6227 36.3077 71.615 33.8397 71.4906ZM48.6932 56.6506H41.48V54.1875H48.4008L48.6932 56.6506ZM52.0293 64.0398L48.8189 37.0312L54.8245 13.792C56.2268 21.0665 58.4917 36.9693 58.5585 64.0398H52.0293Z" fill="#0E2A4E"/>
</svg>
