<svg width="107" height="122" viewBox="0 0 107 122" fill="none" xmlns="http://www.w3.org/2000/svg">
<g clip-path="url(#clip0)">
<path d="M44.5556 107.286C44.5556 108.583 43.5 109.636 42.1992 109.636C40.8985 109.636 39.8428 108.583 39.8428 107.286C39.8428 105.988 40.8985 104.936 42.1992 104.936C43.5 104.936 44.5556 105.988 44.5556 107.286Z" fill="#0E2A4E"/>
<path d="M36.4237 36.1482C36.4237 37.4486 35.368 38.5046 34.0641 38.5046C32.7602 38.5046 31.7014 37.4518 31.7014 36.1482C31.7014 34.8478 32.7571 33.7949 34.0641 33.7949C35.368 33.7949 36.4237 34.8478 36.4237 36.1482Z" fill="#0E2A4E"/>
<path d="M52.5199 36.1482C52.5199 37.4486 51.4642 38.5046 50.1572 38.5046C48.8533 38.5046 47.7976 37.4518 47.7976 36.1482C47.7976 34.8478 48.8533 33.7949 50.1572 33.7949C51.4611 33.7949 52.5199 34.8478 52.5199 36.1482Z" fill="#0E2A4E"/>
<path d="M51.1973 46.0991C50.2736 45.1779 48.7812 45.1779 47.8575 46.0991C44.6904 49.2578 39.5346 49.2609 36.3644 46.0991C35.4407 45.1779 33.9483 45.1779 33.0245 46.0991C32.104 47.0173 32.104 48.5088 33.0245 49.4301C35.4501 51.8523 38.68 53.1841 42.1109 53.1841C45.5451 53.1841 48.7686 51.8523 51.1973 49.4301C52.1179 48.5088 52.1179 47.0173 51.1973 46.0991Z" fill="#0E2A4E"/>
<path d="M102.172 80.0394L101.788 79.6571C98.8821 76.7585 95.0207 75.1636 90.9143 75.1636C88.1871 75.1636 85.5667 75.8686 83.2637 77.191C82.1735 72.9638 79.8862 69.1158 76.6154 66.0982C72.355 62.1656 66.8095 60.0004 61.0033 60.0004H56.6297C57.742 59.3078 58.8102 58.5339 59.8156 57.6784C64.1012 54.0341 67.1237 49.1395 68.4685 43.7404H68.9555C73.153 43.7404 76.5683 40.3342 76.5683 36.1478C76.5683 32.0617 73.3164 28.7213 69.2571 28.5615V27.634C69.2571 12.8562 57.2016 0.835938 42.3875 0.835938C27.5702 0.835938 15.5147 12.8562 15.5147 27.634V28.5584C11.4114 28.6649 8.10921 32.0304 8.10921 36.1478C8.10921 40.3342 11.5245 43.7404 15.7221 43.7404H16.3065C17.648 49.1395 20.6737 54.031 24.9561 57.6784C25.9647 58.537 27.0329 59.3078 28.142 60.0004H23.3946C10.7139 60.0004 0.4021 70.2878 0.4021 82.9316V107.364C0.4021 108.664 1.45778 109.72 2.76167 109.72H31.5322C32.836 109.72 33.8949 108.664 33.8949 107.364C33.8949 106.063 32.8392 105.007 31.5322 105.007H24.111V96.0236C24.111 94.7231 23.0553 93.6671 21.7482 93.6671C20.4443 93.6671 19.3887 94.72 19.3887 96.0236V105.007H5.12439V82.9285C5.12439 72.8824 13.3216 64.7069 23.3946 64.7069H29.2197C30.5927 70.8581 36.1036 75.4738 42.6765 75.4738C49.2494 75.4738 54.7634 70.8581 56.1333 64.7069H61.0033C65.6187 64.7069 70.0237 66.4273 73.4107 69.5514C75.4843 71.466 77.0584 73.7973 78.0513 76.3669C76.2667 75.6618 74.3501 75.2889 72.3738 75.2889C68.2674 75.2889 64.4028 76.8839 61.4997 79.7824L61.2452 80.0362C58.3389 82.9348 56.7397 86.7859 56.7397 90.8814C56.7397 94.977 58.3389 98.8312 61.2452 101.727L64.5348 105.004H52.8657C51.5618 105.004 50.503 106.06 50.503 107.361C50.503 108.661 51.5587 109.717 52.8657 109.717H69.2571L80.0401 120.471C80.4831 120.913 81.0832 121.161 81.7085 121.161C82.3337 121.161 82.937 120.913 83.38 120.471L102.175 101.73C105.078 98.8312 106.68 94.9801 106.68 90.8846C106.68 86.789 105.078 82.9348 102.172 80.0394ZM42.3875 5.54565C53.2333 5.54565 62.2852 13.3638 64.1735 23.6481C56.4035 26.2208 50.3271 19.7782 50.0631 19.4931C49.262 18.6157 47.9329 18.4684 46.9589 19.1515C44.8727 20.6117 40.983 23.3316 36.179 24.5976C31.1394 25.9262 26.0558 25.4969 20.6737 23.2909C22.7002 13.1821 31.6641 5.54565 42.3875 5.54565ZM20.5512 40.9954C20.3595 39.8611 19.3761 39.0338 18.223 39.0338H15.7221C14.1291 39.0338 12.8315 37.7397 12.8315 36.151C12.8315 34.5623 14.1291 33.2681 15.7221 33.2681H17.8774C19.1813 33.2681 20.2401 32.2121 20.2401 30.9117V28.173C23.6868 29.4201 27.1083 30.0468 30.4765 30.0468C32.8046 30.0468 35.1108 29.7491 37.3824 29.1506C41.5863 28.0445 45.0235 26.1268 48.09 24.0868C49.1237 24.9548 50.6475 26.0766 52.5453 27.0198C56.5009 28.9846 60.5948 29.464 64.5348 28.4518V30.9148C64.5348 32.2152 65.5905 33.2712 66.8975 33.2712H68.9555C70.5515 33.2712 71.846 34.5654 71.846 36.1541C71.846 37.7428 70.5484 39.037 68.9555 39.037H66.5519C65.4019 39.037 64.4154 39.8673 64.2237 40.9986C63.3629 46.0812 60.7111 50.7345 56.7554 54.0999C52.7558 57.5029 47.6533 59.3768 42.3906 59.3768C37.1279 59.3768 32.0223 57.5029 28.0258 54.0999C24.067 50.7282 21.4121 46.078 20.5512 40.9954ZM42.6765 70.7672C37.9794 70.7672 34.1085 67.1856 33.6561 62.62C36.4461 63.5757 39.3932 64.0802 42.3875 64.0802C45.5953 64.0802 48.7498 63.5068 51.7126 62.4132C51.3576 67.079 47.4428 70.7672 42.6765 70.7672ZM98.835 98.4019L81.7116 115.48L64.5882 98.4019C62.5742 96.3933 61.4683 93.7235 61.4683 90.8877C61.4683 88.0487 62.5774 85.3789 64.5882 83.3735L64.8427 83.1165C66.8567 81.1079 69.5336 80.0049 72.377 80.0049C75.2236 80.0049 77.9005 81.111 79.9113 83.1196C80.9198 84.1255 82.4248 83.9438 83.3768 82.9912C85.3908 80.9826 88.0677 79.8796 90.9111 79.8796C93.7546 79.8796 96.4346 80.9857 98.4454 82.9943L98.8287 83.3766C100.843 85.3852 101.952 88.0518 101.952 90.8908C101.955 93.7235 100.849 96.3933 98.835 98.4019Z" fill="#0E2A4E"/>
</g>
<defs>
<clipPath id="clip0">
<rect width="106.275" height="120.328" fill="white" transform="translate(0.4021 0.835938)"/>
</clipPath>
</defs>
</svg>
