<svg width="114" height="65" viewBox="0 0 114 65" fill="none" xmlns="http://www.w3.org/2000/svg">
<path d="M111.594 19.8961H69.5176V16.5801H111.594C112.603 16.5801 113.423 15.8368 113.423 14.9221C113.423 14.0074 112.603 13.2641 111.594 13.2641H69.5176V9.94805H93.2999C94.3092 9.94805 95.1294 9.20471 95.1294 8.29005C95.1294 7.37538 94.3092 6.63204 93.2999 6.63204H69.5176V1.65801C69.5176 0.743341 68.6974 0 67.6882 0H1.82941C0.820186 0 0 0.743341 0 1.65801V43.1082C0 44.0229 0.820186 44.7662 1.82941 44.7662H43.9059V58.0303H21.9529C20.9437 58.0303 20.1235 58.7737 20.1235 59.6883C20.1235 60.603 20.9437 61.3463 21.9529 61.3463H43.9059V63.0043C43.9059 63.919 44.726 64.6624 45.7353 64.6624H111.594C112.603 64.6624 113.423 63.919 113.423 63.0043V21.5541C113.423 20.6395 112.603 19.8961 111.594 19.8961ZM3.65882 3.31602H65.8588V7.3588L34.7588 24.5827L3.65882 7.3588V3.31602ZM65.8588 11.2468V41.4502H61.4987L49.7569 20.1642L65.8588 11.2468ZM8.01892 41.4502H3.65882V11.2468L19.7607 20.1642L8.01892 41.4502ZM12.1046 41.4502L22.892 21.8995L33.8045 27.943C34.3899 28.2663 35.1277 28.2663 35.7131 27.943L46.6256 21.8995L57.413 41.4502H12.1046ZM109.765 61.3463H47.5647V44.7662H67.6882C68.6974 44.7662 69.5176 44.0229 69.5176 43.1082V23.2121H109.765V61.3463Z" fill="#0E2A4E"/>
<path d="M73.1763 3.31616H98.7881C99.7973 3.31616 100.617 2.57279 100.617 1.65808C100.617 0.743373 99.7973 0 98.7881 0H73.1763C72.1671 0 71.3469 0.743373 71.3469 1.65808C71.3469 2.57279 72.1671 3.31616 73.1763 3.31616Z" fill="#0E2A4E"/>
<path d="M104.276 3.31616H106.106C107.115 3.31616 107.935 2.57279 107.935 1.65808C107.935 0.743373 107.115 0 106.106 0H104.276C103.267 0 102.447 0.743373 102.447 1.65808C102.447 2.57279 103.267 3.31616 104.276 3.31616Z" fill="#0E2A4E"/>
<path d="M16.4647 58.0312H14.6353C13.6261 58.0312 12.8059 58.7746 12.8059 59.6892C12.8059 60.6038 13.6261 61.3472 14.6353 61.3472H16.4647C17.4739 61.3472 18.2941 60.6038 18.2941 59.6892C18.2941 58.7746 17.4739 58.0312 16.4647 58.0312Z" fill="#0E2A4E"/>
<path d="M42.0767 53.0565C42.0767 52.1418 41.2565 51.3984 40.2472 51.3984H5.48847C4.47924 51.3984 3.65906 52.1418 3.65906 53.0565C3.65906 53.9711 4.47924 54.7145 5.48847 54.7145H40.2472C41.2565 54.7145 42.0767 53.9711 42.0767 53.0565Z" fill="#0E2A4E"/>
</svg>
