<svg width="55" height="69" viewBox="0 0 55 69" fill="none" xmlns="http://www.w3.org/2000/svg">
<g clip-path="url(#clip0)">
<path d="M31.5563 0.00364103H22.9167C15.4057 -0.0796906 9.24974 5.96185 9.16667 13.4962C9.16523 13.5967 9.16523 13.6959 9.16667 13.7965V23.1986C8.79857 23.0649 8.41185 22.9945 8.02083 22.9917H3.4375C1.53971 22.9917 0 24.5362 0 26.4399C0 28.3436 1.53971 29.8881 3.4375 29.8881H4.58333V36.9569C4.58906 38.7629 6.04857 40.2269 7.84896 40.2327H9.32708C9.84844 42.2571 11.666 43.6737 13.75 43.6809H21.7708V47.1291C21.7708 47.7641 22.2836 48.2785 22.9167 48.2785H24.0625V51.7267C24.0639 51.8344 23.9852 51.9278 23.8792 51.9451L14.3917 53.5313C12.0441 53.9235 10.1836 55.7309 9.71667 58.0714L9.25833 60.3702C7.03828 61.5886 6.22331 64.383 7.43789 66.61C8.65247 68.837 11.4383 69.6545 13.6583 68.4361C15.1379 67.6244 16.0531 66.0612 16.0417 64.3701C16.0402 64.0727 16.0102 63.7767 15.95 63.4851L16.901 59.6576L24.0052 58.761V61.3472C22.3309 63.2509 22.5128 66.1574 24.4105 67.837C26.3083 69.5165 29.2059 69.3341 30.8802 67.4304C32.4085 65.6934 32.4085 63.0857 30.8802 61.3486V58.774L37.9844 59.6705L38.9583 63.498C38.9297 63.7882 38.9297 64.0813 38.9583 64.3715C38.9469 66.9103 40.9879 68.9792 43.5202 68.9907C46.051 69.0022 48.1135 66.9548 48.125 64.4146C48.1336 62.7265 47.2184 61.1705 45.7417 60.3601L45.2833 58.0613C44.8164 55.7209 42.9559 53.9134 40.6083 53.5212L31.1208 51.935C31.0177 51.9192 30.9418 51.8316 30.9375 51.7281V48.2799H32.0833C32.7164 48.2799 33.2292 47.7656 33.2292 47.1305V43.6823H41.25C43.334 43.6751 45.1516 42.2585 45.6729 40.2341H47.151C48.9514 40.2284 50.4109 38.7643 50.4167 36.9583V29.8895H51.5625C53.4603 29.8895 55 28.345 55 26.4413C55 24.5376 53.4603 22.9931 51.5625 22.9931H46.9792C46.5882 22.996 46.2014 23.0664 45.8333 23.2V13.7965C45.6772 6.03656 39.2906 -0.131414 31.5563 0.00364103ZM11.4583 13.7965C11.3882 7.51929 16.4055 2.37284 22.6632 2.30244C22.7477 2.30101 22.8322 2.30101 22.9167 2.30244H31.5563C38.0259 2.16739 43.3855 7.30665 43.5417 13.7965V35.1293C42.8499 34.7112 42.0578 34.4886 41.25 34.4857H13.75C12.9422 34.4886 12.1501 34.7112 11.4583 35.1293V13.7965ZM2.29167 26.4399C2.29167 25.8048 2.80443 25.2905 3.4375 25.2905H8.02083C8.65391 25.2905 9.16667 25.8048 9.16667 26.4399C9.16667 27.0749 8.65391 27.5893 8.02083 27.5893H3.4375C2.80443 27.5893 2.29167 27.0735 2.29167 26.4399ZM6.875 36.9569V29.8881H8.02083C8.41185 29.8852 8.79857 29.8148 9.16667 29.6812V37.9339H7.84896C7.31042 37.9339 6.875 37.4957 6.875 36.9569ZM11.4583 66.6689C10.1922 66.6689 9.16667 65.6402 9.16667 64.3701C9.16667 63.1 10.1922 62.0713 11.4583 62.0713C12.7245 62.0713 13.75 63.1 13.75 64.3701C13.75 65.6402 12.7245 66.6689 11.4583 66.6689ZM27.5 66.6689C26.2339 66.6689 25.2083 65.6402 25.2083 64.3701C25.2083 63.1 26.2339 62.0713 27.5 62.0713C28.7661 62.0713 29.7917 63.1 29.7917 64.3701C29.7917 65.6402 28.7661 66.6689 27.5 66.6689ZM43.5417 66.6689C42.2755 66.6689 41.25 65.6402 41.25 64.3701C41.25 63.1 42.2755 62.0713 43.5417 62.0713C44.8078 62.0713 45.8333 63.1 45.8333 64.3701C45.8333 65.6402 44.8078 66.6689 43.5417 66.6689ZM30.7427 54.1979L40.2302 55.7841C41.6396 56.0183 42.7568 57.103 43.0375 58.5082L43.2896 59.7725C42.3385 59.83 41.429 60.1834 40.6885 60.784L40.1042 58.3472C39.9896 57.8846 39.6014 57.5427 39.1302 57.4852L29.9635 56.3358C29.6398 56.2956 29.3147 56.3961 29.0698 56.6116C28.8091 56.8228 28.6544 57.1375 28.6458 57.4737V59.9334C27.8967 59.7193 27.1033 59.7193 26.3542 59.9334V57.4737C26.3542 57.1432 26.2124 56.83 25.9646 56.6116C25.7197 56.3961 25.3945 56.2956 25.0708 56.3358L15.9042 57.4852C15.4329 57.5427 15.0448 57.8846 14.9302 58.3472L14.3115 60.807C13.5738 60.1992 12.6643 59.8372 11.7104 59.7725L11.9625 58.4852C12.2432 57.08 13.3604 55.9953 14.7698 55.7611L24.2573 54.1749C25.4576 53.9795 26.3427 52.9465 26.3542 51.7267V48.2785H28.6458V51.7267C28.6473 52.9537 29.5339 53.9996 30.7427 54.1979ZM30.9375 45.9797H24.0625V43.6809H30.9375V45.9797ZM32.0833 41.3821H14.575C12.9995 41.4065 11.656 40.2384 11.4583 38.6695C11.6603 37.5632 12.6299 36.7658 13.75 36.7845H41.25C42.3701 36.7658 43.3397 37.5632 43.5417 38.6695C43.344 40.2384 42.0005 41.4065 40.425 41.3821H32.0833ZM48.125 36.9569C48.125 37.4971 47.6896 37.9339 47.151 37.9339H45.8333V29.6812C46.2014 29.8148 46.5882 29.8852 46.9792 29.8881H48.125V36.9569ZM46.9792 25.2905H51.5625C52.1956 25.2905 52.7083 25.8048 52.7083 26.4399C52.7083 27.0749 52.1956 27.5893 51.5625 27.5893H46.9792C46.3461 27.5893 45.8333 27.0749 45.8333 26.4399C45.8333 25.8048 46.3461 25.2905 46.9792 25.2905Z" fill="#0E2A4E"/>
</g>
<defs>
<clipPath id="clip0">
<rect width="55" height="69" fill="white"/>
</clipPath>
</defs>
</svg>
