<svg width="115" height="113" viewBox="0 0 115 113" fill="none" xmlns="http://www.w3.org/2000/svg">
<g clip-path="url(#clip0)">
<path d="M107.279 10.9966L100.459 10.0047L97.4084 3.80773C96.3812 1.72034 93.4118 1.72034 92.3846 3.80773L89.3344 10.0047L82.5142 10.9966C80.2176 11.3318 79.3003 14.1637 80.9622 15.7877L85.8963 20.6125L84.7301 27.4258C84.3376 29.7291 86.7508 31.4656 88.7962 30.3859L94.8965 27.1694L100.997 30.3859C103.049 31.4701 105.453 29.7201 105.061 27.4258L103.897 20.6125L108.831 15.7877C110.493 14.1637 109.575 11.3318 107.279 10.9966ZM101.342 18.4059C100.681 19.0515 100.38 19.9805 100.537 20.8915L101.56 26.8769L96.1995 24.0495C95.3832 23.6199 94.4098 23.6199 93.5912 24.0495L88.231 26.8769L89.2582 20.8915C89.4152 19.9805 89.1124 19.0515 88.453 18.4059L84.1155 14.1659L90.1082 13.2932C91.021 13.1605 91.8082 12.5869 92.2186 11.7569L94.8987 6.31124L97.5788 11.7569C97.987 12.5869 98.7742 13.1605 99.687 13.2932L105.68 14.1659L101.342 18.4059Z" fill="#0E2A4E"/>
<path d="M34.0822 15.7866C35.7441 14.1603 34.8268 11.3307 32.5302 10.9955L25.71 10.0035L22.6598 3.80662C21.6304 1.71698 18.6632 1.71923 17.6361 3.80662L14.5859 10.0035L7.76568 10.9955C5.4691 11.3307 4.55181 14.1626 6.21369 15.7866L11.1478 20.6114L9.98377 27.4247C9.59129 29.719 11.9933 31.469 14.0476 30.3848L20.148 27.1682L26.2483 30.3848C28.3004 31.469 30.7046 29.719 30.3121 27.4247L29.1459 20.6137L34.0822 15.7866ZM26.5936 18.4048C25.932 19.0504 25.6315 19.9794 25.7885 20.8903L26.8134 26.8758L21.4532 24.0484C20.6369 23.6188 19.6635 23.6188 18.8449 24.0484L13.4847 26.8758L14.5097 20.8903C14.6666 19.9794 14.3639 19.0481 13.7045 18.4048L9.36701 14.1648L15.3597 13.2921C16.2725 13.1594 17.0619 12.5858 17.4679 11.7558L20.148 6.31013L22.8303 11.7558C23.2385 12.5835 24.0257 13.1594 24.9385 13.2921L30.9289 14.1648L26.5936 18.4048Z" fill="#0E2A4E"/>
<path d="M75.8893 13.9065L65.2765 12.3612L60.5309 2.71606C59.3018 0.217043 55.7448 0.217043 54.5158 2.71606L49.7701 12.3612L39.1551 13.9088C36.4055 14.3091 35.3066 17.7011 37.2959 19.6468L44.9773 27.1529L43.1629 37.7562C42.6942 40.5027 45.5694 42.5991 48.0297 41.3035L54.3857 37.9519C55.2066 37.5201 55.5228 36.5011 55.0899 35.6779C54.6593 34.8546 53.6434 34.5397 52.8247 34.9716L46.4733 38.3276L48.2876 27.7242C48.4738 26.6333 48.1127 25.5198 47.3233 24.7461L39.6418 17.2423L50.2568 15.6947C51.3513 15.535 52.2932 14.8467 52.7821 13.8548L57.5233 4.20737L62.269 13.8548C62.7579 14.8467 63.7021 15.535 64.7966 15.6947L75.4093 17.2355L67.7279 24.7461C66.9362 25.5176 66.5773 26.6333 66.7635 27.7219L68.5824 38.3208L62.2264 34.9693C61.4033 34.5352 60.3896 34.8524 59.959 35.6756C59.5261 36.4989 59.8423 37.5178 60.6632 37.9497L67.0192 41.3012C69.484 42.5991 72.3547 40.4937 71.886 37.754L70.0716 27.1529L77.753 19.6446C79.7379 17.6989 78.6389 14.3069 75.8893 13.9065Z" fill="#0E2A4E"/>
<path d="M105.249 48.5052C104.594 47.8484 103.531 47.8484 102.876 48.5052C102.219 49.1642 102.219 50.2282 102.876 50.8872L111.349 59.3875L99.3505 71.4214C98.5813 70.6521 77.5262 49.5331 77.1764 49.1822L89.1751 37.1483L97.3343 45.3313C97.9914 45.9882 99.0522 45.9882 99.7094 45.3313C100.364 44.6723 100.364 43.6084 99.7094 42.9493L91.3528 34.5705C90.153 33.3671 88.1995 33.3671 86.9996 34.5705L74.6062 47.0004C73.4063 48.206 73.4063 50.1629 74.6062 51.3663L76.055 52.8194C75.0682 53.8294 72.7649 56.4228 71.085 56.4228C71.0806 56.4228 71.0783 56.4228 71.0761 56.4228C64.7918 56.3936 65.5858 56.1102 57.5545 59.266L52.7101 57.3631C52.6989 57.3586 52.6877 57.3541 52.6742 57.3496C52.6496 57.3406 50.0794 56.4071 47.4531 56.4071C47.4486 56.4071 47.4441 56.4071 47.4374 56.4071C47.4217 56.4071 47.4082 56.4071 47.3925 56.4071C47.2894 56.4093 44.0351 56.4228 44.0351 56.4228C44.0306 56.4228 44.0284 56.4228 44.0261 56.4228C42.3643 56.4228 40.1215 53.9081 39.0226 52.7857C40.4063 51.3978 41.3371 50.7455 41.3371 49.1845C41.3371 48.3612 41.0164 47.5852 40.4355 47.0004L28.042 34.5705C26.8421 33.3671 24.8887 33.3671 23.6888 34.5705L1.12217 57.2034C-0.0799487 58.4113 -0.0799487 60.3637 1.12217 61.5716L13.5157 74.0014C14.7178 75.2048 16.669 75.2048 17.8689 74.0014L19.1966 72.6698C22.5966 76.0776 22.9128 75.9673 22.9689 79.2896C23.0048 81.467 23.0519 84.1774 26.0594 87.1893C34.4989 95.64 41.207 102.381 49.8528 111.053C52.5733 113.779 57.2382 112.89 58.7274 109.282L60.0125 110.573C62.8676 113.435 67.7814 112.301 69.0396 108.401C71.029 109.262 73.4287 108.877 75.0502 107.251C76.7009 105.598 77.0463 103.184 76.2008 101.223C76.9925 100.966 77.7348 100.521 78.3628 99.8913C79.3518 98.8971 79.8699 97.6105 79.9327 96.3059C80.0336 96.2181 88.9508 87.2815 89.045 87.187C92.0526 84.1752 92.0997 81.4647 92.1356 79.2874C92.1939 75.8774 92.6088 75.9898 95.8742 72.7013C97.1414 73.9699 97.8008 74.9034 99.346 74.9034C100.169 74.9034 100.941 74.5817 101.524 73.9992L113.917 61.5693C115.122 60.3614 115.122 58.409 113.917 57.2011L105.249 48.5052ZM15.6934 71.4214L3.69461 59.3875L25.8688 37.1483L37.8675 49.1822C37.3158 49.7356 16.7475 70.3642 15.6934 71.4214ZM75.9922 97.5137C75.1983 98.31 73.9176 98.3258 73.1035 97.5655L56.2828 80.4638C55.6302 79.8002 54.5694 79.7935 53.9077 80.448C53.2484 81.1003 53.2416 82.1665 53.892 82.8278C57.1754 86.1681 69.3693 98.5912 72.6796 101.911C73.496 102.73 73.4938 104.055 72.6796 104.871C71.8678 105.688 70.5423 105.688 69.7304 104.871C66.2339 101.365 70.2036 105.393 50.6939 85.4933C50.0435 84.8297 48.9804 84.8207 48.321 85.473C47.6594 86.1253 47.6504 87.1915 48.3008 87.8528C48.3053 87.8573 65.3436 105.233 65.3436 105.233C66.1577 106.05 66.1577 107.377 65.3436 108.194C64.5294 109.008 63.2062 109.008 62.3921 108.194C59.4429 105.236 62.3271 108.194 45.4974 90.8175C44.8515 90.1517 43.7884 90.1337 43.1223 90.7837C42.4562 91.4315 42.4428 92.4977 43.0887 93.1635L54.908 105.368C55.139 105.769 55.7849 106.151 55.7827 107.197C55.7827 107.755 55.5651 108.279 55.1727 108.675C54.3608 109.491 53.0398 109.489 52.2279 108.675C31.294 87.6796 47.3051 103.711 28.4322 84.8095C26.3868 82.7603 26.3599 81.206 26.3263 79.2379C26.2456 74.4378 24.9806 73.7113 21.5694 70.2945L36.6475 55.1722C38.3228 56.8862 40.893 59.7968 44.0239 59.7968H44.0486C46.5919 59.7856 47.2176 59.7811 47.3768 59.7811H47.4531C49.3639 59.7811 51.342 60.4559 51.5057 60.5144L52.9501 61.0812L45.1879 64.1313C39.2289 66.3559 41.1711 75.8369 48.4354 74.647L55.1928 73.7315L75.9787 94.5784C76.7951 95.3814 76.7996 96.7017 75.9922 97.5137ZM91.16 72.6743C88.8567 74.9799 88.8163 77.3372 88.7849 79.2311C88.7513 81.1993 88.7243 82.7558 86.6767 84.8027L78.8293 92.6619C78.7553 92.5877 57.4446 71.2145 56.9826 70.7511C56.6327 70.4002 56.1079 70.2023 55.5696 70.272L47.9644 71.3045C47.9465 71.3067 47.9308 71.309 47.9128 71.3112C44.6698 71.8533 44.1405 68.1014 46.3698 67.2759C46.381 67.2714 46.39 67.2669 46.4012 67.2646C67.2051 59.0883 64.1571 59.7541 71.0604 59.7878H71.085C74.0365 59.7878 76.3936 57.2866 78.4278 55.1992L93.5059 70.3215C93.3803 70.452 91.2878 72.5461 91.16 72.6743Z" fill="#0E2A4E"/>
</g>
<defs>
<clipPath id="clip0">
<rect width="114.605" height="112.242" fill="white" transform="translate(0.220581 0.619141)"/>
</clipPath>
</defs>
</svg>
