<svg width="63" height="66" viewBox="0 0 63 66" fill="none" xmlns="http://www.w3.org/2000/svg">
<path d="M62.4387 21.5655C62.1156 21.2424 61.6391 21.1293 61.2061 21.277L45.8754 26.4786L19.0282 17.5801V5.30779C19.0236 3.62317 18.2012 2.04933 16.8289 1.09164C15.4544 0.131635 13.7019 -0.0899034 12.1372 0.49625C10.1189 1.27625 8.8016 3.2424 8.83138 5.41856V17.2986C3.50273 19.2878 0.00679979 24.4524 0.112182 30.1755C0.217563 35.8986 3.90364 40.9293 9.30331 42.7178L37.5113 52.0639L46.7895 65.4255C47.014 65.7486 47.3828 65.9424 47.7745 65.9424C47.8318 65.9424 47.8914 65.9378 47.9509 65.9309C48.4023 65.8639 48.7757 65.5455 48.9177 65.1116L62.7319 22.8116C62.8762 22.3709 62.7617 21.8886 62.4387 21.5655ZM11.2368 5.41856C11.2048 4.2624 11.8897 3.20779 12.955 2.77394C13.2712 2.65856 13.6056 2.59625 13.9424 2.59625C14.6526 2.59625 15.333 2.8824 15.8324 3.3924C16.341 3.89779 16.6273 4.58779 16.6273 5.30779V26.1601C16.6251 26.9424 16.2883 27.6878 15.6995 28.2001C15.1153 28.7193 14.3319 28.9547 13.5621 28.8439C12.1944 28.6086 11.2071 27.3993 11.2391 26.0009L11.2368 5.41856ZM3.69287 34.8924C2.35727 32.2316 2.15109 29.1393 3.11785 26.3216C4.08691 23.5039 6.14644 21.2009 8.82909 19.9386V26.0032C8.79702 28.6086 10.671 30.8424 13.2276 31.2462C14.6869 31.447 16.1623 31.0039 17.2711 30.0301C18.3822 29.0563 19.0213 27.6463 19.0236 26.1624V20.1301L44.3588 28.5232L40.0542 41.7024L37.5067 49.5047L10.057 40.4124C7.2896 39.5032 4.99869 37.5139 3.69287 34.8924ZM47.3805 62.0447L39.6029 50.8409L46.833 28.7101L59.6964 24.3486L47.3805 62.0447Z" fill="#0E2A4E"/>
<path d="M31.3397 33.4317L37.8917 35.6032C39.4174 36.1109 40.1734 33.8056 38.6477 33.3002L32.0934 31.1286C30.5699 30.6233 29.8185 32.9263 31.342 33.4294L31.3397 33.4317Z" fill="#0E2A4E"/>
<path d="M32.5881 29.608L39.1424 31.7772C40.6475 32.2457 41.3806 30.0003 39.8938 29.4765L33.3395 27.3026C31.8367 26.8342 31.1036 29.0795 32.5881 29.6034V29.608Z" fill="#0E2A4E"/>
<path d="M38.164 38.6587C38.3725 38.0241 38.0289 37.3387 37.3966 37.1287L30.8423 34.9572C30.2054 34.7287 29.509 35.0749 29.2982 35.721C29.0875 36.3672 29.4448 37.0595 30.0909 37.2579L36.6452 39.4295C37.2752 39.6395 37.9556 39.2933 38.164 38.6587Z" fill="#0E2A4E"/>
</svg>
