<svg width="65" height="65" viewBox="0 0 65 65" fill="none" xmlns="http://www.w3.org/2000/svg">
<path d="M64.7292 28.535C64.5252 28.2985 64.229 28.1649 63.9167 28.1667H62.8334V16.25C62.8261 8.47528 56.5247 2.17389 48.75 2.16667H43.3334V1.08333C43.3334 0.485694 42.8477 0 42.25 0H22.75C22.1524 0 21.6667 0.485694 21.6667 1.08333V2.16667H16.25C8.4753 2.17389 2.17391 8.47528 2.16669 16.25V28.1667H1.08335C0.770991 28.1649 0.474879 28.2985 0.270852 28.535C0.0632128 28.7643 -0.0306761 29.0731 0.0108517 29.38L4.34419 64.0467C4.40919 64.5901 4.8696 64.9982 5.41669 65H59.5834C60.1304 64.9982 60.5909 64.5901 60.6559 64.0467L64.9892 29.38C65.0307 29.0731 64.935 28.7643 64.7292 28.535ZM23.8334 2.16667H41.1667V4.33333H23.8334V2.16667ZM4.33335 16.25C4.33696 9.67056 9.67057 4.33694 16.25 4.33333H21.6667V5.41667C21.6667 6.01431 22.1524 6.5 22.75 6.5H42.25C42.8477 6.5 43.3334 6.01431 43.3334 5.41667V4.33333H48.75C55.3295 4.33694 60.6631 9.67056 60.6667 16.25V28.1667H48.75V22.75C48.75 22.1524 48.2643 21.6667 47.6667 21.6667H37.7759L40.7117 20.41C41.7011 19.9821 42.4143 19.0938 42.6184 18.0357C42.8224 16.9776 42.4902 15.8871 41.73 15.1233L40.1267 13.52C39.3629 12.7599 38.2706 12.4276 37.2125 12.6317C37.0067 12.6678 36.8045 12.7346 36.6167 12.8267C36.5354 12.6299 36.4379 12.4421 36.3242 12.2633C35.7229 11.3696 34.7154 10.8333 33.6375 10.8333H31.3625C30.2846 10.8333 29.2771 11.3696 28.6759 12.2633C28.5621 12.4421 28.4646 12.6299 28.3834 12.8267C28.1956 12.7346 27.9934 12.6678 27.7875 12.6317C26.7295 12.4276 25.6389 12.7599 24.8734 13.52L23.27 15.1233C22.5099 15.8871 22.1777 16.9776 22.3817 18.0357C22.5857 19.0938 23.2989 19.9821 24.2884 20.41L27.2242 21.6667H17.3334C16.7357 21.6667 16.25 22.1524 16.25 22.75V28.1667H4.33335V16.25ZM31.4167 28.1667V23.8333H33.5834V28.1667H31.4167ZM33.5834 30.3333V45.5H31.4167V30.3333H33.5834ZM32.5 19.8358L30.3659 14.4842C30.234 14.1519 30.2738 13.7764 30.4724 13.4803C30.671 13.1842 31.005 13.0036 31.3625 13H33.6375C33.995 13.0036 34.3272 13.1824 34.5277 13.4803C34.7263 13.7764 34.766 14.1519 34.6342 14.4842L32.5 19.8358ZM18.4167 28.1667V23.8333H29.25V28.1667H18.4167ZM29.25 30.3333V45.5H20.5834V30.3333H29.25ZM30.4417 20.6917L25.1442 18.4167C24.812 18.2758 24.5736 17.9797 24.505 17.6258C24.4364 17.2738 24.5502 16.9108 24.8084 16.6617L26.4117 15.0583C26.6103 14.8525 26.8829 14.7351 27.17 14.7333C27.2386 14.7351 27.3072 14.7424 27.3759 14.755C27.7297 14.8236 28.0259 15.0638 28.1667 15.3942L30.4417 20.6917ZM36.8334 15.3942C36.9742 15.0619 37.2703 14.8236 37.6242 14.755C37.6928 14.7424 37.7614 14.7351 37.83 14.7333C38.1153 14.7333 38.3897 14.8525 38.5884 15.0583L40.1917 16.6617C40.4481 16.9108 40.5636 17.2738 40.495 17.6258C40.4264 17.9797 40.1863 18.2758 39.8559 18.4167L34.5584 20.6917L36.8334 15.3942ZM35.75 30.3333H44.4167V45.5H35.75V30.3333ZM35.75 28.1667V23.8333H46.5834V28.1667H35.75ZM58.63 62.8333H6.37002L2.30752 30.3333H18.4167V46.5833C18.4167 47.181 18.9024 47.6667 19.5 47.6667H31.4167V56.3333H33.5834V47.6667H45.5C46.0977 47.6667 46.5834 47.181 46.5834 46.5833V30.3333H62.6925L58.63 62.8333Z" fill="#0E2A4E"/>
<path d="M14.0834 34.6665H11.9167V56.3332H14.0834V34.6665Z" fill="#0E2A4E"/>
<path d="M53.0834 34.6665H50.9167V56.3332H53.0834V34.6665Z" fill="#0E2A4E"/>
</svg>
