<svg width="76" height="76" viewBox="0 0 76 76" fill="none" xmlns="http://www.w3.org/2000/svg">
<g clip-path="url(#clip0)">
<path d="M74.9609 69.1753H68.8374V62.5008C72.1604 62.0815 74.8917 59.6819 75.7348 56.4417C76.5799 53.2014 75.3647 49.7752 72.6691 47.791C72.675 47.6921 72.679 47.5952 72.679 47.4943C72.6493 44.8218 70.4722 42.6695 67.7983 42.6695C65.1245 42.6695 62.9474 44.8218 62.9177 47.4943C62.9177 47.5912 62.9217 47.6902 62.9276 47.791C60.232 49.7771 59.0168 53.2034 59.8619 56.4417C60.705 59.6819 63.4363 62.0795 66.7593 62.5008V69.1753H55.8838V9.90281C55.8838 9.32913 55.4187 8.86426 54.8447 8.86426H50.6152V1.03657C50.6152 0.462896 50.1481 0 49.5762 0H26.4199C25.8459 0 25.3808 0.464874 25.3808 1.03855V8.86426H21.1514C20.5774 8.86426 20.1123 9.32913 20.1123 9.90281V69.1753H9.24074V62.5008C12.5638 62.0815 15.295 59.6819 16.1381 56.4417C16.9832 53.2014 15.768 49.7752 13.0724 47.791C13.0783 47.6921 13.0823 47.5952 13.0823 47.4943C13.0526 44.8218 10.8755 42.6695 8.20168 42.6695C5.52782 42.6695 3.35074 44.8218 3.32105 47.4943C3.32105 47.5912 3.32105 47.6902 3.33095 47.791C0.635322 49.7752 -0.579886 53.2014 0.265218 56.4417C1.10834 59.6819 3.84157 62.0795 7.16261 62.5008V69.1753H1.03907C0.465114 69.1753 9.41531e-06 69.6401 9.41531e-06 70.2138V74.9614C9.41531e-06 75.5351 0.465114 76 1.03907 76H74.9609C75.5349 76 76 75.5351 76 74.9614V70.2138C76 69.6401 75.5349 69.1753 74.9609 69.1753ZM61.6768 54.3764C61.6728 52.2538 62.7752 50.2816 64.5881 49.1738C64.9602 48.9443 65.1482 48.5032 65.0592 48.0759C64.883 47.251 65.0908 46.3885 65.6232 45.7317C66.1556 45.075 66.9552 44.6952 67.8003 44.6952C68.6454 44.6952 69.445 45.075 69.9774 45.7317C70.5098 46.3885 70.7156 47.249 70.5415 48.0759C70.4504 48.5052 70.6384 48.9443 71.0125 49.1738C72.861 50.3132 73.9654 52.3448 73.9179 54.5149C73.8704 56.683 72.677 58.6651 70.7809 59.7215C68.8849 60.7778 66.5713 60.7521 64.699 59.6542C62.8247 58.5544 61.6748 56.5465 61.6768 54.3764ZM2.07813 54.3764C2.07418 52.2538 3.17657 50.2816 4.98751 49.1738C5.35959 48.9443 5.54761 48.5032 5.45657 48.0759C5.28043 47.251 5.48824 46.3885 6.02063 45.7317C6.55303 45.075 7.35261 44.6952 8.19772 44.6952C9.04282 44.6952 9.8424 45.075 10.3748 45.7317C10.9072 46.3885 11.113 47.249 10.9389 48.0759C10.8478 48.5052 11.0358 48.9443 11.4079 49.1738C13.2565 50.3113 14.3628 52.3448 14.3153 54.5149C14.2678 56.685 13.0744 58.6671 11.1783 59.7254C9.2823 60.7838 6.96668 60.7561 5.09438 59.6582C3.22605 58.5544 2.07616 56.5465 2.07813 54.3764ZM27.4609 2.0771H48.5391V8.86426H27.4609V2.0771ZM22.1944 10.9414H53.8076V69.1753H43.3814V58.1211C43.3814 57.5475 42.9163 57.0826 42.3423 57.0826H33.6577C33.0838 57.0826 32.6187 57.5475 32.6187 58.1211V69.1753H22.1924V10.9414H22.1944ZM41.3032 69.1753H34.6968V59.1597H41.3032V69.1753ZM73.9219 73.9229H2.07813V71.2523H73.9219V73.9229Z" fill="#0E2A4E"/>
<path d="M30.8752 13.6118H25.9036C25.3296 13.6118 24.8645 14.0767 24.8645 14.6504V20.8045C24.8645 21.3782 25.3296 21.8431 25.9036 21.8431H30.8752C31.4492 21.8431 31.9143 21.3782 31.9143 20.8045V14.6504C31.9143 14.0767 31.4492 13.6118 30.8752 13.6118ZM29.8362 19.766H26.9426V15.6889H29.8362V19.766Z" fill="#0E2A4E"/>
<path d="M35.5139 21.8431H40.4856C41.0595 21.8431 41.5246 21.3782 41.5246 20.8045V14.6504C41.5246 14.0767 41.0595 13.6118 40.4856 13.6118H35.5139C34.94 13.6118 34.4749 14.0767 34.4749 14.6504V20.8045C34.4768 21.3782 34.9419 21.8431 35.5139 21.8431ZM36.553 15.6889H39.4465V19.766H36.553V15.6889Z" fill="#0E2A4E"/>
<path d="M45.125 21.8431H50.0967C50.6706 21.8431 51.1357 21.3782 51.1357 20.8045V14.6504C51.1357 14.0767 50.6706 13.6118 50.0967 13.6118H45.125C44.551 13.6118 44.0859 14.0767 44.0859 14.6504V20.8045C44.0859 21.3782 44.551 21.8431 45.125 21.8431ZM46.1641 15.6889H49.0576V19.766H46.1641V15.6889Z" fill="#0E2A4E"/>
<path d="M30.8752 24.4683H25.9036C25.3296 24.4683 24.8645 24.9331 24.8645 25.5068V31.659C24.8645 32.2326 25.3296 32.6975 25.9036 32.6975H30.8752C31.4492 32.6975 31.9143 32.2326 31.9143 31.659V25.5068C31.9143 24.9331 31.4492 24.4683 30.8752 24.4683ZM29.8362 30.6224H26.9426V26.5454H29.8362V30.6224Z" fill="#0E2A4E"/>
<path d="M35.5139 32.6995H40.4856C41.0595 32.6995 41.5246 32.2346 41.5246 31.661V25.5068C41.5246 24.9331 41.0595 24.4683 40.4856 24.4683H35.5139C34.94 24.4683 34.4749 24.9331 34.4749 25.5068V31.659C34.4749 32.2346 34.94 32.6995 35.5139 32.6995ZM36.553 26.5454H39.4465V30.6224H36.553V26.5454Z" fill="#0E2A4E"/>
<path d="M45.125 32.6995H50.0967C50.6706 32.6995 51.1357 32.2346 51.1357 31.661V25.5068C51.1357 24.9331 50.6706 24.4683 50.0967 24.4683H45.125C44.551 24.4683 44.0859 24.9331 44.0859 25.5068V31.659C44.0859 32.2346 44.551 32.6995 45.125 32.6995ZM46.1641 26.5454H49.0576V30.6224H46.1641V26.5454Z" fill="#0E2A4E"/>
<path d="M30.8752 35.3247H25.9036C25.3296 35.3247 24.8645 35.7896 24.8645 36.3633V42.5174C24.8645 43.0911 25.3296 43.5559 25.9036 43.5559H30.8752C31.4492 43.5559 31.9143 43.0911 31.9143 42.5174V36.3633C31.9143 35.7896 31.4492 35.3247 30.8752 35.3247ZM29.8362 41.4769H26.9426V37.3998H29.8362V41.4769Z" fill="#0E2A4E"/>
<path d="M35.5139 43.5535H40.4856C41.0595 43.5535 41.5246 43.0886 41.5246 42.515V36.3608C41.5246 35.7871 41.0595 35.3223 40.4856 35.3223H35.5139C34.94 35.3223 34.4749 35.7871 34.4749 36.3608V42.515C34.4768 43.0886 34.9419 43.5535 35.5139 43.5535ZM36.553 37.4013H39.4465V41.4784H36.553V37.4013Z" fill="#0E2A4E"/>
<path d="M45.125 43.5535H50.0967C50.6706 43.5535 51.1357 43.0886 51.1357 42.515V36.3608C51.1357 35.7871 50.6706 35.3223 50.0967 35.3223H45.125C44.551 35.3223 44.0859 35.7871 44.0859 36.3608V42.515C44.0859 43.0886 44.551 43.5535 45.125 43.5535ZM46.1641 37.4013H49.0576V41.4784H46.1641V37.4013Z" fill="#0E2A4E"/>
<path d="M30.8752 46.1787H25.9036C25.3296 46.1787 24.8645 46.6436 24.8645 47.2173V53.3694C24.8645 53.9431 25.3296 54.408 25.9036 54.408H30.8752C31.4492 54.408 31.9143 53.9431 31.9143 53.3694V47.2173C31.9143 46.6436 31.4492 46.1787 30.8752 46.1787ZM29.8362 52.3309H26.9426V48.2558H29.8362V52.3309Z" fill="#0E2A4E"/>
<path d="M35.5139 54.408H40.4856C41.0595 54.408 41.5246 53.9431 41.5246 53.3694V47.2173C41.5246 46.6436 41.0595 46.1787 40.4856 46.1787H35.5139C34.94 46.1787 34.4749 46.6436 34.4749 47.2173V53.3694C34.4768 53.9431 34.9419 54.408 35.5139 54.408ZM36.553 48.2558H39.4465V52.3309H36.553V48.2558Z" fill="#0E2A4E"/>
<path d="M45.125 54.408H50.0967C50.6706 54.408 51.1357 53.9431 51.1357 53.3694V47.2173C51.1357 46.6436 50.6706 46.1787 50.0967 46.1787H45.125C44.551 46.1787 44.0859 46.6436 44.0859 47.2173V53.3694C44.0859 53.9431 44.551 54.408 45.125 54.408ZM46.1641 48.2558H49.0576V52.3309H46.1641V48.2558Z" fill="#0E2A4E"/>
</g>
<defs>
<clipPath id="clip0">
<rect width="76" height="76" fill="white"/>
</clipPath>
</defs>
</svg>
