<svg width="1336" height="1093" viewBox="0 0 1336 1093" fill="none" xmlns="http://www.w3.org/2000/svg">
<g clip-path="url(#clip0)">
<path d="M949.51 295.276L952.301 291.321L911.086 262.201L929.388 231.552L925.213 229.052L907.105 259.361L873.925 235.92L871.133 239.875L891.377 254.193L863.633 291.83L867.541 294.718L895.357 256.983L904.63 263.535L870.454 320.78L874.629 323.28L908.61 266.35L923.926 277.173L909.751 297.048C909.363 297.581 909.217 298.237 909.339 298.892C909.46 299.523 909.824 300.105 910.358 300.469L933.393 316.145L936.136 312.141L915.14 297.848L927.883 279.988L949.51 295.276Z" fill="url(#paint0_radial)"/>
<path d="M963.904 240.361C964.583 240.361 965.263 240.069 965.724 239.536L978.686 224.612L991.793 232.401L994.269 228.227L955.432 205.101C954.316 204.446 952.908 204.761 952.18 205.829L932.762 234.415L936.767 237.133L942.689 228.446L962.69 240.045C963.054 240.239 963.491 240.361 963.904 240.361ZM954.923 210.44L974.462 222.064L963.394 234.804L945.432 224.393L954.923 210.44Z" fill="url(#paint1_radial)"/>
<path d="M1195.03 312.481L1151.34 267.369L1147.84 270.767L1165 288.481L1169.03 314.519L1173.84 313.791L1170.85 294.5L1191.53 315.854L1195.03 312.481Z" fill="url(#paint2_radial)"/>
<path d="M1282.17 160.135C1282.14 160.135 1282.09 160.135 1282.07 160.135C1280.25 160.135 1274.86 150.962 1270.86 137.64L1266.2 139.047C1268.6 147.031 1274.81 164.988 1282.22 164.988C1282.56 164.988 1282.87 164.964 1283.21 164.891C1288.6 163.702 1316.2 131.355 1335.28 108.301V100.657C1311.27 129.753 1286.2 158.509 1282.17 160.135Z" fill="url(#paint3_radial)"/>
<path d="M1260.52 256.692L1224.93 147.346L1220.32 148.851L1255.47 256.886L1239.59 274.601C1239.04 275.232 1238.84 276.105 1239.08 276.906L1249.62 312.505L1254.28 311.122L1244.11 276.833L1260.01 259.094C1260.59 258.415 1260.78 257.517 1260.52 256.692Z" fill="url(#paint4_radial)"/>
<path d="M1281.25 757.58L1284.13 753.674L1242.87 723.34C1241.87 722.612 1240.47 722.733 1239.64 723.656L1228.57 735.74L1232.14 739.016L1241.73 728.533L1281.25 757.58Z" fill="url(#paint5_radial)"/>
<path d="M1298.77 771.582L1335.28 692.813V676.53L1280.47 626.395L1277.19 629.986L1334.69 682.572L1329.77 693.201L1244.52 638.019L1253.31 619.624H1294.5L1335.28 655.782V649.303L1298.99 617.125L1335.28 582.739V576.066L1332.56 578.638C1329.74 575.726 1324.04 569.611 1321.27 565.073C1319.18 561.651 1321.56 541.219 1325.15 522.728C1328.89 522.679 1332.7 522.485 1335.28 522.315V517.462C1326.98 517.971 1318.12 518.117 1316.32 517.462L1314.67 522.024C1315.76 522.412 1317.78 522.606 1320.2 522.703C1318.19 533.259 1313.33 561.384 1317.12 567.621C1320.15 572.596 1326.08 578.953 1329.01 582.011L1295.35 613.897L1290.76 609.821L1287.53 613.461L1288.99 614.771H1255.59L1281.03 561.481L1301.9 575.896L1304.67 571.892L1243.96 530.008L1250.54 474.631L1263.62 437.115L1309.3 454.562C1309.6 454.66 1309.89 454.732 1310.18 454.732C1310.81 454.732 1311.42 454.49 1311.88 454.029L1319.62 446.433L1316.22 442.963L1309.6 449.466L1265.25 432.528L1277.34 397.876L1324.89 348.008C1325.57 347.304 1325.74 346.26 1325.35 345.362L1305.54 299.79L1301.1 301.731L1311.42 325.464L1256.15 376.788L1259.45 380.331L1313.46 330.172L1320.25 345.824L1273.43 394.915C1273.19 395.158 1273.02 395.473 1272.9 395.789L1260.69 430.781L1195.54 405.884L1159.81 387.053L1194.93 334.054L1206.49 328.23L1204.3 323.886L1192.16 330.002C1191.78 330.196 1191.46 330.487 1191.24 330.827L1188.35 335.17C1182.38 334.006 1163.47 330.924 1154.91 336.821C1144.78 343.809 1147.04 365.48 1147.14 366.402C1147.21 366.96 1147.45 367.494 1147.87 367.882L1159.35 378.899L1155.46 384.772L1133.72 373.318L1117.57 364.412V343.081C1117.57 342.305 1117.21 341.577 1116.58 341.116L1073.42 309.812L1070.58 313.743L1112.72 344.319V361.742L1095.22 352.084C1094.64 351.769 1093.93 351.696 1093.3 351.914C1092.67 352.133 1092.14 352.594 1091.85 353.201L1068.76 403.336L1035.48 385.864L1048.57 362.665L1059.93 368.294L1062.09 363.951L1023.1 344.586L1038.57 308.89L1034.1 306.973L1018.74 342.426L975.433 320.926L995.07 277.804L1016.79 245.918L1045.14 277.125V288.069C1045.14 289.064 1045.75 289.937 1046.65 290.326L1068.91 299.377L1059.25 309.181L1062.72 312.578L1106.72 267.928L1121.48 283.264L1124.98 279.891L1110.12 264.457L1128.79 245.529L1125.32 242.132L1106.75 260.987L1089.2 242.739L1107.02 227.038L1103.81 223.398L1085.85 239.244L1055.87 208.062L1068.69 195.904L1065.34 192.385L1016.65 238.565L1007.69 228.713L1004.1 231.964L1013.44 242.253L990.943 275.28C990.871 275.402 990.798 275.523 990.749 275.644L948.636 368.076L953.054 370.09L961.137 352.327L984.414 364.557L984.268 364.897L988.71 366.863L988.735 366.814L1028.78 387.853L1020.75 402.074L1024.97 404.452L1033.08 390.086L1066.72 407.752L1058.81 424.957L1063.23 426.996L1071.04 410.033L1092.48 421.293C1092.82 421.487 1093.2 421.56 1093.59 421.56H1114.37L1137.19 438.085C1137.53 438.328 1137.89 438.474 1138.3 438.522L1189.13 445.001L1189.74 440.197L1166.58 437.236L1169.52 397.681L1193.35 410.252C1193.45 410.3 1193.52 410.349 1193.62 410.373L1259.06 435.368L1245.86 473.272C1245.81 473.442 1245.76 473.612 1245.73 473.782L1243.6 491.788L1227.26 488.73C1226.15 488.512 1225.03 489.118 1224.59 490.137L1221.17 497.976L1193.89 491.472L1185.54 488.778L1184.06 493.389L1190.61 495.5L1186.61 530.857C1186.46 532.167 1187.38 533.356 1188.69 533.526L1219.4 537.603L1216.41 546.97L1219.35 547.916L1121.12 527.071L1133.74 477.3L1185.97 485.284L1186.7 480.479L1134.93 472.568L1139.44 454.732L1134.74 453.543L1130.12 471.719L1098.91 465.677L1005 416.488L1011.11 404.306L1006.77 402.122L1000.65 414.328L924.193 379.117C923.198 378.656 922.033 378.923 921.329 379.748L902.906 401.637L906.62 404.767L923.854 384.31L998.468 418.672L991.405 432.747L933.781 455.8C933.611 455.873 933.441 455.97 933.271 456.067L901.256 478.878L889.581 437.042C889.508 436.775 889.386 436.508 889.216 436.265L866.886 405.325L862.953 408.165L885.042 438.741L896.838 481.062L873.609 486.546L847.079 431.024L842.71 433.111L863.099 475.796L839.263 479.994C836.229 471.161 830.209 453.907 828.535 450.995L824.311 453.398C825.549 455.557 830.476 469.414 834.409 480.843L805.184 486.012L802.951 475.869L798.218 476.912L800.403 486.837L800.16 486.886L801.009 491.666L801.446 491.593L807.175 517.68L802.441 532.919C790.499 530.08 777.271 526.707 764.527 523.237L763.241 527.921C780.717 532.677 838.341 547.941 845.817 544.834C851.472 542.481 886.255 538.21 899.727 536.705L922.324 541.656L937.471 549.785L939.777 545.514L924.339 537.215C924.145 537.118 923.926 537.021 923.708 536.972L900.382 531.852C900.115 531.803 899.848 531.779 899.605 531.803C894.678 532.361 851.351 537.239 843.996 540.321C843.268 540.588 841.593 540.539 839.142 540.297L841.084 485.769C841.084 485.478 841.059 485.187 840.962 484.896C840.938 484.823 840.889 484.726 840.865 484.605L865.284 480.285L885.09 521.757L889.459 519.67L875.745 490.962L898.586 485.551L921.038 527.678L925.334 525.397L903.003 483.488L935.869 460.095L988.128 439.177L963.855 487.565L938.053 472.447L935.602 476.645L961.671 491.909L957.811 499.577L962.156 501.761L975.263 475.65L1005.85 489.992L997.254 511.832L983.419 504.625C982.812 504.309 982.108 504.261 981.477 504.503C980.846 504.746 980.336 505.231 980.069 505.862L970.02 530.105C969.535 531.269 970.045 532.628 971.185 533.211L1019.49 557.405L1010.53 572.911L1014.73 575.338L1023.83 559.589L1034.15 564.757C1034.49 564.927 1034.88 565.024 1035.24 565.024C1036.14 565.024 1036.99 564.539 1037.4 563.69L1047.01 544.762L1058.08 549.833L1060.1 545.417L1049.2 540.418L1061.53 516.103L1073.69 521.805C1073.86 521.878 1074.03 521.951 1074.22 521.975L1115.17 530.663L1112.11 542.723L1094.25 537.579C1093.13 537.263 1091.94 537.773 1091.41 538.792L1082.28 556.58C1081.72 557.647 1082.04 558.958 1083.03 559.661L1104.01 574.731L1091.85 622.779L1081.04 619.673L1079.71 624.332L1177.77 652.433L1170.8 666.969L1150.66 653.525L1147.96 657.553L1168.69 671.385L1161.85 685.654L1166.22 687.765L1172.77 674.103L1232.41 713.876L1235.1 709.848L1174.88 669.687L1182.09 654.617L1304.13 748.238L1293.41 771.412C1292.87 772.553 1293.31 773.936 1294.43 774.543L1335.25 797.475V791.918L1298.77 771.582ZM1103.42 264.433L1072.67 295.64L1050.07 286.467V277.319L1085.63 245.966L1103.42 264.433ZM1052.43 211.386L1082.28 242.423L1047.84 272.781L1020 242.132L1052.43 211.386ZM986.453 360.092L963.224 347.886L973.491 325.367L996.745 336.918L986.453 360.092ZM990.774 362.349L1001.11 339.077L1016.99 346.964L1008.1 371.449L990.774 362.349ZM1031.24 383.607L1012.45 373.73L1021.36 349.124L1044.27 360.505L1031.24 383.607ZM1151.92 364.994C1151.41 358.952 1151.56 345.047 1157.7 340.8C1163.43 336.845 1177.46 338.204 1185.47 339.563L1162.14 374.774L1151.92 364.994ZM1116.63 417.143C1116.22 416.852 1115.71 416.682 1115.2 416.682H1094.22L1073.11 405.592L1095.19 357.593L1131.46 377.589L1140.68 382.442L1129.3 426.34L1116.63 417.143ZM1164.86 395.594L1161.8 436.605L1139.57 433.766L1133.5 429.374L1145.08 384.747L1165.71 395.619L1164.86 395.594ZM834.36 539.714C827.661 538.646 818.146 536.632 807.247 534.109L812.078 518.578C812.199 518.165 812.223 517.753 812.126 517.34L806.301 490.817L836.083 485.551C836.156 485.745 836.205 485.939 836.278 486.109L834.36 539.714ZM1240.42 635.325L1228.19 627.414L1225.54 631.491L1327.7 697.642L1318.26 718.026L1216.53 642.047C1216.27 641.853 1215.98 641.707 1215.68 641.634L1191.41 635.495L1201.53 614.358L1210.17 597.469L1248.6 618.193L1240.42 635.325ZM1250.69 613.825L1212.38 593.149L1231.27 556.288L1266.61 580.458L1250.69 613.825ZM1277.02 558.667L1268.72 576.041L1233.5 551.945L1242.34 534.715L1277.02 558.667ZM1195.39 496.811L1222.07 503.169C1222.26 503.217 1222.46 503.241 1222.63 503.241C1223.57 503.241 1224.47 502.683 1224.86 501.785L1228.31 493.85L1243.06 496.617L1240.59 517.462L1193.77 511.031L1195.39 496.811ZM1191.75 529.061L1193.26 515.836L1240.05 522.266L1239.08 530.42L1229.06 549.955L1221.15 548.28L1224.96 536.317C1225.18 535.637 1225.08 534.885 1224.69 534.278C1224.3 533.672 1223.67 533.259 1222.97 533.162L1191.75 529.061ZM1226.75 554.444L1198.01 610.524L1104.64 592.397L1106.53 584.923L1159.88 596.547L1160.93 591.79L1146.99 588.757L1152.38 559.443L1166.63 563.544L1167.96 558.885L1116.85 544.204L1119.98 531.803L1226.75 554.444ZM1081.7 462.134L1078.76 474.316L1060.58 464.949L1068.06 454.999L1081.7 462.134ZM1063.74 452.718L1051.77 468.637L1019.22 452.985L1027.52 433.742L1063.74 452.718ZM977.521 471.452L1002.91 420.856L1023.23 431.509L1011.5 458.664L998.419 452.014C997.254 451.432 995.822 451.869 995.191 453.009L983.54 474.267L977.521 471.452ZM987.909 476.33L998.274 457.402L1009.54 463.129L1001.14 482.542L987.909 476.33ZM1044.83 538.501L1023.93 528.94L1021.92 533.356L1042.64 542.845L1034.22 559.443L975.433 529.983L983.613 510.279L1005.26 521.563L1007.5 517.268L1001.65 514.234L1010.31 492.2L1057.18 514.186L1044.83 538.501ZM1069.15 514.404L1005.53 484.58L1017.26 457.45L1051.43 473.879C1051.77 474.049 1052.14 474.121 1052.47 474.121C1053.23 474.121 1053.96 473.782 1054.42 473.151L1057.62 468.88L1063.69 472.01L1050.39 494.724C1050.05 495.282 1049.97 495.961 1050.14 496.592C1050.31 497.223 1050.73 497.757 1051.31 498.073L1070.51 508.823L1069.15 514.404ZM1055.85 495.064L1068.03 474.267L1077.62 479.217L1071.7 503.945L1055.85 495.064ZM1075.56 517.413L1073.64 516.515L1086.12 464.463L1097.04 470.19C1097.26 470.312 1097.48 470.384 1097.69 470.433L1128.98 476.475L1128.06 480.115L1094.52 473.976L1093.64 478.756L1126.87 484.823L1123.42 498.388H1112.87L1092.45 481.037L1089.32 484.726L1110.41 502.635C1110.85 502.999 1111.41 503.217 1111.99 503.217H1122.21L1119.25 514.938L1102.33 510.885L1086.24 494.263L1082.74 497.636L1099.32 514.768C1099.64 515.108 1100.05 515.326 1100.51 515.448L1118.06 519.646L1116.43 526.076L1075.56 517.413ZM1115.66 548.911L1147.7 558.108L1142.24 587.738L1107.72 580.215L1115.66 548.911ZM1087.6 557.089L1094.85 542.942L1110.95 547.577L1105.32 569.829L1087.6 557.089ZM1179.93 648.162L1096.58 624.259L1103.47 597.105L1195.83 615.038L1179.93 648.162ZM1184.28 650.322L1189.25 639.96L1214.01 646.221L1316.17 722.515L1306.27 743.894L1184.28 650.322Z" fill="url(#paint6_radial)"/>
<path d="M394.296 92.6494L398.349 89.9801L340.07 0.921387H334.269L373.348 60.6417L322.667 91.4603L325.167 95.6099L362.353 73.0177L378.081 98.8374L382.208 96.3137L366.503 70.4939L376.018 64.7185L394.296 92.6494Z" fill="url(#paint7_radial)"/>
<path d="M414.976 27.4449L410.947 49.746C410.874 50.1828 410.922 50.6439 411.068 51.0564L421.505 77.5556L417.986 88.4999L422.598 89.9801L426.384 78.2108C426.554 77.6769 426.53 77.0945 426.336 76.5849L415.85 49.9159L419.758 28.2943L414.976 27.4449Z" fill="url(#paint8_radial)"/>
<path d="M1247.87 40.0635L1250.98 36.3507L1208.52 0.921387H1200.95L1247.87 40.0635Z" fill="url(#paint9_radial)"/>
<path d="M1059.2 609.505L1069.37 582.909C1069.61 582.254 1069.56 581.526 1069.25 580.919L1059.08 561.554L1054.78 563.811L1064.44 582.205L1054.68 607.782L1059.2 609.505Z" fill="url(#paint10_radial)"/>
<path d="M1335.28 1065.33L1317.1 1054.9L1335.28 1023.91V1014.32L1312.87 1052.49L1284.79 1036.38L1314.98 984.91L1335.28 998.33V992.506L1317.46 980.712L1335.28 950.33V945.526L1333.19 944.288L1313.41 978.019L1274.06 951.981L1271.39 956.033L1290.69 968.797L1258.94 1021.53L1244.69 1013.35L1274.84 958.484L1270.59 956.155L1240.49 1010.92L1173.96 972.729L1164.64 934.411L1168.57 928.175L1201.66 949.651L1191.34 964.114L1195.3 966.929L1224.18 926.404L1267.8 956.009L1270.52 952.005L1227 922.472L1261.78 873.696L1257.82 870.881L1222.97 919.755L1188.6 896.434L1240.25 814.631L1236.15 812.035L1184.59 893.692L1162.5 878.72L1194.01 822.324L1189.76 819.97L1158.47 876.002L1140.71 863.941L1171.48 805.313L1167.19 803.056L1136.65 861.199L1086.58 827.226L1091.17 816.694C1091.29 816.378 1091.36 816.063 1091.36 815.723V804.828L1115.15 762.992L1110.92 760.589L1088.28 800.387L1075.34 788.981C1075.15 788.812 1074.95 788.69 1074.73 788.593L1027.3 767.457L1046.31 724.917L1041.87 722.928L1022.86 765.467L968.297 741.128L987.958 695.288L983.492 693.371L963.855 739.162L954.073 734.794L967.326 705.698C967.593 705.091 967.617 704.412 967.375 703.805C967.132 703.199 966.671 702.713 966.064 702.446L917.154 681.82C915.989 681.334 914.63 681.82 914.047 682.936L891.571 726.616C890.964 727.781 891.401 729.188 892.542 729.844L906.741 737.852L897.178 758.357L901.571 760.42L912.081 737.876C912.615 736.735 912.178 735.352 911.062 734.745L896.935 726.786L905.285 710.576L947.738 736.954L919.169 799.707C918.951 800.193 918.902 800.726 918.999 801.236L923.077 819.63L913.489 840.936L881.862 827.347L876.425 803.663C876.352 803.396 876.255 803.153 876.109 802.91L853.9 767.724L849.798 770.32L871.789 805.167L876.716 826.668C876.449 826.886 876.231 827.153 876.085 827.493L869.264 842.853L830.719 826.255L828.802 830.72L867.298 847.294L851.836 882.093L856.278 884.058L871.74 849.211L883.003 854.065L888.488 877.919L873.706 907.281C873.415 907.888 873.366 908.592 873.609 909.223C873.852 909.854 874.337 910.363 874.944 910.63L881.789 913.494L877.687 922.958L840.598 876.73L836.812 879.763L875.527 927.908L866.254 949.311L741.857 889.227L764.236 843.048L759.867 840.936L745.57 870.445L728.652 862.655L742.682 833.438L738.313 831.327L724.259 860.592L703.482 851.031L717.511 823.003L763.605 794.733L796.689 832.564L789.771 851.371L794.334 853.045L801.738 832.904C802.053 832.079 801.859 831.133 801.276 830.477L767.804 792.185L798.485 773.378L823.632 822.445L827.952 820.237L802.976 771.461L839.409 761.002C840.04 760.832 840.55 760.395 840.865 759.837L890.187 669.444C890.818 668.303 890.43 666.872 889.314 666.216L869.289 654.083C868.439 653.573 867.371 653.622 866.594 654.204L849.264 667.017L840.404 660.611L863.585 646.342L909.921 658.524L911.159 653.84L884.119 646.73L895.26 615.742H922.931L940.723 621.274L921.159 661.63L925.529 663.741L945.651 622.197H972.351V617.343H944.485L923.999 610.985C923.757 610.913 923.514 610.888 923.271 610.888H895.964L890.819 572.474H909.411L931.111 581.938L933.053 577.497L910.892 567.839C910.576 567.718 910.261 567.645 909.921 567.645H880.891C880.114 567.645 879.362 568.033 878.925 568.664L869.386 582.011L826.229 606.35L816.083 592.785C815.986 592.64 815.84 592.518 815.719 592.397L798.606 577.861C797.951 577.303 797.053 577.133 796.252 577.425L778.654 583.443L780.232 588.029L796.519 582.448L812.369 595.916L821.981 608.753L763.775 641.586L729.672 656.51V643.77C729.672 643.454 729.623 643.163 729.502 642.872L720.06 618.896L750.037 599.119L747.367 595.066L702.681 624.55L698.554 612.563L693.967 614.14L699.088 629.113C699.331 629.816 699.889 630.374 700.593 630.617C700.836 630.714 701.103 630.738 701.37 630.738C701.831 630.738 702.317 630.593 702.705 630.326L715.861 621.638L724.745 644.231V658.548L715.545 662.576L694.476 653.865L692.632 658.354L714.647 667.454C714.938 667.575 715.254 667.648 715.569 667.648C715.909 667.648 716.225 667.575 716.54 667.454L724.745 663.862V680.315L721.88 685.047L683.748 672.841C673.942 659.761 665.713 648.817 664.135 646.827L660.325 649.836C663.213 653.476 689.865 689.124 706.152 710.916L695.35 728.679L674.403 716.909L659.645 677.476C659.427 676.869 658.941 676.36 658.334 676.093L651.902 673.302V656.121H647.047V674.297L644.402 679.15L600.444 683.713L599.983 660.417L595.128 660.514L595.614 684.222L495.173 694.657L490.197 647.871L517.213 645.662L518.572 664.857L523.426 664.518L522.067 645.274L569.787 641.367L571.899 662.528L576.729 662.042L574.642 641.246H618.551C619.304 641.246 620.008 640.906 620.469 640.3L630.566 627.293C630.979 626.759 631.149 626.104 631.052 625.448C630.955 624.793 630.591 624.211 630.032 623.822L623.551 619.309L630.178 607.685L668.189 634.451L670.98 630.496L617.362 592.737L597.24 533.963L590.079 476.694L585.273 477.3L589.011 507.245L573.21 512.681L562.675 440.1L611.051 405.884L643.868 458.736L647.994 456.188L615.032 403.093L642.994 383.316L640.178 379.36L573.113 426.801L566.049 413.6C565.952 413.43 565.831 413.333 565.71 413.188L565.734 413.164L540.684 384.044C540.587 383.922 540.466 383.825 540.345 383.728L514.033 362.859L525.878 349.002C526.072 348.784 526.218 348.541 526.315 348.274L549.495 286.322L568.185 267.855L606.658 256.595L621.027 304.497L625.688 303.114L603.526 229.198L679.646 267.855L681.855 263.535L602.289 223.131L601.924 223.835L597.094 207.722L609.133 204.106L687.704 240.215L689.743 235.798L650.446 217.744L651.344 217.453L643.746 193.696L672.194 185.13L670.786 180.47L642.266 189.061L632.969 159.941H677.825L683.457 187.823L673.553 185.664L672.631 190.323L684.622 192.944L686.442 201.898C686.588 202.65 687.097 203.305 687.801 203.621L700.787 209.566L691.272 242.909L695.933 244.243L705.229 211.605L753.095 233.542L737.56 263.754L706.588 278.605L679.185 271.131L677.898 275.814L706.176 283.531C706.394 283.58 706.613 283.628 706.807 283.628C707.171 283.628 707.535 283.555 707.851 283.385L740.376 267.806C740.862 267.588 741.25 267.2 741.493 266.738L769.649 211.944L779.261 216.288L763.168 272.708L748.289 309.812L740.328 306.487C740.036 306.366 739.721 306.293 739.405 306.293H719.987C719.623 306.293 719.283 306.366 718.943 306.536L692.607 318.96L694.671 323.353L720.521 311.171H738.92L746.493 314.325L742.876 323.353L705.472 350.022L708.288 353.977L746.274 326.896C746.663 326.629 746.954 326.265 747.124 325.828L750.983 316.242L776.615 327.332L774.819 331.361C774.674 331.676 774.625 332.016 774.625 332.331V347.352H779.479V332.841L781.081 329.249L793.339 334.564L795.257 330.099L783.023 324.809L796.495 294.305L792.053 292.34L778.557 322.867L752.779 311.705L767.756 274.407C767.78 274.334 767.804 274.261 767.829 274.164L783.8 218.302L794.262 223.034L791.786 232.328L791.713 232.45L791.737 232.474L777.344 286.297L782.028 287.559L796.106 234.973L831.253 255.115L821.52 275.62L825.913 277.707L835.501 257.541L853.317 267.758L855.72 263.535L837.588 253.149L851.594 223.665L861.279 218.715L854.846 236.624L859.41 238.249L867.371 216.07L882.202 223.641L884.41 219.321L872.226 213.109L890.819 203.597L888.61 199.277L866.886 210.391L827.2 190.129L871.23 120.799L885.357 130.505L915.115 171.225C915.625 171.929 916.45 172.293 917.3 172.22L991.963 165.013L1035.65 179.597L1037.18 174.986L993.007 160.232C992.691 160.135 992.327 160.086 992.011 160.111L918.198 167.245L889.022 127.326C888.852 127.108 888.658 126.914 888.44 126.768L874.022 116.843L898.489 84.9326L952.52 115.776L954.923 111.553L901.426 81.0014L922.858 53.0219L919.727 50.6195L968.467 82.5545L1059.85 138.295L1062.38 134.145L1013.15 104.128L1037.6 61.8065L1092.14 93.0619L1094.54 88.8395L1040 57.5841L1067.23 10.4097L1125.68 44.5529L1161.63 70.1542L1144.98 95.1003L1106.85 68.2129L1104.05 72.1683L1142.38 99.2014L1135.15 111.213L1120.51 101.604C1119.95 101.24 1119.27 101.118 1118.64 101.264C1117.99 101.41 1117.43 101.822 1117.11 102.38L1073.47 175.981L1077.65 178.456L1120 107.04L1132.67 115.363L1113.11 147.88C1112.89 148.269 1112.77 148.681 1112.77 149.142V167.366H1117.62V149.822L1136.73 118.057L1165.95 137.227L1168.62 133.175L1139.25 113.907L1146.39 102.041L1205.17 143.512C1203.69 145.745 1202.72 147.177 1202.38 147.565L1204.18 149.191L1205.98 150.841C1206.32 150.453 1207.46 148.827 1209.13 146.327L1216.02 151.181L1218.82 147.225L1211.8 142.275C1215.93 135.965 1221.73 126.914 1227.85 117.353L1261.83 141.547L1264.64 137.591L1230.47 113.252C1234.13 107.501 1237.82 101.701 1241.24 96.2894L1281.46 125.337L1284.3 121.405L1243.84 92.1883C1248.21 85.2723 1251.95 79.3755 1254.35 75.6142L1297.51 108.471L1300.45 104.613L1257.19 71.683L1270.4 55.5457C1275.32 60.0107 1303.19 84.8113 1312.22 92.8435L1315.45 89.2278C1304.6 79.5697 1277.02 55.0361 1273.48 51.8086L1302.87 15.8697L1335.28 40.6945V34.5793L1305.95 12.0355L1315.03 0.921387H1308.75L1253.31 68.6739L1235.05 54.7691L1160.63 0.921387H1153.09L1152.84 1.26112L1189.81 28.003L1164.37 66.1259L1128.35 40.4761L1069.68 6.21152L1072.74 0.921387H1067.14L1065.49 3.76059L1060.63 0.921387H1051.02L1063.08 7.95872L1035.82 55.1817L987.958 27.7603L950.578 0.921387H942.252L959.971 13.6371L932.81 53.3859L908.586 37.5155L933.587 0.921387H927.713L904.557 34.8705L889.775 25.1881L905.552 0.921387H899.775L862.298 58.6518L773.12 7.76459L777.392 0.921387H771.664L768.897 5.36219L761.129 0.921387H751.323L766.324 9.48752L750.401 34.9675L717.196 14.1953C717.026 14.0739 716.832 14.0011 716.637 13.9283C716.395 13.8555 712.827 12.7635 708.87 11.8414L706.103 0.921387H701.103L703.603 10.8707C702.535 10.7251 701.54 10.6281 700.666 10.6281C696.442 10.6281 691.467 11.1134 687.971 12.8363L685.301 0.921387H680.325L683.942 16.9374C683.092 18.7089 681.782 21.5238 680.52 24.2659L645.712 0.921387H636.999L678.481 28.731C677.68 30.4782 677.121 31.7401 677.049 31.8857L681.466 33.8755C681.515 33.7542 686.952 21.7179 688.675 18.3206C689.379 16.9131 693.36 15.4814 700.666 15.4814C704.307 15.4814 711.88 17.5441 714.89 18.4662L747.828 39.0686L734.211 60.8843L703.045 41.4953C702.486 41.1555 701.782 41.0342 701.151 41.2041C700.496 41.3739 699.962 41.7865 699.646 42.3689L646.853 137.179L651.101 139.533L676.442 94.0326L725.643 115.048L715.861 156.762L714.647 161.009L685.204 155.039C685.034 155.015 684.889 154.99 684.719 154.99H595.589C595.249 154.99 594.885 155.063 594.57 155.209L591.342 156.689V144.483C591.342 144.24 591.293 143.973 591.22 143.731L566.146 66.2715L561.535 67.7761L586.487 144.871V158.922L542.529 178.99L524.033 167.925L494.299 129.049L538.646 107.137L556.656 158.266L561.243 156.665L531.315 71.7073L530.878 71.8529L532.844 67.5091L531.849 67.0723L546.34 49.6489L565.467 65.5193L568.574 61.7822L549.447 45.9118L556.243 37.7339L573.283 30.4539L583.938 33.1233L589.036 58.8702L593.793 57.9238L588.38 30.6723C588.186 29.7502 587.506 29.0222 586.584 28.7795L574.69 25.819L564.593 6.38139L578.841 0.921387H565.248L562.433 1.98912L561.874 0.921387H556.413L557.87 3.73632L517.383 19.2185L495.294 0.921387H487.697L542.626 46.4942L527.286 64.9369L440.802 25.7462L404.466 0.921387H395.849L438.253 29.8715C438.375 29.9443 438.496 30.0171 438.618 30.0657L524.058 68.7952L522.286 70.9065L526.024 74.0126L528.645 70.8822L530.781 71.8529L526.728 73.2846L537.019 102.526L491.289 125.118L458.57 82.2633L454.71 85.1995L480.682 119.221L451.749 131.428L430.705 86.971L426.311 89.0579L435.705 108.932L417.792 115.193L408.544 90.4654L404.005 92.1641L413.398 117.183L368.785 144.119L371.285 148.269L415.122 121.794L423.253 143.415L375.824 163.411L377.717 167.876L424.976 147.953L442.21 193.866L446.749 192.167L429.442 146.085L449.395 137.664L482.503 187.484L486.556 184.79L453.958 135.723L483.741 123.177L520.441 171.249C520.635 171.492 520.854 171.71 521.121 171.856L537.141 181.441L509.033 194.278L502.576 178.505L498.086 180.349L504.615 196.317L423.059 233.566L425.073 237.982L506.436 200.83L517.018 226.698L454.006 245.651L455.414 250.31L516.436 231.94L507.795 269.335L502.431 284.356L415.825 278.775L415.51 283.628L452.429 286.006L454.006 305.978L423.981 306.293L424.03 311.146L493.086 310.418L488.207 324.056C488.134 324.25 488.085 324.469 488.085 324.663L485.464 355.846C481.532 355.457 477.333 355.19 472.988 355.19C452.866 355.19 432.938 362.47 423.593 369.702C423.423 369.823 409.951 380.792 389.004 394.915L345.896 294.864C345.435 293.82 344.318 293.213 343.201 293.432L282.398 305.589L270.699 181.126L299.875 177.583L299.292 172.754L270.238 176.297L268.029 152.758L263.199 153.219L265.432 176.879L237.542 180.276C237.13 180.325 236.741 180.495 236.401 180.737L199.677 207.916L197.347 187.823L192.516 188.381L195.599 214.832L181.424 239.972C181.23 240.336 181.108 240.749 181.108 241.161V335.389C176.108 332.744 170.452 330.778 164.287 330.366C147.66 329.201 130.548 335.51 113.46 349.075C110.208 351.672 106.979 357.86 102.926 365.722C95.6196 379.821 85.6193 399.137 70.5945 405.786C54.6716 412.848 21.0053 430.174 0.276367 440.973V446.457C11.7816 440.464 28.0686 432.019 43.0449 424.496L85.4494 423.744L77.6578 453.131L15.6167 449.855C14.5245 449.806 13.5293 450.486 13.1895 451.529L5.54355 474.898L0.276367 474.704V479.557L102.732 483.149C103.217 483.149 103.727 483.027 104.139 482.76L123.024 470.506L236.013 472.86V472.884H236.037L241.11 490.89L229.872 514.865L234.265 516.928L236.935 511.225L302.059 506.348L302.472 509.235C302.496 509.357 302.52 509.478 302.545 509.599L312.958 543.257L317.594 541.825L307.229 508.362L306.889 505.984L383.494 500.232L383.13 495.403L306.186 501.179L300.918 464.609L349.245 458.421L353.42 494.481C353.566 495.719 354.61 496.641 355.823 496.641C355.896 496.641 355.969 496.641 356.042 496.641L388.81 493.608L388.373 488.778L357.959 491.593L355.775 472.811L383.907 470.748L386.164 488.463L390.97 487.856L386.625 453.64L465.73 443.497L466.458 455.145L434.224 457.741L434.613 462.57L466.75 459.998L468.691 491.448L470.318 506.833L439.661 510.57L440.244 515.399L470.827 511.662L471.847 521.223L397.936 528.43L396.504 500.863L391.65 501.106L394.271 552.163L369.707 555.536C369.003 555.633 368.397 556.021 368.008 556.604C367.62 557.186 367.498 557.914 367.693 558.569L375.654 587.786L387.621 625.157L366.285 633.481L361.115 615.79C360.921 615.159 360.484 614.625 359.901 614.31C359.319 613.994 358.615 613.946 358.008 614.164L328.662 624.162H306.938L305.773 616.906L307.472 616.737C308.152 616.664 308.783 616.324 309.195 615.742L314.05 609.093C314.535 608.437 314.657 607.588 314.365 606.836L305.239 582.084L326.769 575.872L325.41 571.212L303.564 577.522L292.69 548.013L288.127 549.688L298.879 578.881L289.729 581.526L291.088 586.185L300.579 583.443L309.365 607.297L305.919 612.029L247.348 617.683L247.81 622.512L282.665 619.139V655.199L254.072 658.063L217.444 663.717L212.541 635.179L207.76 636.004L212.663 664.445L187.54 668.328L154.238 648.72L151.762 652.894L224.095 695.506L226.571 691.332L221.741 688.493L218.294 668.522L254.703 662.892L315.482 656.825C315.676 656.801 315.846 656.777 316.016 656.704L348.469 645.662L363.129 639.935L367.717 655.66C367.984 656.558 368.736 657.238 369.683 657.383L385.654 659.81C385.776 659.834 385.897 659.834 386.019 659.834C386.067 659.834 386.14 659.834 386.188 659.834L400.752 658.766L410.704 675.316L410 675.777L428.035 702.786L374.246 727.417L376.261 731.833L430.996 706.766L461.919 741.686L465.56 738.458L453.351 724.675L493.086 721.302L495.489 743.821L284.85 765.03L285.287 769.398L268.806 814.195L232.663 804.1L260.529 731.227L255.99 729.504L227.955 802.789L212.978 798.615L245.868 710.94L241.329 709.241L235.431 724.99L219.071 727.999C218.221 728.145 217.517 728.752 217.226 729.552L208.731 752.848L176.011 739.332L221.085 700.36L217.906 696.695L155.5 750.64C154.845 751.198 154.554 752.072 154.699 752.921C154.869 753.771 155.452 754.474 156.277 754.765L202.056 771.121L195.283 789.709L160.719 772.844L158.777 776.848L158.607 776.484L108.994 800.193L111.081 804.561L160.695 780.852L159.044 777.406L175.598 785.414L158.437 838.364L163.049 839.869L179.992 787.55L193.657 794.15L172.855 851.201L177.419 852.875L221.352 732.367L233.464 730.135L184.798 859.864L189.337 861.563L211.303 803.008L226.255 807.181L199.094 878.186L203.633 879.909L213.075 855.254L249.46 871.609L264.509 890.998L268.344 888.014L253.732 869.207L259.873 852.487L277.956 856.006L288.976 871.051L292.884 868.188L281.306 852.366C280.942 851.881 280.408 851.541 279.801 851.42L261.548 847.852L271.84 819.873L307.472 829.822L312.909 850.497C313.103 851.201 313.589 851.784 314.244 852.099L345.92 866.538L288.685 989.133L293.078 991.195L325.895 920.895L377.377 934.436C377.572 934.484 377.79 934.509 377.984 934.509C378.421 934.509 378.834 934.387 379.222 934.169L397.645 923.249L395.169 919.075L377.62 929.485L327.958 916.43L360.411 846.93C360.605 846.493 360.678 846.008 360.605 845.523L357.814 827.493L353.008 828.245L355.678 845.547L347.935 862.145L317.278 848.168L311.793 827.25C311.574 826.425 310.919 825.77 310.093 825.527L273.49 815.311L290.263 769.714L289.098 769.277L495.998 748.432L505.586 838.704L475.998 843.096L469.857 777.819L465.026 778.28L470.269 834.02L411.141 839.48L411.578 844.309L470.706 838.849L473.4 867.46L440.462 871.124C440.268 871.148 440.098 871.197 439.928 871.245L374.44 894.129L376.042 898.715L441.263 875.905L473.862 872.289L479.493 932.13L436.603 936.911L437.137 941.74L479.954 936.984L484.833 988.914L468.886 976.83C468.522 976.539 468.085 976.393 467.623 976.344L440.923 974.185L440.535 979.014L466.531 981.125L485.464 995.466L488.085 1023.28L492.916 1022.82L490.44 996.437L554.884 992.555C555.102 992.53 555.321 992.506 555.539 992.433L568.986 987.75C569.69 987.507 570.249 986.949 570.491 986.221L582.045 951.884L634.596 977.703L604.546 1037.79L559.132 1025.75L557.894 1030.43L603.429 1042.5V1056.59L549.641 1048.13L489.566 1042.69C488.911 1042.62 488.255 1042.84 487.746 1043.27L468.934 1059.77C468.4 1060.23 468.109 1060.89 468.109 1061.59V1074.58H472.963V1062.71L490.173 1047.62L549.058 1052.93L603.454 1061.5V1061.88L588.113 1092.92H593.526L598.648 1082.58L616.391 1092.92H626.052L600.832 1078.24L608.065 1063.68C608.09 1063.63 608.09 1063.58 608.114 1063.51L649.645 1085.96C649.815 1086.05 649.984 1086.08 650.154 1086.13L645.712 1092.92H651.514L655.3 1087.15L685.204 1092.92H698.044L698.506 1090.54L658.164 1082.78L671.199 1062.9L719.332 1073.97L732.706 1092.95H738.653L722.754 1070.43C722.414 1069.94 721.905 1069.6 721.322 1069.46L668.116 1057.23L635.348 1052.93C634.935 1052.88 634.498 1052.93 634.11 1053.1L614.109 1061.28L608.332 1058.15V1041.35L693.408 871.245L735.4 891.532L677.243 1011.58L681.612 1013.69L702.511 970.569L743.483 993.161L745.837 988.914L704.647 966.201L714.501 945.841L837.758 1001.58L838.317 1000.34L838.365 1000.37L838.511 999.956L839.773 997.165L839.482 997.044L845.161 980.009L860.55 973.263C861.109 973.02 861.57 972.559 861.813 972.001L868.755 955.936L872.614 957.805L865.866 973.093C865.599 973.675 865.599 974.354 865.818 974.961L872.493 991.948L877.007 990.176L870.696 974.136L876.983 959.94L987.909 1013.52L964.074 1059.85L910.407 1036.38L928.004 991.972L923.49 990.176L905.965 1034.41L865.186 1016.58L875.43 1004.01L871.667 1000.95L859.118 1016.36L846.618 1020.99C846.011 1021.21 845.55 1021.65 845.259 1022.23L828.705 1057.06L822.661 1054.24L838.317 1019.42C838.559 1018.86 838.608 1018.23 838.389 1017.65L832.176 999.398L827.588 1000.97L833.511 1018.3L818.923 1050.77L810.476 1040.02V1005.56H805.621V1040.75C805.621 1041.28 805.815 1041.82 806.131 1042.25L816.665 1055.65L812.806 1064.24L718.069 1047.79L717.244 1052.57L813.825 1069.33C813.971 1069.36 814.092 1069.36 814.238 1069.36C815.185 1069.36 816.058 1068.8 816.447 1067.93L820.67 1058.51L827.442 1061.67V1074.7C827.442 1075.33 827.685 1075.93 828.146 1076.4L837.079 1085.5C837.54 1085.96 838.147 1086.22 838.778 1086.22L885.697 1086.81L884.289 1092.9H889.265L890.721 1086.54L910.382 1083.43C910.698 1083.38 911.013 1083.26 911.305 1083.09L933.271 1069.26L964.996 1065.33L1027.98 1084.82L1043.11 1092.87H1053.42L1030.05 1080.42C1029.9 1080.35 1029.78 1080.3 1029.63 1080.25L1027.47 1079.57L1047.21 1042.01L1095.8 1065.48L1079.54 1092.92H1085.17L1100.1 1067.66L1138.28 1086.1L1134.2 1092.92H1139.86L1142.67 1088.21L1152.41 1092.92H1163.57L1145.2 1084.04L1173.94 1036.04C1174.28 1035.48 1174.37 1034.8 1174.2 1034.15L1159.86 981.246L1155.17 982.508L1159.42 998.184L1150.46 1012.87V981.877C1150.46 980.785 1149.74 979.814 1148.67 979.548C1147.6 979.256 1146.48 979.717 1145.95 980.664L1098.23 1061.35L1049.42 1037.76L1106.92 928.248L1125.1 935.746L1125.05 935.819L1126.34 936.523L1133.86 943.803L1140.54 978.577L1145.29 977.655L1138.86 944.215L1160.27 937.081L1169.47 974.84C1169.61 975.495 1170.05 976.029 1170.61 976.369L1335.28 1070.94V1065.33ZM873.755 844.722L878.464 834.093L881.692 848.144L873.755 844.722ZM1193.74 30.8665L1232.17 58.6761L1250.47 72.6051C1247.17 77.8467 1243.57 83.5009 1239.91 89.2763L1182.46 47.7803L1193.74 30.8665ZM1179.76 51.8329L1237.31 93.4017C1233.7 99.1043 1230.03 104.856 1226.51 110.388L1168.33 68.9651L1179.76 51.8329ZM1165.63 72.9691L1223.89 114.465C1217.53 124.439 1211.8 133.345 1207.84 139.436L1148.98 97.9153L1165.63 72.9691ZM946.986 41.2526L977.86 55.303L979.875 50.8865L949.777 37.2001L963.928 16.4763L985.215 31.7643C985.288 31.8129 985.361 31.8614 985.434 31.9099L1033.4 59.4041L1020.82 81.1713L994.293 65.0097C994.075 64.8641 993.808 64.767 993.565 64.7185L974.317 60.4718L973.273 65.2038L992.133 69.3534L1018.42 85.3694L1009.03 101.628L971.088 78.4777L936.912 56.0795L946.986 41.2526ZM702.147 204.858L690.957 199.738L689.816 194.084L704.331 197.239L702.147 204.858ZM755.352 229.246L706.588 206.921L709.04 198.282L764.989 210.464L755.352 229.246ZM780.669 211.556L771.931 207.601L785.863 180.495L789.334 181.247L780.669 211.556ZM861.521 213.109L838.681 224.781L815.306 213.643L813.219 218.035L833.244 227.572L817.175 235.798L819.384 240.118L844.458 227.305L833.316 250.722L797.369 230.12L808.461 188.624L803.776 187.362L795.499 218.278L785.135 213.594L794.092 182.315L806.519 185.057L861.521 213.109ZM887.129 29.2649L918.975 50.1342L897.178 78.5747L866.497 61.0542L887.129 29.2649ZM863.56 64.9611L894.217 82.4574L869.992 114.053L838.681 92.5281L863.56 64.9611ZM814.845 37.1758L797.514 64.4273L779.552 53.1918L795.16 25.9161L814.845 37.1758ZM794.917 68.5283L781.203 90.1014L764.406 79.6667L777.149 57.4142L794.917 68.5283ZM770.547 11.8899L790.936 23.5379L775.426 50.6438L754.503 37.5641L770.547 11.8899ZM751.954 41.6409L773.023 54.8177L760.28 77.0702L738.337 63.4081L751.954 41.6409ZM736.735 68.1643L778.606 94.2025L766.979 112.475L766.833 112.742L733.021 97.0659L736.735 68.1643ZM764.552 117.037L756.129 132.859L731.031 112.597L732.366 102.138L764.552 117.037ZM678.796 89.7859L702.632 46.9553L732.196 65.3494L726.468 110.121L678.796 89.7859ZM720.545 158L729.939 117.935L753.799 137.227L747.464 149.142L751.76 151.423L768.945 119.1L780.572 124.487L764.746 153.898L769.018 156.204L784.989 126.55L802.369 134.606L804.408 130.214L771.227 114.829L782.683 96.799L813.316 115.848L815.889 111.723L785.305 92.6979L819.068 39.6025L859.24 62.5345L828.195 96.9446L831.787 100.196L835.38 96.2166L867.177 118.081L822.782 187.945L808.413 180.616C808.218 180.519 808.024 180.446 807.83 180.398L788.121 176.078L794.504 163.678L790.184 161.47L783.217 175.01L782.902 174.938L719.356 162.052L720.545 158ZM718.069 166.687L780.96 179.427L767.295 205.999L710.399 193.599L718.069 166.687ZM684.452 159.868L713.288 165.716L705.642 192.555L688.748 188.867L682.874 159.868H684.452ZM521.655 22.7857L560.103 8.08005L569.739 26.6683L553.816 33.463C553.452 33.6086 553.161 33.8513 552.894 34.1425L545.709 42.7571L521.655 22.7857ZM427.719 141.547L419.515 119.707L437.817 113.325L447.283 133.32L427.719 141.547ZM194.215 672.137L213.561 669.153L216.304 685.169L194.215 672.137ZM287.617 654.641V618.605L301.04 617.319L306.744 652.748L287.617 654.641ZM346.891 641.003L314.802 651.899L311.574 652.214L307.812 628.894H329.172C329.439 628.894 329.706 628.846 329.949 628.773L357.28 619.479L361.843 635.155L346.891 641.003ZM489.76 643.042L487.843 625.06L515.586 621.881L516.921 640.809L489.76 643.042ZM487.333 620.231L477.26 525.47L508.523 522.412L515.247 617.004L487.333 620.231ZM518.305 591.693L516.897 571.722L576.268 566.796L579.229 587.18L577.992 589.752L564.302 595.115L556.17 589.655C555.734 589.364 555.199 589.242 554.665 589.242L518.305 591.693ZM518.645 596.547L554.156 594.144L561.996 599.41L566.171 611.204L520.077 616.494L518.645 596.547ZM521.776 640.421L520.417 621.323L567.312 615.936L569.375 636.514L521.776 640.421ZM569.812 606.933L567.093 599.24L574.957 596.158L569.812 606.933ZM625.251 626.322L617.435 636.368H574.229L571.948 613.679L580.734 595.285L625.251 626.322ZM626.294 604.87L619.644 616.518L602.337 604.458L615.274 597.129L626.294 604.87ZM598.308 551.726L612.483 593.125L597.919 601.352L582.846 590.844L583.914 588.587C584.133 588.15 584.205 587.665 584.133 587.204L580.953 565.218L598.308 551.726ZM589.715 512.123L592.555 534.764C592.579 534.934 592.604 535.079 592.677 535.249L596.657 546.873L580.176 559.71L574.059 517.51L589.715 512.123ZM560.054 413.794L535.199 425.03L524.567 425.758V416.44L554.034 406.806L560.054 413.794ZM550.612 402.802L521.388 412.363C520.392 412.678 519.713 413.625 519.713 414.668V426.073L499.785 427.432L496.921 406.83L520.198 404.767C520.781 404.719 521.339 404.452 521.752 404.015L537.383 387.417L550.612 402.802ZM533.573 384.383L518.839 400.035L496.241 402.049L490.585 361.354C500.392 362.713 507.746 364.776 509.542 365.285L533.573 384.383ZM645.712 215.439L616.27 201.898L639.207 195.006L645.712 215.439ZM632.678 159.868L628.406 161.227L637.702 190.371L620.153 195.661L607.483 159.868H632.678ZM596.099 159.868H602.361L615.517 197.069L595.832 202.99L584.497 165.182L596.099 159.868ZM510.853 198.792L542.189 184.474L542.723 184.79L543.184 184.013L580.006 167.197L591.147 204.373L521.679 225.267L510.853 198.792ZM512.431 270.815C512.455 270.718 512.479 270.645 512.504 270.548L521.8 230.314L592.555 209.032L605.396 251.863L566.365 263.293C565.977 263.414 565.637 263.608 565.345 263.899L545.83 283.167C545.587 283.41 545.393 283.725 545.272 284.041L535.005 311.486L499.906 306.026L512.431 270.815ZM458.934 305.929L457.38 286.322L500.756 289.112L494.882 305.541L458.934 305.929ZM492.964 325.391L498.231 310.661L533.257 316.121L522.043 346.09L509.858 360.359C506.848 359.51 499.639 357.666 490.367 356.428L492.964 325.391ZM473.061 360.068C477.405 360.068 481.653 360.335 485.61 360.748L491.411 402.462L469.153 404.428L453.181 362.349C459.468 360.942 466.24 360.068 473.061 360.068ZM426.675 373.512C431.433 369.848 439.224 366.159 448.424 363.562L464.104 404.889L381.431 412.217L380.679 406.248C408.034 388.678 426.53 373.633 426.675 373.512ZM384.975 397.657C381.504 399.962 377.863 402.316 374.052 404.719C346.575 422.069 312.812 436.824 297.933 438.182L288.661 362.495L362.158 344.683L384.975 397.657ZM226.911 403.117C224.022 396.42 220.915 389.261 217.978 382.636L286.67 386.203L293.054 438.28C267.034 437.843 247.688 431.218 239.775 419.861L226.911 403.117ZM230.867 416.245L186.06 417.046L188.244 381.107L212.517 382.369C215.988 390.159 219.702 398.628 222.566 405.325C222.639 405.52 222.736 405.689 222.882 405.835L230.867 416.245ZM342.279 298.601L360.192 340.194L288.054 357.666L284.971 332.404L282.908 310.467L342.279 298.601ZM280.141 332.938L284.219 366.232L245.407 341.334L240.067 333.787L253.465 316.364L278.126 311.438L280.141 332.938ZM185.963 241.792L200.211 216.531C200.454 216.094 200.575 215.56 200.502 215.05L200.308 213.449L238.804 185.033L265.917 181.732L277.641 306.56L251.596 311.777C251.014 311.899 250.504 312.214 250.14 312.675L237.081 329.638L212.177 294.427C212.032 294.208 211.837 294.014 211.619 293.844L185.938 275.474V241.792H185.963ZM185.963 281.468L208.488 297.581L241.717 344.537C241.887 344.804 242.13 344.998 242.397 345.168L284.995 372.493L286.063 381.301L215.745 377.661C210.842 366.766 206.789 358.224 205.648 357.229C205.381 356.986 204.944 356.404 204.289 355.603C201.4 352.084 194.992 344.295 185.963 338.277V281.468ZM53.1424 419.449C60.7397 415.712 67.5361 412.436 72.5606 410.227C89.1388 402.874 99.6004 382.709 107.222 367.955C110.863 360.917 114.018 354.826 116.47 352.885C132.83 339.902 148.364 334.127 163.947 335.195C182.298 336.481 196.012 353.201 200.526 358.709C201.449 359.825 201.934 360.408 202.323 360.772C203.245 362.058 206.473 368.901 210.284 377.394L186.084 376.133C184.749 376.036 183.608 377.079 183.535 378.414L181.181 417.143L53.1424 419.449ZM10.5923 475.068L17.2187 454.805L76.3956 457.887L71.2741 477.203L10.5923 475.068ZM199.288 467.254L122.392 465.652C121.858 465.652 121.422 465.774 121.009 466.041L102.125 478.295L76.2257 477.373L90.4738 423.622L203.56 421.584L199.288 467.254ZM235.77 468.006L204.167 467.351L208.464 421.487L234.557 421.026L235.867 422.725C237.275 424.763 239.023 426.632 240.989 428.354L235.77 468.006ZM245.431 431.776C256.305 438.935 272.859 442.89 293.637 443.133L295.554 460.362L240.771 467.4L245.431 431.776ZM301.38 501.494L239.314 506.153L245.892 492.127C246.135 491.593 246.183 491.011 246.038 490.429L240.916 472.253L296.161 465.167L301.38 501.494ZM300.36 459.756L298.491 443.036C304.705 442.405 313.637 439.784 323.905 435.78L324.754 456.625L300.36 459.756ZM329.584 455.994L328.686 433.839C343.59 427.626 360.678 418.866 376.164 409.135L381.285 449.369L329.584 455.994ZM355.289 467.885L354.124 457.741L381.892 454.174L383.373 465.822L355.289 467.885ZM467.356 429.689C466.021 429.786 465.026 430.927 465.099 432.261L465.487 438.595L386.067 448.787L382.038 417.07L492.066 407.315L494.906 427.821L467.356 429.689ZM470.099 434.348L495.586 432.601L503.353 488.414L508.159 487.735L500.44 432.261L535.975 429.81C536.267 429.786 536.534 429.713 536.801 429.592L562.942 417.798L569.229 429.544L558.768 436.945C558.015 437.479 557.627 438.377 557.772 439.274L575.589 561.991L516.557 566.869L513.353 521.951L533.937 519.937L536.558 538.331L541.364 537.651L538.767 519.476L548.233 518.554V536.754H553.088V515.884C553.088 515.205 552.796 514.55 552.287 514.089C551.777 513.628 551.122 513.409 550.418 513.482L524.373 516.03L522.383 487.929L517.528 488.269L519.519 516.491L476.701 520.665L473.546 490.962L470.099 434.348ZM398.373 630.035H394.417L387.863 609.578L397.281 608.656L398.373 630.035ZM373.203 559.88L394.611 556.944L395.922 582.157L379.878 584.292L373.203 559.88ZM386.358 604.846L381.285 588.976L396.165 587.01L397.038 603.802L386.358 604.846ZM386.188 654.86L372.037 652.7L367.765 638.067L389.223 629.695L390.339 633.189C390.655 634.184 391.601 634.888 392.645 634.888H398.616L399.587 653.889L386.188 654.86ZM400.728 581.501L399.417 556.264L443.982 550.125L443.326 545.32L399.174 551.386L398.228 533.186L472.405 525.955L477.235 571.358L400.728 581.501ZM400.995 586.379L477.769 576.187L479.833 595.649L401.844 603.317L400.995 586.379ZM402.111 608.195L480.342 600.502L482.503 620.813L403.228 629.913L402.111 608.195ZM419.078 680.388L419.442 680.17L404.539 655.393L403.471 634.742L483.012 625.618L484.906 643.43L454.516 645.929L454.905 650.758L485.415 648.259L490.391 695.166L432.913 701.136L419.078 680.388ZM449.443 720.04L436.676 705.625L490.925 699.995L492.673 716.375L449.443 720.04ZM203.827 766.462L161.933 751.489L172.006 742.778L207.177 757.289L203.827 766.462ZM249.679 866.441L214.872 850.789L231.037 808.54L267.252 818.66L249.679 866.441ZM635.324 1057.81L666.053 1061.84L652.97 1081.78L651.586 1081.52L619.595 1064.21L635.324 1057.81ZM744.333 800.872L705.836 744.258L713.191 737.075L760.377 791.02L744.333 800.872ZM764.552 788.472L716.662 733.702L757.658 693.662L788.242 753.334L787.781 753.843L789.116 755.032L796.276 769.01L764.552 788.472ZM837.079 756.585L800.694 767.02L794.067 754.062L816.617 728.946L841.836 747.874L837.079 756.585ZM868.172 659.033L884.823 669.128L875.599 686.018L853.39 669.953L868.172 659.033ZM873.245 690.337L844.191 743.603L819.869 725.354L837.831 705.334L834.214 702.082L791.713 749.451L761.299 690.095L774.649 677.064L806.107 667.721L821.811 671.215C822.418 671.361 823.073 671.24 823.607 670.924L835.938 663.329L873.245 690.337ZM879.362 645.42L864.24 641.44L856.764 635.835L860.453 615.669H890.09L879.362 645.42ZM872.25 585.894C872.565 585.724 872.832 585.481 873.027 585.19L882.153 572.401H885.915L891.061 610.816H851.861C851.375 610.816 850.914 610.961 850.501 611.228L837.346 620.134L838.996 622.561L837.758 621.614L829.19 610.185L872.25 585.894ZM855.502 615.669L852.419 632.583L840.647 623.774L852.638 615.669H855.502ZM729.308 682.257C729.55 681.868 729.672 681.432 729.672 680.995V661.727L765.838 645.905C765.911 645.881 765.984 645.832 766.057 645.808L824.918 612.611L834.069 624.842C834.214 625.036 834.384 625.181 834.554 625.327L858.851 643.503L821.86 666.289L806.519 662.868C806.131 662.771 805.694 662.795 805.306 662.916L772.683 672.623C772.295 672.744 771.955 672.938 771.688 673.205L721.055 722.661C719.235 720.21 716.055 715.963 712.098 710.673L729.308 682.257ZM688.821 679.539L719.356 689.294L708.943 706.426C702.948 698.418 695.714 688.736 688.821 679.539ZM709.356 715.114C713.069 720.088 715.958 723.971 717.535 726.058L703.312 739.963L699.088 732.052L709.356 715.114ZM650.64 678.034L655.543 680.17L667.922 713.245L639.96 697.545L650.64 678.034ZM584.642 690.24L641.659 684.319L629.425 706.693L629.256 704.728L584.618 708.537V690.24H584.642ZM584.642 713.391L627.775 709.726L613.964 734.988H584.618V713.391H584.642ZM611.342 739.841L596.075 767.797L600.323 770.126L637.654 701.791L694.476 733.726L699.671 743.481L631.197 810.36L588.55 788.375L586.317 792.694L627.532 813.952L621.78 819.582C621.513 819.849 621.294 820.188 621.173 820.552L618.163 829.482L561.219 801.964C560.879 801.794 560.539 801.721 560.151 801.721H539.665L533.597 744.743L582.336 739.841H611.342ZM533.087 739.914L530.757 717.977L579.812 713.803V735.206L533.087 739.914ZM579.788 690.75V708.95L530.223 713.172L528.402 696.089L579.788 690.75ZM495.756 699.486L523.596 696.598L525.417 713.585L497.527 715.963L495.756 699.486ZM498.013 720.768L525.902 718.39L528.257 740.4L500.392 743.215L498.013 720.768ZM500.901 748.044L528.766 745.229L538.233 833.948L510.489 838.073L500.901 748.044ZM476.532 848.046L506.169 843.63L508.256 863.165L513.086 862.655L510.999 842.902L538.743 838.777L543.451 883.063L548.282 882.554L540.199 806.575H559.617L616.634 834.117L596.779 893.134L550.952 870.542L548.816 874.885L595.225 897.769L589.448 914.925L541.704 894.857C541.364 894.711 540.976 894.663 540.636 894.663L481.265 898.084L476.532 848.046ZM566.341 983.649L554.326 987.847L490.051 991.729L484.857 936.547L538.5 930.577L577.676 949.845L566.341 983.649ZM579.278 945.186L540.029 925.894C539.616 925.7 539.155 925.603 538.694 925.651L484.42 931.694L481.702 902.913L540.345 899.54L587.895 919.512L579.278 945.186ZM636.829 973.457L583.671 947.321L592.385 921.405L597.264 923.443C597.555 923.564 597.895 923.637 598.211 923.637C598.526 923.637 598.842 923.564 599.133 923.443L625.76 912.499L630.227 933.878C630.372 934.557 630.809 935.164 631.416 935.504L650.494 946.084L636.829 973.457ZM652.654 941.789L634.717 931.839L630.299 910.655L645.81 904.272V924.268C645.81 924.996 646.149 925.7 646.708 926.161L656.514 934.096L652.654 941.789ZM658.747 929.631L650.664 923.103V902.258L657.121 899.613L672.34 902.452L658.747 929.631ZM674.597 897.939L657.291 894.736C656.829 894.663 656.344 894.711 655.931 894.881L598.186 918.638L593.914 916.842L621.003 836.277L689.015 869.134L674.597 897.939ZM691.2 864.742L622.581 831.594L625.59 822.615L702.292 747.704L740.182 803.396L714.38 819.218C713.992 819.46 713.676 819.8 713.482 820.213L691.2 864.742ZM695.569 866.853L701.321 855.375L722.172 864.985L716.443 876.924L695.569 866.853ZM720.788 879.059L726.565 867.023L743.459 874.813L737.488 887.116L720.788 879.059ZM716.589 941.425L739.769 893.595L822.588 933.611L801.325 979.742L716.589 941.425ZM857.686 969.137L842.176 975.932C841.545 976.199 841.059 976.733 840.841 977.388L834.991 994.981L805.743 981.756L826.957 935.746L864.337 953.801L857.686 969.137ZM887.008 1081.98L839.749 1081.39L832.224 1073.73V1060.67L849.167 1025.07L861.376 1020.56C861.788 1020.41 862.152 1020.15 862.419 1019.81L862.638 1019.54L862.225 1020.49L904.12 1038.81L887.008 1081.98ZM932.058 1064.55C931.694 1064.6 931.354 1064.72 931.063 1064.92L909.072 1078.77L892.493 1081.39L908.562 1040.82L956.064 1061.59L932.058 1064.55ZM1145.56 990.783V1021.53C1145.56 1022.62 1146.29 1023.57 1147.33 1023.86C1148.38 1024.15 1149.49 1023.71 1150.05 1022.79L1161.12 1004.66L1169.2 1034.44L1140.78 1081.9L1102.57 1063.46L1145.56 990.783ZM1186 900.511L1220.13 923.661L1204.45 945.671L1171.14 924.05L1186 900.511ZM1160.1 882.942L1181.97 897.793L1167.04 921.429L1146.17 907.888L1160.1 882.942ZM1138.4 868.236L1156.07 880.224L1142.11 905.243L1124.86 894.056L1138.4 868.236ZM1134.37 865.494L1120.63 891.629L1069.59 866.174L1084.59 831.691L1134.37 865.494ZM1020.9 769.835L1005 805.41L1009.44 807.4L1025.34 771.825L1072.43 792.815L1086.51 805.24V815.165L1049.88 899.419L927.47 846.857L936.888 826.401L953.175 815.335C953.563 815.068 953.879 814.704 954.049 814.243L964.219 789.612L981.501 752.266L1020.9 769.835ZM1030.34 905.825L1035.14 911.383L1030.22 923.783L941.427 883.306C940.942 883.088 940.408 883.015 939.874 883.136L920.504 887.528L911.256 882.044L925.407 851.274L1031.55 896.871L1029.83 903.666C1029.63 904.418 1029.83 905.243 1030.34 905.825ZM1034.85 903.617L1036.09 898.788L1047.94 903.86L1046.92 906.214L1038.83 908.179L1034.85 903.617ZM907.567 706.208L917.373 687.134L961.913 705.917L949.826 732.44L907.567 706.208ZM927.883 820.844C928.101 820.358 928.15 819.824 928.029 819.315L923.951 800.921L952.059 739.162L977.011 750.3L959.704 787.671L949.753 811.719L933.514 822.761C933.15 823.003 932.859 823.343 932.665 823.755L922.931 844.94L917.931 842.805L927.883 820.844ZM883.245 833.171L911.547 845.329L897.858 875.735H893.027L883.245 833.171ZM879.265 907.087L892.59 880.588H899.411C900.358 880.588 901.231 880.03 901.62 879.156L915.989 847.221L920.941 849.357L905.94 881.995C905.431 883.112 905.843 884.471 906.911 885.102L913.926 889.276C913.586 889.518 913.319 889.834 913.149 890.198L905.94 906.092L906.11 906.165L901.911 916.551L879.265 907.087ZM874.531 953.315L870.648 951.447L886.304 915.314L890.551 917.085L874.531 953.315ZM942.155 985.978L937.544 971.176L957.52 929.17L953.127 927.083L932.737 969.938C932.47 970.496 932.422 971.127 932.616 971.709L936.16 983.09L878.901 955.426L895.018 918.954L902.275 921.987C902.566 922.108 902.882 922.181 903.222 922.181C903.537 922.181 903.853 922.108 904.144 921.987C904.751 921.744 905.212 921.259 905.455 920.652L906.863 917.158L923.417 954.965L927.859 953.024L909.387 910.897L912.106 904.175L917.033 893.328L940.116 888.086L1028.4 928.321L1017.52 955.718L990.045 1009.13L942.155 985.978ZM1022.67 1078.17L968.613 1061.42L992.206 1015.53L1042.74 1039.95L1022.67 1078.17ZM1045 1035.65L994.439 1011.24L1021.96 957.732L1032.84 930.335L1087.28 955.16L1045 1035.65ZM1089.54 950.84L1034.63 925.797L1039.73 912.984L1049.22 910.679C1049.95 910.509 1050.58 909.975 1050.87 909.296L1052.4 905.777L1102.4 926.404L1089.54 950.84ZM1104.64 922.06L1054.32 901.312L1067.65 870.639L1118.38 895.925L1104.64 922.06ZM1109.15 923.928L1122.6 898.351L1139.74 909.49L1127.45 931.5L1109.15 923.928ZM1160.42 931.936L1136.7 939.823L1131.26 934.557L1143.81 912.086L1164.47 925.481L1160.42 931.936ZM1263.14 1023.93L1294.72 971.467L1310.93 982.193L1280.59 1033.93L1263.14 1023.93Z" fill="url(#paint11_radial)"/>
<path d="M1192.97 1092.92H1198.45L1217.21 1056.91L1212.92 1054.68L1192.97 1092.92Z" fill="url(#paint12_radial)"/>
<path d="M1241.83 1092.92H1247.43L1254.4 1080.86L1250.2 1078.43L1241.83 1092.92Z" fill="url(#paint13_radial)"/>
<path d="M958.539 1092.92H963.976L972.618 1075.81L968.297 1073.63L958.539 1092.92Z" fill="url(#paint14_radial)"/>
<path d="M1116.19 723.51L1119.54 719.991L1100.9 702.301C1100.34 701.767 1099.56 701.524 1098.79 701.67C1098.03 701.816 1097.38 702.301 1097.04 702.98L1078.3 741.249L1082.67 743.384L1099.95 708.076L1116.19 723.51Z" fill="url(#paint15_radial)"/>
<path d="M764.824 572.123L743.366 585.463L745.93 589.585L767.388 576.244L764.824 572.123Z" fill="url(#paint16_radial)"/>
<path d="M814.82 676.433L790.572 694.851C789.747 695.482 789.407 696.574 789.747 697.569L797.15 719.409L801.738 717.856L794.893 697.666L817.733 680.315L814.82 676.433Z" fill="url(#paint17_radial)"/>
<path d="M692.098 532.58L670.082 550.319C669.087 551.119 668.893 552.551 669.621 553.595L688.578 580.701C688.991 581.283 689.622 581.647 690.35 581.72C690.423 581.72 690.496 581.72 690.568 581.72C691.2 581.72 691.806 581.477 692.268 581.04L715.035 558.861L711.637 555.39L690.908 575.58L674.888 552.672L695.156 536.341L692.098 532.58Z" fill="url(#paint18_radial)"/>
<path d="M747.416 447.436L666.46 502.424L669.188 506.438L750.144 451.45L747.416 447.436Z" fill="url(#paint19_radial)"/>
<path d="M835.04 388.654C835.064 387.999 834.821 387.344 834.336 386.883L793.776 345.629L790.305 349.027L829.069 388.46L778.897 433.159L778.751 433.014L775.232 436.362L775.28 436.411L753.726 455.606L756.954 459.222L778.606 439.93L790.669 452.67L771.809 468.006L774.868 471.767L793.995 456.213L805.548 468.419L809.068 465.07L782.222 436.702L834.19 390.401C834.724 389.94 835.016 389.334 835.04 388.654Z" fill="url(#paint20_radial)"/>
<path d="M627.095 464.706L624.134 483.246C624.037 483.852 624.182 484.483 624.522 484.993L639.693 507.537L643.722 504.819L629.086 483.076L631.901 465.482L627.095 464.706Z" fill="url(#paint21_radial)"/>
<path d="M148.146 40.5003L221.231 175.156L225.503 172.851L192.322 111.723L215.236 98.5705L249.994 158.655L254.193 156.228L219.435 96.1438L295.797 52.2939L293.37 48.0958L189.992 107.452L152.296 37.9766C152.224 37.831 152.127 37.7097 152.029 37.5883L121.931 0.921387H115.645L148.146 40.5003Z" fill="url(#paint22_radial)"/>
<path d="M188.099 187.362L192.322 184.96L87.8766 0.921387H82.2939L188.099 187.362Z" fill="url(#paint23_radial)"/>
<path d="M0.276367 198.258L21.2237 186.95L16.7575 203.524C16.6119 204.106 16.6605 204.713 16.9275 205.247L45.4236 262.249L49.7685 260.089L21.6606 203.888L26.2725 186.78C26.4424 186.173 26.3695 185.542 26.0783 185.008L0.276367 136.524V146.861L19.2576 182.509L0.276367 192.749V198.258Z" fill="url(#paint24_radial)"/>
<path d="M17.8256 803.032L35.5932 739.429L105.037 764.787L106.688 760.225L76.3471 749.135L92.4156 710.915L87.9252 709.047L71.7838 747.485L18.5052 728.023L32.4863 684.149L27.8502 682.693L0.276367 769.277V785.269L17.0245 732.658L31.0299 737.779L13.1409 801.746L17.8256 803.032Z" fill="url(#paint25_radial)"/>
<path d="M232.93 917.231L230.358 913.105L191.351 937.372C190.647 937.809 190.21 938.586 190.21 939.435V952.369C190.21 953.485 190.963 954.456 192.055 954.723L262.033 971.855L263.199 967.147L195.065 950.476V940.794L232.93 917.231Z" fill="url(#paint26_radial)"/>
<path d="M221.28 1011.41L270.553 978.747L267.859 974.694L218.003 1007.75C217.614 1008.01 217.299 1008.35 217.129 1008.79L180.089 1092.92H185.404L221.28 1011.41Z" fill="url(#paint27_radial)"/>
<path d="M287.277 989.084L283.102 986.609L219.872 1092.92H225.503L287.277 989.084Z" fill="url(#paint28_radial)"/>
<path d="M361.066 1092.92L369.489 1055.7L449.759 1074.16L450.851 1069.43L410.364 1060.11L433.812 1019.71L429.612 1017.28L405.412 1059L370.557 1050.99L394.854 943.536L403.908 933.829L400.364 930.505L390.849 940.697C390.558 941.012 390.339 941.4 390.266 941.813L365.824 1049.9L288.612 1032.13L287.52 1036.87L364.756 1054.63L356.09 1092.92H361.066Z" fill="url(#paint29_radial)"/>
<path d="M262.616 729.431H295.19C296.525 729.431 297.617 728.339 297.617 727.004V685.436H292.763V724.578H262.616V729.431Z" fill="url(#paint30_radial)"/>
<path d="M267.859 710.284L246.96 712.444L247.47 717.273L269.801 714.944C270.699 714.847 271.451 714.264 271.791 713.439L282.156 688.129L277.665 686.285L267.859 710.284Z" fill="url(#paint31_radial)"/>
<path d="M138.655 1092.92L172.273 1035.7C172.467 1035.39 172.564 1035.02 172.588 1034.66L186.545 860.932L181.715 860.544L167.782 1033.71L158.51 1049.48L99.5518 1011.26L136.713 964.551C136.956 964.235 137.126 963.847 137.199 963.435L145.767 912.911L168.438 874.133C182.832 859.719 182.807 858.117 182.807 857.074L182.031 855.229L178.657 858.724C177.783 857.899 177.904 856.783 178.098 856.394C177.443 857.729 171.787 863.844 166.35 869.353L91.6875 808.079L88.6048 811.841L163.389 873.211L142.393 909.126L113.314 898.958L124.553 873.357C124.99 872.362 124.723 871.197 123.873 870.493L79.9395 834.506L76.8568 838.267L119.383 873.09L108.727 897.332L0.276367 859.452V864.596L81.1288 892.891L62.3175 946.132L29.9376 939.653L0.276367 927.253V932.519L28.2871 944.24C28.4327 944.312 28.5784 944.337 28.7483 944.385L130.475 964.721L109.091 991.608L16.2478 971.224L0.276367 964.405V969.671L14.5487 975.738C14.6944 975.786 14.84 975.835 14.9856 975.883L26.9278 978.504L13.1895 1022.43L17.8256 1023.88L31.6853 979.572L53.555 984.377L42.1468 1036.53L46.88 1037.57L58.2882 985.42L105.717 995.831L65.6428 1046.21L69.4537 1049.22L96.5663 1015.15L156.083 1053.73L133.024 1092.92H138.655ZM67.1477 947.103L85.7406 894.517L140.767 913.761L132.878 960.231L67.1477 947.103Z" fill="url(#paint32_radial)"/>
<path d="M116.247 156.482L111.786 158.397L136.845 216.753L141.306 214.838L116.247 156.482Z" fill="url(#paint33_radial)"/>
<path d="M89.2602 195.249L0.276367 63.9662V72.6294L85.2309 197.967L89.2602 195.249Z" fill="url(#paint34_radial)"/>
<path d="M0.276367 37.4427L71.0556 150.962C71.5168 151.69 72.2936 152.103 73.1188 152.103C73.4586 152.103 73.7985 152.03 74.114 151.884L103.727 138.441L101.712 134.024L74.0412 146.594L0.276367 28.2699V37.4427Z" fill="url(#paint35_radial)"/>
<path d="M75.5461 338.058V280.498L90.9593 275.256L89.4058 270.67L55.424 282.221C55.1327 282.318 54.8657 282.463 54.623 282.682L0.276367 329.128V335.51L57.4144 286.661L70.6915 282.148V338.058H75.5461Z" fill="url(#paint36_radial)"/>
<path d="M92.5856 291.442H87.731V338.058H92.5856V291.442Z" fill="url(#paint37_radial)"/>
<path d="M0.276367 573.615L49.7442 566.699L54.2589 624.381L0.276367 631.03V635.907L54.623 629.21L58.2639 675.486L63.0942 675.122L61.3465 652.724L138.704 639.232L137.878 634.451L60.9582 647.871L56.5891 592.13L126.907 581.016L126.155 576.211L56.225 587.277L51.6617 529.061L46.8072 529.449L49.3558 561.87L0.276367 568.713V573.615Z" fill="url(#paint38_radial)"/>
<path d="M194.974 505.509L190.314 506.87L225.304 626.622L229.964 625.261L194.974 505.509Z" fill="url(#paint39_radial)"/>
<path d="M1335.28 953.218V924.559L1105.97 751.902C1108.08 748.65 1109.88 746.029 1111.07 744.67C1118.57 736.104 1138.72 694.196 1144.98 681.019C1178.38 704.339 1210.42 726.131 1215.93 729.868C1221 735.765 1261.34 782.721 1275.98 800.702C1282.9 809.22 1307.95 825.357 1335.3 841.519V827.347C1311.1 812.884 1290.74 799.61 1285.4 793.058C1272.09 776.702 1237.87 736.759 1227.58 724.796C1241.2 712.711 1259.45 676.166 1281.27 630.738C1288.02 616.664 1293.87 604.53 1298.45 595.916C1300.74 591.669 1302.87 586.525 1304.89 580.773C1310.01 586.088 1319.14 595.479 1328.63 604.749C1331.03 607.103 1333.24 609.214 1335.32 611.204V601.133C1326.49 592.567 1316.73 582.691 1307.46 572.935C1314.4 550.003 1319.57 520.155 1322.8 495.864L1335.32 497.878V478.222L1325.11 476.597C1326.25 465.846 1326.83 457.741 1326.83 454.247C1326.83 450.947 1326.83 444.079 1260.86 376.497C1238.57 353.662 1216.07 331.458 1204.3 319.882C1238.91 319.106 1268.04 317.359 1277.53 314.617C1283.55 312.894 1305.23 303.915 1335.32 290.981V277.78C1303.31 291.588 1280.18 301.221 1274.18 302.944C1259.04 307.288 1195.08 308.623 1139.06 307.895C1139.61 304.789 1140.27 301.44 1141.07 297.824C1143.84 285.351 1146.43 281.954 1148.72 278.969C1150.37 276.809 1152.07 274.577 1153.21 270.014C1154.03 266.714 1155.27 261.715 1104.37 219.516C1087.06 205.174 1069.44 191.293 1060.61 184.402C1077.99 179.815 1123.04 168.264 1143.96 166.202C1170.56 163.557 1265.37 142.857 1269.38 141.984C1270.08 141.838 1270.74 141.474 1271.22 140.94L1324.91 84.7627C1328.43 88.8638 1331.9 93.0377 1335.35 97.2358V63.2382L1333.58 65.0825C1323.26 53.3374 1312.65 41.9321 1301.68 30.8422C1294.74 23.8291 1287.82 16.1366 1281.15 8.68672C1278.84 6.11445 1276.49 3.51792 1274.16 0.921387H1247.55C1252.7 6.18725 1257.73 11.6715 1262.65 17.1558L1141.75 159.067C1116.36 161.931 1062.98 176.151 1053.11 178.82L1046.84 175.083C1055.05 162.901 1063.45 150.356 1071.99 137.591C1101.85 92.8678 1133.84 45.1353 1165.03 0.921387H1141.29C1112.5 42.1019 1083.28 85.7091 1055.8 126.768C1025.34 172.268 996.55 215.245 973.734 246.718C972.302 248.684 970.821 250.722 969.292 252.809C943.782 235.119 918.271 216.506 902.251 203.548L969.001 101.313C969.292 100.876 969.511 100.415 969.681 99.9051L1002.67 0.921387H989.876L958.394 95.3187L892.615 196.074C873.9 183.649 837.03 170.06 799.893 158.509C802.976 148.73 810.087 128.516 819.263 117.668C833.268 101.118 854.579 67.4606 855.89 42.4902C856.254 35.6227 855.186 19.8494 853.487 0.921387H841.302C843.025 19.7523 844.094 35.3315 843.754 41.8593C842.661 62.5102 823.34 94.0569 809.99 109.854C799.335 122.425 791.592 144.434 788.266 154.99C746.08 142.323 705.982 132.714 694.574 130.845C686.782 129.559 672.194 130.36 656.198 131.986C648.504 120.702 620.76 79.4969 612.702 59.3555C612.629 59.1857 612.556 58.9673 612.483 58.7974L684.015 35.1617L699.574 46.5185C700.399 47.1251 701.443 47.3435 702.438 47.1494C703.433 46.9553 704.307 46.3243 704.841 45.4507L731.565 0.921387H723.07L700.69 38.2678L686.855 28.1729C685.908 27.4691 684.695 27.2993 683.554 27.6633L610.226 51.8814C606.512 39.4083 602.483 19.7766 598.987 0.921387H586.633C590.055 19.5825 594.109 39.4326 597.944 53.0947C574.642 58.8702 509.324 69.4747 456.604 77.6041L421.942 31.1819L446.579 0.921387H437.186L417.476 25.1881L399.369 0.921387H390.291L448.472 78.8659C429.807 81.7294 413.204 84.1803 401.286 85.9275C400.825 86.0003 400.388 86.1217 399.951 86.2673L342.522 108.641L263.611 0.921387H248.562L331.211 113.761L90.571 233.081L94.6731 178.505L117.489 162.392C120.062 160.572 120.815 157.053 119.213 154.335L28.3115 0.921387H14.1847L105.911 155.718L85.3281 170.254C83.8475 171.298 82.9251 172.948 82.7795 174.744L77.9249 239.341L0.27647 277.853V291.393L78.823 252.445L84.1387 292.243C84.3329 293.602 84.964 294.864 85.9592 295.81L108.606 317.504C100.571 323.814 92.2458 330.9 87.2214 335.219L0.27647 314.204V326.677L85.9592 347.401L118.315 376.133C119.456 377.128 120.888 377.661 122.344 377.661C123.121 377.661 123.897 377.516 124.626 377.225L145.84 368.586L153.534 383.946L132.563 417.095C131.956 418.065 131.616 419.182 131.616 420.346V467.497L118.8 509.284H118.776C107.78 511.249 98.2655 512.924 91.4691 513.725C60.7641 517.292 30.1077 522.315 0.252197 527.338V547.018C30.8844 541.85 62.3661 536.657 93.7022 532.992C99.7461 532.289 107.441 530.978 116.227 529.425V557.817C116.227 558.23 116.276 558.618 116.349 559.03L134.602 649.327L0.27647 685.096V697.642L90.5467 673.618C78.1919 707.081 83.9931 712.493 86.0077 714.41C90.037 718.196 100.207 726.543 106.858 731.955C102.974 750.033 96.2994 769.617 87.7554 790.68L0.27647 797.499V809.681L82.5125 803.25C73.0218 825.454 61.8078 849.236 49.8171 874.594C33.7728 908.543 16.2965 945.598 0.27647 985.129V1040.14C1.66002 1036.19 3.04356 1032.23 4.47565 1028.3C36.2972 1039.83 60.0116 1049.44 66.541 1054.12C64.8662 1060.4 60.6427 1075.11 55.4241 1092.92H68.0702C73.7015 1073.68 78.2162 1057.95 79.0415 1054.19C80.4007 1048.03 76.3229 1043.54 47.4384 1031.67C37.2196 1027.47 24.2337 1022.52 8.69911 1016.92C26.9279 968.506 48.2151 923.492 67.3906 882.893C79.8667 856.491 91.5419 831.788 101.372 808.565C146.35 835.088 187.031 872.41 219.314 916.891C224.726 924.341 229.387 933.028 234.338 942.25C245.14 962.342 256.305 983.09 277.058 994.641C280.141 996.34 283.369 997.796 286.719 999.058L280.651 1092.92H287.957L293.904 1001.36C307.011 1005.05 321.526 1006.39 335.726 1007.7C350.945 1009.08 365.338 1010.39 377.183 1014.37C383.373 1016.46 388.907 1018.35 393.931 1020.07C409.345 1025.36 420.607 1029.25 433.375 1032.04C434.346 1039.29 435.826 1046.31 437.283 1053.15C439.661 1064.29 441.894 1074.82 442.04 1086.3C442.064 1088.53 442.016 1090.74 441.919 1092.92H461.361C461.458 1090.64 461.483 1088.36 461.458 1086.03C461.458 1085.42 461.41 1084.82 461.385 1084.21C475.949 1080.5 518.451 1070.23 539.155 1070.6V1092.92H551.292V1073.34C559.204 1077.17 568.719 1084.94 577.919 1092.92H588.963C576.05 1081.54 562.797 1069.92 551.461 1065.48C552.335 1059.12 556.923 1048.08 561.025 1038.22C562.093 1035.65 563.161 1033.06 564.205 1030.51C564.253 1030.36 564.302 1030.19 564.35 1030.07C571.147 1029.25 578.501 1028.57 586.973 1028.2C626.027 1026.53 675.641 1022.77 725.351 1018.67L691.345 1092.92H704.695L739.187 1017.5C756.129 1016.09 772.95 1014.64 789.261 1013.25C823.389 1010.34 855.623 1007.58 882.906 1005.51C895.527 1004.57 913.174 1003.43 933.029 1002.21C940.553 1032.84 954.437 1063.29 968.151 1092.92H989.536C988.735 1091.17 987.934 1089.43 987.108 1087.7C973.297 1057.88 960.141 1029.51 952.69 1001.05C971.671 999.932 991.744 998.767 1010.75 997.675C1038.66 996.073 1065.29 994.544 1084.88 993.307L1263.65 1092.92H1288.58L1107.04 991.754C1168.04 986.536 1272.34 969.186 1304.28 959.867C1314.55 956.858 1325.06 954.99 1335.28 953.218ZM1267.48 22.6158C1274.06 29.9443 1280.83 37.467 1287.8 44.5043C1298.89 55.7155 1309.62 67.2665 1320.03 79.1814L1266.66 135.043C1256.92 137.154 1184.81 152.782 1152.43 157.684L1267.48 22.6158ZM1105.58 739.866C1104.08 741.589 1102.19 744.355 1099.78 748.019L990.579 692.643L1035.44 600.866C1049.61 610.67 1061.89 619.552 1069.22 625.691C1081.82 636.247 1110.29 656.704 1138.91 676.748C1130.68 694.22 1111.92 732.634 1105.58 739.866ZM397.839 537.215H398.349V501.033C406.189 501.179 418.107 501.276 432.671 501.082L449.516 661.63C420.899 663.814 391.407 666.192 362.256 668.861L323.104 546.873L398.131 543.281L397.839 537.215ZM793.145 505.571L801.98 517.534C802.539 518.262 803.34 518.772 804.238 518.942L833.365 524.402C833.583 524.45 833.802 524.475 834.045 524.475H900.333L934.315 533.332C932.325 566.747 907.106 646.803 904.872 653.792L863.512 733.411C844.045 708.028 776.009 619.673 760.158 603.802C755.037 598.682 745.595 588.272 734.696 575.969C752.464 554.76 772.368 530.808 793.145 505.571ZM721.662 561.166C697.098 533.138 670.98 502.61 670.544 502.101C669.33 500.669 667.218 500.402 665.689 501.494L646.878 514.647L641.659 506.857C641.125 506.056 640.275 505.498 639.305 505.304C638.334 505.134 637.363 505.328 636.562 505.886C628.746 511.298 606.464 525.737 597.434 527.605C587.385 529.692 476.532 540.806 449.322 543.524L444.856 500.888C505.246 499.529 598.818 492.952 649.159 466.987C669.961 456.261 693.627 439.493 717.099 420.71L738.313 446.409C743.507 452.767 765.401 479.387 778.46 492.71C758.289 517.195 738.968 540.466 721.662 561.166ZM797.927 499.796C827.127 464.318 857.832 426.607 886.692 390.596C932.543 442.284 933.369 484.75 933.927 513.288C934 517.729 934.097 521.902 934.34 525.809L901.717 517.316C901.426 517.243 901.11 517.195 900.795 517.195H834.384L807.005 512.05L797.927 499.796ZM945.651 541.68C961.986 552.114 998.905 575.872 1029.39 596.717L984.099 689.367L917.106 655.393C921.451 641.634 941.16 577.886 945.651 541.68ZM946.524 527.848C946.5 527.193 946.5 526.513 946.452 525.906C946.209 522.048 946.112 517.68 946.039 513.069C945.456 482.421 944.583 436.654 894.387 380.986C900.164 373.754 905.868 366.596 911.45 359.583L1097.45 455.703L1034.05 585.19C999.415 561.554 957.908 535.055 946.524 527.848ZM786.203 483.318C777.222 473.927 761.566 455.654 747.707 438.716L726.516 413.066C775.377 372.857 821.666 326.192 837.71 309.666L894.702 349.318C860.72 392.124 822.345 439.347 786.203 483.318ZM714.113 398.045L687.753 366.11L708.555 355.166C710.229 354.293 710.958 352.254 710.205 350.507L696.952 319.688C696.685 319.057 696.248 318.524 695.69 318.135L673.893 303.041L690.374 245.675C696.758 250.65 710.424 258.561 739.041 272.247C759.115 281.832 779.552 290.884 788.339 294.718C788.46 295.203 788.63 295.689 788.873 296.125C789.844 297.994 791.713 299.207 793.825 299.353L818.898 301.124C799.869 320.416 757.707 362.106 714.113 398.045ZM690.69 323.522L702.195 350.289L683.287 360.238L682.704 359.34C671.247 366.814 652.169 378.705 645.737 381.52C642.46 375.793 637.727 350.216 634.984 328.06C634.838 326.968 634.232 325.998 633.285 325.415L598.987 304.303L656.781 311.559C657.436 311.632 658.116 311.535 658.723 311.268L667.388 307.385L690.69 323.522ZM627.969 330.705C630.542 351.114 635.639 383.946 642.193 388.339C643.067 388.921 644.038 389.237 645.033 389.237C645.446 389.237 645.882 389.188 646.295 389.067C651.101 387.756 666.199 378.511 676.757 371.837L704.72 405.714C682.219 423.72 659.742 439.687 640.275 449.733C593.259 474 501.508 480.115 442.817 481.426L417.161 236.939L582.409 302.677L627.969 330.705ZM349.877 670.026C320.167 672.841 290.991 675.947 263.781 679.442C256.329 680.388 249.242 681.359 242.47 682.329C244.533 665.27 248.417 646.245 252.227 627.681C256.791 605.404 261.475 582.618 263.344 561.87L311.259 549.785L349.877 670.026ZM267.325 698.564C295.287 694.997 325.361 691.818 355.969 688.954L394.538 809.099L336.381 827.711L245.14 701.573C252.082 700.578 259.485 699.583 267.325 698.564ZM398.228 820.649L428.763 915.775L432.816 961.081L343.833 838.049L398.228 820.649ZM396.966 777.018L368.324 687.814C396.14 685.29 424.248 683.033 451.531 680.946L461.143 772.504L396.966 777.018ZM450.099 550.756C477.77 547.989 588.405 536.899 598.939 534.715C609.012 532.628 629.814 519.185 637.678 513.943L642.921 521.757C643.455 522.558 644.305 523.14 645.276 523.31C646.247 523.48 647.242 523.261 648.043 522.703L667.194 509.332C674.16 517.462 696.176 543.112 716.953 566.82C682.85 607.54 657.315 637.29 649.985 644.837C639.28 647.944 581.001 652.117 524.592 656.146C504.639 657.577 483.474 659.082 461.652 660.708L450.099 550.756ZM525.951 675.51C641.149 667.26 656.441 665.513 662.339 659.907C668.602 653.937 694.646 623.701 729.963 581.623C740.619 593.635 749.867 603.827 755.013 608.971C770.96 624.915 843.996 719.918 859.798 740.569L801.422 852.924L600.638 763.453C599.716 763.04 598.745 762.87 597.75 762.943L473.255 771.679L463.643 680.073C485.245 678.422 506.193 676.918 525.951 675.51ZM869.434 748.335C889.362 758.624 958.248 793.592 1004.51 809.244L954.462 921.113L812.539 857.85L869.434 748.335ZM872.784 741.856L914.217 662.091L1095.8 754.183C1083.76 772.868 1062.28 805.434 1040.9 809.438C1018.01 813.758 916.548 764.545 872.784 741.856ZM1142.48 664.421C1115.22 645.274 1088.74 626.201 1077.04 616.397C1069.71 610.257 1057.84 601.618 1044.15 592.13L1108.25 461.212C1108.96 461.503 1109.69 461.745 1110.41 461.867L1184.06 473.636C1182.55 484.799 1180.59 495.33 1177.77 503.241C1169.01 528.018 1147.02 642.435 1146.02 648.235C1145.42 651.85 1143.86 658.645 1142.48 664.421ZM1292.02 592.446C1287.34 601.206 1281.49 613.412 1274.69 627.56C1259.79 658.597 1235.76 708.659 1222.55 719.7C1216.9 715.842 1183.13 692.885 1148.89 668.934C1150.42 662.625 1152.45 653.913 1153.21 649.472C1154.2 643.721 1176.02 530.08 1184.64 505.692C1187.65 497.199 1189.71 486.352 1191.27 474.825L1315.49 494.7C1311.08 527.824 1303.07 571.77 1292.02 592.446ZM1233.86 359.364C1279.5 405.228 1318.36 446.967 1319.5 454.15C1319.5 457.402 1318.94 465.094 1317.85 475.335L1193.43 455.436C1194.08 448.253 1194.62 441.167 1195.13 434.542C1195.73 426.34 1196.27 419.23 1196.92 413.867C1198.62 399.137 1222.19 371.668 1233.86 359.364ZM1160.93 320.271C1172.09 320.271 1183.26 320.174 1194.06 320.004C1205.66 331.288 1217.36 342.839 1228.72 354.22C1220.08 363.344 1191.87 394.357 1189.66 413.042C1189.01 418.575 1188.47 425.734 1187.84 434.033C1187.38 440.294 1186.85 447.234 1186.19 454.32L1115.68 443.036L1138.35 373.463C1138.55 372.857 1138.64 372.226 1138.64 371.595V320.149C1146 320.222 1153.45 320.271 1160.93 320.271ZM989.439 258.124C1004.95 236.721 1023.13 210.149 1042.69 181.126L1050.44 185.761C1095.51 220.486 1143.11 260.648 1145.92 268.68C1145.17 271.446 1144.23 272.684 1142.84 274.504C1140.25 277.925 1137.02 282.172 1133.91 296.198C1132.99 300.372 1132.24 304.206 1131.63 307.725C1091.43 307.07 1056.77 305.347 1049.59 302.944C1040.85 300.032 1014.46 283.507 985.336 263.778C986.72 261.861 988.104 259.944 989.439 258.124ZM978.055 273.582C1007.91 293.82 1035.48 311.049 1045.73 314.471C1054.73 317.48 1087.86 319.324 1126.53 319.98V370.624L1104.71 437.6L923.708 344.076C944.413 317.796 963.078 293.674 978.055 273.582ZM895.576 213.74C911.475 226.504 936.597 244.923 962.035 262.589C946.889 282.852 927.907 307.361 906.814 334.078L845.064 291.126L895.576 213.74ZM885.988 206.242L832.515 288.142C831.617 288.53 830.792 289.088 830.04 289.768L804.262 287.948C811.495 274.844 823.996 250.48 824.311 238.104C824.627 226.068 814.092 192.385 807.903 173.773C840.234 184.159 870.551 195.783 885.988 206.242ZM692.632 142.809C704.21 144.701 748.969 155.524 793.606 169.235C801.665 192.725 812.466 227.839 812.199 237.764C811.956 247.277 799.31 272.368 790.475 287.705C744.624 267.733 697.146 244.462 692.462 237.837C693.044 226.553 671.587 173.045 659.451 143.828C673.845 142.396 686.297 141.765 692.632 142.809ZM685.301 236.963V236.988L667.315 299.62C666.975 299.668 666.636 299.741 666.296 299.887L656.684 304.206L582.676 294.912L416.335 228.737L414.636 212.575L589.206 153.607C602.556 151.302 628.722 147.177 651.951 144.58C669.257 186.343 686.054 231.188 685.301 236.963ZM403.713 97.8182C416.724 95.9254 562.36 74.5465 601.779 64.6214C609.668 83.7435 631.974 117.765 642.581 133.49C615.444 136.79 588.599 141.425 586.633 141.765C586.317 141.814 586.026 141.886 585.735 141.984L410.34 201.218L349.949 118.76L403.713 97.8182ZM338.493 123.686L399.174 206.533L362.328 214.298L339.027 204.033L307.569 180.179L286.233 149.628L338.493 123.686ZM95.911 288.53L90.3283 246.743L123.946 230.072C126.834 262.977 128.242 297.63 125.912 305.395C123.922 306.414 121.349 308.089 118.46 310.127L95.911 288.53ZM146.981 354.632L142.442 356.913L142.418 356.889L123.558 364.557L98.0956 341.941C112.465 329.686 128.169 317.286 131.81 316.024C137.272 314.107 140.937 309.181 138.437 262.832C137.636 247.738 136.374 232.717 135.597 224.32L279.631 152.904L301.914 184.838C302.132 185.154 302.399 185.421 302.69 185.664L334.949 210.124C335.167 210.294 335.41 210.44 335.677 210.561L360.459 221.481C360.921 221.675 361.43 221.797 361.916 221.797C362.159 221.797 362.426 221.772 362.668 221.724L402.451 213.352L411.02 294.936L246.572 338.446L207.42 350.798C206.813 350.992 206.279 351.332 205.842 351.793L183.875 375.477L161.472 383.631L146.981 354.632ZM143.51 470.166C143.68 469.584 143.777 469.001 143.777 468.394V422.094L163.729 390.523L187.201 381.981C187.735 381.787 188.22 381.447 188.633 381.034L210.551 357.399L248.611 345.387L411.821 302.216L430.656 481.62C405.971 481.935 389.538 481.426 388.98 481.401C386.383 481.28 383.786 482.299 381.917 484.119C380.023 485.939 378.955 488.463 378.955 491.108V532.046L321.599 534.788C321.186 534.812 320.798 534.861 320.409 534.958L264.145 549.154C264.291 544.543 264.267 540.078 264 535.783C263.369 525.688 258.951 517.122 251.208 511.055C227.469 492.394 175.137 499.48 132.247 506.906L143.51 470.166ZM128.412 557.235V527.29C165.258 520.786 220.818 511.856 239.217 526.319C242.615 528.988 244.339 532.386 244.63 536.996C245.771 555.415 242.203 578.468 237.591 602.128L207.25 630.01L146.398 646.196L128.412 557.235ZM94.9401 706.111C94.2605 701.694 98.7752 685.557 105.086 669.759L137.053 661.242L145.306 702.228C126.689 708.368 117.004 714.483 112.004 720.477C106.033 715.599 98.5325 709.411 94.9401 706.111ZM151.593 819.218C137.83 808.565 123.509 798.931 108.751 790.389C116.519 770.514 122.635 751.756 126.276 734.115C126.519 733.144 128.898 728.024 150.403 720.938C151.69 734.818 153.971 758.527 155.67 769.495C157.2 779.566 153.947 804.027 151.593 819.218ZM148.777 658.135L211.789 641.367C212.736 641.125 213.609 640.639 214.338 639.96L233.513 622.342C233.416 622.827 233.319 623.313 233.222 623.774C228.95 644.595 224.556 666.046 222.59 685.29C194.458 689.731 173.123 694.22 156.981 698.685L148.777 658.135ZM235.018 905.486C212.808 874.885 186.788 847.513 158.171 824.411C160.549 809.584 164.724 780.488 162.855 768.403C161.156 757.338 158.753 732.27 157.515 718.729C173.123 714.167 196.521 708.95 231.571 703.563L325.725 833.729L235.819 906.626C235.528 906.262 235.285 905.85 235.018 905.486ZM400.242 1001.7C395.145 999.956 389.587 998.039 383.349 995.952C369.343 991.268 353.153 989.788 337.497 988.356C318.832 986.658 299.559 984.886 286.525 977.655C270.747 968.894 261.378 951.471 251.475 933.053C248.586 927.665 245.601 922.205 242.445 916.915L332.861 843.606L434.855 984.595L435.996 1012.77C425.001 1010.2 414.709 1006.68 400.242 1001.7ZM549.787 1033.57C545.151 1044.73 540.757 1055.36 539.519 1063.36C517.989 1062.98 476.92 1072.78 460.948 1076.81C460.075 1067.05 458.157 1057.98 456.264 1049.12C455.269 1044.46 454.322 1039.9 453.521 1035.39C462.017 1036.4 471.75 1037.13 483.668 1037.67C487.746 1037.84 491.556 1037.93 495.222 1037.93C514.518 1037.93 528.451 1035.63 543.087 1033.23C545.49 1032.84 547.942 1032.42 550.418 1032.04C550.199 1032.55 550.005 1033.06 549.787 1033.57ZM539.932 1014.05C522.844 1016.87 508.086 1019.3 484.542 1018.25C469.201 1017.57 457.939 1016.6 448.23 1015.07L446.895 982.265C446.895 982.168 446.846 982.071 446.846 981.974H446.87L440.778 914.028C440.729 913.591 440.657 913.13 440.511 912.717L400.776 788.909L587.943 775.756C570.855 809.851 527.31 899.273 530.708 918.857C531.873 925.554 534.956 937.081 538.5 950.452C543.015 967.39 550.345 994.908 552.748 1012.02C548.355 1012.7 544.107 1013.38 539.932 1014.05ZM734.575 998.403C681.49 1002.84 627.678 1006.99 586.099 1008.79C578.162 1009.13 571.195 1009.74 564.763 1010.46C562.773 995.151 557.238 973.481 550.272 947.346C546.777 934.266 543.767 922.958 542.699 916.794C540.49 904.103 574.642 829.118 601.002 776.848L796.131 863.796L734.575 998.403ZM1009.66 978.286C962.811 980.979 909.703 984.037 881.425 986.148C854.045 988.211 821.763 990.977 787.587 993.889C774.795 994.981 761.663 996.097 748.435 997.214L807.199 868.722L1048.03 976.053C1035.95 976.781 1022.96 977.533 1009.66 978.286ZM1095.12 973.214C1089.22 973.602 1082.18 974.039 1074.34 974.524L961.137 924.074L1011.5 811.525C1022.43 814.922 1031.72 816.961 1038.23 816.961C1039.73 816.961 1041.07 816.864 1042.26 816.621C1066.77 812.035 1088.62 778.838 1102.02 758.041L1335.11 933.538C1334.4 933.659 1333.7 933.781 1332.99 933.902C1321.93 935.843 1310.49 937.833 1298.84 941.23C1266.51 950.646 1151.63 969.453 1095.12 973.214Z" fill="url(#paint40_radial)"/>
</g>
<defs>
<radialGradient id="paint0_radial" cx="0" cy="0" r="1" gradientUnits="userSpaceOnUse" gradientTransform="translate(667.776 546.934) rotate(90) scale(546.012 667.5)">
<stop stop-color="#929292"/>
<stop offset="1" stop-color="#C4C4C4" stop-opacity="0"/>
</radialGradient>
<radialGradient id="paint1_radial" cx="0" cy="0" r="1" gradientUnits="userSpaceOnUse" gradientTransform="translate(667.776 546.934) rotate(90) scale(546.012 667.5)">
<stop stop-color="#929292"/>
<stop offset="1" stop-color="#C4C4C4" stop-opacity="0"/>
</radialGradient>
<radialGradient id="paint2_radial" cx="0" cy="0" r="1" gradientUnits="userSpaceOnUse" gradientTransform="translate(667.776 546.934) rotate(90) scale(546.012 667.5)">
<stop stop-color="#929292"/>
<stop offset="1" stop-color="#C4C4C4" stop-opacity="0"/>
</radialGradient>
<radialGradient id="paint3_radial" cx="0" cy="0" r="1" gradientUnits="userSpaceOnUse" gradientTransform="translate(667.776 546.934) rotate(90) scale(546.012 667.5)">
<stop stop-color="#929292"/>
<stop offset="1" stop-color="#C4C4C4" stop-opacity="0"/>
</radialGradient>
<radialGradient id="paint4_radial" cx="0" cy="0" r="1" gradientUnits="userSpaceOnUse" gradientTransform="translate(667.776 546.934) rotate(90) scale(546.012 667.5)">
<stop stop-color="#929292"/>
<stop offset="1" stop-color="#C4C4C4" stop-opacity="0"/>
</radialGradient>
<radialGradient id="paint5_radial" cx="0" cy="0" r="1" gradientUnits="userSpaceOnUse" gradientTransform="translate(667.776 546.934) rotate(90) scale(546.012 667.5)">
<stop stop-color="#929292"/>
<stop offset="1" stop-color="#C4C4C4" stop-opacity="0"/>
</radialGradient>
<radialGradient id="paint6_radial" cx="0" cy="0" r="1" gradientUnits="userSpaceOnUse" gradientTransform="translate(667.776 546.934) rotate(90) scale(546.012 667.5)">
<stop stop-color="#929292"/>
<stop offset="1" stop-color="#C4C4C4" stop-opacity="0"/>
</radialGradient>
<radialGradient id="paint7_radial" cx="0" cy="0" r="1" gradientUnits="userSpaceOnUse" gradientTransform="translate(667.776 546.934) rotate(90) scale(546.012 667.5)">
<stop stop-color="#929292"/>
<stop offset="1" stop-color="#C4C4C4" stop-opacity="0"/>
</radialGradient>
<radialGradient id="paint8_radial" cx="0" cy="0" r="1" gradientUnits="userSpaceOnUse" gradientTransform="translate(667.776 546.934) rotate(90) scale(546.012 667.5)">
<stop stop-color="#929292"/>
<stop offset="1" stop-color="#C4C4C4" stop-opacity="0"/>
</radialGradient>
<radialGradient id="paint9_radial" cx="0" cy="0" r="1" gradientUnits="userSpaceOnUse" gradientTransform="translate(667.776 546.934) rotate(90) scale(546.012 667.5)">
<stop stop-color="#929292"/>
<stop offset="1" stop-color="#C4C4C4" stop-opacity="0"/>
</radialGradient>
<radialGradient id="paint10_radial" cx="0" cy="0" r="1" gradientUnits="userSpaceOnUse" gradientTransform="translate(667.776 546.934) rotate(90) scale(546.012 667.5)">
<stop stop-color="#929292"/>
<stop offset="1" stop-color="#C4C4C4" stop-opacity="0"/>
</radialGradient>
<radialGradient id="paint11_radial" cx="0" cy="0" r="1" gradientUnits="userSpaceOnUse" gradientTransform="translate(667.776 546.934) rotate(90) scale(546.012 667.5)">
<stop stop-color="#929292"/>
<stop offset="1" stop-color="#C4C4C4" stop-opacity="0"/>
</radialGradient>
<radialGradient id="paint12_radial" cx="0" cy="0" r="1" gradientUnits="userSpaceOnUse" gradientTransform="translate(667.776 546.934) rotate(90) scale(546.012 667.5)">
<stop stop-color="#929292"/>
<stop offset="1" stop-color="#C4C4C4" stop-opacity="0"/>
</radialGradient>
<radialGradient id="paint13_radial" cx="0" cy="0" r="1" gradientUnits="userSpaceOnUse" gradientTransform="translate(667.776 546.934) rotate(90) scale(546.012 667.5)">
<stop stop-color="#929292"/>
<stop offset="1" stop-color="#C4C4C4" stop-opacity="0"/>
</radialGradient>
<radialGradient id="paint14_radial" cx="0" cy="0" r="1" gradientUnits="userSpaceOnUse" gradientTransform="translate(667.776 546.934) rotate(90) scale(546.012 667.5)">
<stop stop-color="#929292"/>
<stop offset="1" stop-color="#C4C4C4" stop-opacity="0"/>
</radialGradient>
<radialGradient id="paint15_radial" cx="0" cy="0" r="1" gradientUnits="userSpaceOnUse" gradientTransform="translate(667.776 546.934) rotate(90) scale(546.012 667.5)">
<stop stop-color="#929292"/>
<stop offset="1" stop-color="#C4C4C4" stop-opacity="0"/>
</radialGradient>
<radialGradient id="paint16_radial" cx="0" cy="0" r="1" gradientUnits="userSpaceOnUse" gradientTransform="translate(667.776 546.934) rotate(90) scale(546.012 667.5)">
<stop stop-color="#929292"/>
<stop offset="1" stop-color="#C4C4C4" stop-opacity="0"/>
</radialGradient>
<radialGradient id="paint17_radial" cx="0" cy="0" r="1" gradientUnits="userSpaceOnUse" gradientTransform="translate(667.776 546.934) rotate(90) scale(546.012 667.5)">
<stop stop-color="#929292"/>
<stop offset="1" stop-color="#C4C4C4" stop-opacity="0"/>
</radialGradient>
<radialGradient id="paint18_radial" cx="0" cy="0" r="1" gradientUnits="userSpaceOnUse" gradientTransform="translate(667.776 546.934) rotate(90) scale(546.012 667.5)">
<stop stop-color="#929292"/>
<stop offset="1" stop-color="#C4C4C4" stop-opacity="0"/>
</radialGradient>
<radialGradient id="paint19_radial" cx="0" cy="0" r="1" gradientUnits="userSpaceOnUse" gradientTransform="translate(667.776 546.934) rotate(90) scale(546.012 667.5)">
<stop stop-color="#929292"/>
<stop offset="1" stop-color="#C4C4C4" stop-opacity="0"/>
</radialGradient>
<radialGradient id="paint20_radial" cx="0" cy="0" r="1" gradientUnits="userSpaceOnUse" gradientTransform="translate(667.776 546.934) rotate(90) scale(546.012 667.5)">
<stop stop-color="#929292"/>
<stop offset="1" stop-color="#C4C4C4" stop-opacity="0"/>
</radialGradient>
<radialGradient id="paint21_radial" cx="0" cy="0" r="1" gradientUnits="userSpaceOnUse" gradientTransform="translate(667.776 546.934) rotate(90) scale(546.012 667.5)">
<stop stop-color="#929292"/>
<stop offset="1" stop-color="#C4C4C4" stop-opacity="0"/>
</radialGradient>
<radialGradient id="paint22_radial" cx="0" cy="0" r="1" gradientUnits="userSpaceOnUse" gradientTransform="translate(667.776 546.934) rotate(90) scale(546.012 667.5)">
<stop stop-color="#929292"/>
<stop offset="1" stop-color="#C4C4C4" stop-opacity="0"/>
</radialGradient>
<radialGradient id="paint23_radial" cx="0" cy="0" r="1" gradientUnits="userSpaceOnUse" gradientTransform="translate(667.776 546.934) rotate(90) scale(546.012 667.5)">
<stop stop-color="#929292"/>
<stop offset="1" stop-color="#C4C4C4" stop-opacity="0"/>
</radialGradient>
<radialGradient id="paint24_radial" cx="0" cy="0" r="1" gradientUnits="userSpaceOnUse" gradientTransform="translate(667.776 546.934) rotate(90) scale(546.012 667.5)">
<stop stop-color="#929292"/>
<stop offset="1" stop-color="#C4C4C4" stop-opacity="0"/>
</radialGradient>
<radialGradient id="paint25_radial" cx="0" cy="0" r="1" gradientUnits="userSpaceOnUse" gradientTransform="translate(667.776 546.934) rotate(90) scale(546.012 667.5)">
<stop stop-color="#929292"/>
<stop offset="1" stop-color="#C4C4C4" stop-opacity="0"/>
</radialGradient>
<radialGradient id="paint26_radial" cx="0" cy="0" r="1" gradientUnits="userSpaceOnUse" gradientTransform="translate(667.776 546.934) rotate(90) scale(546.012 667.5)">
<stop stop-color="#929292"/>
<stop offset="1" stop-color="#C4C4C4" stop-opacity="0"/>
</radialGradient>
<radialGradient id="paint27_radial" cx="0" cy="0" r="1" gradientUnits="userSpaceOnUse" gradientTransform="translate(667.776 546.934) rotate(90) scale(546.012 667.5)">
<stop stop-color="#929292"/>
<stop offset="1" stop-color="#C4C4C4" stop-opacity="0"/>
</radialGradient>
<radialGradient id="paint28_radial" cx="0" cy="0" r="1" gradientUnits="userSpaceOnUse" gradientTransform="translate(667.776 546.934) rotate(90) scale(546.012 667.5)">
<stop stop-color="#929292"/>
<stop offset="1" stop-color="#C4C4C4" stop-opacity="0"/>
</radialGradient>
<radialGradient id="paint29_radial" cx="0" cy="0" r="1" gradientUnits="userSpaceOnUse" gradientTransform="translate(667.776 546.934) rotate(90) scale(546.012 667.5)">
<stop stop-color="#929292"/>
<stop offset="1" stop-color="#C4C4C4" stop-opacity="0"/>
</radialGradient>
<radialGradient id="paint30_radial" cx="0" cy="0" r="1" gradientUnits="userSpaceOnUse" gradientTransform="translate(667.776 546.934) rotate(90) scale(546.012 667.5)">
<stop stop-color="#929292"/>
<stop offset="1" stop-color="#C4C4C4" stop-opacity="0"/>
</radialGradient>
<radialGradient id="paint31_radial" cx="0" cy="0" r="1" gradientUnits="userSpaceOnUse" gradientTransform="translate(667.776 546.934) rotate(90) scale(546.012 667.5)">
<stop stop-color="#929292"/>
<stop offset="1" stop-color="#C4C4C4" stop-opacity="0"/>
</radialGradient>
<radialGradient id="paint32_radial" cx="0" cy="0" r="1" gradientUnits="userSpaceOnUse" gradientTransform="translate(667.776 546.934) rotate(90) scale(546.012 667.5)">
<stop stop-color="#929292"/>
<stop offset="1" stop-color="#C4C4C4" stop-opacity="0"/>
</radialGradient>
<radialGradient id="paint33_radial" cx="0" cy="0" r="1" gradientUnits="userSpaceOnUse" gradientTransform="translate(667.776 546.934) rotate(90) scale(546.012 667.5)">
<stop stop-color="#929292"/>
<stop offset="1" stop-color="#C4C4C4" stop-opacity="0"/>
</radialGradient>
<radialGradient id="paint34_radial" cx="0" cy="0" r="1" gradientUnits="userSpaceOnUse" gradientTransform="translate(667.776 546.934) rotate(90) scale(546.012 667.5)">
<stop stop-color="#929292"/>
<stop offset="1" stop-color="#C4C4C4" stop-opacity="0"/>
</radialGradient>
<radialGradient id="paint35_radial" cx="0" cy="0" r="1" gradientUnits="userSpaceOnUse" gradientTransform="translate(667.776 546.934) rotate(90) scale(546.012 667.5)">
<stop stop-color="#929292"/>
<stop offset="1" stop-color="#C4C4C4" stop-opacity="0"/>
</radialGradient>
<radialGradient id="paint36_radial" cx="0" cy="0" r="1" gradientUnits="userSpaceOnUse" gradientTransform="translate(667.776 546.934) rotate(90) scale(546.012 667.5)">
<stop stop-color="#929292"/>
<stop offset="1" stop-color="#C4C4C4" stop-opacity="0"/>
</radialGradient>
<radialGradient id="paint37_radial" cx="0" cy="0" r="1" gradientUnits="userSpaceOnUse" gradientTransform="translate(667.776 546.934) rotate(90) scale(546.012 667.5)">
<stop stop-color="#929292"/>
<stop offset="1" stop-color="#C4C4C4" stop-opacity="0"/>
</radialGradient>
<radialGradient id="paint38_radial" cx="0" cy="0" r="1" gradientUnits="userSpaceOnUse" gradientTransform="translate(667.776 546.934) rotate(90) scale(546.012 667.5)">
<stop stop-color="#929292"/>
<stop offset="1" stop-color="#C4C4C4" stop-opacity="0"/>
</radialGradient>
<radialGradient id="paint39_radial" cx="0" cy="0" r="1" gradientUnits="userSpaceOnUse" gradientTransform="translate(667.776 546.934) rotate(90) scale(546.012 667.5)">
<stop stop-color="#929292"/>
<stop offset="1" stop-color="#C4C4C4" stop-opacity="0"/>
</radialGradient>
<radialGradient id="paint40_radial" cx="0" cy="0" r="1" gradientUnits="userSpaceOnUse" gradientTransform="translate(667.801 546.921) rotate(90) scale(546 667.549)">
<stop stop-color="#949494"/>
<stop offset="1" stop-color="#C4C4C4" stop-opacity="0"/>
</radialGradient>
<clipPath id="clip0">
<rect width="1335" height="1092" fill="white" transform="translate(0.276367 0.921387)"/>
</clipPath>
</defs>
</svg>
